<?xml version="1.0" encoding="utf-8"?><svg xmlns="http://www.w3.org/2000/svg" xmlns:xlink="http://www.w3.org/1999/xlink"><symbol fill="none" viewBox="0 0 14 11" id="arrow-blue" xmlns="http://www.w3.org/2000/svg"><path d="M6.452 10.046a.665.665 0 001.096 0l6-8.667A.666.666 0 0013 .333H1A.668.668 0 00.452 1.38l6 8.667z" fill="#6776FF"/></symbol><symbol fill="none" viewBox="0 0 18 21" id="bell" xmlns="http://www.w3.org/2000/svg"><g clip-path="url(#bclip0_871_21662)"><path d="M9 21c1.42 0 2.57-1.175 2.57-2.625H6.43C6.43 19.825 7.58 21 9 21zm8.654-6.14c-.776-.852-2.229-2.133-2.229-6.329 0-3.187-2.189-5.738-5.14-6.364v-.854C10.285.588 9.71 0 9 0S7.715.588 7.715 1.313v.854c-2.951.626-5.14 3.177-5.14 6.364 0 4.196-1.453 5.477-2.229 6.329-.241.264-.348.58-.346.89.004.673.522 1.313 1.29 1.313h15.42c.768 0 1.286-.64 1.29-1.313a1.295 1.295 0 00-.346-.89z" fill="#2F2F2F"/></g><defs><clipPath id="bclip0_871_21662"><path fill="#fff" d="M0 0h18v21H0z"/></clipPath></defs></symbol><symbol fill="none" viewBox="0 0 33 33" id="bookmark" xmlns="http://www.w3.org/2000/svg"><g clip-path="url(#cclip0_754_2063)"><path fill-rule="evenodd" clip-rule="evenodd" d="M4.125 31.969V4.125A4.125 4.125 0 018.25 0h16.5a4.125 4.125 0 014.125 4.125v27.844a1.032 1.032 0 01-1.526.905L16.5 26.954l-10.849 5.92a1.032 1.032 0 01-1.526-.905zm18.261-19.895a1.033 1.033 0 00-1.46-1.46l-5.457 5.46-2.364-2.367a1.033 1.033 0 10-1.46 1.46l3.094 3.094a1.032 1.032 0 001.46 0l6.187-6.187z" fill="#FFA319"/></g><defs><clipPath id="cclip0_754_2063"><path fill="#fff" d="M0 0h33v33H0z"/></clipPath></defs></symbol><symbol fill="none" viewBox="0 0 21 24" id="calendar" xmlns="http://www.w3.org/2000/svg"><path d="M4.5 1.5a1.5 1.5 0 113 0V3h6V1.5a1.5 1.5 0 113 0V3h2.25A2.25 2.25 0 0121 5.25V7.5H0V5.25A2.25 2.25 0 012.25 3H4.5V1.5zM21 21.75A2.25 2.25 0 0118.75 24H2.25A2.25 2.25 0 010 21.75V9h21v12.75z" fill="#6776FF"/></symbol><symbol fill="none" viewBox="0 0 25 24" id="clock" xmlns="http://www.w3.org/2000/svg"><path d="M12.5 24C5.596 24 0 18.628 0 12S5.596 0 12.5 0 25 5.372 25 12s-5.596 12-12.5 12zm-1.172-12c0 .375.195.727.523.895l4.687 3c.537.385 1.265.244 1.582-.272.4-.515.254-1.214-.283-1.56L13.672 11.4V5.625c0-.623-.523-1.125-1.216-1.125-.605 0-1.172.502-1.172 1.125L11.328 12z" fill="#6776FF"/></symbol><symbol fill="none" viewBox="0 0 26 24" id="clock-sand" xmlns="http://www.w3.org/2000/svg"><path d="M7.2 0a2 2 0 00-2 2v4.324a2 2 0 00.644 1.47l2.964 2.736a2 2 0 010 2.94l-2.964 2.736a2 2 0 00-.644 1.47V22a2 2 0 002 2h11.6a2 2 0 002-2v-4.324a2 2 0 00-.643-1.47l-2.965-2.736a2 2 0 010-2.94l2.965-2.736a2 2 0 00.643-1.47V2a2 2 0 00-2-2H7.2z" fill="#6776FF"/></symbol><symbol fill="none" viewBox="0 0 24 24" id="download-white" xmlns="http://www.w3.org/2000/svg"><g clip-path="url(#gclip0_794_28146)"><path d="M6.246 10.204a.862.862 0 01.629-1.411.87.87 0 01.593.195l3.675 3.67V1.775A.852.852 0 0112 .923a.86.86 0 01.857.853v10.881l3.675-3.67a.87.87 0 011.418.626.861.861 0 01-.196.59l-5.143 5.12a.88.88 0 01-1.222 0l-5.143-5.12zM24 15.569v6.827a1.7 1.7 0 01-.502 1.207c-.322.32-.758.5-1.212.5H1.714c-.454 0-.89-.18-1.212-.5A1.703 1.703 0 010 22.396v-6.827c0-.452.18-.887.502-1.207.322-.32.758-.5 1.212-.5H7.33a.387.387 0 01.3.129l2.55 2.538a2.588 2.588 0 003.642 0l2.55-2.538a.386.386 0 01.3-.128h5.615c.454 0 .89.18 1.212.5.321.32.502.754.502 1.206zm-4.286 3.414a1.275 1.275 0 00-.793-1.183 1.29 1.29 0 00-1.402.277 1.278 1.278 0 00.91 2.186 1.282 1.282 0 001.285-1.28z" fill="#fff"/></g><defs><clipPath id="gclip0_794_28146"><path fill="#fff" d="M0 0h24v24H0z"/></clipPath></defs></symbol><symbol fill="none" viewBox="0 0 16 16" id="enter" xmlns="http://www.w3.org/2000/svg"><path fill-rule="evenodd" clip-rule="evenodd" d="M6.604.361A2.25 2.25 0 019.5 2.516v10.968a2.25 2.25 0 01-2.896 2.155l-4.5-1.35A2.25 2.25 0 01.5 12.134V3.866a2.25 2.25 0 011.603-2.155l4.5-1.35zM10.25 2a.75.75 0 01.75-.75h2.25A2.25 2.25 0 0115.5 3.5v.75a.75.75 0 11-1.5 0V3.5a.75.75 0 00-.75-.75H11a.75.75 0 01-.75-.75zm4.5 9a.75.75 0 01.75.75v.75a2.25 2.25 0 01-2.25 2.25H11a.75.75 0 110-1.5h2.25a.75.75 0 00.75-.75v-.75a.75.75 0 01.75-.75zm-9-3.75a.75.75 0 000 1.5.75.75 0 000-1.5z" fill="#6776FF"/></symbol><symbol fill="none" viewBox="0 0 22 22" id="filter" xmlns="http://www.w3.org/2000/svg"><path d="M1.833 5.041a1.375 1.375 0 011.375-1.375h15.584a1.375 1.375 0 110 2.75H3.208a1.375 1.375 0 01-1.375-1.375zm3.667 5.5a1.375 1.375 0 011.375-1.375h8.25a1.375 1.375 0 010 2.75h-8.25A1.375 1.375 0 015.5 10.541zm4.125 4.125a1.375 1.375 0 000 2.75h2.75a1.375 1.375 0 000-2.75h-2.75z" fill="#2F2F2F"/></symbol><symbol fill="none" viewBox="0 0 47 47" id="ok" xmlns="http://www.w3.org/2000/svg"><path d="M19.325 15.223c0-2.319 1.878-4.197 4.175-4.197 2.297 0 4.175 1.878 4.175 4.197a4.18 4.18 0 01-4.175 4.175 4.186 4.186 0 01-4.175-4.175zM47 5.036v36.928A5.037 5.037 0 0141.964 47H5.036A5.037 5.037 0 010 41.964V5.036A5.037 5.037 0 015.036 0h36.928A5.037 5.037 0 0147 5.036zM14.992 15.223c0 4.679 3.819 8.487 8.508 8.487 4.69 0 8.508-3.798 8.508-8.488 0-4.7-3.819-8.508-8.508-8.508a8.507 8.507 0 00-8.508 8.508zm18.307 9.515c-.483-.955-1.815-1.763-3.578-.378 0 0-2.381 1.889-6.221 1.889-3.84 0-6.221-1.889-6.221-1.889-1.763-1.385-3.095-.577-3.578.378-.829 1.689.116 2.486 2.245 3.882 1.815 1.164 4.323 1.594 5.938 1.762l-1.353 1.353c-1.91 1.889-3.724 3.725-5.004 5.005-1.847 1.846 1.122 4.805 2.98 3l5.003-5.025c1.91 1.91 3.746 3.745 5.005 5.025 1.846 1.805 4.826-1.122 3-3l-5.004-5.005-1.364-1.353c1.626-.168 4.102-.619 5.896-1.762 2.14-1.396 3.074-2.204 2.256-3.882z" fill="#6776FF"/></symbol><symbol fill="none" viewBox="0 0 25 24" id="pc-test" xmlns="http://www.w3.org/2000/svg"><path d="M6.963 22h11.926" stroke="#fff" stroke-width="2" stroke-linecap="round" stroke-linejoin="round"/><path d="M1 16.441V3.06c0-.546.242-1.07.674-1.456A2.444 2.444 0 013.3 1h18.4c.61 0 1.195.217 1.626.603.432.386.674.91.674 1.456V16.44c0 .546-.242 1.07-.674 1.456a2.443 2.443 0 01-1.626.603H3.3c-.61 0-1.195-.217-1.626-.603A1.956 1.956 0 011 16.441z" fill="#fff" stroke="#fff" stroke-width="2"/><path d="M10 10.159l1.775 1.969 3.55-3.938" stroke="#6776FF" stroke-width="2" stroke-linecap="round" stroke-linejoin="round"/></symbol><symbol fill="none" viewBox="0 0 18 22" id="profile" xmlns="http://www.w3.org/2000/svg"><path d="M12.833 13.776L9 17.876l-3.833-4.1C2.294 13.91 0 16.423 0 19.526v.412C0 21.076.864 22 1.929 22H16.07c1.066 0 1.93-.924 1.93-2.062v-.413c0-3.102-2.294-5.616-5.167-5.749zM.546 3.43l.258.064v2.51a1.03 1.03 0 00-.483.872c0 .36.185.661.446.846L.141 10.4c-.069.296.084.602.305.602h1.68c.22 0 .373-.306.305-.602l-.627-2.677c.261-.185.446-.485.446-.846 0-.378-.2-.692-.482-.872v-2.26l2.652.683a5.764 5.764 0 00-.563 2.449c0 3.037 2.302 5.5 5.143 5.5 2.84 0 5.143-2.463 5.143-5.5 0-.885-.213-1.71-.563-2.45l3.87-.996a.692.692 0 000-1.354L9.8.1a3.234 3.234 0 00-1.596 0L.546 2.072a.695.695 0 000 1.358z" fill="#2F2F2F"/></symbol><symbol fill="none" viewBox="0 0 21 25" id="profile-blue" xmlns="http://www.w3.org/2000/svg"><path d="M14.972 15.655L10.5 20.313l-4.472-4.658C2.677 15.806 0 18.662 0 22.188v.468C0 23.95 1.008 25 2.25 25h16.5c1.242 0 2.25-1.05 2.25-2.344v-.468c0-3.526-2.677-6.382-6.028-6.533zM.637 3.898l.3.073v2.851a1.166 1.166 0 00-.562.991c0 .41.216.752.52.962l-.73 3.042c-.08.337.098.684.355.684h1.96c.257 0 .436-.347.356-.684l-.731-3.042c.304-.21.52-.552.52-.962 0-.43-.234-.786-.563-.99v-2.57l3.094.777A6.41 6.41 0 004.5 7.813c0 3.452 2.686 6.25 6 6.25s6-2.798 6-6.25a6.345 6.345 0 00-.656-2.783l4.514-1.132c.853-.215.853-1.324 0-1.538L11.433.114a3.87 3.87 0 00-1.861 0L.638 2.354a.786.786 0 000 1.544z" fill="#6776FF"/></symbol><symbol fill="none" viewBox="0 0 19 19" id="sort" xmlns="http://www.w3.org/2000/svg"><g clip-path="url(#nclip0_748_823)"><path fill-rule="evenodd" clip-rule="evenodd" d="M13.656 17.813a.594.594 0 00.594-.594V3.215l3.736 3.737a.595.595 0 00.84-.841l-4.75-4.75a.594.594 0 00-.84 0l-4.75 4.75a.594.594 0 10.84.84l3.736-3.736v14.004a.594.594 0 00.594.593zM5.344 1.186a.594.594 0 01.593.594v14.004l3.736-3.737a.594.594 0 11.84.841l-4.75 4.75a.593.593 0 01-.84 0l-4.75-4.75a.595.595 0 01.84-.84l3.737 3.736V1.781a.594.594 0 01.594-.594z" fill="#2F2F2F"/></g><defs><clipPath id="nclip0_748_823"><path fill="#fff" d="M0 0h19v19H0z"/></clipPath></defs></symbol><symbol fill="none" viewBox="0 0 30 29" id="star-empty" xmlns="http://www.w3.org/2000/svg"><path d="M23.382 27.994l-.025-.002h-.026a.486.486 0 01-.223-.053l-7.661-4.07-.47-.25-.469.25-7.666 4.073H6.84a.485.485 0 01-.52-.04.523.523 0 01-.174-.227.547.547 0 01-.03-.295h0l1.504-8.59.09-.516-.374-.368L1.15 11.81a.547.547 0 01-.129-.522.526.526 0 01.157-.232l-.64-.75.64.75a.492.492 0 01.249-.113h.003l8.569-1.267.524-.077.23-.478 3.773-7.826h0l.002-.004a.518.518 0 01.189-.214.487.487 0 01.523 0c.08.05.146.124.189.214h0l.004.009 3.818 7.81.231.474.521.077 8.569 1.266h.003a.506.506 0 01.405.345.548.548 0 01-.128.523l-6.188 6.096-.373.368.09.517 1.504 8.589h0l.002.012a.546.546 0 01-.029.3.523.523 0 01-.173.229.487.487 0 01-.302.088z" stroke="#FFA319" stroke-width="2"/></symbol><symbol fill="none" viewBox="0 0 23 23" id="text-material" xmlns="http://www.w3.org/2000/svg"><path d="M0 2.875A2.875 2.875 0 012.875 0h17.25A2.875 2.875 0 0123 2.875v11.5a2.875 2.875 0 01-2.875 2.875h-3.594a1.437 1.437 0 00-1.15.575l-2.731 3.641a1.438 1.438 0 01-2.3 0l-2.731-3.641a1.438 1.438 0 00-1.15-.575H2.875A2.875 2.875 0 010 14.375v-11.5zm5.031 1.438a.719.719 0 000 1.437H17.97a.719.719 0 000-1.438H5.03zm0 3.593a.719.719 0 000 1.438H17.97a.719.719 0 000-1.438H5.03zm0 3.594a.719.719 0 100 1.438h7.188a.719.719 0 100-1.438H5.03z" fill="#fff"/></symbol><symbol fill="none" viewBox="0 0 28 28" id="video" xmlns="http://www.w3.org/2000/svg"><path d="M3.802 4a3.792 3.792 0 00-2.688 1.12A3.834 3.834 0 000 7.824v12.353c0 1.014.4 1.986 1.114 2.703A3.792 3.792 0 003.802 24h11.115a3.792 3.792 0 002.69-1.12 3.834 3.834 0 001.113-2.703V7.824a3.83 3.83 0 00-1.114-2.704A3.792 3.792 0 0014.917 4H3.802zm20.912 17.815l-4.24-4.176V10.47l4.227-4.269c.92-.93 2.499-.274 2.499 1.038v13.525c0 1.303-1.56 1.962-2.486 1.05z" fill="#fff"/></symbol><symbol fill="none" viewBox="0 0 46 47" id="vk" xmlns="http://www.w3.org/2000/svg"><path d="M46 41.778V5.222C46 2.35 43.692 0 40.876 0H5.124C2.185 0 0 2.227 0 5.222v36.556C0 44.775 2.185 47 5.124 47h35.752a5.077 5.077 0 003.617-1.531A5.301 5.301 0 0046 41.778zm-9.752-14.082s2.893 2.917 3.606 4.27c.02.028.028.054.036.065.288.496.363.887.217 1.175-.24.477-1.058.718-1.337.738h-5.108c-.358 0-1.1-.094-1.999-.728-.69-.49-1.372-1.303-2.036-2.094-.992-1.175-1.85-2.194-2.714-2.194a.96.96 0 00-.322.055c-.657.214-1.49 1.168-1.49 3.713 0 .797-.614 1.251-1.048 1.251h-2.341c-.797 0-4.95-.285-8.628-4.25-4.513-4.857-8.566-14.6-8.602-14.686-.255-.629.274-.971.849-.971h5.162c.693 0 .915.428 1.073.812.18.436.854 2.196 1.958 4.175 1.797 3.22 2.903 4.53 3.785 4.53a.95.95 0 00.47-.127c1.153-.65.938-4.85.887-5.716 0-.165-.003-1.878-.59-2.7-.425-.595-1.143-.823-1.577-.909.177-.25.41-.452.68-.59.79-.402 2.213-.46 3.628-.46h.787c1.536.021 1.935.123 2.49.267 1.121.274 1.144 1.018 1.045 3.551-.028.72-.059 1.538-.059 2.496 0 .207-.008.434-.008.669-.035 1.295-.076 2.76.818 3.36.116.074.25.114.386.115.312 0 1.245 0 3.772-4.431 1.112-1.956 1.968-4.264 2.027-4.436.089-.187.218-.35.378-.478a.87.87 0 01.424-.102h6.07c.664 0 1.114.102 1.198.36.146.416-.028 1.682-2.8 5.51l-1.235 1.67c-2.515 3.364-2.515 3.536.148 6.09z" fill="#6776FF"/></symbol></svg>