<svg width="352" height="264" viewBox="0 0 352 264" fill="none" xmlns="http://www.w3.org/2000/svg">
<path d="M352 232.173H0V232.349H352V232.173Z" fill="#E0E0E0"/>
<path d="M104.973 240.273H73.8418V240.449H104.973V240.273Z" fill="#E0E0E0"/>
<path d="M68.683 240.356H56.5742V240.532H68.683V240.356Z" fill="#E0E0E0"/>
<path d="M161.287 239.172H146.566V239.348H161.287V239.172Z" fill="#E0E0E0"/>
<path d="M197.254 237.268H158.337V237.443H197.254V237.268Z" fill="#E0E0E0"/>
<path d="M267.541 240.532H258.136V240.708H267.541V240.532Z" fill="#E0E0E0"/>
<path d="M254.227 240.532H251.157V240.708H254.227V240.532Z" fill="#E0E0E0"/>
<path d="M315.777 238.587H275.825V238.763H315.777V238.587Z" fill="#E0E0E0"/>
<path d="M166.849 200.74H30.9132C29.8483 200.739 28.8276 200.314 28.0753 199.559C27.3229 198.805 26.9004 197.782 26.9004 196.716V5.41561C26.9097 4.35563 27.3363 3.34211 28.0876 2.59521C28.839 1.8483 29.8544 1.42833 30.9132 1.42651H166.849C167.915 1.42651 168.937 1.85051 169.691 2.60521C170.445 3.35992 170.868 4.38353 170.868 5.45085V196.716C170.868 197.783 170.445 198.807 169.691 199.562C168.937 200.316 167.915 200.74 166.849 200.74ZM30.9132 1.56747C29.895 1.56934 28.9191 1.97559 28.1997 2.69705C27.4804 3.41852 27.0764 4.39624 27.0764 5.41561V196.716C27.0764 197.735 27.4804 198.713 28.1997 199.435C28.9191 200.156 29.895 200.562 30.9132 200.564H166.849C167.867 200.56 168.842 200.154 169.562 199.433C170.283 198.712 170.689 197.736 170.692 196.716V5.41561C170.689 4.39616 170.283 3.41953 169.562 2.69867C168.842 1.97781 167.867 1.57119 166.849 1.56747H30.9132Z" fill="#E0E0E0"/>
<path d="M319.132 200.74H183.19C182.125 200.737 181.104 200.312 180.351 199.558C179.598 198.804 179.174 197.782 179.17 196.716V5.41561C179.181 4.35499 179.609 3.34148 180.362 2.59476C181.114 1.84805 182.13 1.42831 183.19 1.42651H319.132C320.19 1.43018 321.203 1.85097 321.953 2.59768C322.703 3.34439 323.129 4.35685 323.138 5.41561V196.716C323.139 197.244 323.036 197.766 322.835 198.254C322.634 198.742 322.34 199.185 321.968 199.559C321.596 199.932 321.154 200.229 320.667 200.432C320.181 200.635 319.659 200.739 319.132 200.74ZM183.19 1.56747C182.171 1.57119 181.196 1.97781 180.476 2.69867C179.756 3.41953 179.35 4.39616 179.346 5.41561V196.716C179.35 197.736 179.756 198.712 180.476 199.433C181.196 200.154 182.171 200.56 183.19 200.564H319.132C320.15 200.56 321.126 200.154 321.846 199.433C322.566 198.712 322.972 197.736 322.976 196.716V5.41561C322.972 4.39616 322.566 3.41953 321.846 2.69867C321.126 1.97781 320.15 1.57119 319.132 1.56747H183.19Z" fill="#E0E0E0"/>
<path d="M293.33 17.4685H206.09V154.169H293.33V17.4685Z" fill="#E0E0E0"/>
<path d="M297.165 17.4685H207.884V154.169H297.165V17.4685Z" fill="#EBEBEB"/>
<path d="M293.33 154.175H206.09V161.3H293.33V154.175Z" fill="#E6E6E6"/>
<path d="M303.545 154.175H214.264V161.3H303.545V154.175Z" fill="#F0F0F0"/>
<path d="M291.801 22.8396H213.249V148.806H291.801V22.8396Z" fill="#FAFAFA"/>
<path d="M241.443 148.806L259.001 22.8396H273.863L256.305 148.806H241.443Z" fill="white"/>
<path d="M216.831 138.861C216.729 138.859 216.633 138.817 216.562 138.745C216.491 138.672 216.451 138.574 216.451 138.473V26.3341C216.444 26.2837 216.447 26.2324 216.46 26.1831C216.473 26.1339 216.495 26.0876 216.526 26.0471C216.557 26.0065 216.595 25.9724 216.639 25.9466C216.683 25.9209 216.731 25.9041 216.782 25.8972C216.832 25.8902 216.883 25.8933 216.932 25.9062C216.982 25.9191 217.028 25.9415 217.068 25.9723C217.109 26.0031 217.143 26.0415 217.169 26.0855C217.194 26.1294 217.211 26.178 217.218 26.2284C217.225 26.2633 217.225 26.2992 217.218 26.3341V138.473C217.218 138.576 217.177 138.674 217.105 138.747C217.032 138.82 216.934 138.861 216.831 138.861Z" fill="#E6E6E6"/>
<path d="M259.494 148.806L277.052 22.8396H282.846L265.288 148.806H259.494Z" fill="white"/>
<path d="M291.799 22.8396H291.116V148.806H291.799V22.8396Z" fill="#E6E6E6"/>
<path d="M298.425 26.9616H211.192L210.699 24.9248H297.932L298.425 26.9616Z" fill="#E0E0E0"/>
<path d="M298.425 28.4482H211.192L210.699 26.4185H297.932L298.425 28.4482Z" fill="#E0E0E0"/>
<path d="M298.425 30.2385H211.192L210.699 28.2017H297.932L298.425 30.2385Z" fill="#E0E0E0"/>
<path d="M298.425 32.2314H211.192L210.699 30.1946H297.932L298.425 32.2314Z" fill="#E0E0E0"/>
<path d="M298.425 34.6162H211.192L210.699 32.5793H297.932L298.425 34.6162Z" fill="#E0E0E0"/>
<path d="M298.425 37.2995H211.192L210.699 35.2627H297.932L298.425 37.2995Z" fill="#E0E0E0"/>
<path d="M64.9787 136.744C64.9787 138.859 66.4641 140.367 64.331 140.367C62.1979 140.367 57.291 138.88 57.291 136.744C57.291 135.716 57.699 134.73 58.4251 134.004C59.1512 133.277 60.1361 132.868 61.163 132.868C62.1899 132.868 63.1748 133.277 63.9009 134.004C64.6271 134.73 65.035 135.716 65.035 136.744H64.9787Z" fill="#E0E0E0"/>
<path d="M71.5832 138.598C71.5832 140.713 73.0686 142.214 70.9355 142.214C68.8024 142.214 63.8955 140.727 63.8955 138.598C63.8955 137.57 64.3034 136.584 65.0296 135.858C65.7557 135.131 66.7406 134.722 67.7675 134.722C68.7944 134.722 69.7793 135.131 70.5054 135.858C71.2316 136.584 71.6395 137.57 71.6395 138.598H71.5832Z" fill="#E0E0E0"/>
<path d="M77.9113 137.451C77.9113 139.566 79.3968 141.067 77.2636 141.067C75.1305 141.067 70.2236 139.58 70.2236 137.451C70.2236 136.423 70.6316 135.437 71.3577 134.71C72.0839 133.983 73.0687 133.575 74.0956 133.575C75.1226 133.575 76.1074 133.983 76.8335 134.71C77.5597 135.437 77.9676 136.423 77.9676 137.451H77.9113Z" fill="#E0E0E0"/>
<path d="M54.9121 137.963C54.9121 137.963 55.2289 145.497 67.3236 145.497C79.4184 145.497 79.7352 137.963 79.7352 137.963H54.9121Z" fill="#F0F0F0"/>
<path d="M197.324 145.506H191.84V232.174H197.324V145.506Z" fill="#E0E0E0"/>
<path d="M199.055 145.506H195.246V232.174H199.055V145.506Z" fill="#F0F0F0"/>
<path d="M200.237 145.506H86.3652V152.251H200.237V145.506Z" fill="#F0F0F0"/>
<path d="M83.9109 152.25H78.4268V232.172H83.9109V152.25Z" fill="#E0E0E0"/>
<path d="M85.6417 152.25H81.833V232.172H85.6417V152.25Z" fill="#F0F0F0"/>
<path d="M49.2029 152.25H43.7188V232.172H49.2029V152.25Z" fill="#E0E0E0"/>
<path d="M50.9346 152.25H47.126V232.172H50.9346V152.25Z" fill="#F0F0F0"/>
<path d="M162.619 152.25H157.135V232.172H162.619V152.25Z" fill="#E0E0E0"/>
<path d="M164.349 152.25H160.54V232.172H164.349V152.25Z" fill="#F0F0F0"/>
<path d="M86.3671 145.506H43.7188V152.251H86.3671V145.506Z" fill="#E0E0E0"/>
<path d="M85.6426 116.948H131.417L138.048 144.005H92.2743L85.6426 116.948Z" fill="#E0E0E0"/>
<path d="M92.2734 144.005L92.4635 145.506H138.238L138.055 144.005H92.2734Z" fill="#E0E0E0"/>
<path d="M87.0508 116.948H132.825L139.457 144.005H93.6895L87.0508 116.948Z" fill="#F0F0F0"/>
<path d="M94.6522 142.771L88.626 118.181H131.859L137.885 142.771H94.6522Z" fill="white"/>
<path d="M105.613 144.005L105.796 145.506H156.203L156.02 144.005H105.613Z" fill="#EBEBEB"/>
<path d="M194.043 134.478C193.91 134.485 193.779 134.499 193.648 134.52V133.632C193.648 133.337 193.531 133.053 193.323 132.844C193.114 132.636 192.831 132.518 192.536 132.518H183.849C183.554 132.518 183.271 132.636 183.062 132.844C182.854 133.053 182.736 133.337 182.736 133.632V145.501H193.648V143.506C193.779 143.525 193.911 143.536 194.043 143.541C194.473 143.541 194.9 143.456 195.298 143.291C195.696 143.126 196.058 142.884 196.362 142.579C196.667 142.274 196.909 141.912 197.073 141.514C197.238 141.115 197.323 140.688 197.323 140.257V137.769C197.323 136.897 196.978 136.061 196.363 135.444C195.748 134.827 194.913 134.479 194.043 134.478ZM195.915 140.257C195.915 140.754 195.718 141.231 195.367 141.583C195.016 141.934 194.539 142.132 194.043 142.132C193.91 142.132 193.778 142.118 193.648 142.089V135.929C193.778 135.901 193.91 135.887 194.043 135.887C194.54 135.889 195.016 136.088 195.367 136.441C195.718 136.794 195.915 137.271 195.915 137.769V140.257Z" fill="#E6E6E6"/>
<path d="M146.847 232.176H145.326L140.968 210.694L140.208 206.93L135.456 183.524H117.251L107.395 232.154H105.874L115.927 182.608C115.953 182.44 116.038 182.287 116.167 182.177C116.297 182.066 116.461 182.007 116.631 182.009H136.055C136.224 182.007 136.389 182.066 136.518 182.177C136.648 182.287 136.733 182.44 136.759 182.608L140.933 203.167L141.694 206.923L146.847 232.176Z" fill="#E0E0E0"/>
<path d="M176.085 232.173H174.592L164.736 183.543H146.482L141.73 206.963L140.969 210.748L136.611 232.23H135.091L140.209 206.984L140.969 203.242L145.137 182.683C145.171 182.519 145.259 182.371 145.386 182.263C145.514 182.154 145.674 182.091 145.841 182.084H165.264C165.434 182.082 165.599 182.142 165.728 182.252C165.858 182.362 165.943 182.515 165.968 182.683L176.085 232.173Z" fill="#E0E0E0"/>
<path d="M131.197 182.774H164.658C167.726 182.773 170.672 181.569 172.864 179.421C175.056 177.272 176.321 174.35 176.387 171.279L177.633 120.372C177.656 119.25 177.459 118.133 177.051 117.087C176.643 116.041 176.034 115.086 175.257 114.275C174.48 113.465 173.552 112.816 172.524 112.365C171.497 111.914 170.391 111.67 169.27 111.647H148.114C146.016 111.647 143.991 112.42 142.425 113.819C140.86 115.217 139.863 117.144 139.624 119.231L131.197 182.774Z" fill="#F0F0F0"/>
<path d="M149.445 182.774H113.794C113.352 182.774 112.928 182.598 112.615 182.285C112.302 181.972 112.126 181.547 112.126 181.104V180.949C112.125 180.346 112.243 179.749 112.473 179.192C112.703 178.635 113.04 178.129 113.466 177.703C113.892 177.276 114.398 176.938 114.954 176.708C115.511 176.478 116.107 176.36 116.709 176.361H149.445V182.774Z" fill="#F0F0F0"/>
<path d="M142.997 21.5706H46.957V97.1238H142.997V21.5706Z" fill="#E0E0E0"/>
<path d="M144.123 21.5706H48.083V97.1238H144.123V21.5706Z" fill="#EBEBEB"/>
<path d="M137.8 27.8999H54.4043V90.7951H137.8V27.8999Z" fill="white"/>
<path opacity="0.5" d="M54.4043 47.4214V90.794H126.804C129.014 81.8221 126.163 72.7937 114.836 67.8743C105.057 63.6456 93.4059 68.2056 83.2401 66.0348C71.5045 63.5258 67.6184 53.8984 57.9736 48.9437C56.8212 48.3527 55.6284 47.8439 54.4043 47.4214Z" fill="#E6E6E6"/>
<path opacity="0.7" d="M54.4043 27.8999V30.3667C62.5285 36.9776 72.5182 49.4734 83.1979 52.8494C100.094 58.1987 122.805 43.7435 123.833 27.8999H54.4043Z" fill="#E6E6E6"/>
<path d="M123.395 62.8203C126.648 71.1932 131.78 77.5504 137.799 83.2239V31.1965C126.226 34.6711 117.904 48.6894 123.395 62.8203Z" fill="#E6E6E6"/>
<path d="M176.001 264C251.387 264 312.499 260.428 312.499 256.022C312.499 251.616 251.387 248.044 176.001 248.044C100.614 248.044 39.502 251.616 39.502 256.022C39.502 260.428 100.614 264 176.001 264Z" fill="#F5F5F5"/>
<path d="M52.1406 254.43V256.022H299.864V153.173H283.215L254.611 171.892H227.331L196.742 191.908V199.964H184.162L149.349 222.742H126.223L97.4149 241.595H76.837L52.1406 254.43Z" fill="#FFA319"/>
<path opacity="0.2" d="M52.1406 254.43V256.022H299.864V153.173H283.215L254.611 171.892H227.331L196.742 191.908V199.964H184.162L149.349 222.742H126.223L97.4149 241.595H76.837L52.1406 254.43Z" fill="black"/>
<path d="M68.791 256.023H299.865V154.767L271.261 173.479H243.981L213.393 193.495V201.557H200.812L165.999 224.336H142.873L114.072 243.189H93.4873L68.791 256.023Z" fill="#FFA319"/>
<path opacity="0.1" d="M68.791 256.023H299.865V154.767L271.261 173.479H243.981L213.393 193.495V201.557H200.812L165.999 224.336H142.873L114.072 243.189H93.4873L68.791 256.023Z" fill="white"/>
<path d="M117.567 66.0487C116.582 67.1975 115.455 68.4802 114.491 69.7418C113.526 71.0033 112.47 72.2861 111.513 73.5899C109.603 76.1183 107.883 78.785 106.367 81.5681L105.853 82.5901L105.663 82.9777C105.606 83.0834 105.564 83.2314 105.508 83.3583C105.281 84.0074 105.1 84.6715 104.966 85.3458C104.67 86.8117 104.445 88.4045 104.262 90.0185C103.931 93.2464 103.712 96.6224 103.508 99.9349L99.6434 100.28C98.8966 96.8536 98.4258 93.3725 98.2354 89.8705C98.1356 88.048 98.1591 86.2207 98.3058 84.4014C98.3781 83.3937 98.5359 82.394 98.7775 81.4131C98.8549 81.1382 98.9112 80.8774 99.0168 80.5885C99.1224 80.2995 99.221 79.9823 99.2984 79.7991L99.8264 78.5023C100.546 76.81 101.367 75.1626 102.283 73.5688C103.163 71.99 104.142 70.4959 105.099 69.0299C106.057 67.564 107.148 66.1403 108.253 64.8012C108.802 64.0964 109.366 63.3916 109.936 62.7503C110.506 62.1089 111.076 61.4394 111.738 60.7275L117.567 66.0487Z" fill="#FED1BC"/>
<path d="M118.842 67.8238C118.138 69.1277 117.343 70.3892 116.575 71.5662C115.252 73.6031 113.97 75.365 113.055 76.5773C112.232 77.6697 111.704 78.3111 111.704 78.3111L101.277 71.1998C101.277 71.1998 107.613 58.8519 112.492 58.0625C117.519 57.2661 122.116 61.9741 118.842 67.8238Z" fill="#FFA319"/>
<path opacity="0.3" d="M118.842 67.8238C118.138 69.1277 117.343 70.3892 116.575 71.5662C115.252 73.6031 113.97 75.365 113.055 76.5773C112.232 77.6697 111.704 78.3111 111.704 78.3111L101.277 71.1998C101.277 71.1998 107.613 58.8519 112.492 58.0625C117.519 57.2661 122.116 61.9741 118.842 67.8238Z" fill="black"/>
<path d="M137.208 218.408H142.375L142.889 206.42H137.722L137.208 218.408Z" fill="#FED1BC"/>
<path d="M86.915 196.075L91.1109 199.106L101.009 191.473L96.8133 188.442L86.915 196.075Z" fill="#FED1BC"/>
<path d="M142.889 206.42L142.629 212.601H137.454L137.715 206.42H142.889Z" fill="#CE6F64"/>
<path d="M96.812 188.442L101.008 191.473L95.8968 195.405L91.708 192.375L96.812 188.442Z" fill="#CE6F64"/>
<path d="M131.963 103.082C131.963 103.082 132.555 139.929 127.929 154.377C120.608 177.261 98.4881 195.797 98.4881 195.797L90.5752 190.081C90.5752 190.081 108.985 174.421 112.399 155.152C115.433 137.835 114.145 117.227 114.145 103.082H131.963Z" fill="#FFA319"/>
<path opacity="0.7" d="M131.963 103.082C131.963 103.082 132.555 139.929 127.929 154.377C120.608 177.261 98.4881 195.797 98.4881 195.797L90.5752 190.081C90.5752 190.081 108.985 174.421 112.399 155.152C115.433 137.835 114.145 117.227 114.145 103.082H131.963Z" fill="white"/>
<path d="M103.69 98.9812L105.555 102.336L99.0223 103.309C99.0223 103.309 98.3535 100.489 99.9656 98.5442L103.69 98.9812Z" fill="#FED1BC"/>
<path d="M106.543 106.798L101.108 107.348L99.0244 103.31L105.558 102.337L106.543 106.798Z" fill="#FED1BC"/>
<path d="M136.675 39.0968C136.739 39.5056 137.006 39.8016 137.28 39.8016C137.555 39.8016 137.71 39.3858 137.646 38.977C137.583 38.5682 137.316 38.2722 137.041 38.2722C136.767 38.2722 136.612 38.681 136.675 39.0968Z" fill="#263238"/>
<path d="M136.97 39.8154C137.658 40.9978 138.506 42.0794 139.49 43.0293C139.243 43.279 138.944 43.4714 138.614 43.5932C138.285 43.715 137.932 43.763 137.582 43.734L136.97 39.8154Z" fill="#DE5753"/>
<path d="M134.816 37.0387C134.784 37.0396 134.753 37.0343 134.724 37.0232C134.694 37.012 134.667 36.9951 134.644 36.9735C134.622 36.9519 134.603 36.926 134.59 36.8973C134.577 36.8685 134.57 36.8376 134.569 36.8061C134.569 36.7719 134.576 36.738 134.589 36.7066C134.603 36.6751 134.622 36.6466 134.647 36.6228C134.917 36.3453 135.25 36.1365 135.617 36.0139C135.985 35.8913 136.376 35.8585 136.759 35.9181C136.791 35.9239 136.821 35.9361 136.848 35.954C136.875 35.9718 136.898 35.9949 136.915 36.0219C136.933 36.0489 136.945 36.0792 136.951 36.1111C136.957 36.1429 136.956 36.1755 136.949 36.207C136.943 36.2381 136.931 36.2677 136.914 36.2941C136.896 36.3205 136.874 36.3432 136.848 36.3609C136.821 36.3785 136.792 36.3909 136.761 36.3971C136.73 36.4034 136.698 36.4035 136.667 36.3973C136.363 36.3558 136.053 36.3871 135.763 36.4888C135.473 36.5905 135.211 36.7596 134.999 36.9823C134.974 37.0042 134.945 37.0205 134.913 37.0302C134.882 37.04 134.849 37.0428 134.816 37.0387Z" fill="#263238"/>
<path d="M122.916 43.6423C123.663 47.427 124.402 54.3692 121.755 56.8923C121.755 56.8923 122.79 60.7405 129.816 60.7405C137.56 60.7405 133.512 56.8923 133.512 56.8923C129.288 55.8845 129.4 52.7552 130.14 49.8445L122.916 43.6423Z" fill="#FED1BC"/>
<path d="M118.883 59.458C119.72 58.1471 118.312 54.9896 118.312 54.9896C118.312 54.9896 130.766 51.8533 135.849 56.667C136.905 57.6608 135.737 59.1267 135.737 59.1267L118.883 59.458Z" fill="#FFA319"/>
<path d="M93.32 201.585C92.6653 201.585 91.7079 200.303 91.4404 199.845C91.427 199.825 91.4199 199.801 91.4199 199.778C91.4199 199.754 91.427 199.73 91.4404 199.711C91.4545 199.693 91.4729 199.679 91.4938 199.671C91.5148 199.662 91.5375 199.659 91.56 199.661C91.6304 199.661 93.3271 200.028 93.7213 200.697C93.7663 200.768 93.7952 200.847 93.8062 200.93C93.8171 201.013 93.8098 201.097 93.7847 201.177C93.6861 201.48 93.5031 201.564 93.3693 201.578L93.32 201.585ZM91.8064 199.971C92.25 200.62 92.9821 201.381 93.3482 201.339C93.3834 201.339 93.489 201.339 93.5594 201.099C93.5737 201.053 93.5773 201.004 93.57 200.957C93.5627 200.909 93.5446 200.864 93.5172 200.824C93.0437 200.371 92.4496 200.066 91.8064 199.943V199.971Z" fill="#FFA319"/>
<path d="M92.383 199.98C92.0861 199.987 91.7897 199.951 91.503 199.874C91.4855 199.862 91.4712 199.847 91.4613 199.828C91.4515 199.81 91.4463 199.789 91.4463 199.768C91.4463 199.747 91.4515 199.727 91.4613 199.708C91.4712 199.69 91.4855 199.674 91.503 199.662C91.5522 199.62 92.7138 198.69 93.4812 198.767C93.5748 198.778 93.6654 198.807 93.7477 198.853C93.8299 198.899 93.9021 198.961 93.9599 199.035C94.0246 199.102 94.0636 199.19 94.0701 199.282C94.0765 199.375 94.05 199.467 93.9951 199.543C93.7417 199.853 93.0236 199.98 92.383 199.98ZM91.8268 199.698C92.4815 199.796 93.5586 199.698 93.7628 199.402C93.7794 199.366 93.7849 199.326 93.7787 199.287C93.7724 199.248 93.7546 199.212 93.7276 199.183C93.6909 199.135 93.6443 199.094 93.5909 199.065C93.5375 199.036 93.4785 199.019 93.4178 199.014C92.8306 199.075 92.2757 199.314 91.8268 199.698Z" fill="#FFA319"/>
<path d="M144.453 218.678C143.922 218.671 143.392 218.621 142.869 218.53C142.844 218.526 142.821 218.514 142.804 218.496C142.786 218.478 142.774 218.456 142.77 218.431C142.766 218.406 142.77 218.38 142.781 218.357C142.793 218.334 142.811 218.316 142.834 218.304C142.911 218.262 144.713 217.226 145.579 217.465C145.66 217.484 145.735 217.518 145.802 217.566C145.868 217.615 145.924 217.676 145.966 217.747C146.022 217.826 146.051 217.919 146.051 218.015C146.051 218.111 146.022 218.205 145.966 218.283C145.762 218.586 145.122 218.678 144.453 218.678ZM143.263 218.346C144.228 218.487 145.537 218.473 145.776 218.142C145.811 218.054 145.811 217.955 145.776 217.867C145.75 217.823 145.714 217.785 145.672 217.756C145.629 217.726 145.581 217.707 145.53 217.698C144.981 217.557 143.897 218.022 143.263 218.346Z" fill="#FFA319"/>
<path d="M142.912 218.5H142.841C142.824 218.487 142.81 218.47 142.801 218.45C142.792 218.43 142.789 218.409 142.792 218.387C142.85 217.65 143.138 216.95 143.616 216.385C143.713 216.305 143.825 216.245 143.946 216.208C144.067 216.172 144.194 216.16 144.32 216.174C144.425 216.162 144.531 216.191 144.615 216.256C144.699 216.32 144.754 216.415 144.77 216.519C144.869 217.104 143.63 218.225 143.01 218.507L142.912 218.5ZM144.179 216.385C144.022 216.388 143.871 216.443 143.749 216.541C143.358 216.99 143.113 217.548 143.045 218.14C143.686 217.753 144.524 216.872 144.453 216.526C144.453 216.526 144.453 216.407 144.214 216.385H144.179Z" fill="#FFA319"/>
<path d="M91.709 199.062L87.6892 194.834C87.6169 194.76 87.522 194.713 87.4198 194.7C87.3176 194.688 87.2141 194.71 87.126 194.763L83.1062 197.216C83.021 197.266 82.9466 197.334 82.8874 197.413C82.8282 197.493 82.7853 197.583 82.7611 197.68C82.7369 197.776 82.7319 197.876 82.7464 197.974C82.7609 198.072 82.7947 198.167 82.8457 198.252C82.8799 198.305 82.92 198.355 82.9654 198.4C84.3734 199.809 85.1618 200.465 86.9289 202.311C88.0201 203.446 90.9839 207.435 92.4834 209.007C93.983 210.578 95.7359 209.289 95.2572 208.513C93.1452 205.032 92.1174 201.578 92.061 199.859C92.047 199.559 91.9214 199.275 91.709 199.062Z" fill="#263238"/>
<path d="M142.34 217.795H136.708C136.606 217.795 136.506 217.83 136.427 217.894C136.347 217.958 136.292 218.048 136.271 218.148L135.243 222.729C135.199 222.923 135.234 223.127 135.339 223.296C135.445 223.465 135.613 223.586 135.807 223.631C135.868 223.638 135.929 223.638 135.99 223.631C138.031 223.631 140.974 223.476 143.537 223.476C146.529 223.476 149.112 223.638 152.625 223.638C154.737 223.638 155.336 221.489 154.449 221.298C150.401 220.41 147.099 220.312 143.6 218.155C143.221 217.922 142.785 217.797 142.34 217.795Z" fill="#263238"/>
<path opacity="0.3" d="M116.575 71.5669C115.251 73.6038 113.97 75.3657 113.055 76.578C113.16 74.1535 113.66 70.2349 115.54 67.2466C116.223 67.9232 116.497 69.6711 116.575 71.5669Z" fill="black"/>
<path d="M145.022 63.1721C145.304 63.6161 145.818 64.2927 146.29 64.92C146.761 65.5472 147.303 66.1886 147.838 66.8229C148.916 68.0845 150.014 69.339 151.161 70.5442C153.371 72.9391 155.793 75.1282 158.398 77.0846C159.004 77.5274 159.631 77.939 160.278 78.318L160.708 78.5647C160.757 78.5647 160.778 78.6281 160.869 78.6563L160.982 78.7056L161.137 78.755C161.252 78.7906 161.37 78.8188 161.489 78.8395C162.892 79.0358 164.316 79.0168 165.713 78.7832C169.012 78.2608 172.272 77.5167 175.47 76.556L177.139 80.08C174.003 82.1102 170.604 83.7014 167.036 84.8091C165.019 85.463 162.904 85.7611 160.785 85.6901C160.467 85.6746 160.149 85.6417 159.835 85.5914L159.349 85.4998L158.828 85.3729C158.463 85.2739 158.105 85.149 157.758 84.9994L157.54 84.9078L157.364 84.8232L157.012 84.654C156.103 84.21 155.223 83.7237 154.364 83.1951C151.196 81.1291 148.259 78.7259 145.607 76.0274C144.304 74.7095 143.037 73.3704 141.847 71.9467C141.242 71.2419 140.658 70.5371 140.073 69.7478C139.435 68.931 138.849 68.0741 138.32 67.1824L145.022 63.1721Z" fill="#FED1BC"/>
<path d="M174.64 77.4928L178.075 73.3979L180.412 79.3746C180.412 79.3746 177.449 80.7841 175.139 79.9736L174.64 77.4928Z" fill="#FED1BC"/>
<path d="M183.118 72.5107L184.075 77.2892L180.414 79.3754L178.084 73.3988L183.118 72.5107Z" fill="#FED1BC"/>
<path d="M122.791 40.3723C123.889 45.3903 124.284 48.3857 127.247 50.5846C131.704 53.8971 137.589 50.5846 138.005 45.3481C138.378 40.626 136.512 33.2116 131.246 31.9571C130.084 31.6774 128.871 31.7002 127.72 32.0232C126.57 32.3463 125.521 32.9588 124.674 33.8024C123.827 34.6461 123.21 35.6928 122.882 36.8428C122.553 37.9928 122.525 39.2079 122.798 40.3723H122.791Z" fill="#FED1BC"/>
<path d="M120.671 30.5688C116.271 30.6886 115.743 35.023 117.925 36.2987C117.925 36.2987 115.391 37.518 116.693 40.4288C118.679 44.8478 122.48 49.7038 126.366 49.4359C131.189 49.1047 132.562 43.847 132.393 38.6597C134.934 36.2564 133.399 35.0865 135.913 33.6205C140.362 31.0269 142.615 23.5914 135.209 23.7041C127.62 23.824 131.9 30.2657 120.671 30.5688Z" fill="#263238"/>
<path d="M118.475 35.6636C118.475 35.6636 116.779 36.5446 114.167 35.0222C115.075 37.2493 117.863 38.1656 118.475 35.6636Z" fill="#263238"/>
<path d="M129.745 39.9067C129.882 41.1768 130.434 42.3661 131.315 43.2897C132.484 44.4948 133.631 43.6773 133.779 42.1549C133.913 40.7877 133.462 38.5112 132.061 37.8769C130.66 37.2426 129.597 38.3702 129.745 39.9067Z" fill="#FED1BC"/>
<path d="M101.854 194.13L98.609 196.069L89.9639 189.824L92.8432 187.618L101.854 194.13Z" fill="#FFA319"/>
<path d="M126.795 109.413C125.817 116.053 129.273 134.539 130.47 140.593C131.723 129.274 131.956 115.848 131.977 108.518C129.442 106.799 127.246 106.355 126.795 109.413Z" fill="#FFA319"/>
<path opacity="0.4" d="M126.795 109.413C125.817 116.053 129.273 134.539 130.47 140.593C131.723 129.274 131.956 115.848 131.977 108.518C129.442 106.799 127.246 106.355 126.795 109.413Z" fill="white"/>
<path d="M141.77 103.082C141.77 103.082 149.563 136.137 150.112 151.924C150.725 169.635 144.551 211.401 144.551 211.401H135.793C135.793 211.401 134.716 169.311 134.322 153.179C133.899 135.594 123.593 103.082 123.593 103.082H141.77Z" fill="#FFA319"/>
<path opacity="0.7" d="M141.77 103.082C141.77 103.082 149.563 136.137 150.112 151.924C150.725 169.635 144.551 211.401 144.551 211.401H135.793C135.793 211.401 134.716 169.311 134.322 153.179C133.899 135.594 123.593 103.082 123.593 103.082H141.77Z" fill="white"/>
<path d="M146.24 207.93C146.282 207.93 145.747 211.567 145.747 211.567H135.088L134.8 208.318L146.24 207.93Z" fill="#FFA319"/>
<path d="M144.011 75.2095C144.011 76.9714 143.969 78.9096 143.87 81.0451C143.617 86.8526 142.983 94.0907 141.758 103.084H114.112C113.922 98.8551 116.59 78.0921 112.493 58.062C115.565 57.4716 118.671 57.0808 121.793 56.892C125.709 56.6665 129.634 56.6665 133.55 56.892C136.233 57.1605 138.893 57.6317 141.505 58.3016C141.505 58.3016 144.018 61.2124 144.011 75.2095Z" fill="#FFA319"/>
<path opacity="0.3" d="M144.011 75.2095C144.011 76.9714 143.969 78.9096 143.87 81.0451C143.617 86.8526 142.983 94.0907 141.758 103.084H114.112C113.922 98.8551 116.59 78.0921 112.493 58.062C115.565 57.4716 118.671 57.0808 121.793 56.892C125.709 56.6665 129.634 56.6665 133.55 56.892C136.233 57.1605 138.893 57.6317 141.505 58.3016C141.505 58.3016 144.018 61.2124 144.011 75.2095Z" fill="black"/>
<path opacity="0.3" d="M144.008 75.2079C144.008 76.9699 143.966 78.9081 143.867 81.0436C140.622 77.872 140.403 71.395 140.403 71.395L144.008 75.2079Z" fill="black"/>
<path d="M134.096 64.3711C134.708 69.3046 145.888 79.6932 145.888 79.6932L155.955 71.7079C153.425 67.9581 150.465 64.5187 147.134 61.4603C139.854 55.1313 133.356 58.472 134.096 64.3711Z" fill="#FFA319"/>
<path opacity="0.3" d="M134.096 64.3711C134.708 69.3046 145.888 79.6932 145.888 79.6932L155.955 71.7079C153.425 67.9581 150.465 64.5187 147.134 61.4603C139.854 55.1313 133.356 58.472 134.096 64.3711Z" fill="black"/>
<path d="M252.053 167.395L246.879 167.903L241.493 155.569L246.668 155.061L252.053 167.395Z" fill="#FED1BC"/>
<path d="M286.493 151.892L281.988 154.796L273.821 145.288L278.327 142.385L286.493 151.892Z" fill="#FED1BC"/>
<path d="M241.498 155.577L244.272 161.934H249.671L246.672 155.07L241.498 155.577Z" fill="#CE6F64"/>
<path d="M278.334 142.385L273.821 145.288L278.038 150.187L282.544 147.283L278.334 142.385Z" fill="#CE6F64"/>
<path d="M207.678 35.7221C207.566 37.6392 207.326 39.387 207.052 41.2054C206.777 43.0237 206.39 44.7857 205.953 46.5688C205.102 50.2008 203.784 53.707 202.032 56.9997C201.571 57.8538 201.056 58.6777 200.49 59.4664C199.941 60.2487 199.357 60.9676 198.773 61.6654C197.604 63.0749 196.393 64.3788 195.161 65.6685C192.676 68.2269 190.142 70.6725 187.417 73.0054L185.46 71.1166C187.621 68.3749 189.839 65.6615 191.944 62.9128C194.049 60.1642 196.231 57.4296 197.576 54.6809C198.949 51.6836 199.984 48.5418 200.659 45.3143C201.032 43.6792 201.314 42.0088 201.582 40.3808C201.849 38.7527 202.046 36.9908 202.194 35.4473L207.678 35.7221Z" fill="#FED1BC"/>
<path d="M205.525 0.77732C201.751 0.77732 197.471 4.82985 197.647 10.6443C197.823 16.4588 199.055 25.0925 190.079 33.0848C193.303 40.1326 208.468 46.7365 218.591 41.7678C228.187 37.0598 224.223 10.9615 217.387 4.12506C213.558 0.298065 209.087 -0.984649 205.525 0.77732Z" fill="#263238"/>
<path d="M211.79 36.3854C211.508 38.091 210.093 41.3189 208.974 43.7152C208.143 45.4489 207.467 46.7528 207.467 46.7528L206.482 46.3158L198.322 42.6791C198.942 38.2742 199.949 33.5169 204.799 31.3532C207.826 30.0141 212.29 33.3407 211.79 36.3854Z" fill="#FFA319"/>
<path opacity="0.6" d="M211.79 36.3854C211.508 38.091 210.093 41.3189 208.974 43.7152C208.143 45.4489 207.467 46.7528 207.467 46.7528L206.482 46.3158L198.322 42.6791C198.942 38.2742 199.949 33.5169 204.799 31.3532C207.826 30.0141 212.29 33.3407 211.79 36.3854Z" fill="white"/>
<path d="M208.953 43.7133C208.122 45.4471 207.447 46.7509 207.447 46.7509L206.461 46.314C206.595 44.5731 206.94 41.8315 207.869 40.5981C208.448 41.5473 208.818 42.6094 208.953 43.7133Z" fill="#FFA319"/>
<path opacity="0.5" d="M208.953 43.7626C208.122 45.4964 207.447 46.8003 207.447 46.8003L206.461 46.3633C206.595 44.6225 206.94 41.8808 207.869 40.6475C208.448 41.5966 208.818 42.6587 208.953 43.7626Z" fill="white"/>
<path d="M236.543 55.4835L215.775 62.038C201.413 33.5928 203.455 32.0846 203.455 32.0846C203.455 32.0846 206.77 30.1887 210.22 28.61L211.79 27.9052C214.854 26.6841 218.002 25.6854 221.209 24.9169C221.681 24.79 222.153 24.6773 222.617 24.5645C225.172 23.9881 227.757 23.5622 230.361 23.2888C230.671 27.2286 230.981 30.5622 231.319 33.4589C231.755 37.2366 232.227 40.2601 232.727 42.8749C233.662 47.1726 234.938 51.3888 236.543 55.4835Z" fill="#FFA319"/>
<path opacity="0.6" d="M236.543 55.4835L215.775 62.038C201.413 33.5928 203.455 32.0846 203.455 32.0846C203.455 32.0846 206.77 30.1887 210.22 28.61L211.79 27.9052C214.854 26.6841 218.002 25.6854 221.209 24.9169C221.681 24.79 222.153 24.6773 222.617 24.5645C225.172 23.9881 227.757 23.5622 230.361 23.2888C230.671 27.2286 230.981 30.5622 231.319 33.4589C231.755 37.2366 232.227 40.2601 232.727 42.8749C233.662 47.1726 234.938 51.3888 236.543 55.4835Z" fill="white"/>
<path d="M215.774 62.0397C215.774 62.0397 215.07 104.609 220.624 119.987C225.975 134.731 241.935 160.076 241.935 160.076L251.185 159.836C251.185 159.836 236.493 127.747 234.078 115.054C230.086 94.0018 230.966 57.2612 230.966 57.2612L215.774 62.0397Z" fill="#FFA319"/>
<path opacity="0.4" d="M215.774 62.0397C215.774 62.0397 215.07 104.609 220.624 119.987C225.975 134.731 241.935 160.076 241.935 160.076L251.185 159.836C251.185 159.836 236.493 127.747 234.078 115.054C230.086 94.0018 230.966 57.2612 230.966 57.2612L215.774 62.0397Z" fill="black"/>
<path opacity="0.3" d="M224.082 65.6943L226.567 58.6464L230.967 57.2368C230.967 57.2368 230.566 73.9614 231.53 91.3062C227.539 83.6452 224.082 69.5495 224.082 65.6943Z" fill="black"/>
<path d="M220.351 60.6842C220.351 60.6842 234.783 93.7317 244.111 112.542C251.643 127.731 275.087 148.12 275.087 148.12L281.507 143.659C281.507 143.659 263.872 119.513 258.669 109.209C242.02 76.2389 246.124 62.6506 236.55 55.4829L220.351 60.6842Z" fill="#FFA319"/>
<path opacity="0.4" d="M220.351 60.6842C220.351 60.6842 234.783 93.7317 244.111 112.542C251.643 127.731 275.087 148.12 275.087 148.12L281.507 143.659C281.507 143.659 263.872 119.513 258.669 109.209C242.02 76.2389 246.124 62.6506 236.55 55.4829L220.351 60.6842Z" fill="black"/>
<path d="M186.714 70.615L182.012 71.4889L185.342 75.9996C185.342 75.9996 187.799 74.2869 188.313 72.1162L186.714 70.615Z" fill="#FED1BC"/>
<path d="M178.929 75.055L182.019 77.9446L185.335 75.9994L182.012 71.4888L178.929 75.055Z" fill="#FED1BC"/>
<path d="M280.324 153.372L285.216 149.848C285.299 149.787 285.401 149.759 285.504 149.768C285.606 149.777 285.702 149.823 285.773 149.898L289.11 153.372C289.261 153.541 289.34 153.764 289.328 153.991C289.316 154.219 289.215 154.432 289.046 154.584L288.969 154.648C287.237 155.839 286.343 156.332 284.196 157.876C282.872 158.827 280.084 161.125 278.254 162.436C276.424 163.747 275.037 162.006 275.677 161.301C278.564 158.115 279.331 155.945 279.789 154.147C279.873 153.835 280.062 153.561 280.324 153.372Z" fill="#263238"/>
<path d="M246.193 166.305H252.529C252.643 166.308 252.753 166.347 252.843 166.417C252.932 166.487 252.998 166.583 253.029 166.693L254.437 171.725C254.466 171.825 254.475 171.93 254.464 172.033C254.452 172.136 254.42 172.237 254.37 172.328C254.319 172.419 254.251 172.499 254.17 172.564C254.089 172.628 253.995 172.676 253.895 172.705C253.818 172.715 253.74 172.715 253.663 172.705H239.013C236.689 172.705 236.197 170.351 237.168 170.139C241.477 169.181 243.962 167.87 245.292 166.615C245.542 166.401 245.865 166.29 246.193 166.305Z" fill="#263238"/>
<path d="M222.633 24.5779V24.9514C222.633 25.1699 222.485 30.2162 217.332 34.1982L216.811 34.6L216.177 34.459C213.446 33.867 211.629 32.7323 210.764 31.0901C210.362 30.3278 210.179 29.4692 210.236 28.6093L211.805 27.9045C214.87 26.6834 218.018 25.6847 221.225 24.9162C221.69 24.8034 222.161 24.6836 222.633 24.5779Z" fill="white"/>
<path d="M216.93 14.603C217.296 17.8239 218.458 23.575 221.218 24.9282C221.218 24.9282 221.147 29.467 216.466 33.0826C210.263 31.7294 211.798 27.9165 211.798 27.9165C214.924 26.0347 214.044 23.5538 212.706 21.3831L216.93 14.603Z" fill="#FED1BC"/>
<path d="M215.211 17.3669L212.712 21.3772C213.03 21.8809 213.303 22.4115 213.529 22.963C214.761 22.3639 216.345 20.5878 216.049 19.1923C215.881 18.5386 215.597 17.9203 215.211 17.3669Z" fill="#CE6F64"/>
<path d="M215.464 7.42488C217.238 12.45 218.09 14.5362 216.689 18.0954C214.577 23.4447 208.03 24.523 204.792 20.1393C201.884 16.1854 199.476 8.64417 203.433 4.63392C204.788 3.26571 206.631 2.49261 208.556 2.48468C210.481 2.47675 212.33 3.23464 213.697 4.59164C214.501 5.38356 215.106 6.35433 215.464 7.42488Z" fill="#FED1BC"/>
<path d="M208.819 1.56689C207.116 3.42049 210.614 11.1731 215.951 12.3642C221.287 13.5553 216.979 5.12607 216.979 5.12607L208.819 1.56689Z" fill="#263238"/>
<path d="M209.375 3.73658C209.573 5.85095 201.089 9.04363 200.364 10.6083C200.716 8.06398 200.836 5.08273 204.039 2.96837C207.242 0.854002 209.882 1.67861 209.882 1.67861L209.375 3.73658Z" fill="#263238"/>
<path d="M208.749 3.82202C208.749 3.82202 207.812 6.25354 204.243 9.22774C207.057 8.42327 209.469 6.59274 211.002 4.09689L208.749 3.82202Z" fill="#263238"/>
<path d="M218.497 11.5029C218.653 12.5214 218.399 13.56 217.793 14.3925C216.984 15.492 215.745 14.9704 215.273 13.7723C214.843 12.6869 214.745 10.8122 215.892 10.1427C216.091 10.0282 216.31 9.95409 216.538 9.92472C216.765 9.89535 216.996 9.91126 217.217 9.97151C217.438 10.0318 217.645 10.1352 217.826 10.2758C218.007 10.4165 218.159 10.5916 218.272 10.7911C218.398 11.0089 218.475 11.252 218.497 11.5029Z" fill="#FED1BC"/>
<path d="M236.444 54.1659L237.971 55.7305C238.091 55.8503 237.971 56.0547 237.725 56.1252L215.964 63.018C215.893 63.0499 215.813 63.0576 215.737 63.0397C215.66 63.0219 215.592 62.9797 215.542 62.9193L214.767 61.1221C214.718 60.9953 214.845 60.8402 215.049 60.7697L236.056 54.1165C236.12 54.0897 236.189 54.0801 236.257 54.0888C236.325 54.0975 236.389 54.1241 236.444 54.1659Z" fill="#263238"/>
<path d="M208.017 12.1664C208.186 12.5611 208.108 12.9769 207.848 13.0826C207.587 13.1884 207.242 12.9628 207.073 12.5611C206.904 12.1594 206.982 11.7506 207.242 11.6449C207.503 11.5392 207.848 11.7647 208.017 12.1664Z" fill="#263238"/>
<path d="M203.52 14.0695C203.689 14.4712 203.611 14.88 203.351 14.9928C203.09 15.1055 202.745 14.873 202.576 14.4712C202.407 14.0695 202.484 13.6607 202.745 13.548C203.006 13.4352 203.351 13.6748 203.52 14.0695Z" fill="#263238"/>
<path d="M202.864 13.5266L201.793 13.6533C201.793 13.6533 202.603 14.1951 202.864 13.5266Z" fill="#263238"/>
<path d="M205.102 14.1543C205.132 15.2153 205.016 16.2754 204.757 17.3047C205.022 17.363 205.296 17.3629 205.561 17.3045C205.826 17.2461 206.075 17.1307 206.292 16.9664L205.102 14.1543Z" fill="#DE5753"/>
<path d="M208.819 17.819C208.791 17.8172 208.765 17.8064 208.744 17.7881C208.723 17.7699 208.708 17.7452 208.703 17.718C208.697 17.6908 208.701 17.6625 208.713 17.6375C208.725 17.6124 208.745 17.592 208.769 17.5794C209.269 17.3794 209.715 17.0647 210.07 16.6608C210.426 16.2568 210.682 15.7748 210.818 15.2536C210.82 15.2378 210.825 15.2226 210.832 15.2087C210.84 15.1948 210.85 15.1826 210.863 15.1727C210.875 15.1629 210.89 15.1556 210.905 15.1514C210.92 15.1471 210.936 15.1459 210.952 15.1479C210.969 15.1504 210.985 15.1563 210.999 15.1652C211.013 15.1741 211.026 15.1858 211.036 15.1996C211.046 15.2134 211.053 15.229 211.056 15.2455C211.06 15.2621 211.06 15.2792 211.057 15.2959C210.92 15.861 210.649 16.3847 210.266 16.8226C209.884 17.2606 209.402 17.5999 208.861 17.812L208.819 17.819Z" fill="#263238"/>
<path d="M208.658 10.1591C208.616 10.1662 208.573 10.1662 208.531 10.1591C208.258 9.99509 207.951 9.89641 207.633 9.87074C207.316 9.84507 206.997 9.8931 206.701 10.0111C206.642 10.0411 206.574 10.0468 206.51 10.0271C206.447 10.0073 206.394 9.96365 206.363 9.90537C206.333 9.84529 206.327 9.7758 206.346 9.71143C206.366 9.64706 206.41 9.59281 206.469 9.56002C206.838 9.39921 207.241 9.32998 207.643 9.3582C208.045 9.38642 208.434 9.51125 208.778 9.72212C208.835 9.75597 208.877 9.81125 208.894 9.87593C208.912 9.94061 208.903 10.0095 208.869 10.0675C208.843 10.0979 208.811 10.122 208.774 10.1379C208.738 10.1538 208.698 10.161 208.658 10.1591Z" fill="#263238"/>
<path d="M200.497 12.885H200.448C200.416 12.8791 200.385 12.8669 200.358 12.8492C200.331 12.8314 200.307 12.8084 200.289 12.7816C200.271 12.7547 200.258 12.7245 200.251 12.6927C200.245 12.6608 200.244 12.628 200.25 12.5961C200.319 12.1955 200.482 11.8173 200.727 11.4935C200.972 11.1696 201.292 10.9096 201.658 10.7354C201.721 10.7118 201.791 10.7133 201.852 10.7396C201.914 10.7658 201.963 10.8148 201.989 10.8764C202.015 10.9381 202.016 11.0075 201.991 11.0696C201.966 11.1316 201.917 11.1812 201.856 11.2076C201.564 11.3496 201.312 11.5594 201.118 11.8194C200.925 12.0793 200.796 12.3819 200.743 12.7018C200.73 12.7564 200.698 12.8047 200.653 12.8381C200.608 12.8716 200.553 12.8882 200.497 12.885Z" fill="#263238"/>
<path d="M233.551 28.2781C234.389 28.9053 235.093 29.4903 235.825 30.1246C236.557 30.7589 237.233 31.3932 237.937 32.0487C239.31 33.3737 240.619 34.7621 241.879 36.214C243.147 37.6733 244.323 39.2104 245.399 40.8162C245.681 41.2109 245.927 41.6408 246.188 42.0496C246.448 42.4584 246.709 42.8742 246.941 43.3041C247.173 43.7341 247.42 44.1358 247.645 44.6221L248.018 45.3974L248.321 46.1938C248.967 48.1933 249.272 50.2878 249.222 52.3889C249.179 54.3437 248.969 56.2913 248.596 58.2104C248.222 60.0776 247.752 61.9243 247.188 63.743C246.62 65.5514 245.955 67.3278 245.195 69.0641L242.654 68.1197C243.09 66.4282 243.506 64.6522 243.815 62.8972C244.161 61.1595 244.412 59.4044 244.569 57.6395C244.739 55.93 244.779 54.2101 244.688 52.4946C244.636 51.681 244.535 50.8714 244.386 50.0701C244.239 49.3284 244.024 48.6018 243.745 47.8994L243.534 47.4131L243.294 46.962C243.104 46.6378 242.844 46.2572 242.59 45.9048C242.337 45.5524 242.126 45.2 241.886 44.8406C241.647 44.4811 241.408 44.1358 241.133 43.7905C240.112 42.3809 238.951 41.1052 237.796 39.8014C236.642 38.4975 235.374 37.2641 234.086 36.073C233.445 35.4669 232.798 34.8749 232.136 34.297C231.474 33.719 230.784 33.1411 230.207 32.6478L233.551 28.2781Z" fill="#FED1BC"/>
<path d="M243.47 66.4355L239.612 69.2547L244.54 71.8624C244.54 71.8624 246.012 69.2547 245.533 67.0769L243.47 66.4355Z" fill="#FED1BC"/>
<path d="M238.386 73.8203L242.427 75.0748L244.567 71.8751L239.611 69.2673L238.386 73.8203Z" fill="#FED1BC"/>
<path d="M278.472 155.576H278.387C278.265 155.561 278.148 155.514 278.049 155.44C277.95 155.366 277.873 155.267 277.824 155.153C277.786 155.087 277.766 155.011 277.766 154.935C277.766 154.858 277.786 154.783 277.824 154.716C278.169 154.124 280.105 154.011 280.323 154.011C280.347 154.012 280.37 154.018 280.39 154.031C280.409 154.043 280.426 154.061 280.436 154.082C280.45 154.103 280.457 154.127 280.457 154.152C280.457 154.178 280.45 154.202 280.436 154.223C279.971 154.737 279.134 155.576 278.472 155.576ZM280.021 154.286C279.246 154.343 278.218 154.526 278.042 154.836C278.021 154.863 278.01 154.897 278.01 154.931C278.01 154.966 278.021 154.999 278.042 155.026C278.073 155.103 278.122 155.171 278.187 155.223C278.251 155.274 278.327 155.309 278.408 155.322C278.782 155.358 279.366 154.977 280.021 154.286Z" fill="#FFA319"/>
<path d="M280.19 154.274C279.542 154.274 278.268 153.915 278.029 153.393C277.987 153.301 277.978 153.198 278.004 153.1C278.029 153.003 278.088 152.917 278.17 152.858C278.242 152.793 278.327 152.744 278.419 152.714C278.511 152.683 278.608 152.672 278.705 152.681C279.479 152.759 280.387 154.013 280.422 154.091C280.433 154.11 280.438 154.132 280.438 154.154C280.438 154.176 280.433 154.198 280.422 154.218C280.414 154.238 280.4 154.255 280.383 154.269C280.366 154.282 280.345 154.291 280.324 154.295L280.19 154.274ZM278.627 152.935C278.575 152.934 278.523 152.943 278.475 152.963C278.427 152.982 278.383 153.011 278.346 153.048C278.226 153.154 278.24 153.231 278.261 153.287C278.416 153.633 279.416 153.992 280.07 153.992C279.747 153.591 279.141 152.956 278.662 152.907L278.627 152.935Z" fill="#FFA319"/>
<path d="M243.37 167.354C242.937 167.385 242.504 167.282 242.131 167.058C242.036 166.986 241.958 166.893 241.902 166.787C241.846 166.681 241.814 166.565 241.807 166.445C241.798 166.378 241.808 166.309 241.836 166.248C241.865 166.186 241.911 166.135 241.969 166.1C242.54 165.712 244.708 166.692 245.137 166.896C245.161 166.907 245.181 166.925 245.194 166.948C245.207 166.97 245.211 166.997 245.208 167.023C245.205 167.05 245.195 167.075 245.177 167.095C245.159 167.116 245.135 167.13 245.109 167.136C244.539 167.268 243.956 167.341 243.37 167.354ZM242.357 166.255C242.271 166.249 242.185 166.268 242.11 166.311C242.093 166.326 242.079 166.344 242.071 166.365C242.062 166.386 242.059 166.408 242.061 166.431C242.063 166.514 242.084 166.596 242.124 166.669C242.163 166.742 242.218 166.806 242.286 166.854C242.652 167.136 243.532 167.171 244.673 166.967C243.943 166.608 243.161 166.368 242.357 166.255Z" fill="#FFA319"/>
<path d="M245.082 167.137H245.032C244.328 166.841 242.871 165.678 242.956 165.079C242.956 164.945 243.061 164.783 243.385 164.741C244.652 164.593 245.187 166.855 245.208 166.989C245.212 167.012 245.211 167.036 245.203 167.058C245.196 167.08 245.183 167.1 245.166 167.116C245.142 167.134 245.112 167.141 245.082 167.137ZM243.505 164.988H243.42C243.287 164.988 243.209 165.044 243.202 165.108C243.16 165.453 244.16 166.376 244.885 166.778C244.723 166.221 244.286 164.988 243.505 164.988Z" fill="#FFA319"/>
<path d="M207.363 11.6152L206.292 11.7419C206.292 11.7419 207.095 12.2837 207.363 11.6152Z" fill="#263238"/>
<path d="M240.634 160.565L252.052 160.276L251.398 156.759L238.923 157.351L240.634 160.565Z" fill="#FFA319"/>
<path opacity="0.5" d="M240.634 160.565L252.052 160.276L251.398 156.759L238.923 157.351L240.634 160.565Z" fill="white"/>
<path d="M275.412 150.247L282.959 144.869L281.248 141.571L272.955 147.851L275.412 150.247Z" fill="#FFA319"/>
<path opacity="0.5" d="M275.412 150.247L282.959 144.869L281.248 141.571L272.955 147.851L275.412 150.247Z" fill="white"/>
<path d="M234.368 57.4151L234.931 57.2319C235.043 57.1967 235.114 57.1121 235.079 57.0487L234.051 54.7158C234.051 54.6453 233.91 54.6171 233.797 54.6524L233.234 54.8356C233.121 54.8709 233.051 54.9554 233.086 55.0189L234.107 57.3517C234.137 57.3898 234.179 57.4167 234.226 57.4282C234.274 57.4397 234.323 57.4351 234.368 57.4151Z" fill="#FFA319"/>
<path d="M217.612 62.7425L218.176 62.5663C218.288 62.5241 218.352 62.4395 218.323 62.376L217.296 60.0432C217.296 59.9727 217.148 59.9445 217.035 59.9798L216.472 60.163C216.359 60.163 216.296 60.2828 216.324 60.3463L217.352 62.6791C217.38 62.7425 217.535 62.7425 217.612 62.7425Z" fill="#FFA319"/>
<path d="M225.983 60.0631L226.546 59.8869C226.569 59.8864 226.592 59.8808 226.613 59.8705C226.633 59.8601 226.651 59.8453 226.665 59.827C226.68 59.8088 226.69 59.7876 226.694 59.765C226.699 59.7425 226.699 59.7191 226.694 59.6966L225.666 57.3637C225.666 57.3003 225.518 57.2721 225.406 57.3073L224.85 57.4835C224.737 57.5188 224.667 57.6034 224.695 57.6738L225.723 60.0067C225.754 60.0426 225.797 60.0674 225.844 60.0776C225.89 60.0877 225.939 60.0826 225.983 60.0631Z" fill="#FFA319"/>
<path opacity="0.4" d="M234.368 57.4151L234.931 57.2319C235.043 57.1967 235.114 57.1121 235.079 57.0487L234.051 54.7158C234.051 54.6453 233.91 54.6171 233.797 54.6524L233.234 54.8356C233.121 54.8709 233.051 54.9554 233.086 55.0189L234.107 57.3517C234.137 57.3898 234.179 57.4167 234.226 57.4282C234.274 57.4397 234.323 57.4351 234.368 57.4151Z" fill="black"/>
<path opacity="0.4" d="M217.612 62.7425L218.176 62.5663C218.288 62.5241 218.352 62.4395 218.323 62.376L217.296 60.0432C217.296 59.9727 217.148 59.9445 217.035 59.9798L216.472 60.163C216.359 60.163 216.296 60.2828 216.324 60.3463L217.352 62.6791C217.38 62.7425 217.535 62.7425 217.612 62.7425Z" fill="black"/>
<path opacity="0.4" d="M225.983 60.0631L226.546 59.8869C226.569 59.8864 226.592 59.8808 226.613 59.8705C226.633 59.8601 226.651 59.8453 226.665 59.827C226.68 59.8088 226.69 59.7876 226.694 59.765C226.699 59.7425 226.699 59.7191 226.694 59.6966L225.666 57.3637C225.666 57.3003 225.518 57.2721 225.406 57.3073L224.85 57.4835C224.737 57.5188 224.667 57.6034 224.695 57.6738L225.723 60.0067C225.754 60.0426 225.797 60.0674 225.844 60.0776C225.89 60.0877 225.939 60.0826 225.983 60.0631Z" fill="black"/>
<path d="M232.791 42.8888C230.798 40.0696 228.89 33.508 229.383 31.0483L231.354 33.4728C231.791 37.2505 232.263 40.274 232.791 42.8888Z" fill="#FFA319"/>
<path opacity="0.5" d="M232.791 42.8888C230.798 40.0696 228.89 33.508 229.383 31.0483L231.354 33.4728C231.791 37.2505 232.263 40.274 232.791 42.8888Z" fill="white"/>
<path d="M230.397 23.2726C233.093 23.1528 238.395 29.7848 238.395 29.7848L232.889 37.5375C232.889 37.5375 226.708 32.604 226.229 29.1717C225.821 26.3102 226.962 23.4558 230.397 23.2726Z" fill="#FFA319"/>
<path opacity="0.6" d="M230.397 23.2726C233.093 23.1528 238.395 29.7848 238.395 29.7848L232.889 37.5375C232.889 37.5375 226.708 32.604 226.229 29.1717C225.821 26.3102 226.962 23.4558 230.397 23.2726Z" fill="white"/>
<path d="M264.153 213.567C252.587 210.043 245.42 197.42 245.42 197.42C245.42 197.42 241.752 197.216 241.576 200.528C241.273 206.35 244.434 210.55 246.377 212.559L240.816 212.249C238.833 212.137 236.846 212.346 234.93 212.869L233.086 213.376C231.552 213.8 230.244 214.807 229.443 216.184C228.641 217.56 228.41 219.196 228.798 220.741L231.445 231.567C232.242 234.823 234.222 237.665 236.998 239.538C239.774 241.412 243.148 242.184 246.462 241.702C252.129 240.877 260.95 239.587 262.478 239.313L266.505 238.974L267.913 214.687L264.153 213.567Z" fill="white"/>
<path d="M282.261 210.231H266.681C265.464 210.231 264.478 211.219 264.478 212.437V240.022C264.478 241.241 265.464 242.228 266.681 242.228H282.261C283.478 242.228 284.464 241.241 284.464 240.022V212.437C284.464 211.219 283.478 210.231 282.261 210.231Z" fill="#FFA319"/>
<path opacity="0.3" d="M282.261 210.231H266.681C265.464 210.231 264.478 211.219 264.478 212.437V240.022C264.478 241.241 265.464 242.228 266.681 242.228H282.261C283.478 242.228 284.464 241.241 284.464 240.022V212.437C284.464 211.219 283.478 210.231 282.261 210.231Z" fill="black"/>
</svg>
