<svg width="12" height="12" viewBox="0 0 12 12" fill="none" xmlns="http://www.w3.org/2000/svg">
<path d="M10.2501 3.9945C10.1831 3.92908 10.0932 3.89246 9.9996 3.89246C9.90598 3.89246 9.81607 3.92908 9.7491 3.9945L5.99985 7.64925L2.25135 3.9945C2.18437 3.92908 2.09447 3.89246 2.00085 3.89246C1.90723 3.89246 1.81732 3.92908 1.75035 3.9945C1.71769 4.02629 1.69173 4.06431 1.67401 4.1063C1.65628 4.1483 1.64715 4.19342 1.64715 4.239C1.64715 4.28458 1.65628 4.32969 1.67401 4.37169C1.69173 4.41368 1.71769 4.4517 1.75035 4.4835L5.7381 8.37C5.80813 8.43826 5.90205 8.47646 5.99985 8.47646C6.09764 8.47646 6.19157 8.43826 6.2616 8.37L10.2493 4.4835C10.282 4.4517 10.308 4.41368 10.3257 4.37169C10.3434 4.32969 10.3525 4.28458 10.3525 4.239C10.3525 4.19342 10.3434 4.1483 10.3257 4.1063C10.308 4.06431 10.2828 4.02629 10.2501 3.9945Z" fill="#6776FF" stroke="#6776FF"/>
</svg>
