<svg width="14" height="11" viewBox="0 0 14 11" fill="none" xmlns="http://www.w3.org/2000/svg">
<path d="M6.4522 10.046C6.51336 10.1349 6.5952 10.2075 6.69066 10.2577C6.78613 10.3078 6.89236 10.3341 7.0002 10.3341C7.10805 10.3341 7.21428 10.3078 7.30974 10.2577C7.40521 10.2075 7.48704 10.1349 7.5482 10.046L13.5482 1.37937C13.6177 1.27941 13.6584 1.16233 13.666 1.04084C13.6735 0.919361 13.6477 0.798123 13.5912 0.690303C13.5347 0.582484 13.4498 0.492206 13.3456 0.42928C13.2414 0.366353 13.1219 0.333183 13.0002 0.333375H1.0002C0.878764 0.333876 0.759761 0.367473 0.655989 0.43055C0.552217 0.493628 0.467604 0.5838 0.411248 0.69137C0.354892 0.79894 0.328925 0.919838 0.336141 1.04106C0.343357 1.16229 0.383483 1.27925 0.452202 1.37937L6.4522 10.046Z" fill="#6776FF"/>
</svg>
