<svg width="30" height="30" viewBox="0 0 30 30" fill="none" xmlns="http://www.w3.org/2000/svg">
<path d="M13.9728 5.53875C14.0874 5.3722 14.2409 5.23602 14.4199 5.14194C14.5989 5.04786 14.798 4.99871 15.0003 4.99871C15.2025 4.99871 15.4016 5.04786 15.5806 5.14194C15.7596 5.23602 15.9131 5.3722 16.0278 5.53875L27.2778 21.7887C27.408 21.9762 27.4843 22.1957 27.4985 22.4235C27.5128 22.6513 27.4643 22.8786 27.3584 23.0808C27.2524 23.2829 27.0932 23.4522 26.8978 23.5702C26.7024 23.6882 26.4785 23.7504 26.2503 23.75H3.75026C3.52256 23.7491 3.29943 23.6861 3.10486 23.5678C2.91029 23.4495 2.75164 23.2805 2.64597 23.0788C2.5403 22.8771 2.49161 22.6504 2.50514 22.4231C2.51867 22.1958 2.59391 21.9765 2.72276 21.7887L13.9728 5.53875Z" fill="#2F2F2F"/>
</svg>
