<svg width="19" height="19" viewBox="0 0 19 19" fill="none" xmlns="http://www.w3.org/2000/svg">
<path d="M9.0702 6.38877L2.76457 13.0067C2.65931 13.1171 2.60059 13.2638 2.60059 13.4164C2.60059 13.569 2.65931 13.7157 2.76457 13.8261L2.7717 13.8332C2.82273 13.8869 2.88416 13.9297 2.95224 13.9589C3.02032 13.9882 3.09364 14.0032 3.16773 14.0032C3.24182 14.0032 3.31514 13.9882 3.38322 13.9589C3.45131 13.9297 3.51273 13.8869 3.56376 13.8332L9.50126 7.60121L15.4364 13.8332C15.4874 13.8869 15.5488 13.9297 15.6169 13.9589C15.685 13.9882 15.7583 14.0032 15.8324 14.0032C15.9065 14.0032 15.9798 13.9882 16.0479 13.9589C16.116 13.9297 16.1774 13.8869 16.2284 13.8332L16.2356 13.8261C16.3408 13.7157 16.3996 13.569 16.3996 13.4164C16.3996 13.2638 16.3408 13.1171 16.2356 13.0067L9.92995 6.38877C9.8745 6.33057 9.8078 6.28423 9.73391 6.25257C9.66002 6.22091 9.58046 6.20459 9.50007 6.20459C9.41968 6.20459 9.34013 6.22091 9.26624 6.25257C9.19235 6.28423 9.12565 6.33057 9.0702 6.38877Z" fill="#2F2F2F" stroke="#2F2F2F"/>
</svg>
