<svg width="33" height="33" viewBox="0 0 33 33" fill="none" xmlns="http://www.w3.org/2000/svg">
<path d="M30.0433 24.0213L23.1683 13.0213C23.045 12.8223 22.8729 12.6581 22.6684 12.5442C22.4638 12.4303 22.2336 12.3706 21.9995 12.3706C21.7655 12.3706 21.5352 12.4303 21.3307 12.5442C21.1262 12.6581 20.9541 12.8223 20.8308 13.0213L19.4558 15.2625L14.932 7.56251C14.8103 7.35732 14.6373 7.18735 14.4299 7.0693C14.2226 6.95124 13.9881 6.88916 13.7495 6.88916C13.511 6.88916 13.2765 6.95124 13.0692 7.0693C12.8618 7.18735 12.6888 7.35732 12.567 7.56251L2.94204 24.0625C2.82171 24.2709 2.75818 24.5073 2.75781 24.7479C2.75745 24.9886 2.82026 25.2251 2.93996 25.4339C3.05966 25.6427 3.23207 25.8164 3.43994 25.9377C3.64782 26.059 3.88388 26.1236 4.12454 26.125H28.8745C29.1202 26.1255 29.3615 26.0602 29.5734 25.9358C29.7853 25.8114 29.96 25.6325 30.0793 25.4178C30.1986 25.203 30.2582 24.9602 30.2518 24.7146C30.2455 24.469 30.1735 24.2296 30.0433 24.0213ZM14.3683 23.375H6.51704L13.7495 11L17.7783 17.875L14.3683 23.375ZM17.5995 23.375L20.6245 18.6588L21.9995 16.3488L26.3995 23.375H17.5995Z" fill="white"/>
</svg>
