<svg width="22" height="22" viewBox="0 0 22 22" fill="none" xmlns="http://www.w3.org/2000/svg">
<path fill-rule="evenodd" clip-rule="evenodd" d="M11.0003 0.916748C5.43158 0.916748 0.916992 5.43133 0.916992 11.0001C0.916992 16.5688 5.43158 21.0834 11.0003 21.0834C16.5691 21.0834 21.0837 16.5688 21.0837 11.0001C21.0837 5.43133 16.5691 0.916748 11.0003 0.916748ZM15.371 9.29508C15.4515 9.20309 15.5127 9.09593 15.5512 8.9799C15.5897 8.86388 15.6045 8.74134 15.5949 8.61948C15.5853 8.49763 15.5514 8.37893 15.4953 8.27037C15.4391 8.1618 15.3618 8.06556 15.2679 7.98731C15.174 7.90906 15.0654 7.85038 14.9485 7.81472C14.8316 7.77906 14.7087 7.76715 14.5871 7.77967C14.4655 7.7922 14.3477 7.82892 14.2405 7.88766C14.1333 7.94641 14.039 8.026 13.963 8.12175L10.0213 12.8508L7.98174 10.8103C7.80886 10.6434 7.5773 10.551 7.33696 10.553C7.09661 10.5551 6.8667 10.6515 6.69674 10.8215C6.52678 10.9915 6.43038 11.2214 6.42829 11.4617C6.4262 11.7021 6.5186 11.9336 6.68558 12.1065L9.43558 14.8565C9.52564 14.9465 9.63348 15.0168 9.75221 15.0628C9.87093 15.1088 9.99795 15.1296 10.1252 15.1238C10.2524 15.1181 10.377 15.0858 10.491 15.0292C10.6051 14.9726 10.7061 14.8929 10.7877 14.7951L15.371 9.29508Z" fill="white"/>
</svg>
