<svg width="130" height="24" viewBox="0 0 130 24" fill="none" xmlns="http://www.w3.org/2000/svg">
<g clip-path="url(#clip0_724_2561)">
<path d="M36.4892 6.90053H34.5391L39.3205 17.2544H39.9456L44.7271 6.90053H42.8082L39.6393 13.8755L36.4892 6.90053ZM70.9408 12.0031C70.9336 12.7241 71.074 13.4392 71.3533 14.1049C71.6188 14.7342 72.0101 15.3036 72.5034 15.7789C73.0047 16.2583 73.5976 16.6335 74.2472 16.8824C74.9451 17.1495 75.6868 17.2861 76.4348 17.2854C77.0383 17.2859 77.6385 17.1981 78.2162 17.025C78.7567 16.8584 79.2687 16.6117 79.735 16.2935C80.6469 15.6635 81.3271 14.7558 81.6726 13.7081C82.0801 12.4589 82.0337 11.1076 81.5413 9.88891C81.2766 9.25921 80.8853 8.68963 80.3913 8.21492C79.8876 7.74001 79.2952 7.36723 78.6474 7.11753C77.9404 6.85288 77.1906 6.71841 76.4348 6.72073C75.8392 6.722 75.2472 6.81186 74.6785 6.98733C74.1394 7.15844 73.6295 7.40926 73.1659 7.73132C72.7147 8.04579 72.316 8.42866 71.9846 8.86591C71.3019 9.77114 70.9354 10.8726 70.9408 12.0031ZM72.9034 12.0031C72.9018 11.5052 72.9929 11.0112 73.1722 10.5461C73.3393 10.1123 73.5922 9.71599 73.916 9.38051C74.232 9.04669 74.6153 8.78263 75.041 8.60552C75.9504 8.23684 76.9693 8.23684 77.8786 8.60552C78.3025 8.78273 78.6838 9.04684 78.9975 9.38051C79.3194 9.71623 79.5702 10.1126 79.735 10.5461C79.9143 11.0198 80.0053 11.5219 80.0037 12.0279C80.0047 12.5269 79.9092 13.0215 79.7225 13.4849C79.5517 13.9183 79.2969 14.3143 78.9724 14.6505C78.6528 14.9783 78.2712 15.2404 77.8494 15.4218C77.4276 15.6033 76.9739 15.7005 76.5142 15.708C76.0545 15.7155 75.5978 15.6331 75.1702 15.4654C74.7426 15.2978 74.3525 15.0483 74.0222 14.7311L73.9285 14.6319C73.6029 14.2954 73.3461 13.8996 73.1722 13.4663C72.9894 13.0108 72.8981 12.5243 72.9034 12.0341V12.0031ZM64.9655 17.1242H66.7781V6.90053H64.9593L64.9655 17.1242ZM60.9091 14.3591C60.9117 14.0434 60.8632 13.7294 60.7653 13.4291C60.6642 13.131 60.5025 12.8567 60.2903 12.6231C60.024 12.3396 59.7164 12.0972 59.3778 11.9039C58.9192 11.6377 58.4382 11.4116 57.9402 11.2281C57.541 11.091 57.1525 10.9253 56.7776 10.7321C56.5379 10.6073 56.3255 10.4366 56.1526 10.2299C56.017 10.0637 55.946 9.85467 55.9526 9.64091C55.949 9.41087 56.0073 9.18403 56.1214 8.98371C56.2408 8.77702 56.4221 8.61233 56.6401 8.51252C57.5527 8.08472 59.3465 8.43192 60.2465 9.01471L60.8153 7.48333C60.1051 7.09352 59.324 6.84733 58.5172 6.759C57.7104 6.67067 56.8939 6.74196 56.1151 6.96873C55.7039 7.11232 55.3257 7.33573 55.0025 7.62593C54.7141 7.89263 54.4843 8.21557 54.3275 8.57452C54.1732 8.92656 54.0944 9.30662 54.0963 9.69051C54.0976 10.0855 54.194 10.4745 54.3775 10.8251C54.575 11.2038 54.8598 11.5309 55.2088 11.7799C55.6986 12.1225 56.2353 12.3939 56.8026 12.5859C57.1903 12.7219 57.5701 12.8792 57.9402 13.0571C58.1833 13.1679 58.4121 13.3073 58.6215 13.4725C58.7636 13.5829 58.8771 13.7253 58.9527 13.8879C59.0146 14.0374 59.0465 14.1974 59.0465 14.3591C59.046 14.5794 58.9809 14.7948 58.859 14.9791C58.7113 15.1845 58.5075 15.3437 58.2715 15.4379C57.9533 15.5625 57.6134 15.6236 57.2714 15.6177C56.1639 15.5839 55.0853 15.2586 54.1463 14.6753L53.5212 16.3059C54.6651 16.9501 55.956 17.2937 57.2714 17.304C57.9499 17.3225 58.6248 17.2 59.2528 16.9444C59.7738 16.7456 60.2192 16.39 60.5263 15.9275C60.8334 15.4649 60.9869 14.9187 60.9653 14.3653L60.9091 14.3591ZM47.9522 17.1242H49.771V6.90053H47.9522V17.1242Z" fill="black"/>
<path d="M85.8418 17.1242H92.5421V15.4627H87.6606V6.89433H85.8418V17.1242ZM127.95 6.90053L125.325 11.4265L122.7 6.90053H120.631L124.381 13.0633V17.1242H126.212V13.0819L129.994 6.88193L127.95 6.90053ZM116.631 11.5257V13.1377V15.1837C115.931 15.4609 115.184 15.5999 114.431 15.5929C113.922 15.5981 113.417 15.5077 112.943 15.3263C112.504 15.1569 112.103 14.9041 111.762 14.5823C111.429 14.2618 111.166 13.878 110.987 13.4539C110.797 13.0022 110.701 12.5172 110.705 12.0279C110.701 11.5337 110.792 11.0433 110.974 10.5833C111.149 10.1534 111.413 9.76475 111.749 9.44251C112.106 9.10586 112.533 8.84993 112.999 8.69231C113.523 8.50815 114.075 8.41787 114.631 8.42571C114.965 8.42463 115.298 8.45788 115.624 8.52491C115.918 8.58608 116.208 8.66265 116.493 8.75431C116.75 8.84111 116.95 8.92171 117.118 8.98371L117.343 9.08911L117.968 7.55152L117.806 7.46472C117.658 7.38806 117.505 7.31975 117.35 7.26012C117.107 7.16268 116.859 7.07986 116.606 7.01213C116.274 6.92021 115.935 6.85183 115.593 6.80753C115.179 6.75141 114.761 6.72241 114.343 6.72073C113.173 6.71727 112.03 7.07 111.068 7.73132C110.609 8.04526 110.202 8.42802 109.862 8.86591C109.521 9.3048 109.253 9.79449 109.068 10.3167C108.878 10.8587 108.782 11.4291 108.787 12.0031C108.776 12.7264 108.917 13.444 109.199 14.1111C109.472 14.7443 109.874 15.3144 110.38 15.7851C110.909 16.2737 111.532 16.6512 112.212 16.8948C112.973 17.1668 113.777 17.3032 114.587 17.2978C115.941 17.2707 117.259 16.8621 118.387 16.1199V11.5257H116.631ZM94.8297 12.0031C94.8225 12.7241 94.9629 13.4392 95.2423 14.1049C95.5078 14.7341 95.899 15.3036 96.3923 15.7789C96.8918 16.2576 97.4825 16.6328 98.1299 16.8824C98.8278 17.1495 99.5695 17.2861 100.317 17.2854C100.921 17.2859 101.521 17.1981 102.099 17.025C102.639 16.8584 103.151 16.6117 103.618 16.2934C104.067 15.9795 104.466 15.599 104.799 15.1651C105.129 14.7232 105.384 14.2311 105.555 13.7081C105.737 13.1576 105.829 12.5822 105.83 12.0031C105.832 11.2785 105.692 10.5604 105.418 9.8889C105.152 9.2612 104.763 8.69216 104.274 8.21492C103.769 7.73856 103.174 7.36564 102.524 7.11752C101.819 6.85348 101.071 6.71902 100.317 6.72073C99.7199 6.72193 99.1258 6.81179 98.5549 6.98733C98.0162 7.15939 97.5065 7.41014 97.0423 7.73132C96.5909 8.04798 96.1922 8.43292 95.861 8.87211C95.5285 9.31197 95.2689 9.80175 95.0922 10.3229C94.9104 10.8647 94.8175 11.432 94.8172 12.0031H94.8297ZM96.7798 12.0341C96.7782 11.5361 96.8693 11.0422 97.0486 10.5771C97.2157 10.1433 97.4686 9.74698 97.7924 9.41151C98.1095 9.07894 98.4925 8.81507 98.9174 8.63651C99.3631 8.44561 99.8446 8.35053 100.33 8.35751C100.821 8.35051 101.309 8.44554 101.761 8.63651C102.186 8.81136 102.568 9.07579 102.88 9.41151C103.2 9.74883 103.45 10.1447 103.618 10.5771C103.792 11.0434 103.881 11.5368 103.88 12.0341C103.886 12.5309 103.792 13.024 103.605 13.4849C103.434 13.9164 103.179 14.3103 102.855 14.6443C102.536 14.973 102.153 15.2345 101.73 15.4131C101.289 15.6012 100.813 15.6982 100.333 15.6982C99.8528 15.6982 99.3775 15.6012 98.9362 15.4131C98.511 15.2322 98.128 14.9663 97.8111 14.6319C97.489 14.2963 97.2344 13.9028 97.0611 13.4725C96.8798 13.0142 96.7866 12.5264 96.7861 12.0341" fill="black"/>
<path d="M1.73145 4.73676L12.9445 11.1599L24.1575 4.73676C23.0142 2.7661 21.3642 1.13159 19.376 0L12.9445 3.67037L6.53793 0C4.54314 1.13142 2.88504 2.76546 1.73145 4.73676Z" fill="#E3032D"/>
<path d="M12.9439 13.2988L0.912056 6.41064C0.13333 8.35904 -0.153209 10.4668 0.0774098 12.5502C0.308029 14.6336 1.04881 16.6295 2.23519 18.3638C3.42157 20.0982 5.01755 21.5184 6.88405 22.5008C8.75055 23.4831 10.8309 23.9978 12.9439 23.9999V13.2988Z" fill="#FFD400"/>
<path d="M25.0012 6.41064L12.9443 13.2988V23.9999C15.0605 24.0048 17.1456 23.4951 19.017 22.5152C20.8885 21.5354 22.4892 20.1154 23.6791 18.3795C24.869 16.6437 25.6117 14.645 25.8421 12.5583C26.0726 10.4717 25.7839 8.36088 25.0012 6.41064Z" fill="#86BC34"/>
</g>
<defs>
<clipPath id="clip0_724_2561">
<rect width="130" height="24" fill="white"/>
</clipPath>
</defs>
</svg>
