<svg width="10" height="11" viewBox="0 0 10 11" fill="none" xmlns="http://www.w3.org/2000/svg">
<path d="M5.81641 5.47248L9.86641 1.42248C9.95743 1.3162 10.005 1.17949 9.99959 1.03967C9.99419 0.899848 9.93622 0.767216 9.83728 0.668274C9.73834 0.569333 9.60571 0.51137 9.46589 0.505969C9.32607 0.500569 9.18936 0.548128 9.08308 0.639143L5.03308 4.68914L0.98308 0.633587C0.876801 0.542572 0.740093 0.495014 0.600272 0.500414C0.460452 0.505815 0.32782 0.563777 0.228878 0.662719C0.129937 0.76166 0.0719742 0.894293 0.0665736 1.03411C0.0611729 1.17393 0.108732 1.31064 0.199747 1.41692L4.24975 5.47248L0.194191 9.52248C0.136035 9.57228 0.088801 9.63357 0.0554548 9.70249C0.0221085 9.77142 0.00336926 9.84649 0.000413989 9.923C-0.00254129 9.99951 0.0103509 10.0758 0.0382812 10.1471C0.0662115 10.2184 0.108577 10.2831 0.162719 10.3373C0.21686 10.3914 0.281609 10.4338 0.352901 10.4617C0.424192 10.4896 0.500488 10.5025 0.576999 10.4996C0.653509 10.4966 0.728583 10.4779 0.797508 10.4445C0.866433 10.4112 0.92772 10.364 0.977524 10.3058L5.03308 6.25581L9.08308 10.3058C9.18936 10.3968 9.32607 10.4444 9.46589 10.439C9.60571 10.4336 9.73834 10.3756 9.83728 10.2767C9.93622 10.1777 9.99419 10.0451 9.99959 9.90528C10.005 9.76546 9.95743 9.62875 9.86641 9.52248L5.81641 5.47248Z" fill="#2F2F2F"/>
</svg>
