<svg width="32" height="32" viewBox="0 0 32 32" fill="none" xmlns="http://www.w3.org/2000/svg">
<rect width="32" height="32" rx="16" fill="#F8F8FF"/>
<path d="M16.8164 15.9725L20.8664 11.9225C20.9574 11.8162 21.005 11.6795 20.9996 11.5397C20.9942 11.3998 20.9362 11.2672 20.8373 11.1683C20.7383 11.0693 20.6057 11.0114 20.4659 11.006C20.3261 11.0006 20.1894 11.0481 20.0831 11.1391L16.0331 15.1891L11.9831 11.1336C11.8768 11.0426 11.7401 10.995 11.6003 11.0004C11.4605 11.0058 11.3278 11.0638 11.2289 11.1627C11.1299 11.2617 11.072 11.3943 11.0666 11.5341C11.0612 11.6739 11.1087 11.8106 11.1997 11.9169L15.2497 15.9725L11.1942 20.0225C11.136 20.0723 11.0888 20.1336 11.0555 20.2025C11.0221 20.2714 11.0034 20.3465 11.0004 20.423C10.9975 20.4995 11.0104 20.5758 11.0383 20.6471C11.0662 20.7184 11.1086 20.7831 11.1627 20.8373C11.2169 20.8914 11.2816 20.9338 11.3529 20.9617C11.4242 20.9896 11.5005 21.0025 11.577 20.9996C11.6535 20.9966 11.7286 20.9779 11.7975 20.9445C11.8664 20.9112 11.9277 20.864 11.9775 20.8058L16.0331 16.7558L20.0831 20.8058C20.1894 20.8968 20.3261 20.9444 20.4659 20.939C20.6057 20.9336 20.7383 20.8756 20.8373 20.7767C20.9362 20.6777 20.9942 20.5451 20.9996 20.4053C21.005 20.2655 20.9574 20.1288 20.8664 20.0225L16.8164 15.9725Z" fill="#6776FF"/>
</svg>
