<svg width="1278" height="545" viewBox="0 0 1278 545" fill="none" xmlns="http://www.w3.org/2000/svg">
<path d="M110.5 544.777C171.527 544.777 221 538.104 221 529.872C221 521.641 171.527 514.968 110.5 514.968C49.4725 514.968 0 521.641 0 529.872C0 538.104 49.4725 544.777 110.5 544.777Z" fill="#F5F5F5"/>
<path d="M1184.04 544.97C1235.93 544.97 1278 538.213 1278 529.877C1278 521.541 1235.93 514.783 1184.04 514.783C1132.15 514.783 1090.08 521.541 1090.08 529.877C1090.08 538.213 1132.15 544.97 1184.04 544.97Z" fill="#F5F5F5"/>
<path d="M130.987 94.2567C121.676 94.2567 117.295 84.8892 117.112 84.4947C116.952 84.0562 116.964 83.5738 117.143 83.1433C117.323 82.7127 117.658 82.3654 118.082 82.1703C118.506 81.9752 118.988 81.9466 119.431 82.0902C119.875 82.2337 120.249 82.5389 120.479 82.9452C120.479 83.072 124.183 90.7492 131.269 90.5519C131.735 90.5782 132.173 90.7785 132.498 91.1133C132.823 91.448 133.011 91.8926 133.023 92.359C133.035 92.8253 132.872 93.2792 132.565 93.6307C132.259 93.9823 131.831 94.2057 131.367 94.2567H130.987Z" fill="#FFA319"/>
<path d="M189 41.5477C188.19 41.5512 187.38 41.4995 186.577 41.3927C186.337 41.3566 186.106 41.2736 185.897 41.1482C185.689 41.0228 185.507 40.8577 185.363 40.6621C185.218 40.4666 185.113 40.2444 185.055 40.0085C184.996 39.7725 184.984 39.5273 185.02 39.2868C185.057 39.0463 185.14 38.8153 185.265 38.6069C185.39 38.3985 185.556 38.2169 185.751 38.0723C185.947 37.9278 186.169 37.8232 186.405 37.7645C186.641 37.7058 186.886 37.6941 187.126 37.7302C187.211 37.7302 195.691 38.9276 199.41 32.8845C199.537 32.6773 199.703 32.4971 199.899 32.3541C200.096 32.2112 200.318 32.1084 200.554 32.0515C200.79 31.9946 201.035 31.9847 201.275 32.0225C201.515 32.0603 201.745 32.145 201.952 32.2717C202.16 32.3984 202.34 32.5647 202.483 32.761C202.626 32.9574 202.729 33.18 202.785 33.4161C202.842 33.6522 202.852 33.8972 202.814 34.1371C202.777 34.377 202.692 34.6071 202.565 34.8143C198.86 40.6743 192.451 41.5477 189 41.5477Z" fill="#FFA319"/>
<path opacity="0.6" d="M189 41.5477C188.19 41.5512 187.38 41.4995 186.577 41.3927C186.337 41.3566 186.106 41.2736 185.897 41.1482C185.689 41.0228 185.507 40.8577 185.363 40.6621C185.218 40.4666 185.113 40.2444 185.055 40.0085C184.996 39.7725 184.984 39.5273 185.02 39.2868C185.057 39.0463 185.14 38.8153 185.265 38.6069C185.39 38.3985 185.556 38.2169 185.751 38.0723C185.947 37.9278 186.169 37.8232 186.405 37.7645C186.641 37.7058 186.886 37.6941 187.126 37.7302C187.211 37.7302 195.691 38.9276 199.41 32.8845C199.537 32.6773 199.703 32.4971 199.899 32.3541C200.096 32.2112 200.318 32.1084 200.554 32.0515C200.79 31.9946 201.035 31.9847 201.275 32.0225C201.515 32.0603 201.745 32.145 201.952 32.2717C202.16 32.3984 202.34 32.5647 202.483 32.761C202.626 32.9574 202.729 33.18 202.785 33.4161C202.842 33.6522 202.852 33.8972 202.814 34.1371C202.777 34.377 202.692 34.6071 202.565 34.8143C198.86 40.6743 192.451 41.5477 189 41.5477Z" fill="white"/>
<path d="M22.8181 97.039C19.3754 98.0062 15.7324 98.0036 12.2911 97.0315C12.0495 96.9667 11.8237 96.8535 11.6272 96.6988C11.4307 96.544 11.2678 96.351 11.1482 96.1313C11.0286 95.9117 10.955 95.67 10.9317 95.421C10.9084 95.172 10.9359 94.9209 11.0127 94.6828C11.0894 94.4448 11.2137 94.2249 11.3781 94.0364C11.5425 93.8479 11.7434 93.6947 11.9688 93.5863C12.1941 93.4778 12.4391 93.4163 12.689 93.4055C12.9389 93.3946 13.1883 93.4347 13.4222 93.5232C13.4893 93.5019 21.7108 95.9278 26.2591 90.4754C26.4093 90.2712 26.5997 90.0998 26.8185 89.9719C27.0374 89.8439 27.2801 89.7621 27.5318 89.7314C27.7834 89.7007 28.0387 89.7217 28.2819 89.7933C28.5251 89.8649 28.7511 89.9854 28.946 90.1476C29.141 90.3097 29.3007 90.51 29.4153 90.7361C29.53 90.9622 29.5972 91.2093 29.6129 91.4624C29.6285 91.7154 29.5922 91.969 29.5063 92.2075C29.4203 92.446 29.2865 92.6644 29.113 92.8493C27.4644 94.8256 25.2776 96.2811 22.8181 97.039Z" fill="#FFA319"/>
<path opacity="0.6" d="M22.8181 97.039C19.3754 98.0062 15.7324 98.0036 12.2911 97.0315C12.0495 96.9667 11.8237 96.8535 11.6272 96.6988C11.4307 96.544 11.2678 96.351 11.1482 96.1313C11.0286 95.9117 10.955 95.67 10.9317 95.421C10.9084 95.172 10.9359 94.9209 11.0127 94.6828C11.0894 94.4448 11.2137 94.2249 11.3781 94.0364C11.5425 93.8479 11.7434 93.6947 11.9688 93.5863C12.1941 93.4778 12.4391 93.4163 12.689 93.4055C12.9389 93.3946 13.1883 93.4347 13.4222 93.5232C13.4893 93.5019 21.7108 95.9278 26.2591 90.4754C26.4093 90.2712 26.5997 90.0998 26.8185 89.9719C27.0374 89.8439 27.2801 89.7621 27.5318 89.7314C27.7834 89.7007 28.0387 89.7217 28.2819 89.7933C28.5251 89.8649 28.7511 89.9854 28.946 90.1476C29.141 90.3097 29.3007 90.51 29.4153 90.7361C29.53 90.9622 29.5972 91.2093 29.6129 91.4624C29.6285 91.7154 29.5922 91.969 29.5063 92.2075C29.4203 92.446 29.2865 92.6644 29.113 92.8493C27.4644 94.8256 25.2776 96.2811 22.8181 97.039Z" fill="white"/>
<path d="M26.8298 260.385C26.3812 260.381 25.9493 260.214 25.615 259.915C25.2806 259.616 25.0667 259.205 25.0132 258.76C24.9597 258.315 25.0702 257.865 25.3242 257.495C25.5782 257.125 25.9582 256.861 26.3931 256.751C26.4776 256.751 34.7464 254.567 35.8733 247.552C35.9121 247.313 35.9978 247.083 36.1254 246.877C36.2529 246.67 36.4199 246.491 36.6168 246.349C36.8136 246.207 37.0365 246.105 37.2727 246.049C37.5089 245.994 37.7538 245.985 37.9933 246.024C38.2329 246.063 38.4624 246.148 38.6689 246.276C38.8754 246.403 39.0547 246.57 39.1966 246.767C39.3385 246.964 39.4403 247.187 39.4961 247.423C39.5518 247.659 39.5606 247.904 39.5217 248.144C38.0145 257.596 27.7172 260.23 27.2805 260.343C27.1319 260.371 26.981 260.385 26.8298 260.385Z" fill="#FFA319"/>
<path opacity="0.6" d="M26.8298 260.385C26.3812 260.381 25.9493 260.214 25.615 259.915C25.2806 259.616 25.0667 259.205 25.0132 258.76C24.9597 258.315 25.0702 257.865 25.3242 257.495C25.5782 257.125 25.9582 256.861 26.3931 256.751C26.4776 256.751 34.7464 254.567 35.8733 247.552C35.9121 247.313 35.9978 247.083 36.1254 246.877C36.2529 246.67 36.4199 246.491 36.6168 246.349C36.8136 246.207 37.0365 246.105 37.2727 246.049C37.5089 245.994 37.7538 245.985 37.9933 246.024C38.2329 246.063 38.4624 246.148 38.6689 246.276C38.8754 246.403 39.0547 246.57 39.1966 246.767C39.3385 246.964 39.4403 247.187 39.4961 247.423C39.5518 247.659 39.5606 247.904 39.5217 248.144C38.0145 257.596 27.7172 260.23 27.2805 260.343C27.1319 260.371 26.981 260.385 26.8298 260.385Z" fill="black"/>
<path d="M298.463 17.923C298.142 17.9254 297.826 17.8428 297.548 17.6835C297.167 17.4722 287.969 12.1475 289.096 2.6391C289.152 2.15156 289.399 1.70624 289.783 1.40112C290.168 1.09599 290.658 0.956071 291.145 1.01211C291.633 1.06815 292.078 1.31557 292.383 1.69994C292.688 2.08431 292.828 2.57415 292.772 3.06169C291.969 10.105 299.351 14.4295 299.421 14.4718C299.78 14.6745 300.06 14.9913 300.218 15.3719C300.376 15.7525 300.401 16.1749 300.291 16.5718C300.181 16.9688 299.941 17.3175 299.61 17.5623C299.279 17.8072 298.875 17.9341 298.463 17.923Z" fill="#FFA319"/>
<path d="M35.8697 24.4309C35.6274 24.4411 35.3855 24.4034 35.1577 24.3201C34.9299 24.2368 34.7208 24.1094 34.5422 23.9452C34.3637 23.7811 34.2192 23.5833 34.1171 23.3633C34.0149 23.1434 33.9571 22.9054 33.9469 22.6631C33.9368 22.4207 33.9744 22.1788 34.0578 21.951C34.1411 21.7232 34.2685 21.5141 34.4326 21.3355C34.5968 21.157 34.7945 21.0125 35.0145 20.9104C35.2345 20.8082 35.4725 20.7504 35.7148 20.7403C42.7581 20.1204 45.5754 12.0348 45.5754 11.9503C45.739 11.5008 46.0708 11.1323 46.5008 10.9227C46.9307 10.7131 47.4253 10.6786 47.8802 10.8266C48.3352 10.9746 48.7148 11.2934 48.9392 11.7159C49.1635 12.1384 49.2151 12.6315 49.0829 13.0913C48.9561 13.528 45.5754 23.5998 36.0388 24.3605L35.8697 24.4309Z" fill="#FFA319"/>
<path d="M965.922 34.095C965.112 34.0986 964.302 34.0468 963.499 33.9401C963.258 33.904 963.027 33.8209 962.819 33.6956C962.611 33.5702 962.429 33.405 962.284 33.2095C962.14 33.0139 962.035 32.7918 961.977 32.5558C961.918 32.3198 961.906 32.0746 961.942 31.8341C961.978 31.5937 962.062 31.3626 962.187 31.1543C962.312 30.9459 962.477 30.7642 962.673 30.6197C962.869 30.4752 963.091 30.3706 963.327 30.3119C963.563 30.2532 963.808 30.2415 964.048 30.2776C964.133 30.2776 972.613 31.4749 976.332 25.4318C976.458 25.2246 976.625 25.0444 976.821 24.9015C977.017 24.7586 977.24 24.6557 977.476 24.5988C977.712 24.5419 977.957 24.5321 978.197 24.5699C978.437 24.6077 978.667 24.6923 978.874 24.8191C979.082 24.9458 979.262 25.112 979.405 25.3084C979.548 25.5048 979.65 25.7274 979.707 25.9635C979.764 26.1996 979.774 26.4446 979.736 26.6845C979.699 26.9244 979.614 27.1545 979.487 27.3617C975.782 33.2217 969.373 34.095 965.922 34.095Z" fill="#FFA319"/>
<path opacity="0.6" d="M965.922 34.095C965.112 34.0986 964.302 34.0468 963.499 33.9401C963.258 33.904 963.027 33.8209 962.819 33.6956C962.611 33.5702 962.429 33.405 962.284 33.2095C962.14 33.0139 962.035 32.7918 961.977 32.5558C961.918 32.3198 961.906 32.0746 961.942 31.8341C961.978 31.5937 962.062 31.3626 962.187 31.1543C962.312 30.9459 962.477 30.7642 962.673 30.6197C962.869 30.4752 963.091 30.3706 963.327 30.3119C963.563 30.2532 963.808 30.2415 964.048 30.2776C964.133 30.2776 972.613 31.4749 976.332 25.4318C976.458 25.2246 976.625 25.0444 976.821 24.9015C977.017 24.7586 977.24 24.6557 977.476 24.5988C977.712 24.5419 977.957 24.5321 978.197 24.5699C978.437 24.6077 978.667 24.6923 978.874 24.8191C979.082 24.9458 979.262 25.112 979.405 25.3084C979.548 25.5048 979.65 25.7274 979.707 25.9635C979.764 26.1996 979.774 26.4446 979.736 26.6845C979.699 26.9244 979.614 27.1545 979.487 27.3617C975.782 33.2217 969.373 34.095 965.922 34.095Z" fill="white"/>
<path d="M1240.09 55.2384C1236.52 55.1422 1233.05 54.0704 1230.04 52.1393C1229.64 51.861 1229.36 51.4338 1229.28 50.9517C1229.19 50.4695 1229.29 49.972 1229.57 49.5685C1229.85 49.165 1230.28 48.8887 1230.76 48.8002C1231.24 48.7117 1231.74 48.8183 1232.14 49.0966C1232.21 49.0966 1239.33 53.8861 1245.31 50.0827C1245.52 49.9523 1245.75 49.8634 1245.99 49.8211C1246.22 49.7789 1246.47 49.784 1246.71 49.8364C1246.94 49.8887 1247.17 49.9871 1247.37 50.1261C1247.56 50.265 1247.73 50.4417 1247.86 50.6462C1247.99 50.8506 1248.08 51.0787 1248.13 51.3174C1248.17 51.5562 1248.16 51.8009 1248.11 52.0377C1248.06 52.2744 1247.96 52.4986 1247.82 52.6973C1247.68 52.896 1247.51 53.0654 1247.3 53.1958C1245.15 54.5616 1242.64 55.2713 1240.09 55.2384Z" fill="#FFA319"/>
<path opacity="0.6" d="M1240.09 55.2384C1236.52 55.1422 1233.05 54.0704 1230.04 52.1393C1229.64 51.861 1229.36 51.4338 1229.28 50.9517C1229.19 50.4695 1229.29 49.972 1229.57 49.5685C1229.85 49.165 1230.28 48.8887 1230.76 48.8002C1231.24 48.7117 1231.74 48.8183 1232.14 49.0966C1232.21 49.0966 1239.33 53.8861 1245.31 50.0827C1245.52 49.9523 1245.75 49.8634 1245.99 49.8211C1246.22 49.7789 1246.47 49.784 1246.71 49.8364C1246.94 49.8887 1247.17 49.9871 1247.37 50.1261C1247.56 50.265 1247.73 50.4417 1247.86 50.6462C1247.99 50.8506 1248.08 51.0787 1248.13 51.3174C1248.17 51.5562 1248.16 51.8009 1248.11 52.0377C1248.06 52.2744 1247.96 52.4986 1247.82 52.6973C1247.68 52.896 1247.51 53.0654 1247.3 53.1958C1245.15 54.5616 1242.64 55.2713 1240.09 55.2384Z" fill="white"/>
<path d="M1027.78 180.493C1019.15 180.493 1014.44 172.125 1014.23 171.745C1013.99 171.315 1013.94 170.809 1014.07 170.338C1014.21 169.866 1014.53 169.468 1014.96 169.231C1015.39 168.993 1015.89 168.936 1016.36 169.073C1016.84 169.209 1017.23 169.526 1017.47 169.956C1017.47 170.069 1021.7 177.45 1028.74 176.732C1029.21 176.715 1029.67 176.878 1030.03 177.188C1030.38 177.498 1030.61 177.931 1030.65 178.399C1030.7 178.868 1030.57 179.338 1030.29 179.713C1030 180.089 1029.58 180.342 1029.12 180.422C1028.7 180.465 1028.23 180.493 1027.78 180.493Z" fill="#FFA319"/>
<path opacity="0.6" d="M1027.78 180.493C1019.15 180.493 1014.44 172.125 1014.23 171.745C1013.99 171.315 1013.94 170.809 1014.07 170.338C1014.21 169.866 1014.53 169.468 1014.96 169.231C1015.39 168.993 1015.89 168.936 1016.36 169.073C1016.84 169.209 1017.23 169.526 1017.47 169.956C1017.47 170.069 1021.7 177.45 1028.74 176.732C1029.21 176.715 1029.67 176.878 1030.03 177.188C1030.38 177.498 1030.61 177.931 1030.65 178.399C1030.7 178.868 1030.57 179.338 1030.29 179.713C1030 180.089 1029.58 180.342 1029.12 180.422C1028.7 180.465 1028.23 180.493 1027.78 180.493Z" fill="white"/>
<path d="M1188.49 109.965C1188.03 109.98 1187.58 109.823 1187.23 109.524C1186.88 109.224 1186.65 108.804 1186.6 108.347C1186.54 107.889 1186.66 107.427 1186.92 107.051C1187.19 106.675 1187.59 106.413 1188.04 106.316C1188.12 106.316 1196.39 104.147 1197.52 97.1317C1197.54 96.8778 1197.62 96.6313 1197.74 96.4077C1197.86 96.184 1198.03 95.9879 1198.23 95.8316C1198.43 95.6753 1198.66 95.5622 1198.91 95.4991C1199.16 95.4361 1199.42 95.4245 1199.67 95.4652C1199.92 95.5059 1200.16 95.5979 1200.38 95.7355C1200.59 95.8731 1200.77 96.0534 1200.92 96.2652C1201.06 96.477 1201.15 96.7157 1201.2 96.9666C1201.25 97.2174 1201.24 97.475 1201.18 97.7233C1199.66 107.175 1189.36 109.81 1188.93 109.908C1188.79 109.948 1188.64 109.967 1188.49 109.965Z" fill="#FFA319"/>
<path opacity="0.6" d="M1188.49 109.965C1188.03 109.98 1187.58 109.823 1187.23 109.524C1186.88 109.224 1186.65 108.804 1186.6 108.347C1186.54 107.889 1186.66 107.427 1186.92 107.051C1187.19 106.675 1187.59 106.413 1188.04 106.316C1188.12 106.316 1196.39 104.147 1197.52 97.1317C1197.54 96.8778 1197.62 96.6313 1197.74 96.4077C1197.86 96.184 1198.03 95.9879 1198.23 95.8316C1198.43 95.6753 1198.66 95.5622 1198.91 95.4991C1199.16 95.4361 1199.42 95.4245 1199.67 95.4652C1199.92 95.5059 1200.16 95.5979 1200.38 95.7355C1200.59 95.8731 1200.77 96.0534 1200.92 96.2652C1201.06 96.477 1201.15 96.7157 1201.2 96.9666C1201.25 97.2174 1201.24 97.475 1201.18 97.7233C1199.66 107.175 1189.36 109.81 1188.93 109.908C1188.79 109.948 1188.64 109.967 1188.49 109.965Z" fill="black"/>
<path d="M1264.17 180.2H1263.86C1263.41 180.116 1252.96 178.2 1250.81 168.931C1250.75 168.692 1250.74 168.445 1250.78 168.203C1250.82 167.961 1250.91 167.73 1251.04 167.522C1251.18 167.315 1251.35 167.136 1251.55 166.996C1251.75 166.856 1251.98 166.757 1252.22 166.705C1252.45 166.651 1252.7 166.645 1252.94 166.686C1253.18 166.728 1253.41 166.817 1253.62 166.947C1253.83 167.078 1254.01 167.249 1254.15 167.449C1254.29 167.649 1254.39 167.875 1254.44 168.114C1256.05 175.016 1264.44 176.566 1264.53 176.566C1264.97 176.661 1265.36 176.914 1265.63 177.279C1265.9 177.644 1266.03 178.095 1265.99 178.547C1265.95 178.999 1265.75 179.421 1265.42 179.733C1265.09 180.045 1264.66 180.226 1264.2 180.242L1264.17 180.2Z" fill="#FFA319"/>
<path d="M1231.16 248.111C1227.93 248.162 1224.79 247.058 1222.31 244.998C1222.1 244.85 1221.93 244.661 1221.8 244.442C1221.67 244.224 1221.59 243.981 1221.55 243.728C1221.52 243.476 1221.54 243.219 1221.61 242.975C1221.69 242.731 1221.81 242.504 1221.97 242.31C1222.14 242.115 1222.34 241.956 1222.57 241.843C1222.79 241.73 1223.04 241.665 1223.3 241.653C1223.55 241.641 1223.8 241.682 1224.04 241.772C1224.28 241.863 1224.5 242.002 1224.68 242.181C1230.13 246.717 1237.78 242.913 1237.86 242.871C1238.3 242.647 1238.81 242.605 1239.28 242.756C1239.74 242.907 1240.13 243.237 1240.36 243.674C1240.58 244.111 1240.62 244.619 1240.47 245.087C1240.32 245.554 1239.99 245.943 1239.55 246.167C1236.93 247.416 1234.06 248.079 1231.16 248.111Z" fill="#FFA319"/>
<path d="M1144.82 16.923C1144.5 16.9254 1144.18 16.8428 1143.9 16.6835C1143.52 16.4722 1134.32 11.1475 1135.45 1.6391C1135.51 1.15156 1135.75 0.706236 1136.14 0.401115C1136.52 0.0959947 1137.01 -0.0439289 1137.5 0.0121107C1137.99 0.0681504 1138.43 0.315568 1138.74 0.69994C1139.04 1.08431 1139.18 1.57415 1139.13 2.06169C1138.32 9.10495 1145.71 13.4295 1145.78 13.4718C1146.14 13.6745 1146.42 13.9913 1146.57 14.3719C1146.73 14.7525 1146.76 15.1749 1146.65 15.5718C1146.54 15.9688 1146.3 16.3175 1145.97 16.5623C1145.63 16.8072 1145.23 16.9341 1144.82 16.923Z" fill="#FFA319"/>
<path d="M95.8595 188.135C91.5244 190.162 87.7021 199.907 88.9477 213.902C90.1933 227.896 61.2027 218.078 57.2583 233.758C50.1389 262.138 97.8745 279.198 118.219 262.138C130.809 251.587 142.643 216.808 140.909 197.831C139.052 177.425 107.4 163.736 95.8595 188.135Z" fill="#263238"/>
<path d="M141.664 223.94C142.201 223.781 142.983 223.549 143.655 223.329L145.755 222.621C147.159 222.133 148.551 221.595 149.931 221.021C152.681 219.893 155.363 218.608 157.967 217.175C163.068 214.453 167.659 210.866 171.534 206.575C174.99 202.472 177.469 196.879 179.41 191.139C180.4 188.257 181.23 185.29 181.938 182.274C182.647 179.257 183.318 176.168 183.831 173.2L188.813 173.505C188.822 180.109 188.105 186.694 186.676 193.142C185.95 196.446 184.966 199.688 183.733 202.838C182.456 206.163 180.744 209.305 178.641 212.18C174.34 217.695 169.006 222.32 162.937 225.796C160.013 227.525 156.978 229.059 153.851 230.388C152.288 231.047 150.713 231.609 149.101 232.207C148.307 232.488 147.501 232.757 146.659 233.001C145.816 233.245 145.071 233.477 144.07 233.721L141.664 223.94Z" fill="#7F3E3B"/>
<path d="M188.791 175.179L190.867 167.717L182.624 168.352C182.624 168.352 182.038 173.237 184.883 176.18L188.791 175.179Z" fill="#7F3E3B"/>
<path d="M192.099 159.035L184.577 161.001L182.623 168.352L190.866 167.717L192.099 159.035Z" fill="#7F3E3B"/>
<path d="M132.335 225.845C136.132 222.389 145.768 219.739 145.768 219.739L156.331 235.614C156.331 235.614 144.278 243.662 139.161 241.793C133.837 239.937 128.793 229.057 132.335 225.845Z" fill="#FFA319"/>
<path d="M97.5449 451.652L104.127 458.881L123.019 445.424L116.436 438.195L97.5449 451.652Z" fill="#7F3E3B"/>
<path d="M60.3984 480.215L69.2275 484.599L82.2085 465.561L73.3795 461.177L60.3984 480.215Z" fill="#7F3E3B"/>
<path d="M70.632 483.512L63.8178 474.781C63.7032 474.629 63.537 474.524 63.3503 474.485C63.1637 474.447 62.9695 474.478 62.8043 474.573L55.1231 478.97C54.933 479.086 54.7697 479.241 54.644 479.425C54.5183 479.609 54.433 479.817 54.3938 480.036C54.3545 480.256 54.3622 480.481 54.4164 480.697C54.4705 480.913 54.5699 481.115 54.7079 481.29C57.1502 484.294 58.4569 485.625 61.461 489.472C63.2927 491.828 67.0295 497.324 69.5696 500.584C72.1096 503.845 75.48 501.512 74.7107 499.925C71.267 492.805 71.0472 488.58 71.1693 485.185C71.1939 484.582 71.0035 483.989 70.632 483.512Z" fill="#263238"/>
<path d="M106.094 459.015L101.6 448.22C101.521 448.027 101.379 447.865 101.198 447.761C101.016 447.658 100.806 447.617 100.599 447.646L91.0735 448.867C90.8468 448.892 90.6291 448.969 90.4382 449.094C90.2473 449.218 90.0887 449.387 89.9755 449.585C89.8622 449.782 89.7976 450.004 89.7868 450.232C89.776 450.46 89.8194 450.687 89.9134 450.895C91.5498 454.644 92.5389 456.39 94.5172 461.14C95.7384 464.059 98.5715 471.728 100.245 475.794C101.918 479.861 106.216 478.896 105.899 477.113C104.47 469.127 104.958 463.973 106.143 460.835C106.255 460.543 106.308 460.232 106.3 459.92C106.292 459.608 106.222 459.3 106.094 459.015Z" fill="#263238"/>
<path opacity="0.2" d="M123.001 445.424L113.268 452.36L105.904 445.693L116.419 438.195L123.001 445.424Z" fill="black"/>
<path opacity="0.2" d="M73.378 461.177L82.2071 465.561L75.5029 475.379L66.6738 470.983L73.378 461.177Z" fill="black"/>
<path d="M145.634 227.079C145.634 227.079 145.927 226.639 140.578 284.986L100.646 287.783C100.182 271.493 101.403 259.989 93.7949 226.517C99.4053 225.387 105.091 224.669 110.806 224.368C116.857 223.964 122.93 223.996 128.977 224.465C136.78 225.21 145.634 227.079 145.634 227.079Z" fill="#FFA319"/>
<path d="M96.8002 236.188C93.8327 234.821 91.2316 233.355 88.5328 231.804C85.8341 230.253 83.2818 228.593 80.7418 226.834C75.5718 223.324 70.765 219.307 66.393 214.842L64.7811 213.096L64.3659 212.656C64.1278 212.383 63.9037 212.097 63.6942 211.801C63.3166 211.263 62.9895 210.691 62.7173 210.092C61.9087 208.184 61.4934 206.132 61.4961 204.059C61.5233 200.76 61.9664 197.478 62.815 194.29C64.3653 188.323 66.5174 182.53 69.2383 176.998L73.9032 178.805C73.1827 181.577 72.4989 184.459 71.8883 187.28C71.2777 190.101 70.7648 192.947 70.4229 195.731C70.0264 198.349 69.92 201.003 70.1054 203.644C70.1664 204.558 70.3983 205.453 70.7892 206.282C70.7892 206.367 70.9113 206.465 70.948 206.477C70.9846 206.489 70.948 206.477 70.948 206.477L71.3265 206.831L72.8286 208.26C77.0205 212.056 81.5128 215.507 86.2615 218.579C88.6428 220.154 91.1462 221.595 93.5885 223.048C96.0308 224.502 98.6564 225.882 101.038 227.091L96.8002 236.188Z" fill="#7F3E3B"/>
<path d="M109.513 228.751C104.982 222.438 96.0798 222.535 96.0798 222.535L85.3457 238.411C85.3457 238.411 97.3254 246.568 102.442 244.749C107.864 242.819 112.309 232.635 109.513 228.751Z" fill="#FFA319"/>
<path d="M128.976 224.465L110.805 224.367C108.02 225.491 106.408 232.732 124.848 238.862C137.634 231.597 130.832 225.137 128.976 224.465Z" fill="white"/>
<path d="M112.714 203.913C113.825 209.762 114.912 220.484 110.809 224.368C110.809 224.368 112.396 230.315 124.852 238.863C133.583 230.107 128.98 224.465 128.98 224.465C122.471 222.866 122.666 218.03 123.826 213.475L112.714 203.913Z" fill="#7F3E3B"/>
<path d="M150.37 261.992H150.175C149.531 261.939 148.934 261.633 148.515 261.141C148.096 260.649 147.889 260.01 147.94 259.366C148.38 253.92 144.277 249.804 139.563 245.03C134.153 239.571 128.011 233.38 127.766 223.745C127.75 223.097 127.992 222.469 128.439 222C128.885 221.53 129.5 221.257 130.148 221.241C130.795 221.225 131.423 221.467 131.893 221.913C132.362 222.36 132.635 222.975 132.651 223.623C132.846 231.316 138.024 236.543 143.031 241.598C148.038 246.654 153.423 252.076 152.8 259.757C152.748 260.366 152.47 260.933 152.02 261.347C151.57 261.761 150.981 261.991 150.37 261.992Z" fill="#263238"/>
<path d="M114.679 274.35C114.482 274.349 114.285 274.325 114.093 274.277C113.465 274.121 112.925 273.722 112.59 273.168C112.256 272.614 112.155 271.95 112.31 271.321C114.667 261.747 111.578 254.225 108.305 246.312C105.374 239.205 102.346 231.853 103.811 223.256C103.937 222.634 104.302 222.085 104.826 221.726C105.35 221.368 105.994 221.228 106.62 221.336C107.246 221.444 107.805 221.791 108.179 222.305C108.553 222.818 108.712 223.457 108.622 224.086C107.401 231.291 110.027 237.69 112.811 244.456C116.084 252.381 119.784 261.369 117.048 272.543C116.908 273.063 116.6 273.522 116.172 273.849C115.743 274.176 115.218 274.352 114.679 274.35Z" fill="#263238"/>
<path opacity="0.2" d="M121.529 211.459L116.645 212.033C116.881 213.348 117.353 214.61 118.037 215.758C119.001 217.211 121.151 217.846 123.275 217.907C123.273 216.396 123.479 214.893 123.886 213.438L121.529 211.459Z" fill="black"/>
<path d="M101.904 198.027C105.482 207.137 106.789 211.069 113.029 214.317C122.407 219.202 132.812 212.84 132.03 202.851C131.334 193.85 125.607 180.466 115.312 179.709C113.045 179.533 110.771 179.938 108.704 180.887C106.638 181.836 104.848 183.298 103.505 185.133C102.162 186.967 101.31 189.115 101.029 191.372C100.749 193.628 101.05 195.919 101.904 198.027Z" fill="#7F3E3B"/>
<path d="M111.711 178.39C118.659 182.665 112.712 207.808 100.952 206.477C89.1923 205.146 101.441 172.077 111.711 178.39Z" fill="#263238"/>
<path d="M111.454 178.488C106.216 181.968 109.794 188.025 127.452 184.435C127.452 184.423 120.149 172.699 111.454 178.488Z" fill="#263238"/>
<path d="M103.173 206.88C103.945 208.606 105.367 209.957 107.13 210.641C109.486 211.521 110.866 209.42 110.402 207.137C109.975 205.048 108.241 202.057 105.799 202.179C105.265 202.215 104.748 202.383 104.297 202.669C103.845 202.956 103.471 203.35 103.21 203.817C102.95 204.284 102.809 204.809 102.803 205.344C102.796 205.879 102.924 206.407 103.173 206.88Z" fill="#7F3E3B"/>
<path d="M140.605 284.987C140.605 284.987 161.975 354.752 163.697 384.769C165.48 415.994 119.112 453.044 119.112 453.044L107.572 440.381C107.572 440.381 145.245 408.386 140.08 385.208C132.936 353.262 111.297 287.038 111.297 287.038L140.605 284.987Z" fill="#263238"/>
<path opacity="0.2" d="M127.28 307.822C125.326 301.716 120.979 305.82 119.465 312.292C122.481 322.061 125.974 333.491 129.295 344.934C130.578 334.798 131.103 319.79 127.28 307.822Z" fill="black"/>
<path d="M104.443 439.77L119.085 454.876L125.338 451.42L109.865 434.58L104.443 439.77Z" fill="#FFA319"/>
<path d="M130.04 285.731C130.04 285.731 123.934 354.117 117.828 392.205C112.882 422.979 79.2879 473.242 79.2879 473.242L66.9785 467.515C66.9785 467.515 89.558 413.698 93.0749 392.779C104.359 325.823 89.1183 306.504 100.658 287.759L130.04 285.731Z" fill="#263238"/>
<path d="M66.1094 467.649L79.9941 474.463L84.5491 468.809L68.3075 461.152L66.1094 467.649Z" fill="#FFA319"/>
<path d="M99.8883 285.487L98.3374 289.15C98.2153 289.431 98.5573 289.7 99.0213 289.663L140.907 286.732C141.262 286.732 141.555 286.513 141.555 286.281L141.665 282.617C141.665 282.373 141.347 282.19 140.956 282.214L100.511 285.047C100.376 285.052 100.245 285.096 100.134 285.174C100.024 285.252 99.9381 285.361 99.8883 285.487Z" fill="white"/>
<path d="M105.631 289.615L104.557 289.688C104.337 289.688 104.166 289.602 104.166 289.468L104.349 284.791C104.349 284.657 104.545 284.522 104.752 284.51L105.839 284.437C106.059 284.437 106.23 284.522 106.218 284.657L106.034 289.334C106.034 289.492 105.851 289.615 105.631 289.615Z" fill="#263238"/>
<path d="M137.892 287.367L136.805 287.441C136.585 287.441 136.414 287.355 136.426 287.221L136.61 282.544C136.61 282.41 136.793 282.287 137.013 282.263L138.087 282.19C138.307 282.19 138.478 282.275 138.478 282.41L138.295 287.099C138.283 287.233 138.16 287.355 137.892 287.367Z" fill="#263238"/>
<path d="M121.762 288.503L120.675 288.577C120.468 288.577 120.297 288.491 120.297 288.357L120.48 283.668C120.48 283.533 120.663 283.411 120.883 283.399L121.97 283.326C122.177 283.326 122.348 283.411 122.348 283.545L122.165 288.223C122.165 288.394 121.982 288.479 121.762 288.503Z" fill="#263238"/>
<path d="M116.619 194.607C116.032 194.802 115.788 195.682 116.081 196.585L118.218 195.902C117.925 194.998 117.205 194.363 116.619 194.607Z" fill="#263238"/>
<path d="M125.947 191.652C125.348 191.848 125.104 192.739 125.397 193.643L127.547 192.947C127.168 192.043 126.472 191.469 125.947 191.652Z" fill="#263238"/>
<path d="M125.645 191.786L127.611 190.467C127.611 190.467 127.049 192.519 125.645 191.786Z" fill="#263238"/>
<path d="M123.508 195.34C124.736 196.849 126.166 198.18 127.757 199.297C127.462 199.698 127.083 200.029 126.647 200.267C126.21 200.506 125.726 200.645 125.23 200.677L123.508 195.34Z" fill="#630F0F"/>
<path d="M123.652 204.474C123.688 204.443 123.714 204.403 123.727 204.357C123.74 204.312 123.74 204.263 123.726 204.218C123.706 204.16 123.664 204.112 123.61 204.084C123.555 204.057 123.491 204.052 123.433 204.071C122.499 204.395 121.502 204.495 120.522 204.363C119.542 204.232 118.607 203.873 117.791 203.314C117.769 203.293 117.744 203.275 117.715 203.263C117.687 203.252 117.657 203.246 117.626 203.246C117.595 203.246 117.565 203.252 117.537 203.263C117.508 203.275 117.483 203.293 117.461 203.314C117.438 203.335 117.419 203.36 117.406 203.389C117.393 203.417 117.387 203.448 117.387 203.479C117.387 203.51 117.393 203.541 117.406 203.57C117.419 203.598 117.438 203.623 117.461 203.644C118.334 204.269 119.346 204.674 120.409 204.823C121.472 204.972 122.556 204.86 123.567 204.499L123.652 204.474Z" fill="#263238"/>
<path d="M113.53 194.058C113.592 194.006 113.639 193.939 113.665 193.863C113.832 193.294 114.136 192.775 114.548 192.35C114.961 191.924 115.471 191.605 116.034 191.42C116.093 191.406 116.149 191.38 116.198 191.344C116.247 191.308 116.289 191.262 116.321 191.21C116.353 191.158 116.374 191.1 116.383 191.04C116.393 190.979 116.39 190.918 116.376 190.859C116.361 190.799 116.335 190.743 116.299 190.694C116.263 190.645 116.218 190.603 116.166 190.571C116.113 190.539 116.055 190.518 115.995 190.509C115.935 190.5 115.873 190.502 115.814 190.517C115.106 190.74 114.462 191.129 113.935 191.651C113.408 192.174 113.014 192.815 112.785 193.521C112.747 193.637 112.756 193.764 112.811 193.874C112.866 193.984 112.962 194.068 113.078 194.107C113.151 194.141 113.232 194.154 113.311 194.145C113.391 194.137 113.467 194.107 113.53 194.058Z" fill="#263238"/>
<path d="M128.161 188.025C128.187 188.012 128.208 187.99 128.222 187.964C128.261 187.916 128.29 187.861 128.308 187.802C128.325 187.743 128.331 187.681 128.324 187.619C128.317 187.558 128.298 187.498 128.268 187.444C128.238 187.39 128.197 187.343 128.149 187.305C127.577 186.832 126.902 186.503 126.177 186.343C125.453 186.184 124.701 186.2 123.985 186.389C123.925 186.408 123.871 186.439 123.824 186.48C123.777 186.521 123.739 186.57 123.711 186.626C123.684 186.682 123.668 186.743 123.665 186.805C123.661 186.867 123.67 186.929 123.691 186.987C123.733 187.102 123.817 187.196 123.926 187.251C124.035 187.305 124.161 187.316 124.278 187.28C124.846 187.134 125.441 187.127 126.012 187.259C126.584 187.39 127.116 187.658 127.563 188.038C127.648 188.106 127.754 188.143 127.864 188.141C127.974 188.139 128.079 188.098 128.161 188.025Z" fill="#263238"/>
<path d="M79.2423 180.6C78.9457 180.6 78.6548 180.519 78.3997 180.368L41.2516 157.484C40.926 157.244 40.7024 156.89 40.6253 156.493C40.5482 156.096 40.6231 155.685 40.8352 155.34C41.0474 154.996 41.3812 154.744 41.7705 154.634C42.1598 154.524 42.5761 154.565 42.9368 154.748L80.0849 177.633C80.3844 177.815 80.616 178.089 80.7441 178.416C80.8722 178.742 80.8898 179.101 80.7941 179.438C80.6984 179.775 80.4948 180.071 80.2144 180.281C79.9341 180.491 79.5926 180.603 79.2423 180.6Z" fill="#FFA319"/>
<path d="M49.6627 160.011C51.7509 159.926 53.9001 159.828 54.181 157.948C54.4619 156.067 52.4469 155.347 50.5175 154.638L49.9924 154.443C49.9924 154.26 49.9069 154.077 49.858 153.906L50.2854 153.429C51.6532 151.915 53.0819 150.352 51.9707 148.862C50.8594 147.372 48.9544 148.252 47.086 149.119L46.512 149.387C46.3533 149.277 46.1945 149.192 46.0236 149.094C45.8526 148.997 46.0236 148.703 46.0236 148.532C45.9259 146.456 45.8282 144.307 43.9598 144.026C42.0914 143.745 41.3587 145.76 40.6504 147.69C40.5893 147.849 40.5283 148.032 40.455 148.215L39.9055 148.349L39.4415 147.934C37.9272 146.554 36.3641 145.138 34.8743 146.237C33.3844 147.336 34.2637 149.253 35.1307 151.121L35.3994 151.695C35.2929 151.848 35.1951 152.007 35.1063 152.172H34.5445C32.4686 152.269 30.3071 152.367 30.0262 154.248C29.7453 156.128 31.7725 156.849 33.6897 157.557L34.2148 157.752C34.2148 157.935 34.3003 158.119 34.3492 158.29C34.2026 158.461 34.0561 158.632 33.9217 158.766C32.554 160.28 31.1375 161.831 32.2365 163.333C33.3356 164.835 35.2528 163.931 37.1212 163.077L37.7074 162.808L38.1836 163.101C38.1836 163.296 38.1836 163.492 38.1836 163.663C38.2813 165.739 38.379 167.888 40.2474 168.169C42.1158 168.45 42.8607 166.435 43.569 164.505C43.569 164.359 43.6911 164.176 43.7522 163.98C43.938 163.947 44.1215 163.902 44.3017 163.846L44.778 164.273C46.28 165.641 47.8431 167.07 49.3452 165.971C50.8472 164.872 49.9435 162.955 49.0765 161.086C49.0032 160.927 48.9055 160.72 48.82 160.512L49.1131 160.036L49.6627 160.011Z" fill="#FFA319"/>
<path opacity="0.7" d="M49.6627 160.011C51.7509 159.926 53.9001 159.828 54.181 157.948C54.4619 156.067 52.4469 155.347 50.5175 154.638L49.9924 154.443C49.9924 154.26 49.9069 154.077 49.858 153.906L50.2854 153.429C51.6532 151.915 53.0819 150.352 51.9707 148.862C50.8594 147.372 48.9544 148.252 47.086 149.119L46.512 149.387C46.3533 149.277 46.1945 149.192 46.0236 149.094C45.8526 148.997 46.0236 148.703 46.0236 148.532C45.9259 146.456 45.8282 144.307 43.9598 144.026C42.0914 143.745 41.3587 145.76 40.6504 147.69C40.5893 147.849 40.5283 148.032 40.455 148.215L39.9055 148.349L39.4415 147.934C37.9272 146.554 36.3641 145.138 34.8743 146.237C33.3844 147.336 34.2637 149.253 35.1307 151.121L35.3994 151.695C35.2929 151.848 35.1951 152.007 35.1063 152.172H34.5445C32.4686 152.269 30.3071 152.367 30.0262 154.248C29.7453 156.128 31.7725 156.849 33.6897 157.557L34.2148 157.752C34.2148 157.935 34.3003 158.119 34.3492 158.29C34.2026 158.461 34.0561 158.632 33.9217 158.766C32.554 160.28 31.1375 161.831 32.2365 163.333C33.3356 164.835 35.2528 163.931 37.1212 163.077L37.7074 162.808L38.1836 163.101C38.1836 163.296 38.1836 163.492 38.1836 163.663C38.2813 165.739 38.379 167.888 40.2474 168.169C42.1158 168.45 42.8607 166.435 43.569 164.505C43.569 164.359 43.6911 164.176 43.7522 163.98C43.938 163.947 44.1215 163.902 44.3017 163.846L44.778 164.273C46.28 165.641 47.8431 167.07 49.3452 165.971C50.8472 164.872 49.9435 162.955 49.0765 161.086C49.0032 160.927 48.9055 160.72 48.82 160.512L49.1131 160.036L49.6627 160.011Z" fill="white"/>
<path d="M68.1515 180.991L66.625 171.222L76.5898 176.106C76.2143 177.751 75.3652 179.25 74.1474 180.417C73.6462 180.988 72.994 181.405 72.2659 181.621C71.5378 181.837 70.7634 181.843 70.0321 181.638L68.1515 180.991Z" fill="#7F3E3B"/>
<path d="M72.218 166.435L77.3225 170.917L76.5898 176.045L66.625 171.21L72.218 166.435Z" fill="#7F3E3B"/>
<path d="M73.8292 488.189C73.9327 488.115 74.0307 488.033 74.1222 487.945C74.2269 487.85 74.3038 487.728 74.3447 487.592C74.3856 487.457 74.3889 487.313 74.3543 487.176C74.0612 485.954 70.6908 484.733 70.3122 484.648C70.2704 484.63 70.2239 484.626 70.1798 484.637C70.1356 484.648 70.0964 484.673 70.068 484.709C70.0428 484.747 70.0293 484.791 70.0293 484.837C70.0293 484.883 70.0428 484.927 70.068 484.965C70.6175 486.186 71.7165 488.189 72.9499 488.397C73.2588 488.443 73.5734 488.368 73.8292 488.189ZM70.6908 485.283C72.0218 485.783 73.7437 486.638 73.9024 487.285C73.9138 487.346 73.9085 487.409 73.887 487.467C73.8655 487.525 73.8286 487.576 73.7803 487.615C73.6873 487.734 73.5654 487.826 73.4265 487.884C73.2875 487.941 73.136 487.963 72.9866 487.945C72.3149 487.823 71.4845 486.846 70.6908 485.283Z" fill="#FFA319"/>
<path d="M74.4546 484.929C74.5343 484.881 74.6046 484.819 74.6622 484.745C74.7813 484.601 74.8464 484.42 74.8464 484.233C74.8464 484.045 74.7813 483.864 74.6622 483.72C74.5714 483.565 74.4477 483.433 74.3 483.331C74.1523 483.23 73.9841 483.163 73.8073 483.134C72.403 482.877 70.1438 484.611 70.0583 484.684C70.0267 484.711 70.0022 484.745 69.9873 484.783C69.9724 484.822 69.9674 484.863 69.9729 484.904C69.9797 484.943 69.9953 484.98 70.0186 485.011C70.0419 485.043 70.0722 485.069 70.1072 485.087C71.5276 485.563 73.0726 485.507 74.4546 484.929ZM70.791 484.745C71.6273 484.063 72.6569 483.662 73.7341 483.598C73.8464 483.611 73.9538 483.652 74.0472 483.715C74.1407 483.779 74.2176 483.864 74.2714 483.964C74.4301 484.22 74.3569 484.355 74.2714 484.44C73.8318 484.965 71.829 485.063 70.7178 484.782L70.791 484.745Z" fill="#FFA319"/>
<path d="M106.313 464.547C106.562 465.312 107.045 465.978 107.693 466.452C107.876 466.56 108.08 466.626 108.291 466.645C108.503 466.664 108.716 466.636 108.914 466.562C109.033 466.529 109.141 466.463 109.225 466.373C109.309 466.282 109.366 466.17 109.391 466.049C109.647 464.828 106.448 461.812 105.8 461.165C105.761 461.139 105.714 461.125 105.666 461.125C105.618 461.125 105.572 461.139 105.532 461.165C105.489 461.188 105.455 461.224 105.435 461.268C105.415 461.312 105.411 461.362 105.422 461.409C105.602 462.485 105.901 463.537 106.313 464.547ZM108.853 465.463C108.923 465.603 108.952 465.76 108.939 465.915C108.939 465.976 108.939 466.037 108.768 466.086C108.625 466.141 108.472 466.163 108.32 466.15C108.168 466.137 108.02 466.091 107.889 466.013C107.144 465.573 106.46 464.108 106.02 462.032C107.132 463.026 108.088 464.183 108.853 465.463Z" fill="#FFA319"/>
<path d="M105.471 461.495C105.468 461.519 105.468 461.544 105.471 461.568C106.473 462.582 109.464 464.218 110.429 463.656C110.637 463.534 110.857 463.265 110.686 462.679C110.063 460.432 105.801 461.141 105.593 461.177C105.551 461.183 105.51 461.201 105.478 461.229C105.445 461.257 105.422 461.294 105.41 461.336C105.411 461.395 105.433 461.451 105.471 461.495ZM110.234 462.655L110.295 462.801C110.295 463.046 110.295 463.192 110.295 463.253C109.733 463.571 107.474 462.521 106.277 461.568C107.279 461.458 109.696 461.36 110.234 462.655Z" fill="#FFA319"/>
<path d="M116.379 194.742L118.345 193.411C118.345 193.411 117.783 195.474 116.379 194.742Z" fill="#263238"/>
<path d="M1172.93 515.794L1163.06 515.807L1160.4 492.965L1170.27 492.953L1172.93 515.794Z" fill="#FFC3BD"/>
<path d="M1257.86 473.396L1250.39 479.851L1233.47 464.279L1240.93 457.824L1257.86 473.396Z" fill="#FFC3BD"/>
<path d="M1248.94 479.597L1258.03 471.728C1258.18 471.605 1258.36 471.537 1258.56 471.537C1258.75 471.537 1258.94 471.605 1259.09 471.728L1266.01 477.254C1266.18 477.396 1266.32 477.573 1266.41 477.774C1266.5 477.974 1266.55 478.192 1266.55 478.412C1266.55 478.633 1266.5 478.851 1266.41 479.051C1266.32 479.251 1266.18 479.429 1266.01 479.571C1263.04 482.054 1260.77 483.722 1257.1 486.905C1254.83 488.866 1248.19 495.028 1245.05 497.74C1241.92 500.452 1238.96 497.587 1239.96 496.187C1244.67 489.922 1247.6 484.371 1248.06 481.073C1248.17 480.494 1248.48 479.972 1248.94 479.597Z" fill="#263238"/>
<path d="M1163.12 514.661H1173.9C1174.1 514.662 1174.29 514.73 1174.44 514.852C1174.59 514.975 1174.7 515.145 1174.74 515.336L1176.71 524.109C1176.75 524.32 1176.75 524.54 1176.7 524.751C1176.65 524.962 1176.56 525.16 1176.42 525.329C1176.29 525.498 1176.11 525.634 1175.92 525.727C1175.72 525.82 1175.51 525.867 1175.29 525.866C1171.4 525.802 1165.78 525.586 1160.89 525.586C1155.19 525.586 1151.84 525.738 1145.14 525.751C1141.09 525.751 1139.96 521.664 1141.65 521.295C1149.37 519.589 1154.08 519.576 1160.75 515.451C1161.45 514.972 1162.27 514.699 1163.12 514.661Z" fill="#263238"/>
<path d="M1131.05 232.17C1129.06 231.406 1127.35 230.706 1125.57 229.891C1123.79 229.076 1122.07 228.274 1120.34 227.421C1116.88 225.724 1113.49 223.831 1110.15 221.743C1106.8 219.685 1103.57 217.423 1100.49 214.969C1099.71 214.333 1098.92 213.696 1098.16 213.047L1095.89 210.971C1095.14 210.284 1094.43 209.494 1093.7 208.756C1093.33 208.348 1093.02 208.056 1092.6 207.572C1092.17 207.088 1091.77 206.617 1091.4 206.133C1090.01 204.292 1088.82 202.302 1087.87 200.2C1086.99 198.28 1086.23 196.302 1085.62 194.279C1084.45 190.46 1083.6 186.551 1083.07 182.591C1082.07 174.968 1081.87 167.26 1082.5 159.596H1089.91C1090.42 163.047 1090.95 166.676 1091.65 170.164C1092.35 173.653 1093.09 177.142 1094 180.503C1094.85 183.786 1095.93 187.007 1097.23 190.141C1098.31 192.913 1099.82 195.492 1101.72 197.781L1102.35 198.417C1102.54 198.621 1102.92 198.926 1103.2 199.181C1103.81 199.703 1104.37 200.251 1105.02 200.747C1106.3 201.766 1107.57 202.772 1108.99 203.739C1111.74 205.649 1114.65 207.47 1117.68 209.176C1120.71 210.882 1123.8 212.499 1126.95 214.027C1128.53 214.804 1130.12 215.568 1131.71 216.281C1133.3 216.994 1134.97 217.745 1136.39 218.356L1131.05 232.17Z" fill="#FFC3BD"/>
<path d="M1132.63 240.574C1127.01 237.081 1121.7 233.111 1116.76 228.707L1120.7 208.603C1128.01 210.684 1135.45 212.308 1142.96 213.467C1155.38 215.071 1141.48 245.845 1132.63 240.574Z" fill="#263238"/>
<path d="M1090.17 161.328L1090.87 148.761L1080.42 152.11C1080.42 152.11 1077.99 161.111 1084.77 163.48L1090.17 161.328Z" fill="#FFC3BD"/>
<path d="M1089.61 142L1080.99 145.591L1080.43 152.109L1090.87 148.761L1089.61 142Z" fill="#FFC3BD"/>
<path opacity="0.2" d="M1160.41 492.965L1161.77 504.743L1171.64 504.73L1170.28 492.953L1160.41 492.965Z" fill="black"/>
<path opacity="0.2" d="M1240.94 457.824L1233.47 464.279L1242.2 472.301L1249.66 465.845L1240.94 457.824Z" fill="black"/>
<path d="M1180.91 213.059C1180.93 212.36 1180.81 211.664 1180.56 211.01C1180.31 210.357 1179.94 209.759 1179.46 209.251C1178.98 208.743 1178.4 208.336 1177.76 208.052C1177.12 207.768 1176.44 207.613 1175.74 207.597C1147.57 207.075 1129.25 214.969 1127.99 215.478C1127.52 215.668 1127.11 215.974 1126.79 216.369C1126.47 216.763 1126.26 217.232 1126.17 217.732C1125 224.785 1121.68 254.35 1137.96 300.619L1190.16 293.145C1189.46 285.442 1179.73 250.097 1180.91 213.059Z" fill="#263238"/>
<path d="M1138.69 211.925C1135.59 216.063 1134.19 225.6 1144.44 232.577C1157.05 223.168 1163.54 213.046 1165.46 207.775C1156.42 208.228 1147.45 209.619 1138.69 211.925Z" fill="white"/>
<path d="M1136.34 215.796C1135.67 215.796 1135.02 215.528 1134.54 215.05C1134.07 214.573 1133.8 213.925 1133.8 213.249C1133.8 211.149 1135.62 209.341 1137.16 208.157C1142.33 204.337 1152.44 201.421 1165.17 205.101C1165.79 205.307 1166.32 205.748 1166.62 206.331C1166.93 206.914 1167 207.593 1166.82 208.226C1166.63 208.859 1166.21 209.397 1165.64 209.726C1165.07 210.054 1164.4 210.149 1163.76 209.99C1148.99 205.725 1139.88 211.785 1138.9 213.53C1138.83 214.158 1138.53 214.737 1138.06 215.156C1137.59 215.575 1136.98 215.803 1136.34 215.796Z" fill="#FFA319"/>
<path d="M1157.51 183.571C1157.13 190.917 1157.6 204.21 1163.27 208.259C1159.94 212.677 1155.5 217.859 1147.05 219.374C1141.96 220.278 1140.22 218.394 1140 216.013C1139.93 214.864 1140.18 213.719 1140.73 212.708C1141.28 211.696 1142.1 210.861 1143.11 210.296C1148.59 207.113 1147.5 201.994 1145.53 197.156L1157.51 183.571Z" fill="#FFC3BD"/>
<path d="M1135.57 274.212C1135.28 274.211 1135 274.159 1134.73 274.059C1134.09 273.834 1133.57 273.366 1133.28 272.757C1132.99 272.148 1132.95 271.449 1133.17 270.812C1133.53 269.922 1133.69 268.967 1133.66 268.009C1133.62 267.051 1133.39 266.111 1132.97 265.248L1132.7 264.523C1132.27 263.667 1131.69 262.892 1131 262.231C1129.51 261.036 1128.48 259.363 1128.08 257.495C1127.68 255.626 1127.95 253.679 1128.82 251.981C1129.13 251.255 1129.32 250.479 1129.37 249.69C1129.12 248.783 1128.73 247.922 1128.21 247.143C1127.16 245.641 1126.54 243.88 1126.41 242.05C1126.56 240.137 1127.25 238.306 1128.41 236.779C1128.85 236.2 1129.19 235.555 1129.43 234.869C1129.44 234.161 1129.3 233.458 1129.02 232.807C1128.41 231.36 1128.26 229.759 1128.59 228.223C1129.11 226.491 1130.17 224.972 1131.62 223.894C1132.03 223.584 1132.39 223.21 1132.68 222.786C1132.86 222.171 1132.86 221.517 1132.68 220.902C1132.29 219.427 1132.5 217.86 1133.25 216.535C1134.14 215.134 1134.05 214.778 1133.98 214.485C1133.85 214.038 1133.79 213.574 1133.81 213.11C1133.81 212.434 1134.08 211.787 1134.56 211.309C1135.03 210.832 1135.68 210.563 1136.36 210.563C1137.03 210.563 1137.68 210.832 1138.16 211.309C1138.64 211.787 1138.9 212.434 1138.9 213.11V213.186C1139.26 214.625 1139.36 216.344 1137.63 219.158C1137.65 219.457 1137.69 219.754 1137.75 220.049C1138.13 221.449 1138.07 222.934 1137.58 224.301C1137.09 225.667 1136.19 226.85 1135.01 227.688C1134.19 228.401 1133.74 228.834 1133.56 229.458C1133.53 230.046 1133.65 230.632 1133.9 231.164C1134.44 232.526 1134.66 233.995 1134.52 235.455C1134.24 236.918 1133.63 238.297 1132.74 239.491C1132.15 240.236 1131.74 241.107 1131.55 242.037C1131.75 242.929 1132.13 243.772 1132.65 244.52C1133.57 245.888 1134.19 247.432 1134.47 249.053C1134.54 250.586 1134.28 252.115 1133.7 253.535C1133.28 254.44 1133.09 255.43 1133.12 256.425C1133.53 257.308 1134.1 258.101 1134.82 258.755C1136 259.907 1136.93 261.284 1137.57 262.804L1137.8 263.466C1139.05 266.312 1139.13 269.539 1138.01 272.442C1137.85 272.959 1137.52 273.41 1137.08 273.728C1136.64 274.047 1136.11 274.216 1135.57 274.212Z" fill="#FFA319"/>
<path d="M1180.44 212.639C1181.83 213.912 1182.99 214.982 1184.16 216.204C1185.33 217.426 1186.48 218.61 1187.61 219.833C1189.87 222.277 1192.01 224.849 1194.08 227.472C1198.37 232.908 1201.97 238.863 1204.78 245.195C1205.49 246.889 1206.11 248.619 1206.64 250.377C1206.91 251.269 1207.14 252.198 1207.36 253.14L1207.43 253.484L1207.55 254.083C1207.62 254.477 1207.66 254.897 1207.7 255.356C1207.76 256.205 1207.74 257.058 1207.62 257.902C1207.44 259.424 1206.97 260.899 1206.26 262.257C1205.67 263.387 1204.94 264.446 1204.11 265.414C1202.73 266.99 1201.14 268.37 1199.39 269.514C1196.39 271.474 1193.17 273.056 1189.79 274.225C1188.18 274.811 1186.56 275.307 1184.93 275.727C1183.3 276.148 1181.73 276.542 1179.96 276.835L1177.66 269.794C1178.94 269.081 1180.3 268.33 1181.59 267.566C1182.87 266.802 1184.13 266 1185.41 265.198C1187.77 263.702 1190 261.997 1192.06 260.105C1192.86 259.342 1193.55 258.487 1194.14 257.558C1194.59 256.833 1194.55 256.349 1194.42 256.502C1194.41 256.544 1194.41 256.587 1194.42 256.629L1194.34 256.4C1194.15 255.814 1193.97 255.216 1193.72 254.605C1193.25 253.362 1192.71 252.146 1192.1 250.963C1190.82 248.448 1189.37 246.027 1187.75 243.718C1186.13 241.325 1184.35 238.982 1182.46 236.69C1180.58 234.398 1178.64 232.145 1176.59 229.917C1175.59 228.809 1174.56 227.727 1173.51 226.657C1172.47 225.588 1171.37 224.467 1170.45 223.576L1180.44 212.639Z" fill="#FFC3BD"/>
<path d="M1177.15 207.813C1182.91 208.666 1191.94 223.092 1191.94 223.092L1177.28 242.738C1177.28 242.738 1169.46 235.289 1167.18 228.732C1162.88 216.153 1165.85 206.158 1177.15 207.813Z" fill="#263238"/>
<path d="M1169.48 257.265C1169.04 257.26 1168.6 257.14 1168.22 256.917C1167.84 256.694 1167.52 256.375 1167.3 255.992C1166.43 254.28 1166.05 252.357 1166.21 250.441C1166.27 249.65 1166.2 248.853 1166 248.085C1165.49 247.295 1164.85 246.597 1164.1 246.023C1162.64 244.932 1161.5 243.461 1160.81 241.77C1160.33 239.911 1160.42 237.954 1161.05 236.142C1161.28 235.452 1161.4 234.731 1161.42 234.003C1161.1 233.13 1160.63 232.316 1160.04 231.597C1158.73 230.249 1157.96 228.464 1157.89 226.584C1157.81 224.705 1158.43 222.863 1159.62 221.411C1159.97 220.893 1160.25 220.332 1160.45 219.743C1160.38 218.777 1160.15 217.829 1159.76 216.942C1159.04 215.44 1158.79 213.752 1159.05 212.104C1159.53 209.76 1160.71 207.618 1162.44 205.967L1162.6 205.801C1163.08 205.35 1163.71 205.099 1164.36 205.101C1165.02 205.103 1165.65 205.358 1166.12 205.812C1166.59 206.267 1166.87 206.886 1166.9 207.541C1166.93 208.195 1166.7 208.836 1166.27 209.328L1165.98 209.621C1164.94 210.625 1164.24 211.929 1163.98 213.352C1164.12 213.991 1164.31 214.617 1164.55 215.223C1165.22 216.766 1165.55 218.432 1165.53 220.112C1165.33 221.507 1164.81 222.836 1164.02 223.996C1163.46 224.747 1163.1 225.621 1162.96 226.542C1163.26 227.33 1163.69 228.062 1164.23 228.707C1165.26 229.985 1166.01 231.463 1166.43 233.048C1166.63 234.526 1166.49 236.028 1166.01 237.441C1165.69 238.337 1165.57 239.295 1165.67 240.242C1166.15 241.023 1166.78 241.705 1167.52 242.254C1168.81 243.272 1169.88 244.546 1170.66 245.997C1171.21 247.428 1171.44 248.963 1171.32 250.492C1171.23 251.483 1171.36 252.483 1171.69 253.42C1172.04 253.999 1172.14 254.692 1171.98 255.346C1171.81 256 1171.39 256.562 1170.81 256.909C1170.41 257.149 1169.95 257.272 1169.48 257.265Z" fill="#FFA319"/>
<path opacity="0.2" d="M1152.62 189.109L1145.54 197.143C1146.07 198.378 1146.5 199.656 1146.81 200.963C1149.79 200.085 1153.5 196.15 1153.37 192.916C1153.35 191.613 1153.1 190.323 1152.62 189.109Z" fill="black"/>
<path d="M1137.73 162.677C1134.59 168.152 1136.6 175.944 1136.6 175.944C1137.44 176.493 1138.42 176.806 1139.42 176.851C1140.43 176.895 1141.43 176.67 1142.32 176.199L1141.42 161.684L1137.73 162.677Z" fill="#263238"/>
<path d="M1162.52 176.581C1160.11 186.079 1159.18 191.758 1153.4 195.768C1144.71 201.803 1133.68 195.157 1133.21 185.137C1132.78 176.11 1136.79 162.104 1146.92 160.067C1149.15 159.605 1151.46 159.721 1153.64 160.405C1155.81 161.088 1157.77 162.316 1159.33 163.971C1160.89 165.626 1162.01 167.654 1162.57 169.861C1163.12 172.068 1163.11 174.381 1162.52 176.581Z" fill="#FFC3BD"/>
<path d="M1134.79 187.632H1134.45L1112.86 183.062C1111.69 182.813 1110.66 182.109 1110.01 181.104C1109.36 180.099 1109.13 178.875 1109.38 177.701C1109.62 176.528 1110.33 175.501 1111.33 174.847C1112.34 174.193 1113.56 173.964 1114.74 174.213C1114.95 174.258 1115.15 174.345 1115.33 174.469C1115.51 174.593 1115.66 174.751 1115.78 174.934C1115.9 175.118 1115.98 175.323 1116.02 175.538C1116.06 175.753 1116.06 175.973 1116.01 176.186C1115.91 176.616 1115.65 176.991 1115.28 177.229C1114.91 177.467 1114.47 177.55 1114.04 177.459C1113.88 177.423 1113.73 177.418 1113.57 177.447C1113.42 177.475 1113.27 177.536 1113.14 177.625C1113.01 177.708 1112.9 177.817 1112.82 177.943C1112.73 178.07 1112.67 178.213 1112.63 178.363C1112.58 178.671 1112.64 178.988 1112.8 179.255C1112.98 179.508 1113.24 179.689 1113.54 179.764L1135.12 184.335C1135.52 184.422 1135.88 184.654 1136.12 184.987C1136.36 185.32 1136.47 185.729 1136.42 186.138C1136.38 186.546 1136.19 186.924 1135.89 187.2C1135.58 187.476 1135.19 187.63 1134.78 187.632H1134.79Z" fill="#FFA319"/>
<path d="M1134.7 188.014L1132.09 187.454L1132.92 183.635L1135.47 184.182C1135.98 184.292 1136.43 184.602 1136.72 185.044C1137.01 185.485 1137.11 186.023 1137 186.537C1136.87 187.026 1136.56 187.45 1136.14 187.723C1135.71 187.997 1135.2 188.101 1134.7 188.014Z" fill="white"/>
<path d="M1156.63 171.36C1156.63 167.744 1153.9 165.109 1144.81 165.809C1137.39 166.369 1133.77 162.906 1135.9 158.081C1141.91 161.213 1140.92 157.113 1152.38 156.616C1163.83 156.12 1167.16 160.436 1168.37 167.146C1175.38 177.548 1163.27 181.865 1163.27 181.865L1158.54 186.003C1157.56 186.226 1156.53 186.181 1155.58 185.875C1154.62 185.568 1153.76 185.01 1153.09 184.258C1153.09 184.258 1152.16 175.817 1156.63 171.36Z" fill="#263238"/>
<path d="M1144.46 154.821L1144.17 154.974C1143.89 155.119 1143.66 155.334 1143.5 155.595C1143.34 155.857 1143.25 156.158 1143.24 156.466C1143.23 156.775 1143.3 157.08 1143.44 157.353C1143.59 157.625 1143.8 157.854 1144.06 158.017L1170.65 174.455C1170.9 174.608 1171.18 174.696 1171.48 174.711C1171.77 174.727 1172.06 174.668 1172.33 174.542C1172.59 174.415 1172.82 174.224 1172.99 173.987C1173.16 173.749 1173.27 173.472 1173.31 173.181C1173.43 172.36 1173.31 171.521 1172.97 170.767C1172.62 170.013 1172.06 169.379 1171.35 168.941L1148.69 154.936C1148.05 154.55 1147.33 154.336 1146.59 154.316C1145.85 154.296 1145.11 154.47 1144.46 154.821Z" fill="#FFA319"/>
<path d="M1149.24 156.579L1156.04 146.622C1156.24 146.338 1156.53 146.139 1156.87 146.066C1157.2 145.993 1157.55 146.05 1157.85 146.227L1176.62 157.47C1176.78 157.566 1176.92 157.696 1177.03 157.851C1177.14 158.006 1177.22 158.183 1177.25 158.37C1177.29 158.557 1177.29 158.749 1177.24 158.934C1177.2 159.119 1177.12 159.293 1177 159.443L1168.86 170.189L1149.24 156.579Z" fill="#FFA319"/>
<path d="M1149.24 156.579L1151.95 151.728L1172.91 165.58L1168.86 170.189L1149.24 156.579Z" fill="#FFA319"/>
<path opacity="0.6" d="M1149.24 156.579L1151.95 151.728L1172.91 165.58L1168.86 170.189L1149.24 156.579Z" fill="white"/>
<path d="M1163.73 188.231C1161.87 189.502 1159.58 189.995 1157.36 189.606C1154.47 189.046 1154.47 186.117 1156.47 184.042C1158.27 182.17 1161.95 180.222 1164.27 181.839C1166.58 183.456 1166.04 186.639 1163.73 188.231Z" fill="#FFC3BD"/>
<path d="M1158.07 502.476H1174.77C1174.77 502.476 1172.15 443.067 1168.55 412.535C1167.45 403.241 1168.63 390.508 1168.75 376.287C1168.9 358.372 1169.73 338.854 1170.54 323.537C1171.41 307.405 1172.14 295.78 1172.14 295.78L1137.96 300.657C1137.96 300.657 1134.58 385.237 1139.89 414.878C1145.41 445.665 1158.07 502.476 1158.07 502.476Z" fill="#FFA319"/>
<path opacity="0.2" d="M1168.75 376.248C1168.9 358.334 1169.73 338.815 1170.54 323.499L1165.45 316.687C1159.16 328.464 1163.53 359.824 1168.75 376.248Z" fill="black"/>
<path d="M1154.25 298.288C1154.25 298.288 1175.47 382.105 1185.55 409.212C1196.59 438.878 1237.25 473.561 1237.25 473.561L1247.52 462.255C1247.52 462.255 1226.02 428.731 1210.17 396.48C1202.59 354.603 1190.21 293.145 1190.21 293.145L1154.25 298.288Z" fill="#FFA319"/>
<path d="M1235.87 475.268L1251.98 461.351L1247.82 456.551L1229.55 471.792L1235.87 475.268Z" fill="#263238"/>
<path d="M1155.97 502.858L1175.88 502.833L1175.87 496.403L1153.62 496.097L1155.97 502.858Z" fill="#263238"/>
<path d="M1147.86 174.722C1147.22 174.531 1146.47 175.142 1146.16 176.097L1148.43 176.823C1148.74 175.868 1148.48 174.926 1147.86 174.722Z" fill="#263238"/>
<path d="M1137.93 172.85C1137.28 172.85 1136.65 173.589 1136.65 174.594L1139.02 174.747C1139.06 173.741 1138.59 172.952 1137.93 172.85Z" fill="#263238"/>
<path d="M1141.35 175.753C1139.96 177.967 1138.28 179.981 1136.35 181.738C1136.81 182.22 1137.38 182.595 1138 182.837C1138.63 183.079 1139.3 183.181 1139.96 183.138L1141.35 175.753Z" fill="#ED847E"/>
<path d="M1151.09 173.703C1151.17 173.722 1151.25 173.722 1151.33 173.703C1151.45 173.665 1151.55 173.583 1151.61 173.473C1151.66 173.364 1151.68 173.236 1151.64 173.118C1151.44 172.403 1151.07 171.746 1150.57 171.204C1150.06 170.661 1149.44 170.247 1148.74 169.998C1148.68 169.979 1148.62 169.972 1148.55 169.978C1148.49 169.984 1148.43 170.002 1148.38 170.032C1148.33 170.062 1148.28 170.103 1148.24 170.152C1148.2 170.201 1148.18 170.257 1148.16 170.317C1148.15 170.375 1148.14 170.437 1148.15 170.497C1148.15 170.558 1148.17 170.617 1148.2 170.67C1148.23 170.723 1148.27 170.77 1148.32 170.808C1148.37 170.846 1148.42 170.873 1148.48 170.89C1149.04 171.103 1149.53 171.445 1149.92 171.888C1150.32 172.331 1150.6 172.862 1150.75 173.436C1150.78 173.504 1150.83 173.563 1150.89 173.609C1150.95 173.656 1151.02 173.688 1151.09 173.703Z" fill="#263238"/>
<path d="M1134.99 171.514C1135.06 171.526 1135.14 171.52 1135.21 171.496C1135.29 171.472 1135.35 171.43 1135.41 171.374C1135.79 170.931 1136.27 170.586 1136.81 170.365C1137.36 170.144 1137.94 170.053 1138.53 170.1C1138.65 170.119 1138.78 170.087 1138.88 170.013C1138.98 169.939 1139.04 169.829 1139.06 169.706C1139.08 169.586 1139.05 169.464 1138.98 169.366C1138.91 169.268 1138.8 169.202 1138.68 169.184C1137.94 169.111 1137.2 169.216 1136.51 169.491C1135.82 169.765 1135.2 170.202 1134.72 170.762C1134.67 170.805 1134.64 170.857 1134.61 170.913C1134.59 170.97 1134.58 171.032 1134.58 171.093C1134.58 171.155 1134.59 171.217 1134.61 171.273C1134.64 171.33 1134.67 171.382 1134.72 171.424C1134.8 171.478 1134.89 171.509 1134.99 171.514Z" fill="#263238"/>
<path d="M1247.54 483.085C1248.18 482.493 1248.77 481.831 1249.27 481.112C1249.29 481.074 1249.31 481.03 1249.31 480.984C1249.31 480.939 1249.29 480.895 1249.27 480.857C1249.25 480.814 1249.22 480.78 1249.17 480.759C1249.13 480.738 1249.08 480.732 1249.04 480.742C1248.63 480.742 1245 481.341 1244.53 482.499C1244.48 482.626 1244.46 482.765 1244.48 482.901C1244.5 483.037 1244.55 483.167 1244.63 483.276C1244.75 483.472 1244.92 483.635 1245.12 483.748C1245.32 483.862 1245.55 483.923 1245.78 483.925C1246.44 483.857 1247.07 483.56 1247.54 483.085ZM1248.55 481.303C1247.5 482.665 1246.48 483.454 1245.79 483.454C1245.64 483.45 1245.48 483.406 1245.35 483.326C1245.22 483.245 1245.11 483.132 1245.03 482.996C1245 482.95 1244.98 482.897 1244.98 482.843C1244.98 482.789 1245 482.736 1245.03 482.69C1245.21 482.092 1247.1 481.557 1248.55 481.303Z" fill="#FFA319"/>
<path d="M1249.23 481.162C1249.26 481.13 1249.29 481.091 1249.3 481.048C1249.32 481.01 1249.33 480.969 1249.33 480.927C1249.33 480.885 1249.32 480.843 1249.3 480.806C1249.21 480.717 1247.27 478.641 1245.82 478.654C1245.64 478.655 1245.46 478.692 1245.3 478.765C1245.14 478.837 1244.99 478.942 1244.87 479.074C1244.74 479.192 1244.65 479.351 1244.61 479.527C1244.58 479.703 1244.61 479.884 1244.69 480.042C1245.22 481.035 1248.06 481.442 1249.18 481.213L1249.23 481.162ZM1245.23 479.329C1245.38 479.201 1245.57 479.133 1245.76 479.138C1246.69 479.138 1247.97 480.22 1248.58 480.793C1247.3 480.857 1245.36 480.398 1245.04 479.813C1245.04 479.749 1244.95 479.622 1245.15 479.405L1245.23 479.329Z" fill="#FFA319"/>
<path d="M1162.15 516.036C1162.19 516.022 1162.23 515.997 1162.26 515.963C1162.28 515.929 1162.3 515.888 1162.31 515.845C1162.32 515.798 1162.31 515.748 1162.29 515.704C1162.27 515.66 1162.23 515.625 1162.19 515.603C1161.73 515.374 1157.77 513.362 1156.58 514.037C1156.46 514.097 1156.36 514.187 1156.3 514.296C1156.23 514.406 1156.19 514.532 1156.18 514.661C1156.16 514.872 1156.18 515.086 1156.26 515.284C1156.34 515.482 1156.46 515.658 1156.63 515.794C1157.71 516.749 1160.54 516.354 1162.13 516.036H1162.15ZM1156.88 514.406C1157.63 514.152 1159.78 514.967 1161.35 515.68C1159.17 516.049 1157.53 515.96 1156.93 515.412C1156.83 515.321 1156.74 515.204 1156.7 515.073C1156.65 514.941 1156.63 514.8 1156.65 514.661C1156.65 514.61 1156.67 514.561 1156.69 514.518C1156.72 514.475 1156.76 514.441 1156.81 514.419L1156.88 514.406Z" fill="#FFA319"/>
<path d="M1162.15 516.036H1162.22C1162.25 516.01 1162.28 515.978 1162.29 515.94C1162.31 515.902 1162.32 515.861 1162.32 515.82C1162.32 515.718 1162.03 513.057 1160.78 512C1160.6 511.852 1160.4 511.74 1160.18 511.672C1159.96 511.604 1159.73 511.582 1159.5 511.605C1158.85 511.605 1158.68 512 1158.64 512.255C1158.46 513.375 1160.82 515.501 1162.01 516.074C1162.06 516.075 1162.11 516.062 1162.15 516.036ZM1159.29 512.102H1159.53C1159.7 512.083 1159.87 512.1 1160.03 512.153C1160.2 512.205 1160.35 512.292 1160.47 512.407C1161.2 513.262 1161.64 514.32 1161.75 515.438C1160.54 514.712 1158.92 513.044 1159.03 512.369C1159.06 512.28 1159.06 512.166 1159.29 512.102Z" fill="#FFA319"/>
<path d="M1178.86 269.132L1169.36 272.137L1176.73 279.47C1176.73 279.47 1185.34 275.74 1182.64 271.946L1178.86 269.132Z" fill="#FFC3BD"/>
<path d="M1165.45 280.514L1172.21 284.614L1176.73 279.47L1169.36 272.136L1165.45 280.514Z" fill="#FFC3BD"/>
</svg>
