<svg width="1280" height="345" viewBox="0 0 1280 345" fill="none" xmlns="http://www.w3.org/2000/svg">
<path d="M159.706 124.886C147.369 124.886 141.565 112.475 141.322 111.952C141.111 111.371 141.126 110.732 141.364 110.162C141.602 109.591 142.046 109.131 142.607 108.872C143.169 108.614 143.807 108.576 144.395 108.766C144.984 108.956 145.479 109.361 145.783 109.899C145.783 110.067 150.691 120.239 160.08 119.978C160.697 120.013 161.278 120.278 161.709 120.721C162.139 121.165 162.387 121.754 162.404 122.372C162.42 122.99 162.204 123.591 161.797 124.057C161.391 124.523 160.825 124.819 160.21 124.886H159.706Z" fill="#FFA319"/>
<path d="M236.569 55.049C235.496 55.0537 234.423 54.9851 233.359 54.8437C233.04 54.7959 232.734 54.6858 232.458 54.5197C232.182 54.3536 231.941 54.1348 231.75 53.8757C231.558 53.6166 231.42 53.3223 231.342 53.0096C231.264 52.6969 231.249 52.372 231.297 52.0534C231.344 51.7347 231.455 51.4287 231.621 51.1526C231.787 50.8765 232.006 50.6358 232.265 50.4443C232.524 50.2528 232.818 50.1142 233.131 50.0364C233.443 49.9586 233.768 49.9432 234.087 49.991C234.199 49.991 245.435 51.5774 250.362 43.5705C250.53 43.296 250.75 43.0573 251.01 42.8679C251.271 42.6785 251.565 42.5423 251.878 42.4669C252.191 42.3915 252.516 42.3785 252.834 42.4285C253.151 42.4786 253.456 42.5908 253.731 42.7587C254.005 42.9266 254.244 43.1469 254.434 43.407C254.623 43.6672 254.759 43.9621 254.835 44.275C254.91 44.5878 254.923 44.9124 254.873 45.2303C254.823 45.5481 254.711 45.853 254.543 46.1275C249.634 53.8918 241.142 55.049 236.569 55.049Z" fill="#FFA319"/>
<path opacity="0.6" d="M236.569 55.049C235.496 55.0537 234.423 54.9851 233.359 54.8437C233.04 54.7959 232.734 54.6858 232.458 54.5197C232.182 54.3536 231.941 54.1348 231.75 53.8757C231.558 53.6166 231.42 53.3223 231.342 53.0096C231.264 52.6969 231.249 52.372 231.297 52.0534C231.344 51.7347 231.455 51.4287 231.621 51.1526C231.787 50.8765 232.006 50.6358 232.265 50.4443C232.524 50.2528 232.818 50.1142 233.131 50.0364C233.443 49.9586 233.768 49.9432 234.087 49.991C234.199 49.991 245.435 51.5774 250.362 43.5705C250.53 43.296 250.75 43.0573 251.01 42.8679C251.271 42.6785 251.565 42.5423 251.878 42.4669C252.191 42.3915 252.516 42.3785 252.834 42.4285C253.151 42.4786 253.456 42.5908 253.731 42.7587C254.005 42.9266 254.244 43.1469 254.434 43.407C254.623 43.6672 254.759 43.9621 254.835 44.275C254.91 44.5878 254.923 44.9124 254.873 45.2303C254.823 45.5481 254.711 45.853 254.543 46.1275C249.634 53.8918 241.142 55.049 236.569 55.049Z" fill="white"/>
<path d="M16.3857 128.573C11.8242 129.854 6.99745 129.851 2.43783 128.563C2.11778 128.477 1.81851 128.327 1.5582 128.122C1.29789 127.917 1.08196 127.661 0.923542 127.37C0.765125 127.079 0.667518 126.759 0.63665 126.429C0.605782 126.099 0.642303 125.766 0.743983 125.451C0.845662 125.136 1.01038 124.844 1.22815 124.595C1.44591 124.345 1.71215 124.142 2.01073 123.998C2.30931 123.854 2.63399 123.773 2.96504 123.759C3.29608 123.744 3.62659 123.797 3.93649 123.915C4.02542 123.886 14.9186 127.101 20.9448 119.876C21.1439 119.606 21.3961 119.379 21.6861 119.209C21.9761 119.04 22.2977 118.931 22.6311 118.891C22.9646 118.85 23.3028 118.878 23.625 118.973C23.9473 119.067 24.2467 119.227 24.505 119.442C24.7632 119.657 24.9748 119.922 25.1268 120.222C25.2787 120.521 25.3678 120.849 25.3885 121.184C25.4092 121.519 25.3612 121.855 25.2473 122.171C25.1334 122.487 24.9561 122.777 24.7262 123.022C22.5418 125.64 19.6445 127.569 16.3857 128.573Z" fill="#FFA319"/>
<path opacity="0.6" d="M16.3857 128.573C11.8242 129.854 6.99745 129.851 2.43783 128.563C2.11778 128.477 1.81851 128.327 1.5582 128.122C1.29789 127.917 1.08196 127.661 0.923542 127.37C0.765125 127.079 0.667518 126.759 0.63665 126.429C0.605782 126.099 0.642303 125.766 0.743983 125.451C0.845662 125.136 1.01038 124.844 1.22815 124.595C1.44591 124.345 1.71215 124.142 2.01073 123.998C2.30931 123.854 2.63399 123.773 2.96504 123.759C3.29608 123.744 3.62659 123.797 3.93649 123.915C4.02542 123.886 14.9186 127.101 20.9448 119.876C21.1439 119.606 21.3961 119.379 21.6861 119.209C21.9761 119.04 22.2977 118.931 22.6311 118.891C22.9646 118.85 23.3028 118.878 23.625 118.973C23.9473 119.067 24.2467 119.227 24.505 119.442C24.7632 119.657 24.9748 119.922 25.1268 120.222C25.2787 120.521 25.3678 120.849 25.3885 121.184C25.4092 121.519 25.3612 121.855 25.2473 122.171C25.1334 122.487 24.9561 122.777 24.7262 123.022C22.5418 125.64 19.6445 127.569 16.3857 128.573Z" fill="white"/>
<path d="M21.7017 345C21.1073 344.995 20.5351 344.774 20.0922 344.377C19.6492 343.981 19.3657 343.437 19.2948 342.847C19.2239 342.257 19.3704 341.661 19.7069 341.171C20.0434 340.681 20.5469 340.33 21.1231 340.185C21.2351 340.185 32.1909 337.292 33.684 327.997C33.7355 327.68 33.849 327.375 34.018 327.102C34.187 326.828 34.4083 326.591 34.6691 326.403C34.93 326.215 35.2253 326.08 35.5382 326.006C35.8511 325.932 36.1756 325.921 36.493 325.972C36.8104 326.023 37.1145 326.137 37.3881 326.306C37.6616 326.475 37.8992 326.696 38.0873 326.957C38.2753 327.218 38.4101 327.513 38.4841 327.826C38.558 328.139 38.5695 328.464 38.518 328.781C36.521 341.305 22.8775 344.795 22.2989 344.944C22.102 344.981 21.9021 345 21.7017 345Z" fill="#FFA319"/>
<path opacity="0.6" d="M21.7017 345C21.1073 344.995 20.5351 344.774 20.0922 344.377C19.6492 343.981 19.3657 343.437 19.2948 342.847C19.2239 342.257 19.3704 341.661 19.7069 341.171C20.0434 340.681 20.5469 340.33 21.1231 340.185C21.2351 340.185 32.1909 337.292 33.684 327.997C33.7355 327.68 33.849 327.375 34.018 327.102C34.187 326.828 34.4083 326.591 34.6691 326.403C34.93 326.215 35.2253 326.08 35.5382 326.006C35.8511 325.932 36.1756 325.921 36.493 325.972C36.8104 326.023 37.1145 326.137 37.3881 326.306C37.6616 326.475 37.8992 326.696 38.0873 326.957C38.2753 327.218 38.4101 327.513 38.4841 327.826C38.558 328.139 38.5695 328.464 38.518 328.781C36.521 341.305 22.8775 344.795 22.2989 344.944C22.102 344.981 21.9021 345 21.7017 345Z" fill="black"/>
<path d="M381.605 23.7472C381.179 23.7505 380.761 23.641 380.392 23.43C379.888 23.15 367.7 16.095 369.193 3.4967C369.267 2.85072 369.595 2.26069 370.104 1.85641C370.614 1.45214 371.263 1.26675 371.909 1.341C372.555 1.41525 373.145 1.74307 373.549 2.25234C373.953 2.76162 374.139 3.41063 374.064 4.05661C373.001 13.3887 382.781 19.1185 382.874 19.1745C383.349 19.4431 383.721 19.8629 383.93 20.3672C384.139 20.8714 384.173 21.4311 384.027 21.957C383.881 22.483 383.563 22.9449 383.124 23.2694C382.685 23.5938 382.15 23.762 381.605 23.7472Z" fill="#FFA319"/>
<path d="M33.6787 32.37C33.3576 32.3835 33.037 32.3336 32.7352 32.2232C32.4334 32.1127 32.1563 31.944 31.9198 31.7264C31.6832 31.5089 31.4918 31.247 31.3565 30.9555C31.2211 30.664 31.1445 30.3487 31.1311 30.0276C31.1176 29.7066 31.1675 29.386 31.2779 29.0842C31.3883 28.7824 31.5571 28.5053 31.7746 28.2687C31.9921 28.0321 32.2541 27.8407 32.5455 27.7054C32.837 27.5701 33.1523 27.4935 33.4734 27.48C42.8054 26.6588 46.5383 15.9456 46.5383 15.8336C46.755 15.238 47.1947 14.7499 47.7644 14.4721C48.3341 14.1944 48.9894 14.1487 49.5922 14.3448C50.1949 14.5409 50.6979 14.9633 50.9952 15.5231C51.2925 16.0829 51.3607 16.7362 51.1856 17.3454C51.0176 17.924 46.5383 31.2688 33.9027 32.2767L33.6787 32.37Z" fill="#FFA319"/>
<path d="M882.482 45.073C881.409 45.0777 880.337 45.0093 879.273 44.8682C878.954 44.8205 878.648 44.7106 878.372 44.5449C878.096 44.3792 877.855 44.1608 877.664 43.9023C877.472 43.6438 877.334 43.3502 877.256 43.0382C877.178 42.7262 877.163 42.4021 877.211 42.0841C877.259 41.7662 877.369 41.4608 877.535 41.1854C877.701 40.9099 877.92 40.6698 878.179 40.4787C878.438 40.2876 878.732 40.1493 879.044 40.0717C879.357 39.9941 879.682 39.9787 880.001 40.0264C880.112 40.0264 891.346 41.6093 896.273 33.6204C896.441 33.3465 896.661 33.1083 896.921 32.9193C897.181 32.7304 897.476 32.5944 897.789 32.5192C898.102 32.444 898.426 32.431 898.744 32.4809C899.062 32.5309 899.367 32.6428 899.641 32.8103C899.915 32.9779 900.154 33.1977 900.343 33.4573C900.533 33.7168 900.669 34.0111 900.744 34.3232C900.82 34.6353 900.833 34.9592 900.783 35.2764C900.733 35.5935 900.621 35.8977 900.453 36.1716C895.545 43.9184 887.054 45.073 882.482 45.073Z" fill="#FFA319"/>
<path opacity="0.6" d="M882.482 45.073C881.409 45.0777 880.337 45.0093 879.273 44.8682C878.954 44.8205 878.648 44.7106 878.372 44.5449C878.096 44.3792 877.855 44.1608 877.664 43.9023C877.472 43.6438 877.334 43.3502 877.256 43.0382C877.178 42.7262 877.163 42.4021 877.211 42.0841C877.259 41.7662 877.369 41.4608 877.535 41.1854C877.701 40.9099 877.92 40.6698 878.179 40.4787C878.438 40.2876 878.732 40.1493 879.044 40.0717C879.357 39.9941 879.682 39.9787 880.001 40.0264C880.112 40.0264 891.346 41.6093 896.273 33.6204C896.441 33.3465 896.661 33.1083 896.921 32.9193C897.181 32.7304 897.476 32.5944 897.789 32.5192C898.102 32.444 898.426 32.431 898.744 32.4809C899.062 32.5309 899.367 32.6428 899.641 32.8103C899.915 32.9779 900.154 33.1977 900.343 33.4573C900.533 33.7168 900.669 34.0111 900.744 34.3232C900.82 34.6353 900.833 34.9592 900.783 35.2764C900.733 35.5935 900.621 35.8977 900.453 36.1716C895.545 43.9184 887.054 45.073 882.482 45.073Z" fill="white"/>
<path d="M1245.68 73.024C1240.95 72.8969 1236.35 71.48 1232.37 68.9271C1231.84 68.5592 1231.47 67.9944 1231.35 67.3571C1231.24 66.7197 1231.38 66.062 1231.75 65.5286C1232.12 64.9952 1232.68 64.6298 1233.32 64.5128C1233.96 64.3958 1234.62 64.5368 1235.15 64.9047C1235.25 64.9047 1244.67 71.2363 1252.6 66.2083C1252.87 66.0359 1253.17 65.9184 1253.49 65.8625C1253.81 65.8067 1254.13 65.8135 1254.44 65.8827C1254.76 65.9518 1255.05 66.082 1255.32 66.2657C1255.58 66.4493 1255.81 66.683 1255.98 66.9532C1256.15 67.2234 1256.27 67.5249 1256.33 67.8406C1256.38 68.1562 1256.37 68.4798 1256.3 68.7928C1256.24 69.1057 1256.11 69.402 1255.92 69.6647C1255.74 69.9274 1255.5 70.1514 1255.23 70.3238C1252.38 72.1293 1249.06 73.0675 1245.68 73.024Z" fill="#FFA319"/>
<path opacity="0.6" d="M1245.68 73.024C1240.95 72.8969 1236.35 71.48 1232.37 68.9271C1231.84 68.5592 1231.47 67.9944 1231.35 67.3571C1231.24 66.7197 1231.38 66.062 1231.75 65.5286C1232.12 64.9952 1232.68 64.6298 1233.32 64.5128C1233.96 64.3958 1234.62 64.5368 1235.15 64.9047C1235.25 64.9047 1244.67 71.2363 1252.6 66.2083C1252.87 66.0359 1253.17 65.9184 1253.49 65.8625C1253.81 65.8067 1254.13 65.8135 1254.44 65.8827C1254.76 65.9518 1255.05 66.082 1255.32 66.2657C1255.58 66.4493 1255.81 66.683 1255.98 66.9532C1256.15 67.2234 1256.27 67.5249 1256.33 67.8406C1256.38 68.1562 1256.37 68.4798 1256.3 68.7928C1256.24 69.1057 1256.11 69.402 1255.92 69.6647C1255.74 69.9274 1255.5 70.1514 1255.23 70.3238C1252.38 72.1293 1249.06 73.0675 1245.68 73.024Z" fill="white"/>
<path d="M1177.33 145.371C1176.71 145.392 1176.12 145.184 1175.65 144.788C1175.19 144.392 1174.89 143.837 1174.82 143.232C1174.74 142.627 1174.9 142.016 1175.25 141.519C1175.6 141.022 1176.13 140.676 1176.73 140.548C1176.84 140.548 1187.79 137.68 1189.29 128.406C1189.32 128.07 1189.42 127.745 1189.58 127.449C1189.74 127.153 1189.96 126.894 1190.23 126.688C1190.5 126.481 1190.8 126.331 1191.13 126.248C1191.46 126.165 1191.8 126.149 1192.13 126.203C1192.47 126.257 1192.78 126.378 1193.07 126.56C1193.35 126.742 1193.6 126.981 1193.79 127.261C1193.97 127.541 1194.1 127.856 1194.16 128.188C1194.22 128.519 1194.22 128.86 1194.14 129.188C1192.12 141.684 1178.48 145.166 1177.9 145.296C1177.72 145.349 1177.52 145.374 1177.33 145.371Z" fill="#FFA319"/>
<path opacity="0.6" d="M1177.33 145.371C1176.71 145.392 1176.12 145.184 1175.65 144.788C1175.19 144.392 1174.89 143.837 1174.82 143.232C1174.74 142.627 1174.9 142.016 1175.25 141.519C1175.6 141.022 1176.13 140.676 1176.73 140.548C1176.84 140.548 1187.79 137.68 1189.29 128.406C1189.32 128.07 1189.42 127.745 1189.58 127.449C1189.74 127.153 1189.96 126.894 1190.23 126.688C1190.5 126.481 1190.8 126.331 1191.13 126.248C1191.46 126.165 1191.8 126.149 1192.13 126.203C1192.47 126.257 1192.78 126.378 1193.07 126.56C1193.35 126.742 1193.6 126.981 1193.79 127.261C1193.97 127.541 1194.1 127.856 1194.16 128.188C1194.22 128.519 1194.22 128.86 1194.14 129.188C1192.12 141.684 1178.48 145.166 1177.9 145.296C1177.72 145.349 1177.52 145.374 1177.33 145.371Z" fill="black"/>
<path d="M1277.59 238.221H1277.18C1276.58 238.109 1262.73 235.576 1259.88 223.323C1259.8 223.007 1259.79 222.68 1259.85 222.361C1259.9 222.041 1260.02 221.735 1260.19 221.461C1260.37 221.187 1260.59 220.951 1260.86 220.765C1261.12 220.58 1261.43 220.449 1261.74 220.381C1262.06 220.309 1262.39 220.301 1262.71 220.356C1263.03 220.411 1263.33 220.528 1263.6 220.701C1263.88 220.874 1264.12 221.099 1264.3 221.364C1264.49 221.629 1264.62 221.927 1264.69 222.243C1266.82 231.368 1277.94 233.416 1278.05 233.416C1278.64 233.542 1279.16 233.877 1279.52 234.36C1279.88 234.842 1280.04 235.438 1279.99 236.036C1279.94 236.633 1279.67 237.191 1279.23 237.604C1278.8 238.016 1278.22 238.256 1277.62 238.277L1277.59 238.221Z" fill="#FFA319"/>
<path d="M1233.85 327.998C1229.57 328.065 1225.42 326.605 1222.13 323.882C1221.85 323.687 1221.62 323.437 1221.45 323.148C1221.28 322.859 1221.17 322.537 1221.12 322.204C1221.08 321.87 1221.11 321.531 1221.2 321.208C1221.3 320.885 1221.46 320.586 1221.68 320.328C1221.89 320.071 1222.16 319.861 1222.46 319.711C1222.77 319.562 1223.1 319.477 1223.43 319.461C1223.77 319.445 1224.11 319.498 1224.42 319.618C1224.73 319.738 1225.02 319.922 1225.26 320.158C1232.48 326.154 1242.62 321.126 1242.73 321.07C1243.31 320.774 1243.98 320.719 1244.6 320.918C1245.22 321.117 1245.73 321.554 1246.03 322.132C1246.33 322.71 1246.38 323.381 1246.18 324C1245.98 324.618 1245.55 325.132 1244.97 325.428C1241.49 327.078 1237.7 327.955 1233.85 327.998Z" fill="#FFA319"/>
<path d="M1119.47 22.3718C1119.05 22.3751 1118.63 22.2659 1118.26 22.0553C1117.75 21.7759 1105.57 14.7368 1107.06 2.16686C1107.14 1.52234 1107.46 0.933629 1107.97 0.530266C1108.48 0.126903 1109.13 -0.0580732 1109.78 0.0160102C1110.42 0.0900935 1111.01 0.417174 1111.42 0.925307C1111.82 1.43344 1112.01 2.08099 1111.93 2.72552C1110.87 12.0366 1120.65 17.7536 1120.74 17.8094C1121.22 18.0774 1121.59 18.4963 1121.8 18.9994C1122.01 19.5025 1122.04 20.0609 1121.89 20.5857C1121.75 21.1104 1121.43 21.5714 1120.99 21.895C1120.55 22.2187 1120.02 22.3866 1119.47 22.3718Z" fill="#FFA319"/>
</svg>
