<svg width="20" height="20" viewBox="0 0 20 20" fill="none" xmlns="http://www.w3.org/2000/svg">
<path d="M17.7013 2.92049C17.8253 2.78736 17.9734 2.68159 18.1369 2.60939C18.3003 2.53719 18.4758 2.5 18.6531 2.5C18.8304 2.5 19.0059 2.53719 19.1693 2.60939C19.3327 2.68159 19.4808 2.78736 19.6049 2.92049C20.1249 3.47303 20.1322 4.36589 19.6231 4.92799L8.87199 18.2922C8.74992 18.4331 8.60179 18.5464 8.43666 18.6251C8.27153 18.7037 8.09287 18.7462 7.91161 18.7498C7.73035 18.7533 7.55031 18.718 7.38248 18.6459C7.21466 18.5738 7.06259 18.4664 6.93558 18.3304L0.39363 11.3596C0.141328 11.0891 0 10.7252 0 10.3463C0 9.96738 0.141328 9.60356 0.39363 9.333C0.517716 9.19987 0.665814 9.0941 0.829254 9.0219C0.992694 8.9497 1.16819 8.91251 1.34547 8.91251C1.52275 8.91251 1.69824 8.9497 1.86168 9.0219C2.02512 9.0941 2.17322 9.19987 2.29731 9.333L7.84651 15.2465L17.6649 2.96255C17.6762 2.94778 17.6883 2.93373 17.7013 2.92049Z" fill="#3FD831"/>
</svg>
