<svg width="32" height="32" viewBox="0 0 32 32" fill="none" xmlns="http://www.w3.org/2000/svg">
<rect width="32" height="32" rx="16" fill="#F8F8FF"/>
<path d="M18.9853 11.6052L20.3973 13.0166M19.8933 10.3619L16.0753 14.1799C15.878 14.3769 15.7435 14.6279 15.6886 14.9012L15.3359 16.6666L17.1013 16.3132C17.3746 16.2586 17.6253 16.1246 17.8226 15.9272L21.6406 12.1092C21.7553 11.9945 21.8463 11.8583 21.9084 11.7084C21.9705 11.5585 22.0025 11.3978 22.0025 11.2356C22.0025 11.0733 21.9705 10.9126 21.9084 10.7627C21.8463 10.6128 21.7553 10.4766 21.6406 10.3619C21.5259 10.2472 21.3897 10.1561 21.2398 10.0941C21.0899 10.032 20.9292 10 20.7669 10C20.6047 10 20.444 10.032 20.2941 10.0941C20.1442 10.1561 20.008 10.2472 19.8933 10.3619V10.3619Z" stroke="#6776FF" stroke-linecap="round" stroke-linejoin="round"/>
<path d="M20.668 17.9997V19.9997C20.668 20.3533 20.5275 20.6924 20.2774 20.9425C20.0274 21.1925 19.6883 21.333 19.3346 21.333H12.0013C11.6477 21.333 11.3085 21.1925 11.0585 20.9425C10.8084 20.6924 10.668 20.3533 10.668 19.9997V12.6663C10.668 12.3127 10.8084 11.9736 11.0585 11.7235C11.3085 11.4735 11.6477 11.333 12.0013 11.333H14.0013" stroke="#6776FF" stroke-linecap="round" stroke-linejoin="round"/>
</svg>
