<svg width="18" height="18" viewBox="0 0 18 18" fill="none" xmlns="http://www.w3.org/2000/svg">
<path fill-rule="evenodd" clip-rule="evenodd" d="M7.6035 1.36124C7.93943 1.26046 8.29428 1.23962 8.6397 1.30036C8.98512 1.36111 9.31156 1.50176 9.59296 1.7111C9.87436 1.92044 10.1029 2.19266 10.2604 2.50603C10.4179 2.81941 10.4999 3.16527 10.5 3.51599V14.484C10.4999 14.8347 10.4179 15.1806 10.2604 15.4939C10.1029 15.8073 9.87436 16.0795 9.59296 16.2889C9.31156 16.4982 8.98512 16.6389 8.6397 16.6996C8.29428 16.7604 7.93943 16.7395 7.6035 16.6387L3.1035 15.2887C2.64008 15.1497 2.23381 14.865 1.94496 14.4769C1.65612 14.0887 1.50008 13.6178 1.5 13.134V4.86599C1.50008 4.38216 1.65612 3.91125 1.94496 3.5231C2.23381 3.13496 2.64008 2.85026 3.1035 2.71124L7.6035 1.36124V1.36124ZM11.25 2.99999C11.25 2.80108 11.329 2.61031 11.4697 2.46966C11.6103 2.32901 11.8011 2.24999 12 2.24999H14.25C14.8467 2.24999 15.419 2.48704 15.841 2.909C16.2629 3.33096 16.5 3.90325 16.5 4.49999V5.24999C16.5 5.4489 16.421 5.63967 16.2803 5.78032C16.1397 5.92097 15.9489 5.99999 15.75 5.99999C15.5511 5.99999 15.3603 5.92097 15.2197 5.78032C15.079 5.63967 15 5.4489 15 5.24999V4.49999C15 4.30108 14.921 4.11031 14.7803 3.96966C14.6397 3.82901 14.4489 3.74999 14.25 3.74999H12C11.8011 3.74999 11.6103 3.67097 11.4697 3.53032C11.329 3.38967 11.25 3.1989 11.25 2.99999ZM15.75 12C15.9489 12 16.1397 12.079 16.2803 12.2197C16.421 12.3603 16.5 12.5511 16.5 12.75V13.5C16.5 14.0967 16.2629 14.669 15.841 15.091C15.419 15.5129 14.8467 15.75 14.25 15.75H12C11.8011 15.75 11.6103 15.671 11.4697 15.5303C11.329 15.3897 11.25 15.1989 11.25 15C11.25 14.8011 11.329 14.6103 11.4697 14.4697C11.6103 14.329 11.8011 14.25 12 14.25H14.25C14.4489 14.25 14.6397 14.171 14.7803 14.0303C14.921 13.8897 15 13.6989 15 13.5V12.75C15 12.5511 15.079 12.3603 15.2197 12.2197C15.3603 12.079 15.5511 12 15.75 12ZM6.75 8.24999C6.55109 8.24999 6.36032 8.32901 6.21967 8.46966C6.07902 8.61031 6 8.80108 6 8.99999C6 9.1989 6.07902 9.38967 6.21967 9.53032C6.36032 9.67097 6.55109 9.74999 6.75 9.74999H6.75075C6.94966 9.74999 7.14043 9.67097 7.28108 9.53032C7.42173 9.38967 7.50075 9.1989 7.50075 8.99999C7.50075 8.80108 7.42173 8.61031 7.28108 8.46966C7.14043 8.32901 6.94966 8.24999 6.75075 8.24999H6.75Z" fill="#6776FF"/>
<path d="M15.75 9L14.25 10.5M12 9H15.75H12ZM15.75 9L14.25 7.5L15.75 9Z" stroke="#6776FF" stroke-width="2" stroke-linecap="round" stroke-linejoin="round"/>
</svg>
