<svg width="22" height="22" viewBox="0 0 22 22" fill="none" xmlns="http://www.w3.org/2000/svg">
<path d="M2.75 6.875V19.25H15.125V6.875H2.75ZM2.0625 5.5H15.8125C15.9948 5.5 16.1697 5.57243 16.2986 5.70136C16.4276 5.8303 16.5 6.00516 16.5 6.1875V19.9375C16.5 20.1198 16.4276 20.2947 16.2986 20.4236C16.1697 20.5526 15.9948 20.625 15.8125 20.625H2.0625C1.88016 20.625 1.7053 20.5526 1.57636 20.4236C1.44743 20.2947 1.375 20.1198 1.375 19.9375V6.1875C1.375 6.00516 1.44743 5.8303 1.57636 5.70136C1.7053 5.57243 1.88016 5.5 2.0625 5.5ZM20.625 2.0625V17.1875C20.625 17.3698 20.5526 17.5447 20.4236 17.6736C20.2947 17.8026 20.1198 17.875 19.9375 17.875H17.875V16.5H19.25V2.75H8.25V4.125H6.875V2.0625C6.875 1.88016 6.94743 1.7053 7.07636 1.57636C7.2053 1.44743 7.38016 1.375 7.5625 1.375H19.9375C20.1198 1.375 20.2947 1.44743 20.4236 1.57636C20.5526 1.7053 20.625 1.88016 20.625 2.0625ZM5.5 14.4375H12.375V15.8125H5.5V14.4375ZM5.5 10.3125H12.375V11.6875H5.5V10.3125Z" fill="#6776FF"/>
</svg>
