<svg width="414" height="146" viewBox="0 0 414 146" fill="none" xmlns="http://www.w3.org/2000/svg">
<rect width="414" height="146" rx="20" fill="#E3E9FF"/>
<path d="M121.528 135.645C120.413 136.115 119.199 136.306 117.99 136.203L74.4848 132.099L46.7412 165.861C45.8415 166.96 44.652 167.778 43.3079 168.223C41.9639 168.668 40.5193 168.722 39.1382 168.378C37.7572 168.035 36.4952 167.307 35.4957 166.279C34.4961 165.25 33.7992 163.962 33.484 162.561L23.8517 119.732L-16.7336 103.348C-18.0102 102.812 -19.1219 101.937 -19.9495 100.816C-20.7772 99.6947 -21.2895 98.3702 -21.4315 96.9844C-21.5513 95.5557 -21.2726 94.1259 -20.6273 92.8573C-19.982 91.5888 -18.9958 90.5322 -17.7807 89.8075L19.5849 67.3486L21.976 23.6747C22.0489 22.2378 22.5211 20.855 23.3385 19.6847C24.1559 18.5145 25.2854 17.6041 26.5976 17.0579C27.9098 16.5117 29.3517 16.3517 30.758 16.5963C32.1643 16.8409 33.4782 17.4802 34.5493 18.441L67.4038 47.3603L109.669 36.6721C111.04 36.3205 112.484 36.3652 113.839 36.8012C115.194 37.2372 116.405 38.047 117.334 39.1386C118.217 40.2159 118.796 41.5127 119.009 42.89C119.221 44.2673 119.059 45.673 118.539 46.9563L101.567 87.2989L125.17 124.312C125.972 125.538 126.414 126.966 126.442 128.429C126.47 129.891 126.083 131.327 125.327 132.566C124.437 133.993 123.101 135.075 121.528 135.645Z" fill="#FFF2D1"/>
</svg>
