<svg width="371" height="270" viewBox="0 0 371 270" fill="none" xmlns="http://www.w3.org/2000/svg">
<g opacity="0.8">
<path d="M0 231.831V159.76H3.95887V137.68H9.74873V60.9171H18.1217V51.01L36.0059 42.6766V32.6805H38.4802V60.9171H41.9442V137.68H45.4083V97.319H54.8205V76.5151H57.4531V137.68H64.5989V114.401H69.3V108.463H80.1968V88.1542H86.1648V73.7934H93.4986V52.8707H96.1214V73.7934H103.455V88.1542H109.423V108.463H120.32V114.401H125.021V137.68H130.603V108.463H141.5V45.5666H144.964V38.6287H168.242V45.5666H173.201V91.1233H193.005V95.5869H200.438V99.051H193.005V116.886H213.809V57.4432H218.262V44.8144H227.922V0H230.644V44.8144H237.582V57.4432H278.229V53.2963H280.714V81.523H284.178V82.0179H286.256V110.245H289.73V117.925H297.054V97.121H299.677V146.656H302.606V125.853H305.229V158.295H306.822V135.007H311.533V129.069H322.43V108.76H328.398V94.3993H335.732V73.4766H338.345V94.3993H345.679V108.76H351.647V129.069H362.544V135.007H367.255V157.801H368.096V158.295H370.422V231.831H0Z" fill="#EBEBEB"/>
<path d="M255.554 60.2241H252.744V63.0347H255.554V60.2241Z" fill="#F0F0F0"/>
<path d="M255.554 64.9357H252.744V67.7462H255.554V64.9357Z" fill="#F0F0F0"/>
<path d="M255.554 83.7499H252.744V86.5605H255.554V83.7499Z" fill="#F0F0F0"/>
<path d="M255.554 88.4608H252.744V91.2714H255.554V88.4608Z" fill="#F0F0F0"/>
<path d="M255.554 93.162H252.744V95.9726H255.554V93.162Z" fill="#F0F0F0"/>
<path d="M255.554 107.276H252.744V110.086H255.554V107.276Z" fill="#F0F0F0"/>
<path d="M255.554 111.987H252.744V114.797H255.554V111.987Z" fill="#F0F0F0"/>
<path d="M251.1 79.0485H248.29V81.8591H251.1V79.0485Z" fill="#F0F0F0"/>
<path d="M251.1 83.7499H248.29V86.5605H251.1V83.7499Z" fill="#F0F0F0"/>
<path d="M251.1 88.4608H248.29V91.2714H251.1V88.4608Z" fill="#F0F0F0"/>
<path d="M251.1 93.162H248.29V95.9726H251.1V93.162Z" fill="#F0F0F0"/>
<path d="M251.1 97.8634H248.29V100.674H251.1V97.8634Z" fill="#F0F0F0"/>
<path d="M251.1 107.276H248.29V110.086H251.1V107.276Z" fill="#F0F0F0"/>
<path d="M251.1 111.987H248.29V114.797H251.1V111.987Z" fill="#F0F0F0"/>
<path d="M246.636 60.2241H243.825V63.0347H246.636V60.2241Z" fill="#F0F0F0"/>
<path d="M246.636 64.9357H243.825V67.7462H246.636V64.9357Z" fill="#F0F0F0"/>
<path d="M246.636 69.6367H243.825V72.4472H246.636V69.6367Z" fill="#F0F0F0"/>
<path d="M246.636 74.3376H243.825V77.1482H246.636V74.3376Z" fill="#F0F0F0"/>
<path d="M246.636 79.0485H243.825V81.8591H246.636V79.0485Z" fill="#F0F0F0"/>
<path d="M246.636 83.7499H243.825V86.5605H246.636V83.7499Z" fill="#F0F0F0"/>
<path d="M246.636 88.4608H243.825V91.2714H246.636V88.4608Z" fill="#F0F0F0"/>
<path d="M246.636 93.162H243.825V95.9726H246.636V93.162Z" fill="#F0F0F0"/>
<path d="M246.636 97.8634H243.825V100.674H246.636V97.8634Z" fill="#F0F0F0"/>
<path d="M246.636 102.574H243.825V105.385H246.636V102.574Z" fill="#F0F0F0"/>
<path d="M246.636 111.987H243.825V114.797H246.636V111.987Z" fill="#F0F0F0"/>
<path d="M242.185 60.2241H239.374V63.0347H242.185V60.2241Z" fill="#F0F0F0"/>
<path d="M242.185 64.9357H239.374V67.7462H242.185V64.9357Z" fill="#F0F0F0"/>
<path d="M242.185 69.6367H239.374V72.4472H242.185V69.6367Z" fill="#F0F0F0"/>
<path d="M242.185 74.3376H239.374V77.1482H242.185V74.3376Z" fill="#F0F0F0"/>
<path d="M242.185 79.0485H239.374V81.8591H242.185V79.0485Z" fill="#F0F0F0"/>
<path d="M242.185 83.7499H239.374V86.5605H242.185V83.7499Z" fill="#F0F0F0"/>
<path d="M242.185 88.4608H239.374V91.2714H242.185V88.4608Z" fill="#F0F0F0"/>
<path d="M242.185 130.801H239.374V133.612H242.185V130.801Z" fill="#F0F0F0"/>
<path d="M237.729 60.2241H234.918V63.0347H237.729V60.2241Z" fill="#F0F0F0"/>
<path d="M237.729 64.9357H234.918V67.7462H237.729V64.9357Z" fill="#F0F0F0"/>
<path d="M237.729 69.6367H234.918V72.4472H237.729V69.6367Z" fill="#F0F0F0"/>
<path d="M237.729 74.3376H234.918V77.1482H237.729V74.3376Z" fill="#F0F0F0"/>
<path d="M237.729 79.0485H234.918V81.8591H237.729V79.0485Z" fill="#F0F0F0"/>
<path d="M237.729 83.7499H234.918V86.5605H237.729V83.7499Z" fill="#F0F0F0"/>
<path d="M237.729 88.4608H234.918V91.2714H237.729V88.4608Z" fill="#F0F0F0"/>
<path d="M237.729 93.162H234.918V95.9726H237.729V93.162Z" fill="#F0F0F0"/>
<path d="M237.729 121.389H234.918V124.199H237.729V121.389Z" fill="#F0F0F0"/>
<path d="M237.729 126.1H234.918V128.91H237.729V126.1Z" fill="#F0F0F0"/>
<path d="M237.729 130.801H234.918V133.612H237.729V130.801Z" fill="#F0F0F0"/>
<path d="M237.729 135.512H234.918V138.323H237.729V135.512Z" fill="#F0F0F0"/>
<path d="M237.729 154.327H234.918V157.137H237.729V154.327Z" fill="#F0F0F0"/>
<path d="M233.265 60.2241H230.455V63.0347H233.265V60.2241Z" fill="#F0F0F0"/>
<path d="M233.265 64.9357H230.455V67.7462H233.265V64.9357Z" fill="#F0F0F0"/>
<path d="M233.265 69.6367H230.455V72.4472H233.265V69.6367Z" fill="#F0F0F0"/>
<path d="M233.265 74.3376H230.455V77.1482H233.265V74.3376Z" fill="#F0F0F0"/>
<path d="M233.265 79.0485H230.455V81.8591H233.265V79.0485Z" fill="#F0F0F0"/>
<path d="M233.265 83.7499H230.455V86.5605H233.265V83.7499Z" fill="#F0F0F0"/>
<path d="M233.265 88.4608H230.455V91.2714H233.265V88.4608Z" fill="#F0F0F0"/>
<path d="M233.265 93.162H230.455V95.9726H233.265V93.162Z" fill="#F0F0F0"/>
<path d="M233.265 97.8634H230.455V100.674H233.265V97.8634Z" fill="#F0F0F0"/>
<path d="M233.265 102.574H230.455V105.385H233.265V102.574Z" fill="#F0F0F0"/>
<path d="M233.265 116.688H230.455V119.498H233.265V116.688Z" fill="#F0F0F0"/>
<path d="M233.265 121.389H230.455V124.199H233.265V121.389Z" fill="#F0F0F0"/>
<path d="M233.265 126.1H230.455V128.91H233.265V126.1Z" fill="#F0F0F0"/>
<path d="M233.265 130.801H230.455V133.612H233.265V130.801Z" fill="#F0F0F0"/>
<path d="M233.265 135.512H230.455V138.323H233.265V135.512Z" fill="#F0F0F0"/>
<path d="M233.265 154.327H230.455V157.137H233.265V154.327Z" fill="#F0F0F0"/>
<path d="M228.813 60.2241H226.003V63.0347H228.813V60.2241Z" fill="#F0F0F0"/>
<path d="M228.813 64.9357H226.003V67.7462H228.813V64.9357Z" fill="#F0F0F0"/>
<path d="M228.813 69.6367H226.003V72.4472H228.813V69.6367Z" fill="#F0F0F0"/>
<path d="M228.813 74.3376H226.003V77.1482H228.813V74.3376Z" fill="#F0F0F0"/>
<path d="M228.813 79.0485H226.003V81.8591H228.813V79.0485Z" fill="#F0F0F0"/>
<path d="M228.813 83.7499H226.003V86.5605H228.813V83.7499Z" fill="#F0F0F0"/>
<path d="M228.813 88.4608H226.003V91.2714H228.813V88.4608Z" fill="#F0F0F0"/>
<path d="M228.813 93.162H226.003V95.9726H228.813V93.162Z" fill="#F0F0F0"/>
<path d="M228.813 97.8634H226.003V100.674H228.813V97.8634Z" fill="#F0F0F0"/>
<path d="M228.813 102.574H226.003V105.385H228.813V102.574Z" fill="#F0F0F0"/>
<path d="M228.813 107.276H226.003V110.086H228.813V107.276Z" fill="#F0F0F0"/>
<path d="M228.813 111.987H226.003V114.797H228.813V111.987Z" fill="#F0F0F0"/>
<path d="M228.813 116.688H226.003V119.498H228.813V116.688Z" fill="#F0F0F0"/>
<path d="M228.813 121.389H226.003V124.199H228.813V121.389Z" fill="#F0F0F0"/>
<path d="M228.813 126.1H226.003V128.91H228.813V126.1Z" fill="#F0F0F0"/>
<path d="M228.813 130.801H226.003V133.612H228.813V130.801Z" fill="#F0F0F0"/>
<path d="M228.813 135.512H226.003V138.323H228.813V135.512Z" fill="#F0F0F0"/>
<path d="M228.813 140.213H226.003V143.024H228.813V140.213Z" fill="#F0F0F0"/>
<path d="M224.349 60.2241H221.539V63.0347H224.349V60.2241Z" fill="#F0F0F0"/>
<path d="M224.349 64.9357H221.539V67.7462H224.349V64.9357Z" fill="#F0F0F0"/>
<path d="M224.349 69.6367H221.539V72.4472H224.349V69.6367Z" fill="#F0F0F0"/>
<path d="M224.349 74.3376H221.539V77.1482H224.349V74.3376Z" fill="#F0F0F0"/>
<path d="M224.349 79.0485H221.539V81.8591H224.349V79.0485Z" fill="#F0F0F0"/>
<path d="M224.349 83.7499H221.539V86.5605H224.349V83.7499Z" fill="#F0F0F0"/>
<path d="M224.349 88.4608H221.539V91.2714H224.349V88.4608Z" fill="#F0F0F0"/>
<path d="M224.349 93.162H221.539V95.9726H224.349V93.162Z" fill="#F0F0F0"/>
<path d="M224.349 97.8634H221.539V100.674H224.349V97.8634Z" fill="#F0F0F0"/>
<path d="M224.349 102.574H221.539V105.385H224.349V102.574Z" fill="#F0F0F0"/>
<path d="M224.349 116.688H221.539V119.498H224.349V116.688Z" fill="#F0F0F0"/>
<path d="M224.349 121.389H221.539V124.199H224.349V121.389Z" fill="#F0F0F0"/>
<path d="M224.349 126.1H221.539V128.91H224.349V126.1Z" fill="#F0F0F0"/>
<path d="M224.349 130.801H221.539V133.612H224.349V130.801Z" fill="#F0F0F0"/>
<path d="M219.896 60.2241H217.085V63.0347H219.896V60.2241Z" fill="#F0F0F0"/>
<path d="M219.896 64.9357H217.085V67.7462H219.896V64.9357Z" fill="#F0F0F0"/>
<path d="M219.896 69.6367H217.085V72.4472H219.896V69.6367Z" fill="#F0F0F0"/>
<path d="M219.896 74.3376H217.085V77.1482H219.896V74.3376Z" fill="#F0F0F0"/>
<path d="M219.896 79.0485H217.085V81.8591H219.896V79.0485Z" fill="#F0F0F0"/>
<path d="M219.896 83.7499H217.085V86.5605H219.896V83.7499Z" fill="#F0F0F0"/>
<path d="M219.896 88.4608H217.085V91.2714H219.896V88.4608Z" fill="#F0F0F0"/>
<path d="M219.896 93.162H217.085V95.9726H219.896V93.162Z" fill="#F0F0F0"/>
<path d="M219.896 97.8634H217.085V100.674H219.896V97.8634Z" fill="#F0F0F0"/>
<path d="M219.896 102.574H217.085V105.385H219.896V102.574Z" fill="#F0F0F0"/>
<path d="M219.896 116.688H217.085V119.498H219.896V116.688Z" fill="#F0F0F0"/>
<path d="M219.896 121.389H217.085V124.199H219.896V121.389Z" fill="#F0F0F0"/>
<path d="M219.896 126.1H217.085V128.91H219.896V126.1Z" fill="#F0F0F0"/>
<path d="M169.706 48.0114H166.895V50.822H169.706V48.0114Z" fill="#F0F0F0"/>
<path d="M169.706 52.7122H166.895V55.5227H169.706V52.7122Z" fill="#F0F0F0"/>
<path d="M169.706 57.4237H166.895V60.2343H169.706V57.4237Z" fill="#F0F0F0"/>
<path d="M169.706 62.1247H166.895V64.9353H169.706V62.1247Z" fill="#F0F0F0"/>
<path d="M169.706 66.8259H166.895V69.6365H169.706V66.8259Z" fill="#F0F0F0"/>
<path d="M169.706 71.5366H166.895V74.3471H169.706V71.5366Z" fill="#F0F0F0"/>
<path d="M169.706 76.2375H166.895V79.0481H169.706V76.2375Z" fill="#F0F0F0"/>
<path d="M169.706 80.9491H166.895V83.7596H169.706V80.9491Z" fill="#F0F0F0"/>
<path d="M169.706 95.0626H166.895V97.8732H169.706V95.0626Z" fill="#F0F0F0"/>
<path d="M169.706 99.7638H166.895V102.574H169.706V99.7638Z" fill="#F0F0F0"/>
<path d="M165.252 48.0114H162.442V50.822H165.252V48.0114Z" fill="#F0F0F0"/>
<path d="M165.252 52.7122H162.442V55.5227H165.252V52.7122Z" fill="#F0F0F0"/>
<path d="M165.252 57.4237H162.442V60.2343H165.252V57.4237Z" fill="#F0F0F0"/>
<path d="M165.252 62.1247H162.442V64.9353H165.252V62.1247Z" fill="#F0F0F0"/>
<path d="M165.252 66.8259H162.442V69.6365H165.252V66.8259Z" fill="#F0F0F0"/>
<path d="M165.252 71.5366H162.442V74.3471H165.252V71.5366Z" fill="#F0F0F0"/>
<path d="M165.252 76.2375H162.442V79.0481H165.252V76.2375Z" fill="#F0F0F0"/>
<path d="M165.252 80.9491H162.442V83.7596H165.252V80.9491Z" fill="#F0F0F0"/>
<path d="M165.252 99.7638H162.442V102.574H165.252V99.7638Z" fill="#F0F0F0"/>
<path d="M160.79 48.0114H157.979V50.822H160.79V48.0114Z" fill="#F0F0F0"/>
<path d="M160.79 52.7122H157.979V55.5227H160.79V52.7122Z" fill="#F0F0F0"/>
<path d="M160.79 57.4237H157.979V60.2343H160.79V57.4237Z" fill="#F0F0F0"/>
<path d="M160.79 62.1247H157.979V64.9353H160.79V62.1247Z" fill="#F0F0F0"/>
<path d="M160.79 66.8259H157.979V69.6365H160.79V66.8259Z" fill="#F0F0F0"/>
<path d="M160.79 71.5366H157.979V74.3471H160.79V71.5366Z" fill="#F0F0F0"/>
<path d="M160.79 76.2375H157.979V79.0481H160.79V76.2375Z" fill="#F0F0F0"/>
<path d="M160.79 80.9491H157.979V83.7596H160.79V80.9491Z" fill="#F0F0F0"/>
<path d="M156.334 48.0114H153.524V50.822H156.334V48.0114Z" fill="#F0F0F0"/>
<path d="M156.334 52.7122H153.524V55.5227H156.334V52.7122Z" fill="#F0F0F0"/>
<path d="M156.334 57.4237H153.524V60.2343H156.334V57.4237Z" fill="#F0F0F0"/>
<path d="M156.334 62.1247H153.524V64.9353H156.334V62.1247Z" fill="#F0F0F0"/>
<path d="M156.334 66.8259H153.524V69.6365H156.334V66.8259Z" fill="#F0F0F0"/>
<path d="M156.334 71.5366H153.524V74.3471H156.334V71.5366Z" fill="#F0F0F0"/>
<path d="M156.334 80.9491H153.524V83.7596H156.334V80.9491Z" fill="#F0F0F0"/>
<path d="M156.334 85.6503H153.524V88.4608H156.334V85.6503Z" fill="#F0F0F0"/>
<path d="M156.334 99.7638H153.524V102.574H156.334V99.7638Z" fill="#F0F0F0"/>
<path d="M156.334 104.474H153.524V107.285H156.334V104.474Z" fill="#F0F0F0"/>
<path d="M156.334 109.176H153.524V111.986H156.334V109.176Z" fill="#F0F0F0"/>
<path d="M156.334 113.876H153.524V116.687H156.334V113.876Z" fill="#F0F0F0"/>
<path d="M156.334 118.588H153.524V121.399H156.334V118.588Z" fill="#F0F0F0"/>
<path d="M156.334 123.289H153.524V126.099H156.334V123.289Z" fill="#F0F0F0"/>
<path d="M156.334 128H153.524V130.811H156.334V128Z" fill="#F0F0F0"/>
<path d="M151.871 48.0114H149.06V50.822H151.871V48.0114Z" fill="#F0F0F0"/>
<path d="M151.871 52.7122H149.06V55.5227H151.871V52.7122Z" fill="#F0F0F0"/>
<path d="M151.871 57.4237H149.06V60.2343H151.871V57.4237Z" fill="#F0F0F0"/>
<path d="M151.871 62.1247H149.06V64.9353H151.871V62.1247Z" fill="#F0F0F0"/>
<path d="M151.871 66.8259H149.06V69.6365H151.871V66.8259Z" fill="#F0F0F0"/>
<path d="M151.871 71.5366H149.06V74.3471H151.871V71.5366Z" fill="#F0F0F0"/>
<path d="M151.871 85.6503H149.06V88.4608H151.871V85.6503Z" fill="#F0F0F0"/>
<path d="M151.871 90.3513H149.06V93.1619H151.871V90.3513Z" fill="#F0F0F0"/>
<path d="M151.871 95.0626H149.06V97.8732H151.871V95.0626Z" fill="#F0F0F0"/>
<path d="M151.871 99.7638H149.06V102.574H151.871V99.7638Z" fill="#F0F0F0"/>
<path d="M151.871 104.474H149.06V107.285H151.871V104.474Z" fill="#F0F0F0"/>
<path d="M151.871 109.176H149.06V111.986H151.871V109.176Z" fill="#F0F0F0"/>
<path d="M151.871 113.876H149.06V116.687H151.871V113.876Z" fill="#F0F0F0"/>
<path d="M151.871 118.588H149.06V121.399H151.871V118.588Z" fill="#F0F0F0"/>
<path d="M151.871 123.289H149.06V126.099H151.871V123.289Z" fill="#F0F0F0"/>
<path d="M151.871 128H149.06V130.811H151.871V128Z" fill="#F0F0F0"/>
<path d="M151.871 132.702H149.06V135.512H151.871V132.702Z" fill="#F0F0F0"/>
<path d="M151.871 142.114H149.06V144.924H151.871V142.114Z" fill="#F0F0F0"/>
<path d="M147.416 48.0114H144.605V50.822H147.416V48.0114Z" fill="#F0F0F0"/>
<path d="M147.416 52.7122H144.605V55.5227H147.416V52.7122Z" fill="#F0F0F0"/>
<path d="M147.416 57.4237H144.605V60.2343H147.416V57.4237Z" fill="#F0F0F0"/>
<path d="M147.416 62.1247H144.605V64.9353H147.416V62.1247Z" fill="#F0F0F0"/>
<path d="M147.416 66.8259H144.605V69.6365H147.416V66.8259Z" fill="#F0F0F0"/>
<path d="M147.416 71.5366H144.605V74.3471H147.416V71.5366Z" fill="#F0F0F0"/>
<path d="M147.416 85.6503H144.605V88.4608H147.416V85.6503Z" fill="#F0F0F0"/>
<path d="M147.416 90.3513H144.605V93.1619H147.416V90.3513Z" fill="#F0F0F0"/>
<path d="M147.416 95.0626H144.605V97.8732H147.416V95.0626Z" fill="#F0F0F0"/>
<path d="M147.416 99.7638H144.605V102.574H147.416V99.7638Z" fill="#F0F0F0"/>
<path d="M147.416 113.876H144.605V116.687H147.416V113.876Z" fill="#F0F0F0"/>
<path d="M147.416 118.588H144.605V121.399H147.416V118.588Z" fill="#F0F0F0"/>
<path d="M147.416 123.289H144.605V126.099H147.416V123.289Z" fill="#F0F0F0"/>
<path d="M147.416 128H144.605V130.811H147.416V128Z" fill="#F0F0F0"/>
<path d="M147.416 132.702H144.605V135.512H147.416V132.702Z" fill="#F0F0F0"/>
<path d="M147.416 142.114H144.605V144.924H147.416V142.114Z" fill="#F0F0F0"/>
<path d="M147.416 146.815H144.605V149.625H147.416V146.815Z" fill="#F0F0F0"/>
<path d="M106.969 91.7568H104.158V94.5674H106.969V91.7568Z" fill="#F0F0F0"/>
<path d="M106.969 96.4678H104.158V99.2783H106.969V96.4678Z" fill="#F0F0F0"/>
<path d="M106.969 101.169H104.158V103.979H106.969V101.169Z" fill="#F0F0F0"/>
<path d="M106.969 105.87H104.158V108.68H106.969V105.87Z" fill="#F0F0F0"/>
<path d="M106.969 110.581H104.158V113.392H106.969V110.581Z" fill="#F0F0F0"/>
<path d="M106.969 115.282H104.158V118.093H106.969V115.282Z" fill="#F0F0F0"/>
<path d="M106.969 119.993H104.158V122.804H106.969V119.993Z" fill="#F0F0F0"/>
<path d="M106.969 134.107H104.158V136.917H106.969V134.107Z" fill="#F0F0F0"/>
<path d="M106.969 138.807H104.158V141.618H106.969V138.807Z" fill="#F0F0F0"/>
<path d="M106.969 143.519H104.158V146.329H106.969V143.519Z" fill="#F0F0F0"/>
<path d="M102.515 91.7568H99.7041V94.5674H102.515V91.7568Z" fill="#F0F0F0"/>
<path d="M102.515 96.4678H99.7041V99.2783H102.515V96.4678Z" fill="#F0F0F0"/>
<path d="M102.515 101.169H99.7041V103.979H102.515V101.169Z" fill="#F0F0F0"/>
<path d="M102.515 105.87H99.7041V108.68H102.515V105.87Z" fill="#F0F0F0"/>
<path d="M102.515 110.581H99.7041V113.392H102.515V110.581Z" fill="#F0F0F0"/>
<path d="M102.515 115.282H99.7041V118.093H102.515V115.282Z" fill="#F0F0F0"/>
<path d="M102.515 119.993H99.7041V122.804H102.515V119.993Z" fill="#F0F0F0"/>
<path d="M98.0503 91.7568H95.2397V94.5674H98.0503V91.7568Z" fill="#F0F0F0"/>
<path d="M98.0503 96.4678H95.2397V99.2783H98.0503V96.4678Z" fill="#F0F0F0"/>
<path d="M98.0503 101.169H95.2397V103.979H98.0503V101.169Z" fill="#F0F0F0"/>
<path d="M98.0503 105.87H95.2397V108.68H98.0503V105.87Z" fill="#F0F0F0"/>
<path d="M98.0503 110.581H95.2397V113.392H98.0503V110.581Z" fill="#F0F0F0"/>
<path d="M98.0503 115.282H95.2397V118.093H98.0503V115.282Z" fill="#F0F0F0"/>
<path d="M98.0503 119.993H95.2397V122.804H98.0503V119.993Z" fill="#F0F0F0"/>
<path d="M93.5952 91.7568H90.7847V94.5674H93.5952V91.7568Z" fill="#F0F0F0"/>
<path d="M93.5952 96.4678H90.7847V99.2783H93.5952V96.4678Z" fill="#F0F0F0"/>
<path d="M93.5952 101.169H90.7847V103.979H93.5952V101.169Z" fill="#F0F0F0"/>
<path d="M93.5952 105.87H90.7847V108.68H93.5952V105.87Z" fill="#F0F0F0"/>
<path d="M93.5952 110.581H90.7847V113.392H93.5952V110.581Z" fill="#F0F0F0"/>
<path d="M93.5952 115.282H90.7847V118.093H93.5952V115.282Z" fill="#F0F0F0"/>
<path d="M93.5952 119.993H90.7847V122.804H93.5952V119.993Z" fill="#F0F0F0"/>
<path d="M93.5952 124.694H90.7847V127.505H93.5952V124.694Z" fill="#F0F0F0"/>
<path d="M93.5952 129.396H90.7847V132.206H93.5952V129.396Z" fill="#F0F0F0"/>
<path d="M93.5952 134.107H90.7847V136.917H93.5952V134.107Z" fill="#F0F0F0"/>
<path d="M93.5952 138.807H90.7847V141.618H93.5952V138.807Z" fill="#F0F0F0"/>
<path d="M89.1445 91.7568H86.334V94.5674H89.1445V91.7568Z" fill="#F0F0F0"/>
<path d="M89.1445 96.4678H86.334V99.2783H89.1445V96.4678Z" fill="#F0F0F0"/>
<path d="M89.1445 101.169H86.334V103.979H89.1445V101.169Z" fill="#F0F0F0"/>
<path d="M89.1445 105.87H86.334V108.68H89.1445V105.87Z" fill="#F0F0F0"/>
<path d="M89.1445 110.581H86.334V113.392H89.1445V110.581Z" fill="#F0F0F0"/>
<path d="M89.1445 115.282H86.334V118.093H89.1445V115.282Z" fill="#F0F0F0"/>
<path d="M89.1445 119.993H86.334V122.804H89.1445V119.993Z" fill="#F0F0F0"/>
<path d="M89.1445 124.694H86.334V127.505H89.1445V124.694Z" fill="#F0F0F0"/>
<path d="M89.1445 129.396H86.334V132.206H89.1445V129.396Z" fill="#F0F0F0"/>
<path d="M89.1445 134.107H86.334V136.917H89.1445V134.107Z" fill="#F0F0F0"/>
<path d="M89.1445 138.807H86.334V141.618H89.1445V138.807Z" fill="#F0F0F0"/>
<path d="M89.1445 143.519H86.334V146.329H89.1445V143.519Z" fill="#F0F0F0"/>
<path d="M89.1445 157.632H86.334V160.443H89.1445V157.632Z" fill="#F0F0F0"/>
<path d="M89.1445 162.333H86.334V165.144H89.1445V162.333Z" fill="#F0F0F0"/>
<path d="M84.6797 91.7568H81.8691V94.5674H84.6797V91.7568Z" fill="#F0F0F0"/>
<path d="M84.6797 96.4678H81.8691V99.2783H84.6797V96.4678Z" fill="#F0F0F0"/>
<path d="M84.6797 101.169H81.8691V103.979H84.6797V101.169Z" fill="#F0F0F0"/>
<path d="M84.6797 115.282H81.8691V118.093H84.6797V115.282Z" fill="#F0F0F0"/>
<path d="M84.6797 119.993H81.8691V122.804H84.6797V119.993Z" fill="#F0F0F0"/>
<path d="M84.6797 124.694H81.8691V127.505H84.6797V124.694Z" fill="#F0F0F0"/>
<path d="M84.6797 129.396H81.8691V132.206H84.6797V129.396Z" fill="#F0F0F0"/>
<path d="M84.6797 134.107H81.8691V136.917H84.6797V134.107Z" fill="#F0F0F0"/>
<path d="M84.6797 138.807H81.8691V141.618H84.6797V138.807Z" fill="#F0F0F0"/>
<path d="M84.6797 143.519H81.8691V146.329H84.6797V143.519Z" fill="#F0F0F0"/>
<path d="M84.6797 157.632H81.8691V160.443H84.6797V157.632Z" fill="#F0F0F0"/>
<path d="M84.6797 162.333H81.8691V165.144H84.6797V162.333Z" fill="#F0F0F0"/>
<path d="M84.6797 167.045H81.8691V169.855H84.6797V167.045Z" fill="#F0F0F0"/>
<path d="M37.9648 63.5297H35.1543V66.3402H37.9648V63.5297Z" fill="#F0F0F0"/>
<path d="M37.9648 68.2308H35.1543V71.0414H37.9648V68.2308Z" fill="#F0F0F0"/>
<path d="M37.9648 72.9421H35.1543V75.7527H37.9648V72.9421Z" fill="#F0F0F0"/>
<path d="M37.9648 77.6432H35.1543V80.4537H37.9648V77.6432Z" fill="#F0F0F0"/>
<path d="M37.9648 82.3444H35.1543V85.1549H37.9648V82.3444Z" fill="#F0F0F0"/>
<path d="M37.9648 87.0552H35.1543V89.8658H37.9648V87.0552Z" fill="#F0F0F0"/>
<path d="M37.9648 91.7568H35.1543V94.5674H37.9648V91.7568Z" fill="#F0F0F0"/>
<path d="M37.9648 96.4678H35.1543V99.2783H37.9648V96.4678Z" fill="#F0F0F0"/>
<path d="M37.9648 101.169H35.1543V103.979H37.9648V101.169Z" fill="#F0F0F0"/>
<path d="M37.9648 105.87H35.1543V108.68H37.9648V105.87Z" fill="#F0F0F0"/>
<path d="M37.9648 110.581H35.1543V113.392H37.9648V110.581Z" fill="#F0F0F0"/>
<path d="M37.9648 115.282H35.1543V118.093H37.9648V115.282Z" fill="#F0F0F0"/>
<path d="M37.9648 119.993H35.1543V122.804H37.9648V119.993Z" fill="#F0F0F0"/>
<path d="M37.9648 124.694H35.1543V127.505H37.9648V124.694Z" fill="#F0F0F0"/>
<path d="M37.9648 129.396H35.1543V132.206H37.9648V129.396Z" fill="#F0F0F0"/>
<path d="M37.9648 134.107H35.1543V136.917H37.9648V134.107Z" fill="#F0F0F0"/>
<path d="M37.9648 138.807H35.1543V141.618H37.9648V138.807Z" fill="#F0F0F0"/>
<path d="M37.9648 143.519H35.1543V146.329H37.9648V143.519Z" fill="#F0F0F0"/>
<path d="M37.9648 148.22H35.1543V151.031H37.9648V148.22Z" fill="#F0F0F0"/>
<path d="M37.9648 152.922H35.1543V155.732H37.9648V152.922Z" fill="#F0F0F0"/>
<path d="M37.9648 157.632H35.1543V160.443H37.9648V157.632Z" fill="#F0F0F0"/>
<path d="M37.9648 162.333H35.1543V165.144H37.9648V162.333Z" fill="#F0F0F0"/>
<path d="M37.9648 167.045H35.1543V169.855H37.9648V167.045Z" fill="#F0F0F0"/>
<path d="M33.5005 63.5297H30.6899V66.3402H33.5005V63.5297Z" fill="#F0F0F0"/>
<path d="M33.5005 68.2308H30.6899V71.0414H33.5005V68.2308Z" fill="#F0F0F0"/>
<path d="M33.5005 72.9421H30.6899V75.7527H33.5005V72.9421Z" fill="#F0F0F0"/>
<path d="M33.5005 77.6432H30.6899V80.4537H33.5005V77.6432Z" fill="#F0F0F0"/>
<path d="M33.5005 82.3444H30.6899V85.1549H33.5005V82.3444Z" fill="#F0F0F0"/>
<path d="M33.5005 87.0552H30.6899V89.8658H33.5005V87.0552Z" fill="#F0F0F0"/>
<path d="M33.5005 91.7568H30.6899V94.5674H33.5005V91.7568Z" fill="#F0F0F0"/>
<path d="M33.5005 96.4678H30.6899V99.2783H33.5005V96.4678Z" fill="#F0F0F0"/>
<path d="M33.5005 101.169H30.6899V103.979H33.5005V101.169Z" fill="#F0F0F0"/>
<path d="M33.5005 105.87H30.6899V108.68H33.5005V105.87Z" fill="#F0F0F0"/>
<path d="M33.5005 110.581H30.6899V113.392H33.5005V110.581Z" fill="#F0F0F0"/>
<path d="M33.5005 115.282H30.6899V118.093H33.5005V115.282Z" fill="#F0F0F0"/>
<path d="M33.5005 119.993H30.6899V122.804H33.5005V119.993Z" fill="#F0F0F0"/>
<path d="M33.5005 124.694H30.6899V127.505H33.5005V124.694Z" fill="#F0F0F0"/>
<path d="M33.5005 129.396H30.6899V132.206H33.5005V129.396Z" fill="#F0F0F0"/>
<path d="M33.5005 134.107H30.6899V136.917H33.5005V134.107Z" fill="#F0F0F0"/>
<path d="M33.5005 138.807H30.6899V141.618H33.5005V138.807Z" fill="#F0F0F0"/>
<path d="M33.5005 143.519H30.6899V146.329H33.5005V143.519Z" fill="#F0F0F0"/>
<path d="M33.5005 148.22H30.6899V151.031H33.5005V148.22Z" fill="#F0F0F0"/>
<path d="M29.0488 63.5297H26.2383V66.3402H29.0488V63.5297Z" fill="#F0F0F0"/>
<path d="M29.0488 68.2308H26.2383V71.0414H29.0488V68.2308Z" fill="#F0F0F0"/>
<path d="M29.0488 72.9421H26.2383V75.7527H29.0488V72.9421Z" fill="#F0F0F0"/>
<path d="M29.0488 77.6432H26.2383V80.4537H29.0488V77.6432Z" fill="#F0F0F0"/>
<path d="M29.0488 82.3444H26.2383V85.1549H29.0488V82.3444Z" fill="#F0F0F0"/>
<path d="M29.0488 87.0552H26.2383V89.8658H29.0488V87.0552Z" fill="#F0F0F0"/>
<path d="M29.0488 91.7568H26.2383V94.5674H29.0488V91.7568Z" fill="#F0F0F0"/>
<path d="M29.0488 96.4678H26.2383V99.2783H29.0488V96.4678Z" fill="#F0F0F0"/>
<path d="M29.0488 101.169H26.2383V103.979H29.0488V101.169Z" fill="#F0F0F0"/>
<path d="M29.0488 105.87H26.2383V108.68H29.0488V105.87Z" fill="#F0F0F0"/>
<path d="M29.0488 110.581H26.2383V113.392H29.0488V110.581Z" fill="#F0F0F0"/>
<path d="M29.0488 115.282H26.2383V118.093H29.0488V115.282Z" fill="#F0F0F0"/>
<path d="M29.0488 119.993H26.2383V122.804H29.0488V119.993Z" fill="#F0F0F0"/>
<path d="M29.0488 124.694H26.2383V127.505H29.0488V124.694Z" fill="#F0F0F0"/>
<path d="M29.0488 129.396H26.2383V132.206H29.0488V129.396Z" fill="#F0F0F0"/>
<path d="M29.0488 134.107H26.2383V136.917H29.0488V134.107Z" fill="#F0F0F0"/>
<path d="M29.0488 138.807H26.2383V141.618H29.0488V138.807Z" fill="#F0F0F0"/>
<path d="M29.0488 143.519H26.2383V146.329H29.0488V143.519Z" fill="#F0F0F0"/>
<path d="M29.0488 148.22H26.2383V151.031H29.0488V148.22Z" fill="#F0F0F0"/>
<path d="M24.585 63.5297H21.7744V66.3402H24.585V63.5297Z" fill="#F0F0F0"/>
<path d="M24.585 68.2308H21.7744V71.0414H24.585V68.2308Z" fill="#F0F0F0"/>
<path d="M24.585 72.9421H21.7744V75.7527H24.585V72.9421Z" fill="#F0F0F0"/>
<path d="M24.585 77.6432H21.7744V80.4537H24.585V77.6432Z" fill="#F0F0F0"/>
<path d="M24.585 82.3444H21.7744V85.1549H24.585V82.3444Z" fill="#F0F0F0"/>
<path d="M24.585 87.0552H21.7744V89.8658H24.585V87.0552Z" fill="#F0F0F0"/>
<path d="M24.585 91.7568H21.7744V94.5674H24.585V91.7568Z" fill="#F0F0F0"/>
<path d="M24.585 96.4678H21.7744V99.2783H24.585V96.4678Z" fill="#F0F0F0"/>
<path d="M24.585 101.169H21.7744V103.979H24.585V101.169Z" fill="#F0F0F0"/>
<path d="M24.585 105.87H21.7744V108.68H24.585V105.87Z" fill="#F0F0F0"/>
<path d="M24.585 110.581H21.7744V113.392H24.585V110.581Z" fill="#F0F0F0"/>
<path d="M24.585 115.282H21.7744V118.093H24.585V115.282Z" fill="#F0F0F0"/>
<path d="M24.585 119.993H21.7744V122.804H24.585V119.993Z" fill="#F0F0F0"/>
<path d="M24.585 124.694H21.7744V127.505H24.585V124.694Z" fill="#F0F0F0"/>
<path d="M24.585 129.396H21.7744V132.206H24.585V129.396Z" fill="#F0F0F0"/>
<path d="M20.1314 63.5297H17.3208V66.3402H20.1314V63.5297Z" fill="#F0F0F0"/>
<path d="M20.1314 68.2308H17.3208V71.0414H20.1314V68.2308Z" fill="#F0F0F0"/>
<path d="M20.1314 72.9421H17.3208V75.7527H20.1314V72.9421Z" fill="#F0F0F0"/>
<path d="M20.1314 77.6432H17.3208V80.4537H20.1314V77.6432Z" fill="#F0F0F0"/>
<path d="M20.1314 82.3444H17.3208V85.1549H20.1314V82.3444Z" fill="#F0F0F0"/>
<path d="M20.1314 87.0552H17.3208V89.8658H20.1314V87.0552Z" fill="#F0F0F0"/>
<path d="M20.1314 91.7568H17.3208V94.5674H20.1314V91.7568Z" fill="#F0F0F0"/>
<path d="M20.1314 96.4678H17.3208V99.2783H20.1314V96.4678Z" fill="#F0F0F0"/>
<path d="M20.1314 101.169H17.3208V103.979H20.1314V101.169Z" fill="#F0F0F0"/>
<path d="M20.1314 105.87H17.3208V108.68H20.1314V105.87Z" fill="#F0F0F0"/>
<path d="M20.1314 110.581H17.3208V113.392H20.1314V110.581Z" fill="#F0F0F0"/>
<path d="M20.1314 115.282H17.3208V118.093H20.1314V115.282Z" fill="#F0F0F0"/>
<path d="M20.1314 119.993H17.3208V122.804H20.1314V119.993Z" fill="#F0F0F0"/>
<path d="M15.6753 63.5297H12.8647V66.3402H15.6753V63.5297Z" fill="#F0F0F0"/>
<path d="M15.6753 68.2308H12.8647V71.0414H15.6753V68.2308Z" fill="#F0F0F0"/>
<path d="M15.6753 72.9421H12.8647V75.7527H15.6753V72.9421Z" fill="#F0F0F0"/>
<path d="M15.6753 77.6432H12.8647V80.4537H15.6753V77.6432Z" fill="#F0F0F0"/>
<path d="M15.6753 82.3444H12.8647V85.1549H15.6753V82.3444Z" fill="#F0F0F0"/>
<path d="M15.6753 87.0552H12.8647V89.8658H15.6753V87.0552Z" fill="#F0F0F0"/>
<path d="M15.6753 91.7568H12.8647V94.5674H15.6753V91.7568Z" fill="#F0F0F0"/>
<path d="M15.6753 96.4678H12.8647V99.2783H15.6753V96.4678Z" fill="#F0F0F0"/>
<path d="M15.6753 101.169H12.8647V103.979H15.6753V101.169Z" fill="#F0F0F0"/>
<path d="M15.6753 105.87H12.8647V108.68H15.6753V105.87Z" fill="#F0F0F0"/>
<path d="M15.6753 110.581H12.8647V113.392H15.6753V110.581Z" fill="#F0F0F0"/>
<path d="M15.6753 115.282H12.8647V118.093H15.6753V115.282Z" fill="#F0F0F0"/>
<path d="M343.224 97.8634H340.413V100.674H343.224V97.8634Z" fill="#F0F0F0"/>
<path d="M343.224 102.574H340.413V105.385H343.224V102.574Z" fill="#F0F0F0"/>
<path d="M343.224 107.276H340.413V110.086H343.224V107.276Z" fill="#F0F0F0"/>
<path d="M343.224 111.987H340.413V114.797H343.224V111.987Z" fill="#F0F0F0"/>
<path d="M343.224 116.688H340.413V119.498H343.224V116.688Z" fill="#F0F0F0"/>
<path d="M343.224 121.389H340.413V124.199H343.224V121.389Z" fill="#F0F0F0"/>
<path d="M343.224 126.1H340.413V128.91H343.224V126.1Z" fill="#F0F0F0"/>
<path d="M343.224 130.801H340.413V133.612H343.224V130.801Z" fill="#F0F0F0"/>
<path d="M343.224 135.512H340.413V138.323H343.224V135.512Z" fill="#F0F0F0"/>
<path d="M343.224 140.213H340.413V143.024H343.224V140.213Z" fill="#F0F0F0"/>
<path d="M343.224 144.915H340.413V147.725H343.224V144.915Z" fill="#F0F0F0"/>
<path d="M343.224 149.625H340.413V152.436H343.224V149.625Z" fill="#F0F0F0"/>
<path d="M343.224 154.327H340.413V157.137H343.224V154.327Z" fill="#F0F0F0"/>
<path d="M343.224 159.038H340.413V161.848H343.224V159.038Z" fill="#F0F0F0"/>
<path d="M343.224 163.739H340.413V166.549H343.224V163.739Z" fill="#F0F0F0"/>
<path d="M343.224 168.44H340.413V171.25H343.224V168.44Z" fill="#F0F0F0"/>
<path d="M343.224 173.151H340.413V175.962H343.224V173.151Z" fill="#F0F0F0"/>
<path d="M343.224 177.852H340.413V180.663H343.224V177.852Z" fill="#F0F0F0"/>
<path d="M343.224 182.563H340.413V185.374H343.224V182.563Z" fill="#F0F0F0"/>
<path d="M343.224 187.264H340.413V190.075H343.224V187.264Z" fill="#F0F0F0"/>
<path d="M338.759 97.8634H335.949V100.674H338.759V97.8634Z" fill="#F0F0F0"/>
<path d="M338.759 102.574H335.949V105.385H338.759V102.574Z" fill="#F0F0F0"/>
<path d="M338.759 107.276H335.949V110.086H338.759V107.276Z" fill="#F0F0F0"/>
<path d="M338.759 111.987H335.949V114.797H338.759V111.987Z" fill="#F0F0F0"/>
<path d="M338.759 116.688H335.949V119.498H338.759V116.688Z" fill="#F0F0F0"/>
<path d="M338.759 121.389H335.949V124.199H338.759V121.389Z" fill="#F0F0F0"/>
<path d="M338.759 126.1H335.949V128.91H338.759V126.1Z" fill="#F0F0F0"/>
<path d="M338.759 130.801H335.949V133.612H338.759V130.801Z" fill="#F0F0F0"/>
<path d="M338.759 135.512H335.949V138.323H338.759V135.512Z" fill="#F0F0F0"/>
<path d="M338.759 140.213H335.949V143.024H338.759V140.213Z" fill="#F0F0F0"/>
<path d="M338.759 144.915H335.949V147.725H338.759V144.915Z" fill="#F0F0F0"/>
<path d="M338.759 149.625H335.949V152.436H338.759V149.625Z" fill="#F0F0F0"/>
<path d="M338.759 154.327H335.949V157.137H338.759V154.327Z" fill="#F0F0F0"/>
<path d="M338.759 159.038H335.949V161.848H338.759V159.038Z" fill="#F0F0F0"/>
<path d="M338.759 163.739H335.949V166.549H338.759V163.739Z" fill="#F0F0F0"/>
<path d="M338.759 168.44H335.949V171.25H338.759V168.44Z" fill="#F0F0F0"/>
<path d="M338.759 173.151H335.949V175.962H338.759V173.151Z" fill="#F0F0F0"/>
<path d="M338.759 177.852H335.949V180.663H338.759V177.852Z" fill="#F0F0F0"/>
<path d="M334.307 97.8634H331.496V100.674H334.307V97.8634Z" fill="#F0F0F0"/>
<path d="M334.307 102.574H331.496V105.385H334.307V102.574Z" fill="#F0F0F0"/>
<path d="M334.307 107.276H331.496V110.086H334.307V107.276Z" fill="#F0F0F0"/>
<path d="M334.307 111.987H331.496V114.797H334.307V111.987Z" fill="#F0F0F0"/>
<path d="M334.307 116.688H331.496V119.498H334.307V116.688Z" fill="#F0F0F0"/>
<path d="M334.307 121.389H331.496V124.199H334.307V121.389Z" fill="#F0F0F0"/>
<path d="M334.307 126.1H331.496V128.91H334.307V126.1Z" fill="#F0F0F0"/>
<path d="M334.307 130.801H331.496V133.612H334.307V130.801Z" fill="#F0F0F0"/>
<path d="M334.307 135.512H331.496V138.323H334.307V135.512Z" fill="#F0F0F0"/>
<path d="M334.307 140.213H331.496V143.024H334.307V140.213Z" fill="#F0F0F0"/>
<path d="M334.307 144.915H331.496V147.725H334.307V144.915Z" fill="#F0F0F0"/>
<path d="M334.307 149.625H331.496V152.436H334.307V149.625Z" fill="#F0F0F0"/>
<path d="M334.307 154.327H331.496V157.137H334.307V154.327Z" fill="#F0F0F0"/>
<path d="M334.307 159.038H331.496V161.848H334.307V159.038Z" fill="#F0F0F0"/>
<path d="M334.307 163.739H331.496V166.549H334.307V163.739Z" fill="#F0F0F0"/>
<path d="M334.307 168.44H331.496V171.25H334.307V168.44Z" fill="#F0F0F0"/>
<path d="M334.307 173.151H331.496V175.962H334.307V173.151Z" fill="#F0F0F0"/>
<path d="M334.307 177.852H331.496V180.663H334.307V177.852Z" fill="#F0F0F0"/>
<path d="M359.89 132.206H357.08V135.017H359.89V132.206Z" fill="#F0F0F0"/>
<path d="M359.89 136.908H357.08V139.719H359.89V136.908Z" fill="#F0F0F0"/>
<path d="M359.89 141.619H357.08V144.429H359.89V141.619Z" fill="#F0F0F0"/>
<path d="M359.89 146.32H357.08V149.13H359.89V146.32Z" fill="#F0F0F0"/>
<path d="M359.89 151.031H357.08V153.841H359.89V151.031Z" fill="#F0F0F0"/>
<path d="M359.89 155.732H357.08V158.543H359.89V155.732Z" fill="#F0F0F0"/>
<path d="M359.89 160.433H357.08V163.244H359.89V160.433Z" fill="#F0F0F0"/>
<path d="M359.89 165.144H357.08V167.955H359.89V165.144Z" fill="#F0F0F0"/>
<path d="M359.89 169.846H357.08V172.656H359.89V169.846Z" fill="#F0F0F0"/>
<path d="M359.89 174.557H357.08V177.367H359.89V174.557Z" fill="#F0F0F0"/>
<path d="M359.89 179.258H357.08V182.068H359.89V179.258Z" fill="#F0F0F0"/>
<path d="M359.89 183.959H357.08V186.769H359.89V183.959Z" fill="#F0F0F0"/>
<path d="M359.89 188.67H357.08V191.48H359.89V188.67Z" fill="#F0F0F0"/>
<path d="M355.436 132.206H352.625V135.017H355.436V132.206Z" fill="#F0F0F0"/>
<path d="M355.436 136.908H352.625V139.719H355.436V136.908Z" fill="#F0F0F0"/>
<path d="M355.436 141.619H352.625V144.429H355.436V141.619Z" fill="#F0F0F0"/>
<path d="M355.436 146.32H352.625V149.13H355.436V146.32Z" fill="#F0F0F0"/>
<path d="M355.436 151.031H352.625V153.841H355.436V151.031Z" fill="#F0F0F0"/>
<path d="M355.436 155.732H352.625V158.543H355.436V155.732Z" fill="#F0F0F0"/>
<path d="M355.436 160.433H352.625V163.244H355.436V160.433Z" fill="#F0F0F0"/>
<path d="M355.436 165.144H352.625V167.955H355.436V165.144Z" fill="#F0F0F0"/>
<path d="M355.436 169.846H352.625V172.656H355.436V169.846Z" fill="#F0F0F0"/>
<path d="M355.436 174.557H352.625V177.367H355.436V174.557Z" fill="#F0F0F0"/>
<path d="M355.436 179.258H352.625V182.068H355.436V179.258Z" fill="#F0F0F0"/>
<path d="M355.436 183.959H352.625V186.769H355.436V183.959Z" fill="#F0F0F0"/>
<path d="M355.436 188.67H352.625V191.48H355.436V188.67Z" fill="#F0F0F0"/>
<path d="M350.983 132.206H348.172V135.017H350.983V132.206Z" fill="#F0F0F0"/>
<path d="M350.983 136.908H348.172V139.719H350.983V136.908Z" fill="#F0F0F0"/>
<path d="M350.983 141.619H348.172V144.429H350.983V141.619Z" fill="#F0F0F0"/>
<path d="M350.983 146.32H348.172V149.13H350.983V146.32Z" fill="#F0F0F0"/>
<path d="M350.983 151.031H348.172V153.841H350.983V151.031Z" fill="#F0F0F0"/>
<path d="M350.983 155.732H348.172V158.543H350.983V155.732Z" fill="#F0F0F0"/>
<path d="M350.983 160.433H348.172V163.244H350.983V160.433Z" fill="#F0F0F0"/>
<path d="M350.983 165.144H348.172V167.955H350.983V165.144Z" fill="#F0F0F0"/>
<path d="M350.983 169.846H348.172V172.656H350.983V169.846Z" fill="#F0F0F0"/>
<path d="M350.983 174.557H348.172V177.367H350.983V174.557Z" fill="#F0F0F0"/>
<path d="M350.983 179.258H348.172V182.068H350.983V179.258Z" fill="#F0F0F0"/>
<path d="M350.983 183.959H348.172V186.769H350.983V183.959Z" fill="#F0F0F0"/>
<path d="M350.983 188.67H348.172V191.48H350.983V188.67Z" fill="#F0F0F0"/>
<path d="M350.983 193.371H348.172V196.182H350.983V193.371Z" fill="#F0F0F0"/>
<path d="M326.21 133.612H323.399V136.422H326.21V133.612Z" fill="#F0F0F0"/>
<path d="M326.21 138.313H323.399V141.124H326.21V138.313Z" fill="#F0F0F0"/>
<path d="M326.21 143.024H323.399V145.834H326.21V143.024Z" fill="#F0F0F0"/>
<path d="M326.21 147.725H323.399V150.536H326.21V147.725Z" fill="#F0F0F0"/>
<path d="M326.21 152.427H323.399V155.237H326.21V152.427Z" fill="#F0F0F0"/>
<path d="M326.21 157.138H323.399V159.948H326.21V157.138Z" fill="#F0F0F0"/>
<path d="M326.21 161.839H323.399V164.649H326.21V161.839Z" fill="#F0F0F0"/>
<path d="M326.21 166.55H323.399V169.36H326.21V166.55Z" fill="#F0F0F0"/>
<path d="M326.21 171.251H323.399V174.062H326.21V171.251Z" fill="#F0F0F0"/>
<path d="M326.21 175.952H323.399V178.762H326.21V175.952Z" fill="#F0F0F0"/>
<path d="M326.21 190.075H323.399V192.886H326.21V190.075Z" fill="#F0F0F0"/>
<path d="M321.756 133.612H318.945V136.422H321.756V133.612Z" fill="#F0F0F0"/>
<path d="M321.756 138.313H318.945V141.124H321.756V138.313Z" fill="#F0F0F0"/>
<path d="M321.756 143.024H318.945V145.834H321.756V143.024Z" fill="#F0F0F0"/>
<path d="M321.756 147.725H318.945V150.536H321.756V147.725Z" fill="#F0F0F0"/>
<path d="M321.756 152.427H318.945V155.237H321.756V152.427Z" fill="#F0F0F0"/>
<path d="M321.756 157.138H318.945V159.948H321.756V157.138Z" fill="#F0F0F0"/>
<path d="M321.756 161.839H318.945V164.649H321.756V161.839Z" fill="#F0F0F0"/>
<path d="M321.756 166.55H318.945V169.36H321.756V166.55Z" fill="#F0F0F0"/>
<path d="M321.756 171.251H318.945V174.062H321.756V171.251Z" fill="#F0F0F0"/>
<path d="M321.756 185.364H318.945V188.175H321.756V185.364Z" fill="#F0F0F0"/>
<path d="M321.756 190.075H318.945V192.886H321.756V190.075Z" fill="#F0F0F0"/>
<path d="M317.302 133.612H314.491V136.422H317.302V133.612Z" fill="#F0F0F0"/>
<path d="M317.302 138.313H314.491V141.124H317.302V138.313Z" fill="#F0F0F0"/>
<path d="M317.302 143.024H314.491V145.834H317.302V143.024Z" fill="#F0F0F0"/>
<path d="M317.302 147.725H314.491V150.536H317.302V147.725Z" fill="#F0F0F0"/>
<path d="M317.302 152.427H314.491V155.237H317.302V152.427Z" fill="#F0F0F0"/>
<path d="M317.302 157.138H314.491V159.948H317.302V157.138Z" fill="#F0F0F0"/>
<path d="M317.302 161.839H314.491V164.649H317.302V161.839Z" fill="#F0F0F0"/>
<path d="M317.302 166.55H314.491V169.36H317.302V166.55Z" fill="#F0F0F0"/>
<path d="M317.302 180.663H314.491V183.474H317.302V180.663Z" fill="#F0F0F0"/>
<path d="M317.302 185.364H314.491V188.175H317.302V185.364Z" fill="#F0F0F0"/>
<path d="M317.302 190.075H314.491V192.886H317.302V190.075Z" fill="#F0F0F0"/>
<path d="M275.864 62.1247H273.053V64.9353H275.864V62.1247Z" fill="#F0F0F0"/>
<path d="M275.864 66.8259H273.053V69.6365H275.864V66.8259Z" fill="#F0F0F0"/>
<path d="M275.864 71.5366H273.053V74.3471H275.864V71.5366Z" fill="#F0F0F0"/>
<path d="M275.864 76.2375H273.053V79.0481H275.864V76.2375Z" fill="#F0F0F0"/>
<path d="M275.864 80.9491H273.053V83.7596H275.864V80.9491Z" fill="#F0F0F0"/>
<path d="M275.864 85.6503H273.053V88.4608H275.864V85.6503Z" fill="#F0F0F0"/>
<path d="M275.864 90.3513H273.053V93.1619H275.864V90.3513Z" fill="#F0F0F0"/>
<path d="M275.864 95.0626H273.053V97.8732H275.864V95.0626Z" fill="#F0F0F0"/>
<path d="M275.864 99.7638H273.053V102.574H275.864V99.7638Z" fill="#F0F0F0"/>
<path d="M275.864 104.474H273.053V107.285H275.864V104.474Z" fill="#F0F0F0"/>
<path d="M275.864 109.176H273.053V111.986H275.864V109.176Z" fill="#F0F0F0"/>
<path d="M275.864 113.876H273.053V116.687H275.864V113.876Z" fill="#F0F0F0"/>
<path d="M275.864 118.588H273.053V121.399H275.864V118.588Z" fill="#F0F0F0"/>
<path d="M275.864 123.289H273.053V126.099H275.864V123.289Z" fill="#F0F0F0"/>
<path d="M275.864 128H273.053V130.811H275.864V128Z" fill="#F0F0F0"/>
<path d="M275.864 132.702H273.053V135.512H275.864V132.702Z" fill="#F0F0F0"/>
<path d="M275.864 137.402H273.053V140.213H275.864V137.402Z" fill="#F0F0F0"/>
<path d="M275.864 146.815H273.053V149.625H275.864V146.815Z" fill="#F0F0F0"/>
<path d="M275.864 151.526H273.053V154.336H275.864V151.526Z" fill="#F0F0F0"/>
<path d="M275.864 156.227H273.053V159.038H275.864V156.227Z" fill="#F0F0F0"/>
<path d="M275.864 160.928H273.053V163.739H275.864V160.928Z" fill="#F0F0F0"/>
<path d="M275.864 165.639H273.053V168.45H275.864V165.639Z" fill="#F0F0F0"/>
<path d="M271.399 62.1247H268.589V64.9353H271.399V62.1247Z" fill="#F0F0F0"/>
<path d="M271.399 66.8259H268.589V69.6365H271.399V66.8259Z" fill="#F0F0F0"/>
<path d="M271.399 71.5366H268.589V74.3471H271.399V71.5366Z" fill="#F0F0F0"/>
<path d="M271.399 76.2375H268.589V79.0481H271.399V76.2375Z" fill="#F0F0F0"/>
<path d="M271.399 80.9491H268.589V83.7596H271.399V80.9491Z" fill="#F0F0F0"/>
<path d="M271.399 85.6503H268.589V88.4608H271.399V85.6503Z" fill="#F0F0F0"/>
<path d="M271.399 90.3513H268.589V93.1619H271.399V90.3513Z" fill="#F0F0F0"/>
<path d="M271.399 95.0626H268.589V97.8732H271.399V95.0626Z" fill="#F0F0F0"/>
<path d="M271.399 99.7638H268.589V102.574H271.399V99.7638Z" fill="#F0F0F0"/>
<path d="M271.399 104.474H268.589V107.285H271.399V104.474Z" fill="#F0F0F0"/>
<path d="M271.399 109.176H268.589V111.986H271.399V109.176Z" fill="#F0F0F0"/>
<path d="M271.399 113.876H268.589V116.687H271.399V113.876Z" fill="#F0F0F0"/>
<path d="M271.399 118.588H268.589V121.399H271.399V118.588Z" fill="#F0F0F0"/>
<path d="M271.399 123.289H268.589V126.099H271.399V123.289Z" fill="#F0F0F0"/>
<path d="M271.399 128H268.589V130.811H271.399V128Z" fill="#F0F0F0"/>
<path d="M271.399 132.702H268.589V135.512H271.399V132.702Z" fill="#F0F0F0"/>
<path d="M271.399 160.928H268.589V163.739H271.399V160.928Z" fill="#F0F0F0"/>
<path d="M271.399 165.639H268.589V168.45H271.399V165.639Z" fill="#F0F0F0"/>
<path d="M266.945 62.1247H264.135V64.9353H266.945V62.1247Z" fill="#F0F0F0"/>
<path d="M266.945 66.8259H264.135V69.6365H266.945V66.8259Z" fill="#F0F0F0"/>
<path d="M266.945 71.5366H264.135V74.3471H266.945V71.5366Z" fill="#F0F0F0"/>
<path d="M266.945 76.2375H264.135V79.0481H266.945V76.2375Z" fill="#F0F0F0"/>
<path d="M266.945 80.9491H264.135V83.7596H266.945V80.9491Z" fill="#F0F0F0"/>
<path d="M266.945 85.6503H264.135V88.4608H266.945V85.6503Z" fill="#F0F0F0"/>
<path d="M266.945 90.3513H264.135V93.1619H266.945V90.3513Z" fill="#F0F0F0"/>
<path d="M266.945 95.0626H264.135V97.8732H266.945V95.0626Z" fill="#F0F0F0"/>
<path d="M266.945 99.7638H264.135V102.574H266.945V99.7638Z" fill="#F0F0F0"/>
<path d="M266.945 104.474H264.135V107.285H266.945V104.474Z" fill="#F0F0F0"/>
<path d="M266.945 109.176H264.135V111.986H266.945V109.176Z" fill="#F0F0F0"/>
<path d="M266.945 113.876H264.135V116.687H266.945V113.876Z" fill="#F0F0F0"/>
<path d="M266.945 118.588H264.135V121.399H266.945V118.588Z" fill="#F0F0F0"/>
<path d="M266.945 123.289H264.135V126.099H266.945V123.289Z" fill="#F0F0F0"/>
<path d="M266.945 128H264.135V130.811H266.945V128Z" fill="#F0F0F0"/>
<path d="M266.945 132.702H264.135V135.512H266.945V132.702Z" fill="#F0F0F0"/>
<path d="M266.945 142.114H264.135V144.924H266.945V142.114Z" fill="#F0F0F0"/>
<path d="M266.945 146.815H264.135V149.625H266.945V146.815Z" fill="#F0F0F0"/>
<path d="M266.945 151.526H264.135V154.336H266.945V151.526Z" fill="#F0F0F0"/>
<path d="M266.945 156.227H264.135V159.038H266.945V156.227Z" fill="#F0F0F0"/>
<path d="M266.945 165.639H264.135V168.45H266.945V165.639Z" fill="#F0F0F0"/>
<path d="M292.043 121.389H289.233V124.199H292.043V121.389Z" fill="#F0F0F0"/>
<path d="M292.043 126.1H289.233V128.91H292.043V126.1Z" fill="#F0F0F0"/>
<path d="M292.043 130.801H289.233V133.612H292.043V130.801Z" fill="#F0F0F0"/>
<path d="M292.043 135.512H289.233V138.323H292.043V135.512Z" fill="#F0F0F0"/>
<path d="M292.043 140.213H289.233V143.024H292.043V140.213Z" fill="#F0F0F0"/>
<path d="M292.043 144.915H289.233V147.725H292.043V144.915Z" fill="#F0F0F0"/>
<path d="M292.043 149.625H289.233V152.436H292.043V149.625Z" fill="#F0F0F0"/>
<path d="M292.043 159.038H289.233V161.848H292.043V159.038Z" fill="#F0F0F0"/>
<path d="M292.043 163.739H289.233V166.549H292.043V163.739Z" fill="#F0F0F0"/>
<path d="M292.043 168.44H289.233V171.25H292.043V168.44Z" fill="#F0F0F0"/>
<path d="M292.043 173.151H289.233V175.962H292.043V173.151Z" fill="#F0F0F0"/>
<path d="M292.043 177.852H289.233V180.663H292.043V177.852Z" fill="#F0F0F0"/>
<path d="M292.043 182.563H289.233V185.374H292.043V182.563Z" fill="#F0F0F0"/>
<path d="M292.043 187.264H289.233V190.075H292.043V187.264Z" fill="#F0F0F0"/>
<path d="M292.043 191.965H289.233V194.776H292.043V191.965Z" fill="#F0F0F0"/>
<path d="M287.581 121.389H284.771V124.199H287.581V121.389Z" fill="#F0F0F0"/>
<path d="M287.581 126.1H284.771V128.91H287.581V126.1Z" fill="#F0F0F0"/>
<path d="M287.581 130.801H284.771V133.612H287.581V130.801Z" fill="#F0F0F0"/>
<path d="M287.581 135.512H284.771V138.323H287.581V135.512Z" fill="#F0F0F0"/>
<path d="M287.581 140.213H284.771V143.024H287.581V140.213Z" fill="#F0F0F0"/>
<path d="M287.581 144.915H284.771V147.725H287.581V144.915Z" fill="#F0F0F0"/>
<path d="M287.581 159.038H284.771V161.848H287.581V159.038Z" fill="#F0F0F0"/>
<path d="M287.581 163.739H284.771V166.549H287.581V163.739Z" fill="#F0F0F0"/>
<path d="M287.581 168.44H284.771V171.25H287.581V168.44Z" fill="#F0F0F0"/>
<path d="M287.581 173.151H284.771V175.962H287.581V173.151Z" fill="#F0F0F0"/>
<path d="M287.581 177.852H284.771V180.663H287.581V177.852Z" fill="#F0F0F0"/>
<path d="M287.581 182.563H284.771V185.374H287.581V182.563Z" fill="#F0F0F0"/>
<path d="M287.581 187.264H284.771V190.075H287.581V187.264Z" fill="#F0F0F0"/>
<path d="M287.581 191.965H284.771V194.776H287.581V191.965Z" fill="#F0F0F0"/>
<path d="M283.128 121.389H280.317V124.199H283.128V121.389Z" fill="#F0F0F0"/>
<path d="M283.128 126.1H280.317V128.91H283.128V126.1Z" fill="#F0F0F0"/>
<path d="M283.128 130.801H280.317V133.612H283.128V130.801Z" fill="#F0F0F0"/>
<path d="M283.128 135.512H280.317V138.323H283.128V135.512Z" fill="#F0F0F0"/>
<path d="M283.128 140.213H280.317V143.024H283.128V140.213Z" fill="#F0F0F0"/>
<path d="M283.128 144.915H280.317V147.725H283.128V144.915Z" fill="#F0F0F0"/>
<path d="M283.128 154.327H280.317V157.137H283.128V154.327Z" fill="#F0F0F0"/>
<path d="M283.128 159.038H280.317V161.848H283.128V159.038Z" fill="#F0F0F0"/>
<path d="M283.128 163.739H280.317V166.549H283.128V163.739Z" fill="#F0F0F0"/>
<path d="M283.128 168.44H280.317V171.25H283.128V168.44Z" fill="#F0F0F0"/>
<path d="M283.128 173.151H280.317V175.962H283.128V173.151Z" fill="#F0F0F0"/>
<path d="M283.128 177.852H280.317V180.663H283.128V177.852Z" fill="#F0F0F0"/>
<path d="M283.128 182.563H280.317V185.374H283.128V182.563Z" fill="#F0F0F0"/>
<path d="M283.128 187.264H280.317V190.075H283.128V187.264Z" fill="#F0F0F0"/>
<path d="M283.128 191.965H280.317V194.776H283.128V191.965Z" fill="#F0F0F0"/>
<path d="M189.184 95.0626H186.374V97.8732H189.184V95.0626Z" fill="#F0F0F0"/>
<path d="M189.184 99.7638H186.374V102.574H189.184V99.7638Z" fill="#F0F0F0"/>
<path d="M189.184 104.474H186.374V107.285H189.184V104.474Z" fill="#F0F0F0"/>
<path d="M189.184 109.176H186.374V111.986H189.184V109.176Z" fill="#F0F0F0"/>
<path d="M189.184 113.876H186.374V116.687H189.184V113.876Z" fill="#F0F0F0"/>
<path d="M189.184 118.588H186.374V121.399H189.184V118.588Z" fill="#F0F0F0"/>
<path d="M189.184 123.289H186.374V126.099H189.184V123.289Z" fill="#F0F0F0"/>
<path d="M189.184 128H186.374V130.811H189.184V128Z" fill="#F0F0F0"/>
<path d="M189.184 132.702H186.374V135.512H189.184V132.702Z" fill="#F0F0F0"/>
<path d="M189.184 137.402H186.374V140.213H189.184V137.402Z" fill="#F0F0F0"/>
<path d="M189.184 142.114H186.374V144.924H189.184V142.114Z" fill="#F0F0F0"/>
<path d="M189.184 146.815H186.374V149.625H189.184V146.815Z" fill="#F0F0F0"/>
<path d="M189.184 151.526H186.374V154.336H189.184V151.526Z" fill="#F0F0F0"/>
<path d="M189.184 160.928H186.374V163.739H189.184V160.928Z" fill="#F0F0F0"/>
<path d="M189.184 165.639H186.374V168.45H189.184V165.639Z" fill="#F0F0F0"/>
<path d="M189.184 170.34H186.374V173.151H189.184V170.34Z" fill="#F0F0F0"/>
<path d="M189.184 175.052H186.374V177.862H189.184V175.052Z" fill="#F0F0F0"/>
<path d="M189.184 184.464H186.374V187.274H189.184V184.464Z" fill="#F0F0F0"/>
<path d="M189.184 189.164H186.374V191.975H189.184V189.164Z" fill="#F0F0F0"/>
<path d="M189.184 193.866H186.374V196.677H189.184V193.866Z" fill="#F0F0F0"/>
<path d="M184.73 95.0626H181.919V97.8732H184.73V95.0626Z" fill="#F0F0F0"/>
<path d="M184.73 99.7638H181.919V102.574H184.73V99.7638Z" fill="#F0F0F0"/>
<path d="M184.73 104.474H181.919V107.285H184.73V104.474Z" fill="#F0F0F0"/>
<path d="M184.73 109.176H181.919V111.986H184.73V109.176Z" fill="#F0F0F0"/>
<path d="M184.73 113.876H181.919V116.687H184.73V113.876Z" fill="#F0F0F0"/>
<path d="M184.73 118.588H181.919V121.399H184.73V118.588Z" fill="#F0F0F0"/>
<path d="M184.73 123.289H181.919V126.099H184.73V123.289Z" fill="#F0F0F0"/>
<path d="M184.73 128H181.919V130.811H184.73V128Z" fill="#F0F0F0"/>
<path d="M184.73 132.702H181.919V135.512H184.73V132.702Z" fill="#F0F0F0"/>
<path d="M184.73 137.402H181.919V140.213H184.73V137.402Z" fill="#F0F0F0"/>
<path d="M184.73 142.114H181.919V144.924H184.73V142.114Z" fill="#F0F0F0"/>
<path d="M184.73 146.815H181.919V149.625H184.73V146.815Z" fill="#F0F0F0"/>
<path d="M184.73 151.526H181.919V154.336H184.73V151.526Z" fill="#F0F0F0"/>
<path d="M184.73 165.639H181.919V168.45H184.73V165.639Z" fill="#F0F0F0"/>
<path d="M184.73 170.34H181.919V173.151H184.73V170.34Z" fill="#F0F0F0"/>
<path d="M184.73 179.753H181.919V182.563H184.73V179.753Z" fill="#F0F0F0"/>
<path d="M184.73 184.464H181.919V187.274H184.73V184.464Z" fill="#F0F0F0"/>
<path d="M184.73 189.164H181.919V191.975H184.73V189.164Z" fill="#F0F0F0"/>
<path d="M184.73 193.866H181.919V196.677H184.73V193.866Z" fill="#F0F0F0"/>
<path d="M180.276 95.0626H177.465V97.8732H180.276V95.0626Z" fill="#F0F0F0"/>
<path d="M180.276 99.7638H177.465V102.574H180.276V99.7638Z" fill="#F0F0F0"/>
<path d="M180.276 104.474H177.465V107.285H180.276V104.474Z" fill="#F0F0F0"/>
<path d="M180.276 109.176H177.465V111.986H180.276V109.176Z" fill="#F0F0F0"/>
<path d="M180.276 113.876H177.465V116.687H180.276V113.876Z" fill="#F0F0F0"/>
<path d="M180.276 118.588H177.465V121.399H180.276V118.588Z" fill="#F0F0F0"/>
<path d="M180.276 123.289H177.465V126.099H180.276V123.289Z" fill="#F0F0F0"/>
<path d="M180.276 128H177.465V130.811H180.276V128Z" fill="#F0F0F0"/>
<path d="M180.276 132.702H177.465V135.512H180.276V132.702Z" fill="#F0F0F0"/>
<path d="M180.276 137.402H177.465V140.213H180.276V137.402Z" fill="#F0F0F0"/>
<path d="M180.276 142.114H177.465V144.924H180.276V142.114Z" fill="#F0F0F0"/>
<path d="M180.276 146.815H177.465V149.625H180.276V146.815Z" fill="#F0F0F0"/>
<path d="M180.276 151.526H177.465V154.336H180.276V151.526Z" fill="#F0F0F0"/>
<path d="M180.276 156.227H177.465V159.038H180.276V156.227Z" fill="#F0F0F0"/>
<path d="M180.276 165.639H177.465V168.45H180.276V165.639Z" fill="#F0F0F0"/>
<path d="M180.276 175.052H177.465V177.862H180.276V175.052Z" fill="#F0F0F0"/>
<path d="M180.276 179.753H177.465V182.563H180.276V179.753Z" fill="#F0F0F0"/>
<path d="M180.276 184.464H177.465V187.274H180.276V184.464Z" fill="#F0F0F0"/>
<path d="M180.276 189.164H177.465V191.975H180.276V189.164Z" fill="#F0F0F0"/>
<path d="M180.276 193.866H177.465V196.677H180.276V193.866Z" fill="#F0F0F0"/>
<path d="M207.346 121.884H204.535V124.694H207.346V121.884Z" fill="#F0F0F0"/>
<path d="M207.346 126.594H204.535V129.405H207.346V126.594Z" fill="#F0F0F0"/>
<path d="M207.346 131.296H204.535V134.107H207.346V131.296Z" fill="#F0F0F0"/>
<path d="M207.346 136.007H204.535V138.818H207.346V136.007Z" fill="#F0F0F0"/>
<path d="M207.346 140.708H204.535V143.519H207.346V140.708Z" fill="#F0F0F0"/>
<path d="M207.346 145.409H204.535V148.22H207.346V145.409Z" fill="#F0F0F0"/>
<path d="M207.346 159.532H204.535V162.343H207.346V159.532Z" fill="#F0F0F0"/>
<path d="M207.346 164.234H204.535V167.044H207.346V164.234Z" fill="#F0F0F0"/>
<path d="M207.346 168.945H204.535V171.755H207.346V168.945Z" fill="#F0F0F0"/>
<path d="M207.346 173.646H204.535V176.456H207.346V173.646Z" fill="#F0F0F0"/>
<path d="M207.346 178.347H204.535V181.157H207.346V178.347Z" fill="#F0F0F0"/>
<path d="M207.346 183.058H204.535V185.869H207.346V183.058Z" fill="#F0F0F0"/>
<path d="M207.346 187.759H204.535V190.57H207.346V187.759Z" fill="#F0F0F0"/>
<path d="M202.891 121.884H200.08V124.694H202.891V121.884Z" fill="#F0F0F0"/>
<path d="M202.891 126.594H200.08V129.405H202.891V126.594Z" fill="#F0F0F0"/>
<path d="M202.891 131.296H200.08V134.107H202.891V131.296Z" fill="#F0F0F0"/>
<path d="M202.891 136.007H200.08V138.818H202.891V136.007Z" fill="#F0F0F0"/>
<path d="M202.891 140.708H200.08V143.519H202.891V140.708Z" fill="#F0F0F0"/>
<path d="M202.891 145.409H200.08V148.22H202.891V145.409Z" fill="#F0F0F0"/>
<path d="M202.891 159.532H200.08V162.343H202.891V159.532Z" fill="#F0F0F0"/>
<path d="M202.891 164.234H200.08V167.044H202.891V164.234Z" fill="#F0F0F0"/>
<path d="M202.891 168.945H200.08V171.755H202.891V168.945Z" fill="#F0F0F0"/>
<path d="M202.891 173.646H200.08V176.456H202.891V173.646Z" fill="#F0F0F0"/>
<path d="M202.891 178.347H200.08V181.157H202.891V178.347Z" fill="#F0F0F0"/>
<path d="M202.891 183.058H200.08V185.869H202.891V183.058Z" fill="#F0F0F0"/>
<path d="M202.891 192.47H200.08V195.281H202.891V192.47Z" fill="#F0F0F0"/>
<path d="M54.8003 101.169H51.9897V103.979H54.8003V101.169Z" fill="#F0F0F0"/>
<path d="M54.8003 105.87H51.9897V108.68H54.8003V105.87Z" fill="#F0F0F0"/>
<path d="M54.8003 110.581H51.9897V113.392H54.8003V110.581Z" fill="#F0F0F0"/>
<path d="M54.8003 115.282H51.9897V118.093H54.8003V115.282Z" fill="#F0F0F0"/>
<path d="M54.8003 119.993H51.9897V122.804H54.8003V119.993Z" fill="#F0F0F0"/>
<path d="M54.8003 124.694H51.9897V127.505H54.8003V124.694Z" fill="#F0F0F0"/>
<path d="M54.8003 129.396H51.9897V132.206H54.8003V129.396Z" fill="#F0F0F0"/>
<path d="M54.8003 134.107H51.9897V136.917H54.8003V134.107Z" fill="#F0F0F0"/>
<path d="M54.8003 138.807H51.9897V141.618H54.8003V138.807Z" fill="#F0F0F0"/>
<path d="M54.8003 143.519H51.9897V146.329H54.8003V143.519Z" fill="#F0F0F0"/>
<path d="M54.8003 148.22H51.9897V151.031H54.8003V148.22Z" fill="#F0F0F0"/>
<path d="M54.8003 157.632H51.9897V160.443H54.8003V157.632Z" fill="#F0F0F0"/>
<path d="M54.8003 162.333H51.9897V165.144H54.8003V162.333Z" fill="#F0F0F0"/>
<path d="M54.8003 167.045H51.9897V169.855H54.8003V167.045Z" fill="#F0F0F0"/>
<path d="M54.8003 171.746H51.9897V174.556H54.8003V171.746Z" fill="#F0F0F0"/>
<path d="M54.8003 176.447H51.9897V179.257H54.8003V176.447Z" fill="#F0F0F0"/>
<path d="M54.8003 181.158H51.9897V183.969H54.8003V181.158Z" fill="#F0F0F0"/>
<path d="M54.8003 185.859H51.9897V188.67H54.8003V185.859Z" fill="#F0F0F0"/>
<path d="M54.8003 190.57H51.9897V193.38H54.8003V190.57Z" fill="#F0F0F0"/>
<path d="M50.3472 101.169H47.5366V103.979H50.3472V101.169Z" fill="#F0F0F0"/>
<path d="M50.3472 105.87H47.5366V108.68H50.3472V105.87Z" fill="#F0F0F0"/>
<path d="M50.3472 110.581H47.5366V113.392H50.3472V110.581Z" fill="#F0F0F0"/>
<path d="M50.3472 115.282H47.5366V118.093H50.3472V115.282Z" fill="#F0F0F0"/>
<path d="M50.3472 119.993H47.5366V122.804H50.3472V119.993Z" fill="#F0F0F0"/>
<path d="M50.3472 124.694H47.5366V127.505H50.3472V124.694Z" fill="#F0F0F0"/>
<path d="M50.3472 129.396H47.5366V132.206H50.3472V129.396Z" fill="#F0F0F0"/>
<path d="M50.3472 134.107H47.5366V136.917H50.3472V134.107Z" fill="#F0F0F0"/>
<path d="M50.3472 138.807H47.5366V141.618H50.3472V138.807Z" fill="#F0F0F0"/>
<path d="M50.3472 143.519H47.5366V146.329H50.3472V143.519Z" fill="#F0F0F0"/>
<path d="M50.3472 148.22H47.5366V151.031H50.3472V148.22Z" fill="#F0F0F0"/>
<path d="M50.3472 152.922H47.5366V155.732H50.3472V152.922Z" fill="#F0F0F0"/>
<path d="M50.3472 157.632H47.5366V160.443H50.3472V157.632Z" fill="#F0F0F0"/>
<path d="M50.3472 162.333H47.5366V165.144H50.3472V162.333Z" fill="#F0F0F0"/>
<path d="M50.3472 167.045H47.5366V169.855H50.3472V167.045Z" fill="#F0F0F0"/>
<path d="M50.3472 171.746H47.5366V174.556H50.3472V171.746Z" fill="#F0F0F0"/>
<path d="M50.3472 176.447H47.5366V179.257H50.3472V176.447Z" fill="#F0F0F0"/>
<path d="M50.3472 181.158H47.5366V183.969H50.3472V181.158Z" fill="#F0F0F0"/>
<path d="M50.3472 185.859H47.5366V188.67H50.3472V185.859Z" fill="#F0F0F0"/>
<path d="M50.3472 190.57H47.5366V193.38H50.3472V190.57Z" fill="#F0F0F0"/>
<path d="M76.7612 119.499H73.9507V122.309H76.7612V119.499Z" fill="#F0F0F0"/>
<path d="M76.7612 124.199H73.9507V127.01H76.7612V124.199Z" fill="#F0F0F0"/>
<path d="M76.7612 128.901H73.9507V131.711H76.7612V128.901Z" fill="#F0F0F0"/>
<path d="M76.7612 133.612H73.9507V136.422H76.7612V133.612Z" fill="#F0F0F0"/>
<path d="M76.7612 138.313H73.9507V141.124H76.7612V138.313Z" fill="#F0F0F0"/>
<path d="M76.7612 143.024H73.9507V145.834H76.7612V143.024Z" fill="#F0F0F0"/>
<path d="M76.7612 147.725H73.9507V150.536H76.7612V147.725Z" fill="#F0F0F0"/>
<path d="M76.7612 152.427H73.9507V155.237H76.7612V152.427Z" fill="#F0F0F0"/>
<path d="M76.7612 157.138H73.9507V159.948H76.7612V157.138Z" fill="#F0F0F0"/>
<path d="M76.7612 161.839H73.9507V164.649H76.7612V161.839Z" fill="#F0F0F0"/>
<path d="M72.2974 119.499H69.4868V122.309H72.2974V119.499Z" fill="#F0F0F0"/>
<path d="M72.2974 124.199H69.4868V127.01H72.2974V124.199Z" fill="#F0F0F0"/>
<path d="M72.2974 128.901H69.4868V131.711H72.2974V128.901Z" fill="#F0F0F0"/>
<path d="M72.2974 133.612H69.4868V136.422H72.2974V133.612Z" fill="#F0F0F0"/>
<path d="M72.2974 138.313H69.4868V141.124H72.2974V138.313Z" fill="#F0F0F0"/>
<path d="M72.2974 143.024H69.4868V145.834H72.2974V143.024Z" fill="#F0F0F0"/>
<path d="M72.2974 147.725H69.4868V150.536H72.2974V147.725Z" fill="#F0F0F0"/>
<path d="M72.2974 152.427H69.4868V155.237H72.2974V152.427Z" fill="#F0F0F0"/>
<path d="M72.2974 157.138H69.4868V159.948H72.2974V157.138Z" fill="#F0F0F0"/>
<path d="M8.72779 223.36C8.72779 223.36 4.07612 207.791 13.4784 204.684C22.8808 201.576 28.4628 194.302 28.1461 186.067C27.8293 177.833 37.7265 169.816 45.1494 177.536C52.5723 185.256 51.5826 171.597 61.4798 168.282C71.3769 164.966 79.7697 173.013 77.0579 180.376C74.3461 187.74 84.1146 192.322 95.8625 186.067C107.61 179.812 120.417 191.194 117.943 200.101C115.469 209.009 117.498 209.999 124.871 207.029C132.245 204.06 145.507 212.473 140.865 223.36C136.223 234.247 8.72779 223.36 8.72779 223.36Z" fill="#E0E0E0"/>
<path d="M257.446 224.844C252.497 219.895 256.951 211.483 261.899 210.493C266.848 209.503 271.796 200.794 272.064 195.251C272.331 189.709 281.199 172.656 295.055 183.187C308.911 193.717 304.705 184.74 314.73 181.781C324.756 178.822 331.071 187.333 326.676 193.717C326.676 193.717 336.742 191.193 340.889 200.596C345.036 209.998 340.889 215.837 340.889 215.837C340.889 215.837 359.832 215.283 358.13 226.991C356.427 238.7 257.446 224.844 257.446 224.844Z" fill="#E0E0E0"/>
<path d="M128.355 220.885H104.602V238.7H128.355V220.885Z" fill="#F5F5F5"/>
</g>
<path d="M113.364 170.338C120.688 186.056 130.34 187.733 130.34 187.733L141.878 174.221C141.878 174.221 133.605 169.235 131.675 163.19C129.744 157.145 133.329 117.689 123.049 109.428C123.049 109.428 121.869 112.56 120.269 117.458C117.137 127.032 112.393 143.335 111.643 156.263C111.301 161.856 111.676 166.852 113.364 170.338Z" fill="#FFA319"/>
<path opacity="0.1" d="M111.675 156.252C121.757 138.273 122.805 125.279 120.301 117.447C117.135 127.021 112.392 143.324 111.675 156.252Z" fill="black"/>
<path d="M112.128 195.995C112.128 195.995 186.032 175.379 195.287 201.301C204.541 227.223 137.498 247.894 100.424 249.162C63.3507 250.431 48.1617 224.399 59.104 199.657L112.128 195.995Z" fill="#263238"/>
<path opacity="0.2" d="M112.128 195.995C112.128 195.995 186.032 175.379 195.287 201.301C204.541 227.223 137.498 247.894 100.424 249.162C63.3507 250.431 48.1617 224.399 59.104 199.657L112.128 195.995Z" fill="black"/>
<path d="M52.1113 214.625L120.765 202.878C108.742 179.714 112.558 144.482 122.971 109.405C115.702 103.327 86.6478 99.224 64.5095 105.666C64.5095 105.666 63.1969 110.541 61.421 118.902C59.2921 128.94 56.5014 144.008 54.5159 161.789C52.4837 179.323 51.6802 196.979 52.1113 214.625Z" fill="#FFA319"/>
<path opacity="0.6" d="M52.1098 214.626L120.764 202.878C110.56 183.222 111.763 154.884 118.756 125.323C112.976 114.182 105.497 112.803 105.497 112.803C97.9416 123.425 82.3334 112.803 82.3334 112.803C67.8724 121.539 59.2686 139.728 56.511 146.369C53.0835 168.952 51.611 191.789 52.1098 214.626Z" fill="white"/>
<path opacity="0.1" d="M54.548 161.822C60.1773 157.428 64.3956 151.48 66.6816 144.714C72.263 127.01 63.571 120.27 61.4641 118.936C59.3242 128.974 56.5225 144.041 54.548 161.822Z" fill="black"/>
<path d="M186.803 236.443C187.36 236.022 187.769 235.435 187.972 234.767C188.011 234.545 187.99 234.318 187.913 234.107C187.835 233.896 187.704 233.709 187.531 233.565C187.437 233.468 187.319 233.398 187.189 233.361C187.06 233.325 186.923 233.322 186.792 233.355C185.546 233.73 184.31 237.293 184.189 237.712C184.174 237.751 184.172 237.793 184.184 237.833C184.196 237.873 184.221 237.908 184.255 237.932C184.295 237.962 184.344 237.978 184.393 237.978C184.443 237.978 184.491 237.962 184.531 237.932C185.334 237.509 186.095 237.011 186.803 236.443ZM186.605 233.984C186.685 233.906 186.783 233.849 186.891 233.818C186.942 233.802 186.997 233.802 187.048 233.818C187.1 233.834 187.145 233.865 187.178 233.907C187.305 233.997 187.402 234.122 187.459 234.267C187.516 234.412 187.529 234.57 187.498 234.723C186.946 235.86 186.008 236.763 184.851 237.271C185.228 236.076 185.823 234.962 186.605 233.984Z" fill="#FFA319"/>
<path d="M184.586 237.954V237.844C185.028 236.741 185.127 233.851 184.234 233.223C184.082 233.124 183.902 233.079 183.722 233.095C183.542 233.111 183.372 233.187 183.241 233.311C183.089 233.414 182.959 233.545 182.859 233.699C182.758 233.852 182.689 234.024 182.656 234.204C182.37 235.671 184.09 237.833 184.2 237.932C184.228 237.966 184.264 237.99 184.306 238.002C184.347 238.014 184.391 238.013 184.432 237.999C184.487 238.003 184.542 237.987 184.586 237.954ZM183.484 233.763L183.561 233.686C183.836 233.51 183.936 233.587 183.991 233.62C184.52 233.984 184.609 236.013 184.333 237.249C183.87 236.587 183.009 235.197 183.23 234.282C183.264 234.079 183.37 233.895 183.528 233.763H183.484Z" fill="#FFA319"/>
<path d="M108.72 253.762C108.63 254.451 108.766 255.151 109.106 255.758C109.235 255.94 109.41 256.085 109.614 256.178C109.817 256.271 110.041 256.309 110.264 256.287C110.4 256.289 110.535 256.254 110.653 256.186C110.772 256.119 110.87 256.02 110.937 255.901C111.543 254.798 109.834 251.379 109.646 251.004C109.629 250.964 109.599 250.932 109.561 250.912C109.523 250.892 109.479 250.885 109.437 250.894C109.388 250.9 109.343 250.922 109.307 250.955C109.271 250.989 109.247 251.033 109.238 251.081C108.971 251.954 108.798 252.852 108.72 253.762ZM110.573 255.328C110.569 255.442 110.543 255.555 110.496 255.659C110.471 255.707 110.433 255.746 110.386 255.772C110.338 255.797 110.284 255.808 110.231 255.802C110.078 255.827 109.921 255.809 109.779 255.748C109.636 255.687 109.514 255.588 109.426 255.46C108.985 254.276 108.985 252.972 109.426 251.787C110.02 252.888 110.409 254.088 110.573 255.328Z" fill="#FFA319"/>
<path d="M127.13 226.119L114.059 235.705L107.782 240.305L111.886 247.463L118.25 243.978L133.814 235.462L127.13 226.119Z" fill="#E4897B"/>
<path d="M113.882 247.254L109.944 238.551C109.89 238.436 109.815 238.333 109.722 238.248C109.628 238.162 109.519 238.096 109.4 238.053C109.281 238.01 109.155 237.991 109.029 237.997C108.902 238.003 108.778 238.034 108.664 238.088L104.406 240.172C104.406 240.172 98.494 242.566 97.788 244.485C95.5819 250.111 103.844 269.591 106.414 269.591C107.351 269.591 107.914 268.135 108.046 267.208C108.466 264.252 108.532 256.839 108.907 254.38C109.348 251.512 112.216 249.306 113.595 248.423C113.772 248.293 113.898 248.104 113.951 247.891C114.003 247.677 113.979 247.451 113.882 247.254Z" fill="#263238"/>
<path d="M109.193 251.114L109.248 251.214C109.723 252.317 111.719 254.401 112.8 254.203C112.975 254.163 113.131 254.065 113.244 253.924C113.356 253.784 113.417 253.61 113.418 253.431C113.454 253.25 113.454 253.064 113.416 252.884C113.378 252.704 113.303 252.533 113.197 252.383C112.348 251.158 109.612 250.861 109.458 250.883C109.416 250.876 109.373 250.883 109.335 250.903C109.297 250.923 109.267 250.955 109.248 250.993C109.219 251.028 109.2 251.07 109.193 251.114ZM112.954 253.265V253.375C112.954 253.695 112.767 253.717 112.701 253.728C112.072 253.85 110.561 252.493 109.877 251.434C110.682 251.567 112.27 251.92 112.8 252.692C112.919 252.858 112.978 253.061 112.965 253.265H112.954Z" fill="#FFA319"/>
<path opacity="0.2" d="M127.13 226.119L114.059 235.705L118.25 243.978L133.814 235.462L127.13 226.119Z" fill="black"/>
<path d="M121.239 244.517L125.529 243.557L118.393 229.925L114.412 233.994L121.239 244.517Z" fill="#FFA319"/>
<path opacity="0.6" d="M121.239 244.517L125.529 243.557L118.393 229.925L114.412 233.994L121.239 244.517Z" fill="white"/>
<path d="M154.175 242.632L170.169 245.257L177.857 246.526L180.096 238.595L173.147 236.477L156.182 231.315L154.175 242.632Z" fill="#E4897B"/>
<path d="M178.531 237.293L175.068 246.195C175.022 246.313 175.001 246.44 175.005 246.567C175.01 246.694 175.039 246.819 175.093 246.934C175.146 247.049 175.223 247.152 175.317 247.238C175.411 247.323 175.521 247.388 175.641 247.43L180.053 249.008C180.053 249.008 185.911 251.567 187.775 250.75C193.29 248.368 201.464 228.866 199.666 227.024C199.015 226.351 197.581 226.969 196.82 227.531C194.426 229.296 189.098 234.436 187.058 235.881C184.697 237.58 181.09 237.05 179.524 236.708C179.317 236.682 179.107 236.724 178.927 236.83C178.747 236.936 178.608 237.099 178.531 237.293Z" fill="#263238"/>
<path opacity="0.2" d="M154.176 242.632L170.17 245.257L173.148 236.477L156.184 231.315L154.176 242.632Z" fill="black"/>
<path d="M170.391 234.822C170.391 234.822 103.899 195.598 81.4076 196.646C58.9164 197.694 56.9309 220.086 66.2186 232.506C75.5063 244.926 92.6918 247.949 92.6918 247.949C92.6918 247.949 81.0215 231.458 82.6982 226.814C84.3748 222.17 90.8276 237.779 90.8276 237.779C90.8276 237.779 132.016 243.184 167.909 246.217L170.391 234.822Z" fill="#263238"/>
<path d="M171.449 233.807L167.754 231.336L163.012 245.895H168.714L171.449 233.807Z" fill="#FFA319"/>
<path opacity="0.6" d="M171.449 233.807L167.754 231.336L163.012 245.895H168.714L171.449 233.807Z" fill="white"/>
<path d="M95.2498 115.097C85.576 115.097 79.2776 104.949 79.2776 104.949C91.9627 100.537 92.0068 87.113 92.0068 87.113L96.8933 91.8451L103.854 98.662C98.0626 102.765 100.798 106.317 102.64 107.894C103.017 108.232 103.423 108.534 103.854 108.799C103.854 108.799 104.924 115.097 95.2498 115.097Z" fill="#E4897B"/>
<path opacity="0.2" d="M102.641 107.939C90.7724 109.273 91.6107 91.5031 91.6107 91.5031C93.3909 91.4749 95.1701 91.6041 96.9275 91.8892L103.888 98.706C98.0636 102.809 100.799 106.361 102.641 107.939Z" fill="black"/>
<path d="M78.0552 83.0757C76.6212 84.4766 82.5556 88.3042 92.0198 85.0502C101.484 81.7962 103.105 72.2217 103.105 72.2217C103.105 72.2217 87.409 73.9425 78.0552 83.0757Z" fill="#FFA319"/>
<path opacity="0.4" d="M78.0552 83.0757C76.6212 84.4766 82.5556 88.3042 92.0198 85.0502C101.484 81.7962 103.105 72.2217 103.105 72.2217C103.105 72.2217 87.409 73.9425 78.0552 83.0757Z" fill="black"/>
<path d="M111.919 73.7885C107.419 75.6527 108.279 80.5502 115.736 89.4959C120.324 85.536 122.817 76.5351 120.413 73.6562C118.008 70.7772 115.835 72.1781 111.919 73.7885Z" fill="#263238"/>
<path d="M118.548 93.6759C118.141 94.8729 117.662 96.0443 117.114 97.1835C112.702 106.218 99.9285 107.971 94.2809 99.0367L94.2147 98.9484C90.4864 92.9368 91.8872 87.3223 93.4425 77.5934C93.789 75.3383 94.7031 73.2084 96.099 71.4037C97.4949 69.599 99.3267 68.1789 101.422 67.2767C103.518 66.3745 105.808 66.0199 108.079 66.2462C110.349 66.4725 112.524 67.2723 114.4 68.5704C121.835 73.7437 121.394 85.3699 118.548 93.6759Z" fill="#E4897B"/>
<path d="M107.175 83.4729C106.999 84.256 107.274 84.984 107.782 85.0943C108.289 85.2046 108.885 84.6751 109.017 83.8921C109.149 83.109 108.929 82.392 108.421 82.2707C107.914 82.1494 107.396 82.7229 107.175 83.4729Z" fill="#263238"/>
<path d="M116.086 85.4802C115.921 86.2633 116.196 86.9912 116.704 87.1015C117.211 87.2118 117.807 86.6824 117.95 85.8883C118.093 85.0941 117.851 84.3883 117.332 84.2669C116.814 84.1456 116.218 84.6971 116.086 85.4802Z" fill="#263238"/>
<path d="M113.064 85.2266C113.448 87.8239 114.191 90.3553 115.27 92.7488C113.571 93.7194 111.377 92.6054 111.377 92.6054L113.064 85.2266Z" fill="#DE5753"/>
<path d="M105.376 80.1304C105.286 80.1239 105.201 80.0901 105.131 80.0335C105.061 79.977 105.01 79.9003 104.984 79.8138C104.959 79.7274 104.961 79.6353 104.99 79.5499C105.018 79.4645 105.072 79.39 105.145 79.3362C105.697 78.8306 106.364 78.4662 107.088 78.2742C107.812 78.0821 108.572 78.0681 109.303 78.2333C109.419 78.2645 109.518 78.3394 109.579 78.4422C109.641 78.5451 109.661 78.6679 109.634 78.7847C109.595 78.9026 109.514 79.0014 109.405 79.0609C109.296 79.1203 109.169 79.136 109.049 79.1046C108.468 78.9733 107.864 78.9839 107.288 79.1355C106.712 79.2872 106.181 79.5755 105.74 79.9759C105.694 80.0258 105.637 80.0653 105.575 80.0919C105.512 80.1185 105.444 80.1316 105.376 80.1304Z" fill="#263238"/>
<path d="M120.765 83.3958C120.678 83.3752 120.598 83.3315 120.534 83.2694C120.47 83.2072 120.424 83.129 120.401 83.0429C120.283 82.464 120.029 81.9214 119.661 81.4593C119.293 80.9973 118.821 80.629 118.283 80.3848C118.165 80.3424 118.068 80.2546 118.014 80.1409C117.96 80.0271 117.954 79.8966 117.996 79.7782C118.039 79.6597 118.126 79.5629 118.24 79.5092C118.354 79.4554 118.484 79.449 118.603 79.4914C119.284 79.7902 119.884 80.2457 120.356 80.8207C120.827 81.3957 121.156 82.074 121.316 82.8002C121.343 82.92 121.322 83.0456 121.259 83.1505C121.195 83.2554 121.093 83.3315 120.974 83.3628C120.908 83.3921 120.836 83.4035 120.765 83.3958Z" fill="#263238"/>
<path d="M99.1659 69.9825C103.302 72.5305 101.67 77.2405 92.8896 84.8736C88.9848 80.2408 87.9589 70.9421 90.8048 68.4933C93.6506 66.0446 95.5479 67.7764 99.1659 69.9825Z" fill="#263238"/>
<path d="M87.1443 84.2777C87.215 85.5039 87.5271 86.7041 88.0628 87.8095C88.5984 88.9148 89.347 89.9036 90.2656 90.7189C92.7362 92.9249 95.3833 91.0057 95.8797 87.9395C96.3208 85.1711 95.5598 80.7151 92.5157 79.7445C89.4715 78.7739 86.9788 81.2446 87.1443 84.2777Z" fill="#E4897B"/>
<path d="M109.569 97.3595C109.641 97.3567 109.71 97.3304 109.766 97.2846C109.821 97.2388 109.861 97.176 109.877 97.1058C109.89 97.0241 109.871 96.9406 109.824 96.8727C109.777 96.8049 109.705 96.758 109.624 96.7419C105.212 95.9808 104.186 92.7823 104.109 92.6499C104.098 92.6107 104.078 92.5741 104.053 92.5423C104.027 92.5105 103.996 92.484 103.96 92.4645C103.924 92.445 103.884 92.4329 103.844 92.4287C103.803 92.4246 103.762 92.4285 103.723 92.4404C103.684 92.4505 103.648 92.4684 103.616 92.4929C103.584 92.5175 103.558 92.5482 103.538 92.5832C103.519 92.6182 103.506 92.6569 103.502 92.6968C103.498 92.7366 103.502 92.777 103.513 92.8154C103.513 92.9698 104.616 96.5213 109.469 97.3485L109.569 97.3595Z" fill="#263238"/>
<path d="M102.85 71.9903C104.356 72.5303 105.691 73.4588 106.722 74.6817C106.866 74.3744 106.94 74.0393 106.94 73.7C106.94 73.3607 106.866 73.0256 106.722 72.7183C108.3 73.5455 109.705 74.669 110.858 76.0275C111.327 75.0471 111.557 73.97 111.531 72.8838C112.306 74.15 112.925 75.5057 113.373 76.9209C113.373 76.9209 116.682 75.7186 116.991 73.0933C117.134 74.2176 117.134 75.3554 116.991 76.4797C117.65 76.257 118.242 75.8695 118.709 75.3541C119.176 74.8386 119.504 74.2123 119.661 73.5346C120.113 74.857 120.311 76.2529 120.245 77.6489C120.245 77.6489 122.705 76.4797 121.988 73.0933C121.271 69.707 111.708 64.4895 106.159 66.1221C100.611 67.7546 102.85 71.9903 102.85 71.9903Z" fill="#263238"/>
<path d="M122.277 74.5384C122.277 74.5384 122.178 64.7433 118.207 61.0701C114.236 57.397 100.061 56.2057 93.046 59.8678C86.0306 63.5299 88.5125 76.7555 88.5125 76.7555C88.5125 76.7555 102.94 69.4423 122.277 74.5384Z" fill="#FFA319"/>
<path d="M117.355 71.394C114.492 70.5626 111.491 70.315 108.531 70.666C108.531 70.666 106.049 66.2542 112.248 66.0447C116.715 65.8571 117.608 68.2395 117.355 71.394Z" fill="#263238"/>
<path d="M96.0674 74.1962L88.2468 74.2513C84.3652 76.582 80.9167 79.5676 78.0546 83.0757C78.0546 83.0757 84.0993 77.8362 96.0674 74.1962Z" fill="#FFA319"/>
<path opacity="0.2" d="M96.0674 74.1962L88.2468 74.2513C84.3652 76.582 80.9167 79.5676 78.0546 83.0757C78.0546 83.0757 84.0993 77.8362 96.0674 74.1962Z" fill="black"/>
<path opacity="0.2" d="M68.9539 182.472L91.8312 207.842C91.8312 207.842 117.113 207.279 147.822 222.281C147.822 222.281 180.77 208.669 183.804 197.363C186.837 186.057 114.631 194.054 114.631 194.054L68.9539 182.472Z" fill="black"/>
<path d="M75.4187 175.026L112.095 187.028C112.095 187.028 125.199 184.127 127.538 184.127C129.876 184.127 138.932 191.484 133.814 194.054C128.696 196.624 114.72 196.955 113.198 196.128C111.676 195.3 71.0065 185.781 71.0065 185.781L75.4187 175.026Z" fill="#E4897B"/>
<path d="M64.542 105.667C72.848 104.056 58.4422 154.62 61.972 162.065C65.5017 169.511 79.2788 174.199 79.2788 174.199L72.9363 188.197C72.9363 188.197 54.1844 184.656 43.9812 171.651C33.778 158.646 51.0076 108.303 64.542 105.667Z" fill="#FFA319"/>
<path d="M79.279 173.096L71.5576 188.219L78.1759 189.642L84.2427 175.721L79.279 173.096Z" fill="#FFA319"/>
<path opacity="0.2" d="M79.279 173.096L71.5576 188.219L78.1759 189.642L84.2427 175.721L79.279 173.096Z" fill="white"/>
<path d="M94.4448 194.054V196.459C94.4496 197.261 94.7624 198.032 95.3187 198.61C95.8749 199.189 96.6322 199.532 97.4341 199.569H186.108C186.933 199.543 187.719 199.21 188.311 198.634C188.903 198.059 189.258 197.283 189.307 196.459V194.054H94.4448Z" fill="#263238"/>
<path opacity="0.2" d="M94.4448 194.054V196.459C94.4496 197.261 94.7624 198.032 95.3187 198.61C95.8749 199.189 96.6322 199.532 97.4341 199.569H186.108C186.933 199.543 187.719 199.21 188.311 198.634C188.903 198.059 189.258 197.283 189.307 196.459V194.054H94.4448Z" fill="white"/>
<path opacity="0.2" d="M127.536 194.054V196.459C127.544 197.262 127.859 198.033 128.417 198.611C128.975 199.19 129.734 199.533 130.537 199.569H186.108C186.933 199.543 187.719 199.21 188.311 198.634C188.903 198.059 189.258 197.283 189.307 196.459V194.054H127.536Z" fill="white"/>
<path d="M130.537 197.363H189.12C190.061 197.317 190.967 196.994 191.724 196.435C192.482 195.875 193.057 195.104 193.378 194.219L206.813 152.083C206.966 151.723 207.027 151.33 206.989 150.941C206.951 150.552 206.817 150.178 206.597 149.854C206.378 149.53 206.08 149.267 205.733 149.088C205.385 148.909 204.998 148.819 204.607 148.829H145.98C145.03 148.897 144.122 149.242 143.365 149.82C142.609 150.398 142.038 151.184 141.722 152.083L128.287 194.164C128.131 194.524 128.071 194.918 128.111 195.308C128.152 195.699 128.291 196.072 128.517 196.393C128.743 196.714 129.047 196.971 129.401 197.141C129.754 197.311 130.146 197.387 130.537 197.363Z" fill="#263238"/>
<path opacity="0.2" d="M130.537 197.363H189.12C190.061 197.317 190.967 196.994 191.724 196.435C192.482 195.875 193.057 195.104 193.378 194.219L206.813 152.083C206.966 151.723 207.027 151.33 206.989 150.941C206.951 150.552 206.817 150.178 206.597 149.854C206.378 149.53 206.08 149.267 205.733 149.088C205.385 148.909 204.998 148.819 204.607 148.829H145.98C145.03 148.897 144.122 149.242 143.365 149.82C142.609 150.398 142.038 151.184 141.722 152.083L128.287 194.164C128.131 194.524 128.071 194.918 128.111 195.308C128.152 195.699 128.291 196.072 128.517 196.393C128.743 196.714 129.047 196.971 129.401 197.141C129.754 197.311 130.146 197.387 130.537 197.363Z" fill="white"/>
<path opacity="0.2" d="M132.743 197.363H189.12C190.061 197.317 190.967 196.994 191.724 196.435C192.482 195.875 193.057 195.104 193.378 194.219L206.813 152.083C206.966 151.723 207.027 151.33 206.989 150.941C206.951 150.552 206.817 150.178 206.597 149.854C206.378 149.53 206.08 149.267 205.733 149.088C205.385 148.909 204.998 148.819 204.607 148.829H148.186C147.236 148.897 146.328 149.242 145.571 149.82C144.815 150.398 144.244 151.184 143.928 152.083L130.493 194.164C130.338 194.524 130.277 194.918 130.317 195.308C130.358 195.699 130.497 196.072 130.723 196.393C130.949 196.714 131.253 196.971 131.607 197.141C131.96 197.311 132.352 197.387 132.743 197.363Z" fill="white"/>
<path opacity="0.2" d="M167.017 175.026C166.3 177.838 167.69 180.111 170.138 180.111C172.587 180.111 175.157 177.838 175.874 175.026C176.59 172.213 175.201 169.941 172.752 169.941C170.304 169.941 167.745 172.224 167.017 175.026Z" fill="white"/>
<path d="M172.145 123.988H184.929C185.854 123.991 186.741 124.36 187.394 125.016C188.048 125.671 188.415 126.559 188.415 127.484V137.467C188.415 138.392 188.048 139.28 187.394 139.936C186.741 140.591 185.854 140.961 184.929 140.964H180.23L178.531 145.078L176.844 140.964H172.145C171.217 140.964 170.328 140.595 169.672 139.94C169.016 139.284 168.648 138.394 168.648 137.467V127.484C168.648 126.557 169.016 125.668 169.672 125.012C170.328 124.356 171.217 123.988 172.145 123.988Z" fill="#FFA319"/>
<path opacity="0.6" d="M183.373 129.017C182.104 127.021 179.744 127.826 178.531 129.404C177.284 127.848 174.902 127.109 173.689 129.139C171.637 132.569 175.994 135.668 178.101 136.859L178.685 137.201L179.259 136.848C181.167 135.602 185.49 132.393 183.373 129.017Z" fill="white"/>
<path d="M138.679 133.253H145.076C145.539 133.256 145.983 133.442 146.309 133.771C146.636 134.099 146.819 134.544 146.819 135.007V139.992C146.819 140.456 146.636 140.9 146.309 141.229C145.983 141.557 145.539 141.743 145.076 141.746H142.727L141.878 143.798L141.039 141.746H138.679C138.216 141.743 137.773 141.557 137.446 141.229C137.12 140.9 136.936 140.456 136.936 139.992V135.007C136.936 134.544 137.12 134.099 137.446 133.771C137.773 133.442 138.216 133.256 138.679 133.253Z" fill="#FFA319"/>
<path opacity="0.6" d="M144.291 135.769C143.652 134.776 142.471 135.173 141.865 135.967C141.247 135.184 140.056 134.864 139.449 135.835C138.424 137.544 140.552 139.144 141.655 139.695L141.953 139.872L142.24 139.695C143.221 139.066 145.361 137.456 144.291 135.769Z" fill="white"/>
<path d="M154.132 101.044H162.713C163.021 101.043 163.326 101.102 163.611 101.219C163.896 101.336 164.155 101.508 164.374 101.725C164.592 101.943 164.765 102.201 164.883 102.485C165.002 102.77 165.063 103.075 165.062 103.383V110.089C165.063 110.397 165.002 110.702 164.883 110.986C164.765 111.27 164.592 111.529 164.374 111.746C164.155 111.963 163.896 112.135 163.611 112.252C163.326 112.369 163.021 112.428 162.713 112.427H159.559L158.456 115.195L157.353 112.427H154.198C153.578 112.427 152.984 112.181 152.545 111.742C152.107 111.304 151.86 110.709 151.86 110.089V103.383C151.86 102.774 152.097 102.189 152.521 101.752C152.946 101.316 153.524 101.062 154.132 101.044Z" fill="#FFA319"/>
<path opacity="0.6" d="M161.666 104.42C160.805 103.074 159.228 103.614 158.412 104.673C157.574 103.636 155.975 103.129 155.103 104.497C153.724 106.802 156.647 108.909 158.026 109.692L158.423 109.923L158.809 109.681C160.21 108.831 163.1 106.681 161.666 104.42Z" fill="white"/>
<path opacity="0.2" d="M113.882 247.254L109.944 238.551C109.89 238.436 109.815 238.333 109.722 238.248C109.628 238.162 109.519 238.096 109.4 238.053C109.281 238.01 109.155 237.991 109.029 237.997C108.902 238.003 108.778 238.034 108.664 238.088L104.406 240.172C104.406 240.172 98.494 242.566 97.788 244.485C95.5819 250.111 103.844 269.591 106.414 269.591C107.351 269.591 107.914 268.135 108.046 267.208C108.466 264.252 108.532 256.839 108.907 254.38C109.348 251.512 112.216 249.306 113.595 248.423C113.772 248.293 113.898 248.104 113.951 247.891C114.003 247.677 113.979 247.451 113.882 247.254Z" fill="white"/>
<path opacity="0.2" d="M178.531 237.293L175.068 246.195C175.022 246.313 175.001 246.44 175.005 246.567C175.01 246.694 175.039 246.819 175.093 246.934C175.146 247.049 175.223 247.152 175.317 247.238C175.411 247.323 175.521 247.388 175.641 247.43L180.053 249.008C180.053 249.008 185.911 251.567 187.775 250.75C193.29 248.368 201.464 228.866 199.666 227.024C199.015 226.351 197.581 226.969 196.82 227.531C194.426 229.296 189.098 234.436 187.058 235.881C184.697 237.58 181.09 237.05 179.524 236.708C179.317 236.682 179.107 236.724 178.927 236.83C178.747 236.936 178.608 237.099 178.531 237.293Z" fill="white"/>
</svg>
