<svg width="293" height="84" viewBox="0 0 293 84" fill="none" xmlns="http://www.w3.org/2000/svg">
<g clip-path="url(#clip0_724_2603)">
<path d="M63.2041 7.87992L50.04 21.0025L63.2041 34.1251L76.3682 21.0025L63.2041 7.87992Z" fill="white"/>
<path d="M69.7781 27.5581V42H42.1328V14.4319H56.6103L42.1328 0L0 42L42.1328 84L84.2656 42L69.7781 27.5581Z" fill="white"/>
<path d="M112.751 59.8007H116.98C116.92 62.3422 115.57 64.3655 112.451 64.3655C109.072 64.3655 107.302 62.0432 107.302 58.495V58.3356C107.302 54.8272 109.172 52.4153 112.491 52.4153C114.581 52.4153 116.15 53.3223 116.56 55.5847H118.31C117.88 52.3754 115.31 51.0299 112.451 51.0299C108.322 51.0299 105.452 54.1595 105.452 58.3555V58.515C105.452 62.701 107.982 65.7708 112.451 65.7708C116.15 65.7708 118.69 63.5681 118.69 59.412V58.3954H112.771L112.751 59.8007Z" fill="white"/>
<path d="M122.98 57.0299V55.1462H121.31V65.6312H122.98V59.8804C122.98 57.2891 124.33 56.6312 126.44 56.5316V54.9668C125.723 54.9326 125.012 55.1102 124.397 55.4773C123.781 55.8443 123.288 56.3845 122.98 57.0299Z" fill="white"/>
<path d="M135.977 60.4784C135.977 62.8505 134.647 64.4651 132.538 64.4651C130.428 64.4651 129.098 62.9203 129.098 60.4784V60.3189C129.098 57.907 130.428 56.3322 132.538 56.3322C134.647 56.3322 135.977 57.887 135.977 60.3189V60.4784ZM132.538 54.9668C131.838 54.9533 131.143 55.084 130.497 55.3509C129.85 55.6177 129.266 56.0148 128.781 56.5173C128.295 57.0199 127.919 57.617 127.676 58.2711C127.433 58.9253 127.329 59.6225 127.369 60.3189V60.4784C127.369 61.1551 127.502 61.8251 127.762 62.4503C128.022 63.0755 128.403 63.6435 128.883 64.122C129.363 64.6005 129.933 64.98 130.56 65.239C131.187 65.4979 131.859 65.6312 132.538 65.6312C133.217 65.6312 133.889 65.4979 134.516 65.239C135.143 64.98 135.713 64.6005 136.193 64.122C136.673 63.6435 137.054 63.0755 137.313 62.4503C137.573 61.8251 137.707 61.1551 137.707 60.4784V60.299C137.747 59.6035 137.642 58.9072 137.399 58.254C137.156 57.6009 136.78 57.005 136.294 56.504C135.809 56.0031 135.224 55.6078 134.578 55.3432C133.931 55.0787 133.236 54.9505 132.538 54.9668Z" fill="white"/>
<path d="M146.975 61.505C146.993 61.8882 146.929 62.2708 146.789 62.6282C146.649 62.9855 146.436 63.3098 146.163 63.5801C145.89 63.8504 145.563 64.0608 145.204 64.1978C144.844 64.3348 144.46 64.3953 144.076 64.3754C142.406 64.3754 141.636 63.5482 141.636 61.7043V55.1462H139.977V61.794C139.977 64.6844 141.546 65.7807 143.646 65.7807C144.315 65.8186 144.982 65.6687 145.571 65.3481C146.159 65.0275 146.646 64.549 146.975 63.9668V65.6312H148.645V55.1462H146.975V61.505Z" fill="white"/>
<path d="M159.973 60.4784C159.973 63.0498 158.853 64.4651 156.754 64.4651C154.654 64.4651 153.294 63.1794 153.294 60.4784V60.319C153.294 57.6279 154.784 56.3322 156.734 56.3322C158.503 56.3322 159.973 57.6479 159.973 60.319V60.4784ZM156.914 54.9668C156.201 54.9763 155.501 55.1636 154.879 55.5119C154.258 55.8601 153.733 56.358 153.354 56.9601V55.1462H151.685V69.289H153.354V63.907C153.725 64.4991 154.245 64.9838 154.863 65.3126C155.48 65.6414 156.174 65.8029 156.874 65.7807C159.773 65.7807 161.663 63.5781 161.663 60.3688V60.2093C161.663 56.9203 159.663 54.9369 156.874 54.9369" fill="white"/>
<path d="M177.66 60.4784C177.66 62.8505 176.34 64.4651 174.22 64.4651C172.101 64.4651 170.781 62.9203 170.781 60.4784V60.3189C170.781 57.907 172.111 56.3322 174.22 56.3322C176.33 56.3322 177.66 57.887 177.66 60.3189V60.4784ZM174.22 54.9668C173.521 54.9533 172.826 55.084 172.179 55.3509C171.533 55.6177 170.948 56.0148 170.463 56.5173C169.978 57.0199 169.602 57.617 169.359 58.2711C169.116 58.9253 169.011 59.6225 169.051 60.3189V60.4784C169.051 61.845 169.596 63.1557 170.565 64.122C171.535 65.0883 172.849 65.6312 174.22 65.6312C175.591 65.6312 176.906 65.0883 177.876 64.122C178.845 63.1557 179.39 61.845 179.39 60.4784V60.299C179.43 59.6035 179.325 58.9072 179.082 58.254C178.839 57.6009 178.462 57.005 177.977 56.504C177.491 56.0031 176.907 55.6078 176.26 55.3432C175.614 55.0787 174.919 54.9505 174.22 54.9668Z" fill="white"/>
<path d="M181.899 53.4419V55.1462H180.39V56.5515H181.899V65.6312H183.569V56.5515H186.139V55.1462H183.569V53.2625C183.569 52.196 183.989 51.4585 185.099 51.4585C185.503 51.4485 185.905 51.5232 186.279 51.6777V50.2724C185.882 50.1289 185.461 50.0613 185.039 50.0731C182.939 50.0731 181.899 51.289 181.899 53.4419Z" fill="white"/>
<path d="M198.456 64.4352C196.456 64.4352 195.017 63.0897 195.017 60.4485V60.289C195.017 57.8173 196.486 56.3023 198.396 56.3023C199.086 56.2207 199.781 56.415 200.328 56.8427C200.876 57.2705 201.23 57.8968 201.315 58.5847H202.965C202.635 55.9136 200.586 54.9169 198.396 54.9169C197.701 54.9159 197.013 55.0563 196.374 55.3295C195.735 55.6027 195.159 56.003 194.681 56.5059C194.202 57.0088 193.832 57.6037 193.592 58.2542C193.353 58.9047 193.249 59.5971 193.287 60.289V60.4485C193.238 61.1444 193.335 61.843 193.574 62.4988C193.812 63.1547 194.187 63.7534 194.672 64.256C195.157 64.7586 195.743 65.1541 196.392 65.4167C197.04 65.6794 197.736 65.8034 198.436 65.7807C199.568 65.8316 200.677 65.4459 201.531 64.7035C202.386 63.9611 202.921 62.9192 203.025 61.794H201.475C201.409 62.5273 201.059 63.206 200.499 63.6861C199.939 64.1662 199.213 64.4099 198.476 64.3654" fill="white"/>
<path d="M213.183 60.4784C213.183 62.8505 211.854 64.4651 209.744 64.4651C207.634 64.4651 206.304 62.9203 206.304 60.4784V60.3189C206.304 57.907 207.634 56.3322 209.744 56.3322C211.854 56.3322 213.183 57.887 213.183 60.3189V60.4784ZM209.744 54.9668C209.044 54.9533 208.349 55.084 207.703 55.3509C207.056 55.6177 206.472 56.0148 205.987 56.5173C205.501 57.0199 205.125 57.617 204.882 58.2711C204.639 58.9253 204.535 59.6225 204.575 60.3189V60.4784C204.575 61.845 205.119 63.1557 206.089 64.122C207.058 65.0883 208.373 65.6312 209.744 65.6312C211.115 65.6312 212.43 65.0883 213.399 64.122C214.368 63.1557 214.913 61.845 214.913 60.4784V60.299C214.953 59.6035 214.848 58.9072 214.605 58.254C214.362 57.6009 213.986 57.005 213.5 56.504C213.015 56.0031 212.43 55.6078 211.784 55.3432C211.137 55.0787 210.443 54.9505 209.744 54.9668Z" fill="white"/>
<path d="M228.721 54.9668C227.999 54.9571 227.287 55.136 226.655 55.4857C226.024 55.8354 225.495 56.3437 225.122 56.9601C224.903 56.3347 224.481 55.7996 223.924 55.4389C223.367 55.0781 222.705 54.912 222.043 54.9668C221.404 54.9398 220.771 55.0929 220.215 55.4085C219.66 55.7241 219.205 56.1893 218.903 56.7508V55.1462H217.233V65.6312H218.903V59.2126C218.886 58.8429 218.947 58.4738 219.08 58.1284C219.213 57.783 219.417 57.4689 219.678 57.2058C219.939 56.9428 220.252 56.7364 220.597 56.5998C220.942 56.4631 221.312 56.3992 221.683 56.412C223.132 56.412 223.912 57.1694 223.912 59.0133V65.6312H225.592V59.2126C225.574 58.8434 225.633 58.4745 225.765 58.1291C225.897 57.7838 226.1 57.4695 226.36 57.2063C226.62 56.943 226.933 56.7365 227.277 56.5998C227.622 56.4631 227.991 56.3991 228.361 56.412C229.811 56.412 230.601 57.1694 230.601 59.0133V65.6312H232.271V59.1329C232.271 56.0831 230.601 54.9668 228.721 54.9668Z" fill="white"/>
<path d="M243.499 60.4784C243.499 63.0498 242.379 64.4651 240.279 64.4651C238.179 64.4651 236.82 63.1794 236.82 60.4784V60.319C236.82 57.6279 238.309 56.3322 240.259 56.3322C242.029 56.3322 243.499 57.6479 243.499 60.319V60.4784ZM240.439 54.9668C239.726 54.9763 239.027 55.1636 238.405 55.5119C237.783 55.8601 237.259 56.358 236.88 56.9601V55.1462H235.21V69.289H236.88V63.907C237.254 64.5051 237.78 64.9936 238.406 65.3228C239.031 65.652 239.733 65.81 240.439 65.7807C243.339 65.7807 245.228 63.5781 245.228 60.3688V60.2093C245.228 56.9203 243.229 54.9369 240.439 54.9369" fill="white"/>
<path d="M253.577 61.9635C253.577 63.5681 252.227 64.495 250.457 64.495C248.988 64.495 248.458 63.8273 248.458 62.7209C248.458 61.206 249.997 60.6578 252.117 60.6578H253.567L253.577 61.9635ZM251.397 54.9867C249.397 54.9867 247.458 55.8439 247.238 58.2558H248.958C249.117 56.9901 249.957 56.3721 251.367 56.3721C252.977 56.3721 253.627 57.0499 253.627 58.7342V59.4917H252.117C249.417 59.4917 246.838 60.3389 246.838 62.7409C246.838 64.8937 248.388 65.8306 250.347 65.8306C250.976 65.8715 251.606 65.7552 252.178 65.4924C252.751 65.2296 253.249 64.8286 253.627 64.3256V65.6512H255.296V58.7143C255.296 55.7243 253.467 54.9668 251.447 54.9668" fill="white"/>
<path d="M263.215 54.9668C262.534 54.9209 261.854 55.0701 261.255 55.3968C260.657 55.7235 260.164 56.2141 259.836 56.8106V55.1462H258.166V65.6312H259.836V59.2724C259.819 58.8865 259.885 58.5014 260.028 58.1423C260.171 57.7833 260.388 57.4582 260.665 57.1884C260.942 56.9185 261.274 56.7099 261.637 56.5761C262.001 56.4424 262.389 56.3864 262.775 56.412C264.465 56.412 265.245 57.2293 265.245 59.0731V65.6312H266.955V59.1927C266.955 56.1429 265.425 54.9668 263.255 54.9668" fill="white"/>
<path d="M270.624 50.7508C270.403 50.7509 270.188 50.8166 270.005 50.9396C269.821 51.0625 269.679 51.2371 269.596 51.441C269.513 51.6449 269.493 51.8689 269.538 52.0842C269.584 52.2996 269.692 52.4966 269.851 52.6501C270.009 52.8035 270.209 52.9065 270.427 52.9457C270.644 52.985 270.868 52.9588 271.07 52.8704C271.272 52.7821 271.444 52.6357 271.562 52.4498C271.68 52.264 271.74 52.0472 271.734 51.8273C271.737 51.6812 271.71 51.5362 271.655 51.4007C271.6 51.2653 271.519 51.1422 271.415 51.039C271.312 50.9357 271.188 50.8543 271.052 50.7997C270.916 50.745 270.771 50.7182 270.624 50.721" fill="white"/>
<path d="M271.494 55.1462H269.824V65.6312H271.494V55.1462Z" fill="white"/>
<path d="M275.553 59.3721C275.863 57.5083 276.982 56.3821 278.692 56.3821C280.402 56.3821 281.552 57.2392 281.692 59.3721H275.553ZM278.692 54.9668C275.803 54.9668 273.763 57.1694 273.763 60.3389V60.4984C273.721 61.1851 273.823 61.873 274.061 62.5187C274.3 63.1644 274.669 63.754 275.147 64.2502C275.625 64.7464 276.201 65.1386 276.839 65.402C277.477 65.6654 278.162 65.7944 278.852 65.7807C281.252 65.7807 282.961 64.6844 283.341 62.5714H281.672C281.452 63.7974 280.522 64.4053 278.872 64.4053C276.702 64.4053 275.573 63.0997 275.493 60.6877H283.421V60.1495C283.421 56.402 281.132 54.9369 278.692 54.9369" fill="white"/>
<path d="M289.291 59.5117C287.361 59.1927 286.841 58.7741 286.841 57.8472C286.841 56.9203 287.621 56.3422 288.841 56.3422C290.061 56.3422 290.84 56.8505 291.06 57.9867H292.67C292.4 55.7243 290.731 54.9967 288.861 54.9967C287.191 54.9967 285.301 55.9934 285.301 57.9867C285.301 59.9801 286.231 60.598 288.961 61.0764C290.591 61.3854 291.42 61.7442 291.42 62.8406C291.42 63.9369 290.731 64.515 289.121 64.515C287.511 64.515 286.791 63.7475 286.651 62.5216H285.021C285.121 64.6944 286.631 65.9303 289.141 65.9303C291.65 65.9303 293.01 64.6744 293.01 62.7409C293.01 60.4984 291.48 60.0798 289.301 59.6313" fill="white"/>
<path d="M146.035 24.5083C149.214 24.5083 151.984 26.9501 151.984 30.9767C151.984 35.0033 149.214 37.4352 146.035 37.4352C142.855 37.4352 140.096 34.9933 140.096 30.9767C140.096 26.9601 142.865 24.5083 146.035 24.5083ZM146.035 42.0099C152.154 42.0099 157.483 37.8438 157.483 30.9767C157.483 24.1096 152.154 19.9335 146.035 19.9335C139.916 19.9335 134.597 24.0996 134.597 30.9767C134.597 37.8538 139.976 42.0099 146.035 42.0099Z" fill="white"/>
<path d="M198.006 41.8006V24.7574H205.625V20.3422H185.358V24.7574H192.947V41.8006H198.006Z" fill="white"/>
<path d="M181.589 41.8006V20.3422H176.47V34.0864L166.892 20.3422H161.253V41.8006H166.372V28.0564L175.94 41.8006H181.589Z" fill="white"/>
<path d="M125.758 41.7907H130.828V20.3422H125.229L118.15 32.9003L111.071 20.3422H105.462V41.7907H110.531V29.1329L117.6 41.7907H118.7L125.758 29.1329V41.7907Z" fill="white"/>
</g>
<defs>
<clipPath id="clip0_724_2603">
<rect width="293" height="84" fill="white"/>
</clipPath>
</defs>
</svg>
