<svg width="118" height="34" viewBox="0 0 118 34" fill="none" xmlns="http://www.w3.org/2000/svg">
<g clip-path="url(#clip0_1000_5152)">
<path d="M25.4512 3.18984L20.1494 8.50146L25.4513 13.8131L30.7531 8.50147L25.4512 3.18984Z" fill="#BBBBBA"/>
<path d="M28.1043 11.1542V16.998H16.9667V5.84381H22.7997L16.9667 0L0 16.998L16.9667 34L33.9374 16.998L28.1043 11.1542Z" fill="#1B3E90"/>
<path d="M45.409 24.2194H47.1056C47.0778 25.2504 46.5374 26.0705 45.2818 26.0705C43.9189 26.0705 43.2077 25.131 43.2077 23.682V23.6143C43.2077 22.1932 43.9587 21.2258 45.2977 21.2258C46.1401 21.2258 46.7719 21.5881 46.9348 22.5077H47.6381C47.4672 21.2099 46.4222 20.6646 45.2818 20.6646C43.6209 20.6646 42.4766 21.9304 42.4766 23.6263V23.6939C42.4766 25.3898 43.4977 26.6318 45.2818 26.6318C46.7719 26.6318 47.7931 25.7401 47.7931 24.0562V23.6342H45.409V24.2194Z" fill="black"/>
<path d="M49.5416 23.0887V22.3204H48.874V26.5679H49.5455V24.2352C49.5455 23.1883 50.0859 22.9215 50.9402 22.8817V22.2488C50.6514 22.2348 50.3648 22.3067 50.1167 22.4555C49.8685 22.6042 49.6698 22.8231 49.5455 23.0848" fill="black"/>
<path d="M54.7787 24.4782C54.7787 25.4375 54.2462 26.0705 53.3959 26.0705C52.5456 26.0705 52.0092 25.4455 52.0092 24.4782V24.4145C52.0092 23.4392 52.5456 22.8221 53.3959 22.8221C54.2462 22.8221 54.7787 23.4551 54.7787 24.4383V24.4782ZM53.3959 22.2489C53.1142 22.2435 52.8344 22.2965 52.5741 22.4045C52.3138 22.5124 52.0785 22.6731 51.8831 22.8764C51.6876 23.0797 51.5362 23.3212 51.4382 23.5859C51.3402 23.8506 51.2979 24.1326 51.3138 24.4145V24.4782C51.3138 25.0314 51.5332 25.5619 51.9236 25.9531C52.3141 26.3443 52.8437 26.5641 53.3959 26.5641C53.9481 26.5641 54.4777 26.3443 54.8682 25.9531C55.2586 25.5619 55.478 25.0314 55.478 24.4782V24.4145C55.494 24.133 55.4516 23.8513 55.3536 23.587C55.2556 23.3228 55.104 23.0817 54.9084 22.879C54.7128 22.6764 54.4775 22.5165 54.2171 22.4094C53.9568 22.3023 53.6772 22.2504 53.3959 22.2569" fill="black"/>
<path d="M59.205 24.8919C59.2118 25.0471 59.1862 25.2019 59.1298 25.3466C59.0734 25.4913 58.9875 25.6225 58.8775 25.732C58.7675 25.8414 58.6359 25.9266 58.4911 25.9821C58.3463 26.0376 58.1916 26.0622 58.0368 26.0543C57.3652 26.0543 57.0553 25.7199 57.0553 24.9755V22.3203H56.3838V25.0074C56.3838 26.1777 57.0156 26.6395 57.8579 26.6395C58.1316 26.6525 58.4034 26.5877 58.6418 26.4524C58.8801 26.3172 59.0754 26.117 59.205 25.8752V26.5519H59.8765V22.3203H59.205V24.8919Z" fill="black"/>
<path d="M64.414 24.4778C64.414 25.5168 63.957 26.0701 63.1146 26.0701C62.2723 26.0701 61.7199 25.5526 61.7199 24.4778V24.4141C61.7199 23.3273 62.3199 22.8218 63.1067 22.8218C63.8219 22.8218 64.414 23.3592 64.414 24.4141V24.4778ZM63.1822 22.2485C62.8958 22.2508 62.6145 22.3249 62.3639 22.4639C62.1134 22.603 61.9016 22.8026 61.7478 23.0447V22.3202H61.0723V28.0446H61.7478V25.875C61.8958 26.1193 62.1067 26.3192 62.3584 26.4537C62.6101 26.5881 62.8933 26.6523 63.1782 26.6394C64.3424 26.6394 65.1053 25.7477 65.1053 24.4459V24.3822C65.1053 23.0487 64.2868 22.2485 63.1782 22.2485" fill="black"/>
<path d="M71.5502 24.4782C71.5502 25.4375 71.0177 26.0705 70.1674 26.0705C69.3171 26.0705 68.7807 25.4455 68.7807 24.4782V24.4145C68.7807 23.4392 69.3171 22.8221 70.1674 22.8221C71.0177 22.8221 71.5502 23.4551 71.5502 24.4383V24.4782ZM70.1674 22.2489C69.8857 22.2435 69.6059 22.2965 69.3456 22.4045C69.0853 22.5124 68.85 22.6731 68.6546 22.8764C68.4591 23.0797 68.3076 23.3212 68.2097 23.5859C68.1117 23.8506 68.0694 24.1326 68.0853 24.4145V24.4782C68.0853 25.0314 68.3047 25.5619 68.6951 25.9531C69.0856 26.3443 69.6152 26.5641 70.1674 26.5641C70.7196 26.5641 71.2492 26.3443 71.6397 25.9531C72.0301 25.5619 72.2495 25.0314 72.2495 24.4782V24.4145C72.2655 24.133 72.2231 23.8513 72.1251 23.587C72.027 23.3228 71.8755 23.0817 71.6799 22.879C71.4843 22.6764 71.2489 22.5165 70.9886 22.4094C70.7283 22.3023 70.4487 22.2504 70.1674 22.2569" fill="black"/>
<path d="M73.2544 21.6315V22.3202H72.6465V22.8895H73.2544V26.5677H73.9299V22.8895H74.967V22.3202H73.9299V21.5559C73.9299 21.126 74.0968 20.8274 74.5458 20.8274C74.709 20.8236 74.8713 20.8534 75.0226 20.915V20.3458C74.8607 20.2885 74.6896 20.2615 74.518 20.2661C73.6756 20.2661 73.2544 20.7598 73.2544 21.6315Z" fill="black"/>
<path d="M79.9261 26.0781C79.1076 26.0781 78.5394 25.5367 78.5394 24.4857V24.4221C78.5394 23.4229 79.1314 22.8058 79.9023 22.8058C80.1779 22.7778 80.4535 22.8593 80.6697 23.0327C80.886 23.2062 81.0256 23.4578 81.0586 23.7334H81.7261C81.595 22.6546 80.7685 22.2485 79.8864 22.2485C79.6065 22.2481 79.3294 22.3049 79.0722 22.4155C78.8149 22.526 78.5829 22.6879 78.3902 22.8914C78.1975 23.0948 78.0483 23.3355 77.9517 23.5987C77.8551 23.8619 77.813 24.142 77.8281 24.4221V24.4857C77.8085 24.7672 77.8481 25.0496 77.9444 25.3148C78.0406 25.5799 78.1914 25.8218 78.3869 26.0249C78.5825 26.2279 78.8184 26.3875 79.0795 26.4934C79.3405 26.5992 79.6208 26.649 79.9023 26.6394C80.3549 26.6601 80.7983 26.5068 81.1417 26.2108C81.4852 25.9148 81.7028 25.4985 81.75 25.047H81.1261C81.0988 25.3449 80.9563 25.6203 80.7292 25.8144C80.502 26.0085 80.2081 26.106 79.9102 26.086" fill="black"/>
<path d="M85.8588 24.4782C85.8588 25.4375 85.3224 26.0705 84.4721 26.0705C83.6218 26.0705 83.0853 25.4455 83.0853 24.4782V24.4145C83.0853 23.4392 83.6218 22.8221 84.4721 22.8221C85.3224 22.8221 85.8588 23.4551 85.8588 24.4383V24.4782ZM84.4721 22.2489C84.1904 22.2435 83.9106 22.2965 83.6503 22.4045C83.39 22.5124 83.1547 22.6731 82.9592 22.8764C82.7638 23.0797 82.6123 23.3212 82.5144 23.5859C82.4164 23.8506 82.3741 24.1326 82.39 24.4145V24.4782C82.39 24.7521 82.4438 25.0233 82.5485 25.2764C82.6531 25.5295 82.8065 25.7594 82.9998 25.9531C83.1932 26.1468 83.4227 26.3005 83.6753 26.4053C83.9279 26.5101 84.1987 26.5641 84.4721 26.5641C84.7455 26.5641 85.0163 26.5101 85.2689 26.4053C85.5215 26.3005 85.751 26.1468 85.9443 25.9531C86.1377 25.7594 86.291 25.5295 86.3957 25.2764C86.5003 25.0233 86.5542 24.7521 86.5542 24.4782V24.4145C86.5702 24.133 86.5278 23.8513 86.4298 23.587C86.3317 23.3228 86.1802 23.0817 85.9846 22.879C85.789 22.6764 85.5536 22.5165 85.2933 22.4094C85.033 22.3023 84.7534 22.2504 84.4721 22.2569" fill="black"/>
<path d="M92.1164 22.2486C91.8264 22.2432 91.54 22.3138 91.2856 22.4535C91.0312 22.5931 90.8176 22.7969 90.6661 23.0447C90.5748 22.7944 90.4041 22.581 90.1802 22.4372C89.9563 22.2934 89.6915 22.2272 89.4264 22.2486C89.1694 22.2374 88.9145 22.2991 88.691 22.4266C88.4675 22.554 88.2844 22.7421 88.1628 22.9691V22.3202H87.4873V26.5677H88.1628V23.9683C88.155 23.8184 88.1784 23.6685 88.2315 23.5282C88.2846 23.3878 88.3662 23.2601 88.4712 23.153C88.5762 23.046 88.7022 22.962 88.8413 22.9063C88.9805 22.8507 89.1296 22.8246 89.2793 22.8298C89.8634 22.8298 90.1773 23.1403 90.1773 23.8887V26.5677H90.8528V23.9683C90.845 23.8184 90.8684 23.6685 90.9215 23.5282C90.9746 23.3878 91.0562 23.2601 91.1612 23.153C91.2662 23.046 91.3923 22.962 91.5314 22.9063C91.6705 22.8507 91.8197 22.8246 91.9694 22.8298C92.5535 22.8298 92.8714 23.1403 92.8714 23.8887V26.5677H93.5429V23.9364C93.5429 22.7024 92.8714 22.2486 92.1164 22.2486Z" fill="black"/>
<path d="M98.0653 24.4778C98.0653 25.5168 97.6123 26.0701 96.7699 26.0701C95.9275 26.0701 95.3752 25.5526 95.3752 24.4778V24.4141C95.3752 23.3273 95.9752 22.8218 96.762 22.8218C97.4772 22.8218 98.0653 23.3592 98.0653 24.4141V24.4778ZM96.8335 22.2485C96.5472 22.2515 96.2662 22.3259 96.0158 22.4649C95.7653 22.6039 95.5534 22.8031 95.3991 23.0447V22.3202H94.7275V28.0446H95.3991V25.875C95.5483 26.1197 95.7598 26.3201 96.0119 26.4558C96.2639 26.5915 96.5475 26.6576 96.8335 26.6473C98.0017 26.6473 98.7646 25.7556 98.7646 24.4539V24.3902C98.7646 23.0566 97.946 22.2565 96.8335 22.2565" fill="black"/>
<path d="M102.118 25.0789C102.118 25.7278 101.578 26.1019 100.863 26.1019C100.271 26.1019 100.068 25.8352 100.068 25.3894C100.068 24.7724 100.692 24.5534 101.546 24.5534H102.118V25.0789ZM101.244 22.2485C100.426 22.2485 99.6549 22.5949 99.5675 23.5702H100.239C100.307 23.0566 100.636 22.8058 101.212 22.8058C101.86 22.8058 102.118 23.0845 102.118 23.7652V24.0717H101.511C100.426 24.0717 99.3887 24.4141 99.3887 25.3894C99.3887 26.2572 100.013 26.6394 100.799 26.6394C101.052 26.656 101.306 26.6091 101.536 26.5027C101.766 26.3963 101.967 26.2339 102.118 26.0303V26.5677H102.794V23.7811C102.794 22.5869 102.055 22.2645 101.244 22.2645" fill="black"/>
<path d="M106.008 22.2489C105.734 22.2304 105.46 22.2906 105.218 22.4224C104.977 22.5542 104.778 22.7523 104.645 22.9933V22.3205H103.974V26.5681H104.645V23.9925C104.639 23.8353 104.665 23.6786 104.723 23.5325C104.781 23.3864 104.869 23.2542 104.982 23.1445C105.094 23.0348 105.229 22.9501 105.376 22.8959C105.523 22.8417 105.681 22.8193 105.837 22.8301C106.517 22.8301 106.835 23.1645 106.835 23.9129V26.5681H107.506V23.9606C107.506 22.7266 106.89 22.2489 106.016 22.2489" fill="black"/>
<path d="M108.992 20.541C108.903 20.5402 108.816 20.5661 108.741 20.6152C108.667 20.6643 108.608 20.7345 108.574 20.8169C108.54 20.8992 108.53 20.99 108.547 21.0776C108.565 21.1653 108.608 21.2458 108.671 21.3089C108.734 21.3721 108.814 21.415 108.901 21.4322C108.989 21.4495 109.08 21.4402 109.162 21.4057C109.244 21.3711 109.314 21.3129 109.363 21.2383C109.412 21.1637 109.438 21.0762 109.437 20.9869C109.438 20.9282 109.426 20.87 109.404 20.8156C109.382 20.7613 109.349 20.7119 109.308 20.6704C109.266 20.6289 109.217 20.5961 109.163 20.5739C109.109 20.5517 109.051 20.5405 108.992 20.541Z" fill="black"/>
<path d="M109.338 22.3203H108.666V26.5678H109.338V22.3203Z" fill="black"/>
<path d="M110.979 24.0319C111.098 23.2796 111.551 22.8058 112.243 22.8058C112.934 22.8058 113.391 23.1562 113.458 24.0319H110.979ZM112.243 22.2485C111.074 22.2485 110.256 23.1402 110.256 24.4221V24.4857C110.256 25.7875 111.106 26.6394 112.306 26.6394C113.272 26.6394 113.959 26.1935 114.114 25.3416H113.439C113.351 25.8352 112.978 26.0781 112.314 26.0781C111.44 26.0781 110.987 25.5526 110.951 24.5773H114.13V24.3584C114.13 22.8377 113.204 22.2485 112.227 22.2485" fill="black"/>
<path d="M116.51 24.0916C115.715 23.9603 115.52 23.7891 115.52 23.4149C115.52 23.0407 115.838 22.8058 116.315 22.8058C116.792 22.8058 117.11 23.0089 117.205 23.4746H117.857C117.749 22.5551 117.062 22.2485 116.323 22.2485C115.652 22.2485 114.889 22.6466 114.889 23.4428C114.889 24.2389 115.262 24.5017 116.363 24.6927C117.022 24.8161 117.352 24.9634 117.352 25.4093C117.352 25.8551 117.078 26.082 116.43 26.082C115.783 26.082 115.489 25.7755 115.433 25.262H114.777C114.817 26.1378 115.425 26.6433 116.438 26.6433C117.451 26.6433 118.012 26.1258 118.012 25.3496C118.012 24.438 117.396 24.2668 116.522 24.0916" fill="black"/>
<path d="M58.8075 9.9239C60.0869 9.9239 61.1915 10.9072 61.1915 12.5353C61.1915 14.1634 60.079 15.1507 58.8075 15.1507C57.536 15.1507 56.4234 14.1634 56.4234 12.5353C56.4234 10.9072 57.536 9.9239 58.8075 9.9239ZM58.8075 17.0057C61.271 17.0057 63.4167 15.3179 63.4167 12.5353C63.4167 9.75273 61.271 8.06885 58.8075 8.06885C56.3439 8.06885 54.1982 9.75671 54.1982 12.5353C54.1982 15.3139 56.3439 17.0057 58.8075 17.0057Z" fill="black"/>
<path d="M79.7434 16.9185V10.0238H82.8109V8.23242H74.6494V10.0238H77.705V16.9185H79.7434Z" fill="black"/>
<path d="M73.1317 16.9185V8.23242H71.0695V13.7976L67.2152 8.23242H64.9424V16.9185H67.0046V11.3534L70.8589 16.9185H73.1317Z" fill="black"/>
<path d="M50.65 16.9145H52.6923V8.23242H50.4354L47.5825 13.3159L44.7335 8.23242H42.4766V16.9145H44.5149V11.7913L47.3639 16.9145H47.805L50.65 11.7913V16.9145Z" fill="black"/>
</g>
<defs>
<clipPath id="clip0_1000_5152">
<rect width="118" height="34" fill="white"/>
</clipPath>
</defs>
</svg>
