<svg width="159" height="155" viewBox="0 0 159 155" fill="none" xmlns="http://www.w3.org/2000/svg">
<g clip-path="url(#clip0_765_20858)">
<path d="M59.4679 27.205L36.3011 -11.0016C35.68 -12.4987 34.0652 -13.4146 32.3261 -13.4146H-5.02336C-9.04494 -13.4146 -11.3989 -8.88678 -9.09153 -5.59498L25.4723 43.7509C34.6863 35.155 46.4249 29.2235 59.4679 27.205ZM69.4986 36.2729C39.2979 36.2729 14.8423 60.7285 14.8423 90.9292C14.8423 121.13 39.3134 145.585 69.4986 145.585C99.6837 145.585 124.155 121.13 124.155 90.9292C124.155 60.7285 99.7148 36.2729 69.4986 36.2729ZM98.2241 85.122L86.4606 96.6122L89.2167 112.838C89.7214 115.711 86.6547 117.962 84.0523 116.565L69.4939 108.919L54.9339 116.549C52.3331 117.947 49.2664 115.695 49.7695 112.823L52.5256 96.5967L40.7621 85.1064C38.6302 83.0413 39.8413 79.439 42.7605 79.0042L59.0269 76.6363L66.2999 61.8931C66.921 60.5732 68.202 59.9133 69.483 59.9133C70.764 59.9133 72.0451 60.5888 72.6661 61.8931L79.964 76.644L96.2304 79.012C99.1868 79.439 100.367 83.0413 98.2241 85.122ZM143.75 -13.4146H106.671C105.813 -13.4146 104.969 -13.1924 104.223 -12.7696C103.476 -12.3467 102.852 -11.7376 102.41 -11.0016L79.5044 26.9162C92.5473 28.9347 104.311 34.8724 113.509 43.4932L148.073 -5.85273C150.396 -8.88678 148.036 -13.4146 143.75 -13.4146Z" fill="#F6F7FF"/>
</g>
<defs>
<clipPath id="clip0_765_20858">
<rect width="159" height="159" fill="white" transform="translate(0 -4)"/>
</clipPath>
</defs>
</svg>
