<svg width="41" height="41" viewBox="0 0 41 41" fill="none" xmlns="http://www.w3.org/2000/svg">
<path d="M20.5 0C9.17695 0 0 9.17695 0 20.5C0 31.823 9.17695 41 20.5 41C31.823 41 41 31.823 41 20.5C41 9.17695 31.823 0 20.5 0ZM20.5 10.25C23.6847 10.25 26.2656 12.8317 26.2656 16.0156C26.2656 19.1995 23.6871 21.7812 20.5 21.7812C17.3161 21.7812 14.7344 19.1995 14.7344 16.0156C14.7344 12.8317 17.3129 10.25 20.5 10.25ZM20.5 35.875C16.2615 35.875 12.4201 34.1509 9.6334 31.3674C10.9307 28.0193 14.1338 25.625 17.9375 25.625H23.0625C26.8694 25.625 30.0725 28.0177 31.3666 31.3674C28.5799 34.1533 24.7361 35.875 20.5 35.875Z" fill="#C6D1FF"/>
</svg>
