<svg width="335" height="250" viewBox="0 0 335 250" fill="none" xmlns="http://www.w3.org/2000/svg">
<path d="M335 219.699H0V219.867H335V219.699Z" fill="#F0F0F0"/>
<path d="M237.854 228.153H230.832V228.321H237.854V228.153Z" fill="#F0F0F0"/>
<path d="M50.291 223.753H43.5039V223.921H50.291V223.753Z" fill="#F0F0F0"/>
<path d="M123.347 228.073H102.805V228.241H123.347V228.073Z" fill="#F0F0F0"/>
<path d="M156.783 224.241H143.598V224.409H156.783V224.241Z" fill="#F0F0F0"/>
<path d="M287.846 225.31H252.711V225.477H287.846V225.31Z" fill="#F0F0F0"/>
<path d="M82.3764 223.753H53.5195V223.921H82.3764V223.753Z" fill="#F0F0F0"/>
<path d="M302.781 225.39H291.746V225.557H302.781V225.39Z" fill="#F0F0F0"/>
<path d="M158.791 189.771H29.4206C28.4071 189.769 27.4357 189.364 26.7197 188.646C26.0037 187.928 25.6016 186.954 25.6016 185.939V3.7981C25.6104 2.78887 26.0164 1.82388 26.7315 1.11273C27.4465 0.401591 28.4129 0.00172886 29.4206 0H158.791C159.805 0 160.779 0.403691 161.496 1.12226C162.213 1.84084 162.617 2.81543 162.617 3.83165V185.939C162.617 186.955 162.213 187.93 161.496 188.648C160.779 189.367 159.805 189.771 158.791 189.771ZM29.4206 0.134209C28.4515 0.135987 27.5228 0.522785 26.8382 1.20971C26.1536 1.89663 25.7691 2.82754 25.7691 3.7981V185.939C25.7691 186.91 26.1536 187.84 26.8382 188.527C27.5228 189.214 28.4515 189.601 29.4206 189.603H158.791C159.761 189.601 160.69 189.215 161.376 188.528C162.061 187.841 162.447 186.91 162.449 185.939V3.7981C162.447 2.82692 162.061 1.89602 161.376 1.2093C160.69 0.522567 159.761 0.135983 158.791 0.134209H29.4206Z" fill="#F0F0F0"/>
<path d="M303.726 189.771H174.349C173.335 189.769 172.363 189.365 171.646 188.646C170.929 187.928 170.525 186.955 170.523 185.939V3.7981C170.534 2.78826 170.942 1.82327 171.658 1.11231C172.374 0.401356 173.341 0.00171001 174.349 0H303.726C304.733 0.00349244 305.697 0.404134 306.411 1.11509C307.124 1.82604 307.53 2.79003 307.538 3.7981V185.939C307.538 186.953 307.137 187.925 306.423 188.644C305.708 189.362 304.738 189.767 303.726 189.771ZM174.349 0.134209C173.379 0.135983 172.45 0.522567 171.764 1.2093C171.079 1.89602 170.693 2.82692 170.691 3.7981V185.939C170.693 186.91 171.079 187.841 171.764 188.528C172.45 189.215 173.379 189.601 174.349 189.603H303.726C304.696 189.601 305.625 189.215 306.311 188.528C306.997 187.841 307.383 186.91 307.384 185.939V3.7981C307.383 2.82692 306.997 1.89602 306.311 1.2093C305.625 0.522567 304.696 0.135983 303.726 0.134209H174.349Z" fill="#F0F0F0"/>
<path d="M292.019 179.418H273.594V219.701H292.019V179.418Z" fill="#E6E6E6"/>
<path d="M288.527 219.697H292.024V209.726H284.855L288.527 219.697Z" fill="#F5F5F5"/>
<path d="M186.894 179.418H168.469V219.701H186.894V179.418Z" fill="#EBEBEB"/>
<path d="M292.024 179.418H183.832V213.581H292.024V179.418Z" fill="#F5F5F5"/>
<path d="M187.434 182.679V201.112H219.506V182.679H187.434Z" fill="#E6E6E6"/>
<path d="M206.636 185.47H200.325C198.96 185.469 197.611 185.19 196.357 184.65C195.104 184.111 193.974 183.321 193.035 182.329H213.926C212.987 183.321 211.857 184.111 210.604 184.65C209.35 185.19 208 185.469 206.636 185.47Z" fill="#F0F0F0"/>
<path d="M221.887 182.679V201.112H253.96V182.679H221.887Z" fill="#E6E6E6"/>
<path d="M241.429 185.47H235.084C233.721 185.468 232.372 185.189 231.12 184.649C229.868 184.109 228.739 183.32 227.801 182.329H248.718C247.78 183.321 246.649 184.111 245.396 184.65C244.143 185.19 242.793 185.469 241.429 185.47Z" fill="#F0F0F0"/>
<path d="M256.359 182.684V201.117H288.432V182.684H256.359Z" fill="#E6E6E6"/>
<path d="M275.892 185.47H269.547C268.183 185.469 266.833 185.19 265.58 184.65C264.327 184.111 263.196 183.321 262.258 182.329H283.175C282.237 183.32 281.108 184.109 279.856 184.649C278.604 185.189 277.255 185.468 275.892 185.47Z" fill="#F0F0F0"/>
<path d="M187.329 219.697H183.832V209.726H191.001L187.329 219.697Z" fill="#F5F5F5"/>
<path d="M206.641 12.7432H42.1289V101.629H206.641V12.7432Z" fill="#E6E6E6"/>
<path d="M210.032 12.7432H43.7109V101.629H210.032V12.7432Z" fill="#EBEBEB"/>
<path d="M206.641 101.63H42.1289V107.965H206.641V101.63Z" fill="#E6E6E6"/>
<path d="M215.7 101.63H49.3789V107.965H215.7V101.63Z" fill="#E6E6E6"/>
<path d="M205.273 96.8577V17.5137L48.48 17.5137V96.8577L205.273 96.8577Z" fill="#FAFAFA"/>
<path d="M57.5898 96.8577L85.5556 17.5137H98.7546L70.7888 96.8577H57.5898Z" fill="white"/>
<path d="M50.6786 69.9626C50.5825 69.9626 50.4904 69.9244 50.4225 69.8565C50.3546 69.7885 50.3164 69.6964 50.3164 69.6003V20.6142C50.3164 20.5175 50.3543 20.4246 50.4221 20.3556C50.4898 20.2865 50.5819 20.2469 50.6786 20.2451C50.7764 20.2451 50.8702 20.284 50.9394 20.3532C51.0085 20.4224 51.0474 20.5163 51.0474 20.6142V69.6003C51.0456 69.697 51.006 69.7891 50.937 69.8569C50.868 69.9247 50.7752 69.9626 50.6786 69.9626Z" fill="#E6E6E6"/>
<path d="M73.6367 96.8577L101.596 17.5137H106.741L78.7823 96.8577H73.6367Z" fill="white"/>
<path d="M205.273 96.8577V17.5137H204.67V96.8577H205.273Z" fill="#E6E6E6"/>
<path d="M211.162 23.6196H46.657L46.2148 19.3652H210.727L211.162 23.6196Z" fill="#EBEBEB"/>
<path d="M211.162 26.7282H46.657L46.2148 22.4805H210.727L211.162 26.7282Z" fill="#EBEBEB"/>
<path d="M211.162 30.4644H46.657L46.2148 26.21H210.727L211.162 30.4644Z" fill="#EBEBEB"/>
<path d="M211.162 34.6196H46.657L46.2148 30.3652H210.727L211.162 34.6196Z" fill="#EBEBEB"/>
<path d="M211.162 39.5914H46.657L46.2148 35.3438H210.727L211.162 39.5914Z" fill="#E6E6E6"/>
<path d="M211.162 45.195H46.657L46.2148 40.9473H210.727L211.162 45.195Z" fill="#E6E6E6"/>
<path d="M252.248 50.3262H229.301V76.8055H252.248V50.3262Z" fill="#EBEBEB"/>
<path d="M256.894 50.3262H232.023V76.8055H256.894V50.3262Z" fill="#F5F5F5"/>
<path d="M254.801 74.7205V52.415H234.098V74.7205H254.801Z" fill="white"/>
<path d="M249.793 67.4872V59.6562C249.793 58.6444 248.974 57.8242 247.964 57.8242H240.956C239.945 57.8242 239.127 58.6444 239.127 59.6562V67.4872C239.127 68.499 239.945 69.3192 240.956 69.3192H247.964C248.974 69.3192 249.793 68.499 249.793 67.4872Z" fill="#FAFAFA"/>
<path d="M286.877 38.6846H263.93V65.1639H286.877V38.6846Z" fill="#EBEBEB"/>
<path d="M291.527 38.6846H266.656V65.1639H291.527V38.6846Z" fill="#F5F5F5"/>
<path d="M289.438 63.0779V40.7725H268.734V63.0779H289.438Z" fill="white"/>
<path d="M284.414 55.8389V48.0146C284.414 47.0028 283.595 46.1826 282.585 46.1826H275.577C274.567 46.1826 273.748 47.0028 273.748 48.0146V55.8389C273.748 56.8507 274.567 57.6709 275.577 57.6709H282.585C283.595 57.6709 284.414 56.8507 284.414 55.8389Z" fill="#FAFAFA"/>
<path d="M174.417 141.367H137.191V219.698H174.417V141.367Z" fill="#E6E6E6"/>
<path d="M170.675 219.698H174.414V209.028H166.742L170.675 219.698Z" fill="#E6E6E6"/>
<path d="M82.8541 141.367H45.6289V219.698H82.8541V141.367Z" fill="#E6E6E6"/>
<path d="M174.421 141.367H79.582V213.155H174.421V141.367Z" fill="#F5F5F5"/>
<path d="M170.737 144.548H81.707V164.236H170.737V144.548Z" fill="#E6E6E6"/>
<path d="M131.2 150.668H122.791C119.14 150.668 115.649 148.239 113.137 143.958H140.861C138.349 148.239 134.858 150.668 131.2 150.668Z" fill="#F5F5F5"/>
<path d="M83.3273 219.698H79.582V209.028H87.2535L83.3273 219.698Z" fill="#E6E6E6"/>
<path d="M170.737 167.418H81.707V187.106H170.737V167.418Z" fill="#E6E6E6"/>
<path d="M131.2 173.532H122.791C119.14 173.532 115.649 171.103 113.137 166.821H140.861C138.349 171.116 134.858 173.532 131.2 173.532Z" fill="#F5F5F5"/>
<path d="M170.737 190.289H81.707V209.977H170.737V190.289Z" fill="#E6E6E6"/>
<path d="M131.2 196.4H122.791C119.14 196.4 115.649 193.971 113.137 189.689H140.861C138.349 193.971 134.858 196.4 131.2 196.4Z" fill="#F5F5F5"/>
<path d="M256.293 172.189H257.405C257.405 169.901 257.405 164.083 257.525 150.756C257.72 126.598 258.108 125.129 258.108 125.129L255.462 136.282C253.78 148.629 255.938 161.05 256.293 172.189Z" fill="#E6E6E6"/>
<path d="M251.366 132.148C245.544 126.384 234.174 125.612 222.556 125.129C218 124.941 235.286 133.712 243.95 140.281C250.65 145.381 254.783 146.582 257.015 152.085C257.276 144.945 256.385 137.114 251.366 132.148Z" fill="#E6E6E6"/>
<path d="M257.762 119.612C261.708 112.103 271.638 105.03 282.78 102.353C287.148 101.299 272.643 116.216 267.128 125.839C262.847 133.315 257.166 142.092 256.288 148.4C254.955 135.898 253.816 127.121 257.762 119.612Z" fill="#E6E6E6"/>
<path d="M257.278 179.418C255.41 179.416 253.614 178.699 252.256 177.414C250.898 176.129 250.082 174.374 249.975 172.506L249.305 165.883H265.204L264.534 172.506C264.425 174.365 263.615 176.113 262.268 177.396C260.921 178.68 259.137 179.402 257.278 179.418Z" fill="#F0F0F0"/>
<path d="M266.24 168.433H248.278L247.762 161.052H266.756L266.24 168.433Z" fill="#F5F5F5"/>
<path d="M167.496 250C239.241 250 297.402 246.599 297.402 242.404C297.402 238.209 239.241 234.808 167.496 234.808C95.7509 234.808 37.5898 238.209 37.5898 242.404C37.5898 246.599 95.7509 250 167.496 250Z" fill="#F5F5F5"/>
<path d="M164.448 58.9221C165.359 70.3298 178.518 85.1464 182.725 89.629C182.891 89.8066 183.091 89.9482 183.314 90.045C183.536 90.1418 183.776 90.1918 184.019 90.1918C184.261 90.1918 184.501 90.1418 184.723 90.045C184.946 89.9482 185.146 89.8066 185.312 89.629C189.533 85.1464 202.678 70.3231 203.589 58.9221C203.62 58.5721 203.549 58.2205 203.383 57.9106C203.218 57.6007 202.966 57.3459 202.658 57.1774L184.863 47.5614C184.604 47.4192 184.314 47.3447 184.019 47.3447C183.723 47.3447 183.433 47.4192 183.174 47.5614L165.379 57.1774C165.072 57.3472 164.821 57.6022 164.656 57.9118C164.491 58.2214 164.418 58.5723 164.448 58.9221Z" fill="#6776FF"/>
<path opacity="0.3" d="M182.7 85.3093C177.34 79.27 169.568 69.1171 167.712 61.0378C167.628 60.6622 167.665 60.2696 167.82 59.9171C167.974 59.5646 168.237 59.2707 168.569 59.0783L183.135 50.6903C183.406 50.5355 183.712 50.4541 184.023 50.4541C184.334 50.4541 184.64 50.5355 184.911 50.6903L199.477 59.0515C199.818 59.2478 200.086 59.5512 200.239 59.915C200.391 60.2788 200.42 60.6828 200.321 61.0646C198.472 69.1574 190.726 79.27 185.34 85.3362C185.172 85.5217 184.968 85.6696 184.739 85.77C184.51 85.8704 184.263 85.9209 184.014 85.9184C183.764 85.9159 183.518 85.8603 183.291 85.7553C183.065 85.6503 182.863 85.4983 182.7 85.3093Z" fill="#6776FF"/>
<path opacity="0.3" d="M182.7 85.3093C177.34 79.27 169.568 69.1171 167.712 61.0378C167.628 60.6622 167.665 60.2696 167.82 59.9171C167.974 59.5646 168.237 59.2707 168.569 59.0783L183.135 50.6903C183.406 50.5355 183.712 50.4541 184.023 50.4541C184.334 50.4541 184.64 50.5355 184.911 50.6903L199.477 59.0515C199.818 59.2478 200.086 59.5512 200.239 59.915C200.391 60.2788 200.42 60.6828 200.321 61.0646C198.472 69.1574 190.726 79.27 185.34 85.3362C185.172 85.5217 184.968 85.6696 184.739 85.77C184.51 85.8704 184.263 85.9209 184.014 85.9184C183.764 85.9159 183.518 85.8603 183.291 85.7553C183.065 85.6503 182.863 85.4983 182.7 85.3093Z" fill="white"/>
<path d="M182.034 73.0629C181.902 73.0632 181.772 73.0372 181.65 72.9865C181.528 72.9359 181.417 72.8615 181.324 72.7677L176.36 67.7751C176.182 67.5843 176.085 67.3319 176.09 67.0712C176.095 66.8104 176.2 66.5616 176.384 66.3772C176.568 66.1928 176.817 66.0871 177.077 66.0825C177.337 66.0779 177.589 66.1747 177.78 66.3525L182.034 70.6069L192.084 60.5748C192.274 60.388 192.529 60.2832 192.795 60.2832C193.06 60.2832 193.316 60.388 193.505 60.5748C193.599 60.6678 193.673 60.7786 193.724 60.9007C193.775 61.0228 193.802 61.1538 193.802 61.2861C193.802 61.4185 193.775 61.5495 193.724 61.6716C193.673 61.7937 193.599 61.9044 193.505 61.9974L182.785 72.7341C182.689 72.8376 182.573 72.9203 182.444 72.9768C182.315 73.0334 182.175 73.0627 182.034 73.0629Z" fill="white"/>
<path d="M224.226 100.208H131.317C126.877 100.208 123.277 103.813 123.277 108.261V230.323C123.277 234.77 126.877 238.376 131.317 238.376H224.226C228.667 238.376 232.266 234.77 232.266 230.323V108.261C232.266 103.813 228.667 100.208 224.226 100.208Z" fill="#263238"/>
<path d="M230.488 100.208H137.579C133.139 100.208 129.539 103.813 129.539 108.261V230.323C129.539 234.77 133.139 238.376 137.579 238.376H230.488C234.928 238.376 238.528 234.77 238.528 230.323V108.261C238.528 103.813 234.928 100.208 230.488 100.208Z" fill="#6776FF"/>
<path d="M148.583 238.381H139.538C139.26 238.381 139.035 238.606 139.035 238.884V240.34C139.035 240.618 139.26 240.844 139.538 240.844H148.583C148.86 240.844 149.085 240.618 149.085 240.34V238.884C149.085 238.606 148.86 238.381 148.583 238.381Z" fill="#263238"/>
<path d="M228.528 238.381H219.483C219.205 238.381 218.98 238.606 218.98 238.884V240.34C218.98 240.618 219.205 240.844 219.483 240.844H228.528C228.805 240.844 229.03 240.618 229.03 240.34V238.884C229.03 238.606 228.805 238.381 228.528 238.381Z" fill="#263238"/>
<path opacity="0.2" d="M230.488 100.208H137.579C133.139 100.208 129.539 103.813 129.539 108.261V230.323C129.539 234.77 133.139 238.376 137.579 238.376H230.488C234.928 238.376 238.528 234.77 238.528 230.323V108.261C238.528 103.813 234.928 100.208 230.488 100.208Z" fill="black"/>
<g style="mix-blend-mode:color-dodge" opacity="0.4">
<path d="M219.534 222.445H148.514C147.701 222.443 146.921 222.119 146.346 221.543C145.771 220.967 145.447 220.186 145.445 219.372V119.226C145.445 118.41 145.768 117.627 146.344 117.05C146.919 116.473 147.699 116.147 148.514 116.146H219.534C220.348 116.147 221.129 116.473 221.704 117.05C222.279 117.627 222.603 118.41 222.603 119.226V219.372C222.601 220.186 222.277 220.967 221.702 221.543C221.127 222.119 220.347 222.443 219.534 222.445ZM148.514 116.481C147.788 116.483 147.093 116.773 146.581 117.287C146.068 117.802 145.78 118.499 145.78 119.226V219.372C145.78 219.731 145.851 220.087 145.988 220.42C146.126 220.752 146.327 221.054 146.581 221.308C146.835 221.562 147.136 221.764 147.468 221.901C147.799 222.039 148.155 222.11 148.514 222.11H219.534C220.259 222.11 220.954 221.821 221.467 221.308C221.979 220.794 222.268 220.098 222.268 219.372V119.226C222.268 118.499 221.98 117.802 221.467 117.287C220.955 116.773 220.26 116.483 219.534 116.481H148.514Z" fill="#E6E6E6"/>
</g>
<path d="M221.105 219.373V119.22C221.105 118.356 220.407 117.656 219.544 117.656H148.518C147.655 117.656 146.957 118.356 146.957 119.22V219.373C146.957 220.236 147.655 220.936 148.518 220.936H219.544C220.407 220.936 221.105 220.236 221.105 219.373Z" fill="#6776FF"/>
<path opacity="0.1" d="M221.105 219.373V119.22C221.105 118.356 220.407 117.656 219.544 117.656H148.518C147.655 117.656 146.957 118.356 146.957 119.22V219.373C146.957 220.236 147.655 220.936 148.518 220.936H219.544C220.407 220.936 221.105 220.236 221.105 219.373Z" fill="white"/>
<path d="M240.862 128.694H240.191V134.358H240.862V128.694Z" fill="#6776FF"/>
<path d="M240.862 108.26H240.191V122.727H240.862V108.26Z" fill="#6776FF"/>
<path opacity="0.1" d="M184.019 194.133C196.637 194.133 206.866 183.888 206.866 171.251C206.866 158.613 196.637 148.368 184.019 148.368C171.401 148.368 161.172 158.613 161.172 171.251C161.172 183.888 171.401 194.133 184.019 194.133Z" fill="black"/>
<path d="M184.03 137.268C187.113 137.268 189.611 134.766 189.611 131.679C189.611 128.591 187.113 126.089 184.03 126.089C180.948 126.089 178.449 128.591 178.449 131.679C178.449 134.766 180.948 137.268 184.03 137.268Z" fill="#6776FF"/>
<path opacity="0.6" d="M183.995 137.255C187.078 137.255 189.576 134.752 189.576 131.665C189.576 128.578 187.078 126.075 183.995 126.075C180.913 126.075 178.414 128.578 178.414 131.665C178.414 134.752 180.913 137.255 183.995 137.255Z" fill="white"/>
<path d="M184.03 136.096C183.158 136.096 182.305 135.837 181.58 135.351C180.855 134.866 180.29 134.177 179.957 133.37C179.623 132.563 179.536 131.675 179.706 130.819C179.876 129.962 180.296 129.175 180.912 128.558C181.529 127.94 182.314 127.52 183.17 127.349C184.025 127.179 184.911 127.267 185.717 127.601C186.522 127.935 187.211 128.501 187.695 129.227C188.18 129.953 188.438 130.807 188.438 131.68C188.437 132.851 187.971 133.973 187.145 134.8C186.319 135.628 185.198 136.094 184.03 136.096ZM184.03 127.6C183.224 127.6 182.436 127.839 181.767 128.288C181.097 128.736 180.575 129.373 180.266 130.119C179.958 130.864 179.877 131.685 180.034 132.476C180.192 133.267 180.58 133.994 181.149 134.565C181.719 135.136 182.445 135.524 183.235 135.682C184.025 135.839 184.844 135.758 185.589 135.449C186.333 135.141 186.969 134.618 187.417 133.947C187.864 133.276 188.103 132.487 188.103 131.68C188.102 130.599 187.672 129.562 186.908 128.797C186.145 128.032 185.11 127.602 184.03 127.6Z" fill="#6776FF"/>
<path d="M146.852 130.809H144.367C143.819 130.809 143.375 131.253 143.375 131.802V145.424C143.375 145.972 143.819 146.417 144.367 146.417H146.852C147.4 146.417 147.844 145.972 147.844 145.424V131.802C147.844 131.253 147.4 130.809 146.852 130.809Z" fill="#6776FF"/>
<path opacity="0.6" d="M146.852 130.809H144.367C143.819 130.809 143.375 131.253 143.375 131.802V145.424C143.375 145.972 143.819 146.417 144.367 146.417H146.852C147.4 146.417 147.844 145.972 147.844 145.424V131.802C147.844 131.253 147.4 130.809 146.852 130.809Z" fill="white"/>
<path d="M146.852 192.175H144.367C143.819 192.175 143.375 192.619 143.375 193.168V206.79C143.375 207.339 143.819 207.783 144.367 207.783H146.852C147.4 207.783 147.844 207.339 147.844 206.79V193.168C147.844 192.619 147.4 192.175 146.852 192.175Z" fill="#6776FF"/>
<path opacity="0.6" d="M146.852 192.175H144.367C143.819 192.175 143.375 192.619 143.375 193.168V206.79C143.375 207.339 143.819 207.783 144.367 207.783H146.852C147.4 207.783 147.844 207.339 147.844 206.79V193.168C147.844 192.619 147.4 192.175 146.852 192.175Z" fill="white"/>
<path d="M184.019 192.182C196.637 192.182 206.866 181.937 206.866 169.3C206.866 156.662 196.637 146.417 184.019 146.417C171.401 146.417 161.172 156.662 161.172 169.3C161.172 181.937 171.401 192.182 184.019 192.182Z" fill="#6776FF"/>
<path opacity="0.6" d="M184.019 192.182C196.637 192.182 206.866 181.937 206.866 169.3C206.866 156.662 196.637 146.417 184.019 146.417C171.401 146.417 161.172 156.662 161.172 169.3C161.172 181.937 171.401 192.182 184.019 192.182Z" fill="white"/>
<path d="M172.725 157.022L171.777 157.971L195.342 181.572L196.29 180.623L172.725 157.022Z" fill="#6776FF"/>
<path d="M195.342 157.02L171.777 180.621L172.725 181.57L196.29 157.969L195.342 157.02Z" fill="#6776FF"/>
<path opacity="0.2" d="M195.264 156.943L171.699 180.545L172.647 181.494L196.212 157.892L195.264 156.943Z" fill="black"/>
<path opacity="0.2" d="M172.655 156.948L171.707 157.897L195.272 181.499L196.219 180.55L172.655 156.948Z" fill="black"/>
<path d="M183.958 186.589C180.527 186.591 177.173 185.573 174.32 183.665C171.466 181.756 169.242 179.044 167.928 175.869C166.614 172.695 166.269 169.201 166.938 165.831C167.607 162.46 169.258 159.364 171.684 156.934C174.109 154.503 177.2 152.848 180.565 152.177C183.93 151.506 187.418 151.85 190.588 153.165C193.758 154.479 196.468 156.706 198.374 159.563C200.281 162.42 201.298 165.78 201.298 169.216C201.295 173.821 199.467 178.237 196.216 181.495C192.965 184.752 188.557 186.584 183.958 186.589ZM183.958 153.185C180.792 153.184 177.697 154.123 175.064 155.883C172.431 157.644 170.378 160.147 169.166 163.077C167.953 166.006 167.635 169.229 168.252 172.339C168.869 175.45 170.393 178.307 172.631 180.549C174.87 182.792 177.722 184.32 180.827 184.939C183.932 185.558 187.15 185.241 190.076 184.028C193.001 182.814 195.501 180.76 197.26 178.123C199.019 175.487 199.958 172.387 199.958 169.216C199.955 164.967 198.268 160.892 195.268 157.887C192.269 154.881 188.201 153.19 183.958 153.185Z" fill="#6776FF"/>
<path d="M189.088 174.359C191.922 171.52 191.922 166.919 189.088 164.081C186.254 161.243 181.66 161.243 178.826 164.081C175.992 166.919 175.992 171.52 178.826 174.359C181.66 177.197 186.254 177.197 189.088 174.359Z" fill="#6776FF"/>
<path opacity="0.2" d="M183.958 186.589C180.527 186.591 177.173 185.573 174.32 183.665C171.466 181.756 169.242 179.044 167.928 175.869C166.614 172.695 166.269 169.201 166.938 165.831C167.607 162.46 169.258 159.364 171.684 156.934C174.109 154.503 177.2 152.848 180.565 152.177C183.93 151.506 187.418 151.85 190.588 153.165C193.758 154.479 196.468 156.706 198.374 159.563C200.281 162.42 201.298 165.78 201.298 169.216C201.295 173.821 199.467 178.237 196.216 181.495C192.965 184.752 188.557 186.584 183.958 186.589ZM183.958 153.185C180.792 153.184 177.697 154.123 175.064 155.883C172.431 157.644 170.378 160.147 169.166 163.077C167.953 166.006 167.635 169.229 168.252 172.339C168.869 175.45 170.393 178.307 172.631 180.549C174.87 182.792 177.722 184.32 180.827 184.939C183.932 185.558 187.15 185.241 190.076 184.028C193.001 182.814 195.501 180.76 197.26 178.123C199.019 175.487 199.958 172.387 199.958 169.216C199.955 164.967 198.268 160.892 195.268 157.887C192.269 154.881 188.201 153.19 183.958 153.185Z" fill="black"/>
<path opacity="0.2" d="M189.088 174.359C191.922 171.52 191.922 166.919 189.088 164.081C186.254 161.243 181.66 161.243 178.826 164.081C175.992 166.919 175.992 171.52 178.826 174.359C181.66 177.197 186.254 177.197 189.088 174.359Z" fill="black"/>
<path d="M127.967 72.3115C129.582 76.0626 131.25 79.8608 132.938 83.5985C134.627 87.3362 136.355 91.0672 138.204 94.6304C138.68 95.5027 139.136 96.4086 139.632 97.234L139.993 97.8648L140.181 98.1802C140.162 98.1545 140.14 98.1319 140.114 98.1131C140.034 98.0661 140.114 98.1601 140.275 98.2741C140.89 98.6058 141.555 98.8325 142.245 98.9452C143.131 99.1106 144.026 99.2271 144.925 99.2941C146.821 99.4216 148.824 99.4216 150.834 99.3612L153.876 99.2337L156.904 99.0324L157.688 102.683C153.55 104.067 149.256 104.928 144.904 105.246C143.731 105.322 142.553 105.311 141.38 105.213C139.997 105.119 138.639 104.797 137.36 104.26C136.475 103.872 135.679 103.306 135.022 102.596C134.825 102.385 134.644 102.161 134.479 101.925L134.245 101.576L133.789 100.905C133.153 99.9786 132.617 99.0526 132.04 98.1198C129.87 94.3955 127.927 90.6243 126.104 86.8195C124.282 83.0147 122.587 79.1763 120.992 75.2373L127.967 72.3115Z" fill="#7F3E3B"/>
<path d="M119.069 71.7997C117.548 76.2555 126.486 89.3609 126.486 89.3609L135.048 84.6099C133.594 80.5216 131.878 76.5317 129.909 72.6654C126.888 66.9951 120.737 66.9078 119.069 71.7997Z" fill="#6776FF"/>
<path opacity="0.5" d="M119.069 71.7997C117.548 76.2555 126.486 89.3609 126.486 89.3609L135.048 84.6099C133.594 80.5216 131.878 76.5317 129.909 72.6654C126.888 66.9951 120.737 66.9078 119.069 71.7997Z" fill="white"/>
<path d="M118.946 72.3554C120.862 71.4361 123.073 72.2078 125.391 75.8851C127.709 79.5624 129.692 85.7024 129.914 87.4538L126.49 89.3529C126.49 89.3529 118.235 77.2473 118.946 72.3554Z" fill="#6776FF"/>
<path opacity="0.4" d="M118.946 72.3554C120.862 71.4361 123.073 72.2078 125.391 75.8851C127.709 79.5624 129.692 85.7024 129.914 87.4538L126.49 89.3529C126.49 89.3529 118.235 77.2473 118.946 72.3554Z" fill="white"/>
<path d="M124.85 68.3921C124.85 68.3921 131.229 83.4168 126.626 111.392H100.067C99.7386 107.306 101.615 87.3826 97.0117 68.1371C99.9318 67.5675 102.886 67.1909 105.856 67.0098C109.616 66.7949 113.385 66.7949 117.145 67.0098C119.745 67.2731 122.321 67.7352 124.85 68.3921Z" fill="#6776FF"/>
<path opacity="0.5" d="M124.85 68.3921C124.85 68.3921 131.229 83.4168 126.626 111.392H100.067C99.7386 107.306 101.615 87.3826 97.0117 68.1371C99.9318 67.5675 102.886 67.1909 105.856 67.0098C109.616 66.7949 113.385 66.7949 117.145 67.0098C119.745 67.2731 122.321 67.7352 124.85 68.3921Z" fill="white"/>
<path d="M102.942 72.8889C103.492 76.0562 102.761 83.6255 100.048 92.3894C99.8353 84.8808 98.9632 77.4056 97.4414 70.0504V70.0101C99.1834 69.8356 102.413 69.9162 102.942 72.8889Z" fill="#6776FF"/>
<path opacity="0.4" d="M102.942 72.8889C103.492 76.0562 102.761 83.6255 100.048 92.3894C99.8353 84.8808 98.9632 77.4056 97.4414 70.0504V70.0101C99.1834 69.8356 102.413 69.9162 102.942 72.8889Z" fill="white"/>
<path d="M90.6602 230.59L94.5998 234.12L102.097 226.302L98.1575 222.772L90.6602 230.59Z" fill="#7F3E3B"/>
<path d="M95.679 232.702L90.8952 229.494C90.8171 229.432 90.7203 229.398 90.6205 229.398C90.5208 229.398 90.424 229.432 90.3458 229.494L86.6876 233.192C86.6162 233.273 86.5636 233.369 86.5333 233.473C86.5031 233.577 86.4961 233.686 86.5127 233.793C86.5293 233.9 86.5692 234.002 86.6295 234.092C86.6899 234.181 86.7692 234.257 86.8618 234.312C89.917 236.668 92.1213 238.446 93.8633 240.405C95.8733 242.694 96.9587 243.022 101.649 243.022C103.82 243.022 105.046 241.191 104.161 240.909C96.349 238.433 98.4394 237.352 96.5366 233.722C96.3437 233.313 96.0482 232.962 95.679 232.702Z" fill="#263238"/>
<path d="M102.08 226.302L98.2209 230.335L94.2812 226.799L98.1405 222.772L102.08 226.302Z" fill="#5E2B2B"/>
<path d="M104.788 226.415H109.753L109.418 232.354H104.453L104.788 226.415Z" fill="#5E2B2B"/>
<path d="M126.629 111.392C126.629 111.392 131.862 147.669 133.644 167.411C135.078 183.254 100.875 230.489 100.875 230.489L94.2617 224.255C94.2617 224.255 119.239 181.905 117.316 164.27C115.461 147.192 109.142 111.372 109.142 111.372L126.629 111.392Z" fill="#6776FF"/>
<path opacity="0.5" d="M126.629 111.392C126.629 111.392 131.862 147.669 133.644 167.411C135.078 183.254 100.875 230.489 100.875 230.489L94.2617 224.255C94.2617 224.255 119.239 181.905 117.316 164.27C115.461 147.192 109.142 111.372 109.142 111.372L126.629 111.392Z" fill="black"/>
<path d="M104.145 237.93H109.116L109.759 226.415H104.794L104.145 237.93Z" fill="#7F3E3B"/>
<path d="M109.373 237.36H103.792C103.699 237.356 103.608 237.389 103.539 237.452C103.47 237.515 103.428 237.602 103.423 237.695L103.148 242.117C103.148 242.233 103.169 242.347 103.213 242.454C103.256 242.561 103.32 242.659 103.401 242.741C103.482 242.823 103.578 242.889 103.684 242.934C103.79 242.979 103.904 243.002 104.019 243.003C105.962 242.97 106.894 242.855 109.379 242.855C110.887 242.855 117.306 243.017 119.396 243.017C121.486 243.017 121.406 240.95 120.535 240.762C116.575 239.923 111.664 238.749 110.257 237.662C110.006 237.463 109.693 237.356 109.373 237.36Z" fill="#263238"/>
<path d="M155.859 99.2601L160.422 97.4482L161.534 102.146C161.534 102.146 156.328 103.702 155.504 102.199L155.859 99.2601Z" fill="#7F3E3B"/>
<path d="M164.292 98.3944L165.632 100.965L161.538 102.132L160.426 97.4482L164.292 98.3944Z" fill="#7F3E3B"/>
<path d="M118.244 67.1043L117.159 66.9903C113.399 66.7754 109.629 66.7754 105.869 66.9903L105.199 67.0305L105.26 67.2117C105.313 67.3526 106.559 70.6743 113.708 70.6743C116.824 70.6743 118.452 70.1576 118.827 69.0369C118.904 68.6918 118.89 68.3327 118.788 67.9942C118.686 67.6557 118.499 67.3493 118.244 67.1043Z" fill="#E6E6E6"/>
<path d="M106.522 54.2734C107.359 57.9105 108.304 64.5806 105.852 67.0232C105.852 67.0232 106.91 70.0362 113.664 70.0362C121.087 70.0362 117.141 67.0232 117.141 67.0232C113.054 66.0569 113.061 63.044 113.664 60.2189L106.522 54.2734Z" fill="#7F3E3B"/>
<path d="M109.454 56.6963L113.682 60.1991C113.53 60.8607 113.436 61.5343 113.401 62.2123C111.846 61.9908 109.662 60.2864 109.441 58.6624C109.323 58.012 109.327 57.3451 109.454 56.6963Z" fill="#5E2B2B"/>
<path d="M117.136 43.4481C119.394 44.9109 119.715 51.9435 116.412 52.95C113.109 53.9566 112.861 40.6834 117.136 43.4481Z" fill="#263238"/>
<path d="M104.966 50.462C106.48 55.1593 107.123 57.9978 110.178 59.9237C111.164 60.5581 112.304 60.9106 113.475 60.943C114.646 60.9753 115.804 60.6864 116.823 60.1073C117.842 59.5282 118.684 58.6811 119.257 57.6576C119.83 56.6341 120.113 55.4732 120.074 54.3004C120.014 49.7842 117.548 42.8323 112.356 41.9599C111.237 41.7435 110.081 41.8254 109.003 42.1974C107.926 42.5694 106.964 43.2183 106.216 44.0793C105.468 44.9403 104.958 45.9831 104.739 47.1032C104.519 48.2234 104.598 49.3816 104.966 50.462Z" fill="#7F3E3B"/>
<path d="M99.5413 46.0393C101.163 48.9851 105.236 55.6955 107.193 55.0245C109.149 54.3535 109.156 48.9851 106.643 45.5829C106.643 45.5829 126.549 47.5961 126.951 36.2689C127.36 24.68 117.772 35.8931 109.337 39.1342C100.158 42.6908 95.729 39.1074 99.5413 46.0393Z" fill="#263238"/>
<path d="M100.392 41.9328C100.354 41.9251 100.32 41.9046 100.296 41.8746C100.271 41.8446 100.258 41.8071 100.258 41.7684C100.258 41.7297 100.271 41.6922 100.296 41.6623C100.32 41.6323 100.354 41.6117 100.392 41.604C100.693 41.5369 101.022 41.4765 101.377 41.4094C104.046 40.9731 106.649 40.1973 109.122 39.101C111.635 37.9737 114.268 36.0411 116.599 34.3366C118.08 33.2041 119.624 32.1556 121.222 31.1962C121.262 31.1764 121.307 31.1724 121.349 31.1848C121.392 31.1973 121.428 31.2253 121.45 31.2633C121.461 31.2826 121.467 31.3039 121.47 31.3259C121.472 31.3479 121.47 31.3701 121.464 31.3913C121.458 31.4125 121.447 31.4323 121.433 31.4494C121.42 31.4666 121.402 31.4809 121.383 31.4914C119.796 32.4443 118.264 33.4861 116.794 34.6118C114.455 36.3229 111.802 38.2622 109.256 39.4097C106.762 40.5162 104.136 41.2988 101.444 41.7382C101.089 41.8053 100.774 41.8657 100.459 41.9328H100.392Z" fill="#263238"/>
<path d="M104.126 56.1985C105.025 57.0731 106.224 57.5702 107.476 57.5876C109.138 57.5876 109.486 56.0173 108.595 54.7021C107.805 53.5211 105.996 52.0985 104.535 52.7359C103.074 53.3734 103.028 55.1181 104.126 56.1985Z" fill="#7F3E3B"/>
<path opacity="0.2" d="M117.322 164.291C116.364 155.493 114.22 141.71 112.377 130.423C113.342 128.531 116.049 124.699 116.049 124.699C118.474 133.094 123.747 164.74 116.223 207.479C108.384 220.135 100.88 230.509 100.88 230.509L99.8281 214.189C107.098 200.54 118.655 176.484 117.322 164.291Z" fill="black"/>
<path d="M112.593 50.1994C112.693 50.5883 112.982 50.87 113.263 50.8029C113.545 50.7359 113.646 50.3804 113.545 49.9915C113.444 49.6025 113.156 49.3208 112.874 49.3946C112.593 49.4684 112.492 49.8104 112.593 50.1994Z" fill="#263238"/>
<path d="M117.016 49.2258C117.116 49.6148 117.405 49.8964 117.686 49.8294C117.968 49.7623 118.068 49.4136 117.968 49.0246C117.867 48.6356 117.586 48.354 117.297 48.421C117.009 48.4881 116.915 48.8368 117.016 49.2258Z" fill="#263238"/>
<path d="M115.66 49.7305C116.432 50.819 117.345 51.8005 118.374 52.6495C118.15 52.8985 117.874 53.0954 117.566 53.2264C117.259 53.3574 116.926 53.4193 116.591 53.4078L115.66 49.7305Z" fill="#630F0F"/>
<path d="M114.9 54.8212C114.084 54.8294 113.292 54.5438 112.669 54.0164C112.658 54.0059 112.649 53.9932 112.643 53.9793C112.636 53.9653 112.633 53.9502 112.633 53.935C112.633 53.9197 112.635 53.9046 112.641 53.8903C112.646 53.8761 112.655 53.8632 112.665 53.8521C112.676 53.8411 112.688 53.8323 112.702 53.8262C112.716 53.8201 112.731 53.8167 112.747 53.8164C112.762 53.8161 112.777 53.8188 112.791 53.8244C112.805 53.8299 112.818 53.8382 112.829 53.8488C113.222 54.1679 113.681 54.3939 114.173 54.5101C114.665 54.6262 115.177 54.6294 115.67 54.5194C115.685 54.5159 115.701 54.5154 115.716 54.5178C115.731 54.5203 115.745 54.5258 115.758 54.5339C115.772 54.5419 115.783 54.5525 115.792 54.565C115.801 54.5775 115.807 54.5916 115.811 54.6066C115.814 54.6216 115.815 54.6371 115.812 54.6523C115.81 54.6675 115.804 54.682 115.796 54.6951C115.788 54.7082 115.778 54.7195 115.765 54.7285C115.753 54.7375 115.739 54.7439 115.724 54.7474C115.453 54.8027 115.176 54.8275 114.9 54.8212Z" fill="#263238"/>
<path d="M110.834 49.0797C110.803 49.086 110.771 49.086 110.74 49.0797C110.711 49.0681 110.685 49.0507 110.663 49.0286C110.642 49.0065 110.625 48.9803 110.613 48.9514C110.602 48.9225 110.597 48.8916 110.598 48.8606C110.599 48.8296 110.606 48.7991 110.619 48.771C110.762 48.431 110.986 48.1311 111.271 47.8972C111.556 47.6634 111.893 47.5026 112.254 47.4289C112.316 47.4228 112.378 47.4401 112.427 47.4774C112.477 47.5147 112.511 47.5692 112.522 47.6303C112.527 47.6611 112.525 47.6927 112.518 47.723C112.51 47.7533 112.497 47.7818 112.478 47.8068C112.459 47.8318 112.436 47.8528 112.409 47.8685C112.382 47.8843 112.352 47.8946 112.321 47.8987C112.038 47.9626 111.774 48.0943 111.552 48.2824C111.331 48.4705 111.158 48.7095 111.048 48.979C111.025 49.0139 110.993 49.0417 110.955 49.0595C110.917 49.0772 110.875 49.0842 110.834 49.0797Z" fill="#263238"/>
<path d="M118.512 47.2995C118.477 47.2997 118.442 47.292 118.411 47.2769C118.38 47.2618 118.352 47.2397 118.331 47.2123C118.142 46.9776 117.903 46.7883 117.632 46.6583C117.361 46.5283 117.064 46.4609 116.763 46.4612C116.701 46.465 116.64 46.4448 116.593 46.4049C116.545 46.3649 116.515 46.3082 116.508 46.2466C116.504 46.1846 116.525 46.1236 116.565 46.0762C116.604 46.0287 116.661 45.9985 116.723 45.9917C117.099 45.9841 117.473 46.0629 117.814 46.2222C118.156 46.3814 118.456 46.6169 118.692 46.9105C118.732 46.9597 118.75 47.0223 118.744 47.085C118.738 47.1476 118.707 47.2053 118.659 47.2458C118.617 47.2801 118.565 47.299 118.512 47.2995Z" fill="#263238"/>
<path d="M100.463 95.0719C99.1289 94.6218 97.8481 94.0255 96.6444 93.2937C96.3823 93.1266 96.1396 92.9308 95.9208 92.7099C96.229 91.2671 96.631 89.8177 97.0665 88.3615C97.502 86.9054 98.038 85.4157 98.5941 83.9461C99.1502 82.4765 99.7398 81.0136 100.356 79.5642C100.664 78.8394 100.979 78.1147 101.301 77.3967L102.266 75.3098L95.5657 71.874C95.1235 72.7128 94.7617 73.451 94.3999 74.2495C94.0381 75.048 93.7299 75.8197 93.3681 76.6116C92.707 78.2042 92.104 79.8169 91.5591 81.4498C90.4233 84.7832 89.6265 88.223 89.1806 91.7167V91.8979V92.2469C89.1638 92.4881 89.1638 92.7303 89.1806 92.9716C89.2076 93.4588 89.2931 93.9409 89.4352 94.4076C89.6993 95.2304 90.1279 95.9906 90.6948 96.6422C91.5286 97.5519 92.5295 98.2923 93.6428 98.8231C95.3576 99.6332 97.1708 100.215 99.0363 100.554C102.433 101.201 105.891 101.471 109.348 101.36L109.656 97.6353C106.545 96.9591 103.476 96.1032 100.463 95.0719Z" fill="#7F3E3B"/>
<path d="M111.128 238.217C110.676 238.206 110.227 238.148 109.788 238.042C109.767 238.035 109.749 238.024 109.734 238.009C109.719 237.994 109.707 237.975 109.7 237.955C109.697 237.934 109.7 237.912 109.708 237.892C109.717 237.872 109.73 237.854 109.747 237.841C109.908 237.727 111.315 236.768 111.918 237.01C111.987 237.036 112.047 237.079 112.094 237.136C112.141 237.192 112.173 237.259 112.186 237.331C112.216 237.439 112.217 237.553 112.192 237.662C112.166 237.771 112.113 237.872 112.039 237.955C111.777 238.15 111.453 238.244 111.128 238.217ZM110.109 237.881C111 238.056 111.664 238.029 111.898 237.801C111.946 237.743 111.979 237.674 111.993 237.6C112.007 237.526 112.002 237.45 111.978 237.378C111.972 237.343 111.958 237.31 111.935 237.282C111.913 237.254 111.884 237.231 111.851 237.217C111.496 237.077 110.612 237.546 110.109 237.881Z" fill="#6776FF"/>
<path d="M109.824 238.045C109.807 238.051 109.788 238.051 109.771 238.045C109.754 238.037 109.74 238.024 109.729 238.009C109.718 237.994 109.712 237.976 109.71 237.958C109.71 237.897 109.596 236.468 110.099 235.985C110.162 235.923 110.238 235.876 110.321 235.848C110.405 235.82 110.494 235.812 110.581 235.824C110.679 235.827 110.773 235.864 110.849 235.927C110.924 235.99 110.976 236.076 110.997 236.173C111.111 236.716 110.374 237.75 109.878 238.045H109.824ZM110.494 236.032C110.448 236.031 110.403 236.039 110.36 236.057C110.317 236.074 110.279 236.1 110.246 236.132C109.97 236.614 109.855 237.171 109.918 237.723C110.327 237.374 110.856 236.582 110.776 236.206C110.776 236.132 110.722 236.052 110.548 236.032H110.494Z" fill="#6776FF"/>
<path d="M98.912 235.392C98.026 235.256 97.1802 234.929 96.433 234.433C96.411 234.423 96.3935 234.405 96.3837 234.383C96.3738 234.361 96.3723 234.336 96.3794 234.312C96.3858 234.29 96.3987 234.269 96.4166 234.254C96.4345 234.238 96.4565 234.228 96.4799 234.225C96.7479 234.225 99.0996 234.051 99.5418 234.587C99.5814 234.631 99.609 234.684 99.6219 234.742C99.6348 234.8 99.6326 234.86 99.6155 234.916C99.5949 235.008 99.5525 235.094 99.4919 235.166C99.4313 235.239 99.3542 235.296 99.2671 235.332C99.1533 235.373 99.0331 235.394 98.912 235.392ZM96.8685 234.427C97.9472 235.023 98.7981 235.285 99.18 235.097C99.2353 235.075 99.2843 235.039 99.3228 234.994C99.3613 234.948 99.3882 234.894 99.4011 234.836C99.4129 234.815 99.4191 234.792 99.4191 234.769C99.4191 234.745 99.4129 234.722 99.4011 234.701C99.1264 234.433 97.8266 234.386 96.8685 234.427Z" fill="#6776FF"/>
<path d="M96.4814 234.454C96.4625 234.453 96.4441 234.448 96.4277 234.439C96.4113 234.429 96.3975 234.416 96.3876 234.4C96.3793 234.383 96.375 234.365 96.375 234.346C96.375 234.328 96.3793 234.309 96.3876 234.293C96.4278 234.212 97.3189 232.395 98.4646 232.951C98.7795 233.106 98.8063 233.287 98.7795 233.414C98.6656 233.957 97.1782 234.447 96.4948 234.467L96.4814 234.454ZM98.0291 233.066C97.4127 233.066 96.8834 233.85 96.6891 234.212C97.406 234.125 98.5048 233.676 98.5718 233.354C98.5718 233.287 98.5182 233.213 98.3708 233.139C98.2645 233.087 98.1472 233.062 98.0291 233.066Z" fill="#6776FF"/>
<path d="M108.878 97.5806L112.958 96.46L113.514 101.62C113.514 101.62 109.494 102.828 108.496 100.714L108.878 97.5806Z" fill="#7F3E3B"/>
<path d="M108.809 97.6886C109.663 96.7606 110.164 95.5607 110.222 94.2998L111.267 94.8702C111.267 94.8702 111.475 97.1853 111.066 97.8496C110.658 98.514 108.809 97.6886 108.809 97.6886Z" fill="#7F3E3B"/>
<path d="M114.869 96.9699L114.621 101.62H113.516L112.953 96.46L114.869 96.9699Z" fill="#7F3E3B"/>
<path d="M93.8672 223.899L101.284 230.891L103.676 228.321L95.1871 220.577L93.8672 223.899Z" fill="#6776FF"/>
<path opacity="0.1" d="M93.8672 223.899L101.284 230.891L103.676 228.321L95.1871 220.577L93.8672 223.899Z" fill="black"/>
<path d="M117.184 111.394C117.184 111.394 117.653 149.409 116.849 163.655C115.972 179.25 111.55 230.927 111.55 230.927H102.451C102.451 230.927 102.726 180.512 102.176 165.071C101.58 148.295 100.039 111.388 100.039 111.388L117.184 111.394Z" fill="#6776FF"/>
<path opacity="0.5" d="M117.184 111.394C117.184 111.394 117.653 149.409 116.849 163.655C115.972 179.25 111.55 230.927 111.55 230.927H102.451C102.451 230.927 102.726 180.512 102.176 165.071C101.58 148.295 100.039 111.388 100.039 111.388L117.184 111.394Z" fill="black"/>
<path d="M102.093 230.926H111.922L112.464 227.464L101.617 228.007L102.093 230.926Z" fill="#6776FF"/>
<path opacity="0.1" d="M102.093 230.926H111.922L112.464 227.464L101.617 228.007L102.093 230.926Z" fill="black"/>
<path d="M97.0173 68.1379C92.3273 68.809 87.5234 86.0615 87.5234 86.0615L98.8263 90.3695C98.8263 90.3695 101.667 82.9881 103.61 77.197C105.647 71.1643 102.036 67.3998 97.0173 68.1379Z" fill="#6776FF"/>
<path opacity="0.5" d="M97.0173 68.1379C92.3273 68.809 87.5234 86.0615 87.5234 86.0615L98.8263 90.3695C98.8263 90.3695 101.667 82.9881 103.61 77.197C105.647 71.1643 102.036 67.3998 97.0173 68.1379Z" fill="white"/>
</svg>
