<svg width="208" height="182" viewBox="0 0 208 182" fill="none" xmlns="http://www.w3.org/2000/svg">
<g clip-path="url(#clip0_762_19538)">
<path d="M110.873 -17.5615C107.979 -19.1757 104.324 -18.1384 102.71 -15.2445L84.1074 18.1045C83.2903 19.5693 83.1236 21.3093 83.6479 22.9027L95.1914 57.9859C96.2881 61.3191 94.3029 64.8779 90.8906 65.6959L54.9746 74.3055C53.3435 74.6965 51.9505 75.7525 51.1334 77.2173L32.5309 110.566C30.9166 113.46 31.954 117.115 34.8479 118.729L113.192 162.43C116.086 164.045 119.74 163.007 121.355 160.113L139.957 126.765C140.774 125.3 140.941 123.56 140.417 121.966L128.873 86.8831C127.777 83.55 129.762 79.9911 133.174 79.1731L169.09 70.5635C170.721 70.1725 172.114 69.1166 172.931 67.6517L191.534 34.3028C193.148 31.4088 192.111 27.7542 189.217 26.14L110.873 -17.5615Z" fill="#F7F7FF"/>
</g>
<defs>
<clipPath id="clip0_762_19538">
<rect x="76.0249" y="-37" width="169.514" height="156.061" transform="rotate(29.1534 76.0249 -37)" fill="white"/>
</clipPath>
</defs>
</svg>
