<svg width="68" height="32" viewBox="0 0 68 32" fill="none" xmlns="http://www.w3.org/2000/svg">
<path d="M0 16C0 7.16344 7.16344 0 16 0H52C60.8366 0 68 7.16344 68 16C68 24.8366 60.8366 32 52 32H16C7.16344 32 0 24.8366 0 16Z" fill="#6776FF"/>
<path d="M41.293 9.63605C41.1055 9.82358 41.0002 10.0779 41.0002 10.343C41.0002 10.6082 41.1055 10.8625 41.293 11.05L46.243 16L41.293 20.95C41.1109 21.1386 41.0101 21.3913 41.0123 21.6534C41.0146 21.9156 41.1198 22.1665 41.3052 22.3519C41.4906 22.5373 41.7414 22.6424 42.0036 22.6447C42.2658 22.647 42.5184 22.5462 42.707 22.364L48.364 16.707C48.5515 16.5195 48.6568 16.2652 48.6568 16C48.6568 15.7349 48.5515 15.4806 48.364 15.293L42.707 9.63605C42.5195 9.44858 42.2652 9.34326 42 9.34326C41.7348 9.34326 41.4805 9.44858 41.293 9.63605Z" fill="white"/>
</svg>
