<svg width="19" height="18" viewBox="0 0 19 18" fill="none" xmlns="http://www.w3.org/2000/svg">
<path d="M14.802 17.4959L14.7895 17.4953L14.777 17.4954C14.7049 17.4956 14.6338 17.4788 14.5697 17.4465C14.5692 17.4462 14.5686 17.446 14.5681 17.4457L9.71665 14.9194L9.48572 14.7992L9.25479 14.9194L4.39942 17.4477L4.39862 17.4481C4.32356 17.4874 4.23872 17.505 4.15383 17.4988C4.06893 17.4926 3.98774 17.4628 3.91945 17.4131C3.85118 17.3635 3.79864 17.2961 3.76743 17.2188C3.73623 17.1415 3.72749 17.0572 3.7421 16.9754L3.24989 16.8875L3.74211 16.9754L4.69414 11.6442L4.741 11.3818L4.54925 11.1966L0.629802 7.41178C0.572923 7.35462 0.5328 7.28355 0.513342 7.20614C0.494046 7.12937 0.49571 7.04892 0.518142 6.97302C0.544382 6.89577 0.591591 6.8268 0.654994 6.77386C0.719642 6.71988 0.798494 6.68478 0.882675 6.67288L0.884353 6.67264L6.31095 5.8867L6.57166 5.84894L6.68794 5.61256L9.07755 0.754871L9.07843 0.753064C9.11512 0.677717 9.17259 0.613783 9.24462 0.568879C9.31667 0.52396 9.40024 0.5 9.48572 0.5C9.5712 0.5 9.65476 0.52396 9.72682 0.568879C9.79884 0.613783 9.85632 0.677717 9.89301 0.753064L9.89299 0.753073L9.89512 0.757334L12.3133 5.60556L12.4301 5.83972L12.689 5.87723L18.1156 6.66317L18.1173 6.66341C18.2015 6.67531 18.2804 6.71041 18.345 6.76439C18.4084 6.81733 18.4556 6.8863 18.4819 6.96354C18.5043 7.03944 18.506 7.11989 18.4867 7.19667C18.4672 7.27409 18.4271 7.34517 18.3702 7.40233L14.4507 11.1872L14.259 11.3723L14.3059 11.6347L15.2579 16.9659L15.2579 16.9659L15.259 16.972C15.275 17.0553 15.2666 17.1414 15.2349 17.2202C15.2035 17.2983 15.1504 17.3663 15.0813 17.4162C14.9998 17.4723 14.9016 17.5005 14.802 17.4959Z" fill="white" stroke="#FFA319"/>
</svg>
