<svg width="283" height="211" viewBox="0 0 283 211" fill="none" xmlns="http://www.w3.org/2000/svg">
<path d="M283 185.424H0V185.565H283V185.424Z" fill="#EBEBEB"/>
<path d="M134.142 160.164H24.8532C23.997 160.163 23.1764 159.821 22.5715 159.215C21.9667 158.609 21.627 157.787 21.627 156.93V3.20555C21.6344 2.35377 21.9774 1.53933 22.5815 0.939135C23.1855 0.338938 24.0019 0.00145914 24.8532 0H134.142C134.999 0 135.821 0.34071 136.427 0.947178C137.033 1.55365 137.374 2.37619 137.374 3.23387V156.93C137.374 157.788 137.033 158.611 136.427 159.217C135.821 159.824 134.999 160.164 134.142 160.164ZM24.8532 0.113271C24.0345 0.114771 23.2499 0.441225 22.6716 1.02098C22.0933 1.60073 21.7685 2.38641 21.7685 3.20555V156.93C21.7685 157.75 22.0933 158.535 22.6716 159.115C23.2499 159.695 24.0345 160.021 24.8532 160.023H134.142C134.961 160.021 135.746 159.695 136.326 159.115C136.905 158.536 137.231 157.75 137.232 156.93V3.20555C137.231 2.38589 136.905 1.60022 136.326 1.02063C135.746 0.441041 134.961 0.114768 134.142 0.113271H24.8532Z" fill="#EBEBEB"/>
<path d="M256.573 160.164H147.279C146.422 160.163 145.601 159.822 144.995 159.215C144.389 158.609 144.048 157.788 144.047 156.93V3.20555C144.056 2.35326 144.4 1.53882 145.005 0.93878C145.61 0.33874 146.427 0.00144323 147.279 0H256.573C257.424 0.00294758 258.239 0.341085 258.841 0.941122C259.444 1.54116 259.786 2.35475 259.794 3.20555V156.93C259.794 157.786 259.455 158.607 258.851 159.213C258.248 159.819 257.429 160.161 256.573 160.164ZM147.279 0.113271C146.46 0.114768 145.674 0.441041 145.095 1.02063C144.516 1.60022 144.19 2.38589 144.188 3.20555V156.93C144.19 157.75 144.516 158.536 145.095 159.115C145.674 159.695 146.46 160.021 147.279 160.023H256.573C257.392 160.021 258.178 159.695 258.757 159.115C259.336 158.536 259.662 157.75 259.664 156.93V3.20555C259.662 2.38589 259.336 1.60022 258.757 1.02063C258.178 0.441041 257.392 0.114768 256.573 0.113271H147.279Z" fill="#EBEBEB"/>
<path d="M43.7414 190.815H29.0254V190.957H43.7414V190.815Z" fill="#EBEBEB"/>
<path d="M107.641 189.28H82.1543V189.422H107.641V189.28Z" fill="#EBEBEB"/>
<path d="M78.7138 196.077H44.3066V196.218H78.7138V196.077Z" fill="#EBEBEB"/>
<path d="M253.976 195.125H243.092V195.267H253.976V195.125Z" fill="#EBEBEB"/>
<path d="M238.048 195.125H206.754V195.267H238.048V195.125Z" fill="#EBEBEB"/>
<path d="M187.64 192.735H145.49V192.877H187.64V192.735Z" fill="#EBEBEB"/>
<path d="M247.884 112.03H227.684V185.424H247.884V112.03Z" fill="#E6E6E6"/>
<path d="M227.685 112.03H153.029V185.424H227.685V112.03Z" fill="#F5F5F5"/>
<path d="M223.779 185.424V115.944H156.946V185.424H223.779Z" fill="#E6E6E6"/>
<path d="M223.772 115.938H184.656V185.418H223.772V115.938Z" fill="#E0E0E0"/>
<path d="M225.076 138.394V114.737H154.824V138.394H225.076Z" fill="#F5F5F5"/>
<path d="M219.772 135.873H160.121V117.235H219.772V135.873ZM161.31 134.695H218.6V118.43H161.31V134.695Z" fill="white"/>
<path d="M211.316 93.1365H192.904V111.985H211.316V93.1365Z" fill="#E6E6E6"/>
<path d="M168.708 111.985H192.904V93.1366H168.708V111.985Z" fill="#F0F0F0"/>
<g style="mix-blend-mode:multiply" opacity="0.7">
<path d="M211.316 90.8145H168.707V93.6405H211.316V90.8145Z" fill="#E6E6E6"/>
</g>
<path d="M212.245 90.5258H192.904V93.1423H212.245V90.5258Z" fill="#E6E6E6"/>
<path d="M167.774 93.1365H192.898V90.5199H167.774V93.1365Z" fill="#F0F0F0"/>
<path d="M233.395 103.591H218.334V111.985H233.395V103.591Z" fill="#EBEBEB"/>
<path d="M198.541 111.979H218.334V103.586H198.541V111.979Z" fill="#F5F5F5"/>
<g style="mix-blend-mode:multiply" opacity="0.7">
<path d="M233.389 101.688H198.535V104.005H233.389V101.688Z" fill="#E6E6E6"/>
</g>
<path d="M234.154 101.451H218.334V103.591H234.154V101.451Z" fill="#EBEBEB"/>
<path d="M197.777 103.586H218.334V101.445H197.777V103.586Z" fill="#F5F5F5"/>
<path d="M173.569 88.4641L231.76 88.4641V11.2024L173.569 11.2024V88.4641Z" fill="#E6E6E6"/>
<path d="M169.149 88.4641L229.824 88.4641V11.2024L169.149 11.2024V88.4641Z" fill="#F5F5F5"/>
<path d="M223.061 83.9446H175.924C175.324 83.9446 174.748 83.706 174.323 83.2811C173.899 82.8563 173.66 82.2801 173.66 81.6792V17.976C173.66 17.3752 173.899 16.7989 174.323 16.3741C174.748 15.9493 175.324 15.7106 175.924 15.7106H223.061C223.661 15.7106 224.237 15.9493 224.662 16.3741C225.086 16.7989 225.325 17.3752 225.325 17.976V81.6849C225.323 82.2847 225.084 82.8595 224.66 83.2831C224.235 83.7067 223.66 83.9446 223.061 83.9446ZM175.924 16.8546C175.624 16.8546 175.336 16.9739 175.124 17.1864C174.911 17.3988 174.792 17.6869 174.792 17.9873V81.6849C174.792 81.9853 174.911 82.2734 175.124 82.4858C175.336 82.6983 175.624 82.8176 175.924 82.8176H223.061C223.361 82.8176 223.649 82.6983 223.861 82.4858C224.073 82.2734 224.193 81.9853 224.193 81.6849V17.976C224.193 17.6756 224.073 17.3875 223.861 17.175C223.649 16.9626 223.361 16.8433 223.061 16.8433L175.924 16.8546Z" fill="white"/>
<path d="M37.0326 175.371H119.188L119.187 13.1336H37.0326L37.0326 175.371Z" fill="#E6E6E6"/>
<path d="M35.2171 175.371H118.34L118.34 13.1336H35.2171L35.2171 175.371Z" fill="#F5F5F5"/>
<path d="M125.528 11.7395H30.6942C30.5075 11.7336 30.3305 11.6553 30.2005 11.5211C30.0706 11.387 29.998 11.2075 29.998 11.0207C29.998 10.8301 30.0738 10.6472 30.2086 10.5124C30.3434 10.3776 30.5262 10.3019 30.7169 10.3019H125.528C125.718 10.3019 125.901 10.3776 126.036 10.5124C126.171 10.6472 126.246 10.8301 126.246 11.0207C126.246 11.1151 126.228 11.2086 126.192 11.2958C126.156 11.383 126.103 11.4622 126.036 11.529C125.969 11.5957 125.89 11.6487 125.803 11.6848C125.715 11.7209 125.622 11.7395 125.528 11.7395Z" fill="#E6E6E6"/>
<path d="M37.0326 178.112H119.188V175.371H37.0326V178.112Z" fill="#E6E6E6"/>
<path d="M31.8541 178.112H110.992V175.371H31.8541V178.112Z" fill="#F5F5F5"/>
<path d="M115.787 172.063L115.787 16.4526L37.764 16.4526L37.764 172.063H115.787Z" fill="#FAFAFA"/>
<path d="M88.6862 172.058L82.6696 16.4526H71.8477L77.8642 172.058H88.6862Z" fill="white"/>
<path d="M74.8024 172.058L68.7858 16.4526H63.7598L69.7763 172.058H74.8024Z" fill="white"/>
<path d="M38.0859 80.4672L38.0859 16.005H37.7633L37.7633 80.4672H38.0859Z" fill="#E6E6E6"/>
<path opacity="0.4" d="M43.4339 8.11011H31.6328V166.19H43.4339V8.11011Z" fill="#E0E0E0"/>
<path opacity="0.4" d="M56.5882 8.11011H44.7871V166.19H56.5882V8.11011Z" fill="#E0E0E0"/>
<path opacity="0.4" d="M48.8109 9.526H37.0098V167.606H48.8109V9.526Z" fill="#E0E0E0"/>
<path opacity="0.4" d="M109.633 8.11011H97.832V166.19H109.633V8.11011Z" fill="#E0E0E0"/>
<path opacity="0.4" d="M122.793 8.11011H110.992V166.19H122.793V8.11011Z" fill="#E0E0E0"/>
<path opacity="0.4" d="M115.01 9.526H103.209V167.606H115.01V9.526Z" fill="#E0E0E0"/>
<path d="M141.5 211C202.108 211 251.241 208.13 251.241 204.589C251.241 201.048 202.108 198.178 141.5 198.178C80.8909 198.178 31.7578 201.048 31.7578 204.589C31.7578 208.13 80.8909 211 141.5 211Z" fill="#F5F5F5"/>
<path d="M206.024 27.1849C201.457 25.1687 196.17 24.0303 193.521 28.3629C191.784 31.1947 190.918 36.9828 187.861 40.0977C187.604 40.3274 187.396 40.608 187.252 40.9218C187.108 41.2357 187.03 41.576 187.024 41.9214C187.021 41.9647 187.021 42.0083 187.024 42.0516C187.075 43.796 188.473 46.1294 192.067 46.9902C191.349 46.5251 190.736 45.9156 190.267 45.2005C191.747 45.8406 193.341 46.1758 194.953 46.186C199.187 46.1407 202.442 46.4635 204.383 47.4716C206.324 48.4797 209.856 44.0735 209.698 42.0686C210.462 43.2013 211.396 42.0686 211.696 39.2822C212.516 32.1178 210.19 26.2447 206.024 27.1849Z" fill="#263238"/>
<path d="M195.628 49.5785C194.896 49.5774 194.181 49.3592 193.573 48.9516C192.965 48.5439 192.491 47.965 192.212 47.2881C191.932 46.6112 191.86 45.8666 192.003 45.1485C192.147 44.4304 192.5 43.771 193.018 43.2535C193.536 42.7361 194.195 42.3839 194.913 42.2414C195.631 42.099 196.375 42.1726 197.051 42.4531C197.727 42.7336 198.305 43.2084 198.711 43.8174C199.118 44.4264 199.335 45.1423 199.335 45.8746C199.333 46.8575 198.942 47.7996 198.247 48.494C197.552 49.1885 196.61 49.5785 195.628 49.5785ZM195.628 42.4425C194.949 42.4425 194.286 42.6438 193.722 43.0209C193.158 43.398 192.718 43.9341 192.459 44.5612C192.199 45.1883 192.131 45.8784 192.264 46.5442C192.396 47.2099 192.723 47.8215 193.202 48.3014C193.682 48.7814 194.293 49.1083 194.958 49.2407C195.624 49.3732 196.313 49.3052 196.94 49.0454C197.567 48.7857 198.103 48.3458 198.48 47.7814C198.856 47.217 199.058 46.5534 199.058 45.8746C199.058 44.9643 198.696 44.0914 198.053 43.4477C197.41 42.8041 196.537 42.4425 195.628 42.4425Z" fill="#6776FF"/>
<path d="M191.802 62.4573C190.393 65.2296 188.817 67.9134 187.081 70.4938C186.206 71.8186 185.261 73.0966 184.251 74.3223C183.185 75.6793 181.953 76.897 180.584 77.947C180.323 78.1444 180.044 78.3169 179.752 78.4624C179.393 78.6417 179.012 78.7731 178.62 78.8531C177.848 78.9977 177.052 78.9392 176.31 78.6832C175.266 78.287 174.331 77.6484 173.582 76.8199C172.978 76.1782 172.435 75.4825 171.958 74.7414C171.499 74.0392 171.092 73.3369 170.718 72.6289C169.291 69.8396 168.153 66.9114 167.322 63.8901L169.796 62.9613C171.103 65.5783 172.566 68.1145 174.177 70.5561C174.9 71.669 175.753 72.6919 176.718 73.6031C176.999 73.8889 177.344 74.1027 177.725 74.226C177.793 74.226 177.725 74.1864 177.646 74.1977C177.567 74.2091 177.578 74.1977 177.573 74.1977C177.567 74.1977 177.539 74.1977 177.68 74.0958C178.637 73.2183 179.496 72.2404 180.244 71.1791C181.076 70.0464 181.874 68.84 182.655 67.6167C183.436 66.3934 184.172 65.1134 184.919 63.8448C185.666 62.5762 186.374 61.2623 187.059 60.0106L191.802 62.4573Z" fill="#B55B52"/>
<path d="M190.235 55.0097C188.016 54.9304 184.088 63.0179 184.088 63.0179L188.316 72.493C188.316 72.493 196.608 61.5737 195.674 58.8383C194.706 55.9782 193.472 55.123 190.235 55.0097Z" fill="#6776FF"/>
<path opacity="0.6" d="M190.235 55.0097C188.016 54.9304 184.088 63.0179 184.088 63.0179L188.316 72.493C188.316 72.493 196.608 61.5737 195.674 58.8383C194.706 55.9782 193.472 55.123 190.235 55.0097Z" fill="white"/>
<path d="M169.439 59.1611L170.096 65.0115L168.556 66.0876C166.445 65.6006 165.562 62.361 165.562 62.361L164.611 60.2825C164.408 59.834 164.345 59.3338 164.433 58.849C164.521 58.3642 164.755 57.9178 165.104 57.5697L165.534 57.1449C165.732 56.9433 165.972 56.7877 166.236 56.6892C166.501 56.5907 166.784 56.5516 167.066 56.5749C167.347 56.5981 167.62 56.6831 167.865 56.8237C168.11 56.9643 168.321 57.1571 168.483 57.3885L169.1 58.272C169.286 58.5351 169.403 58.8409 169.439 59.1611Z" fill="#B55B52"/>
<path d="M200.965 200.183H195.747L195.271 188.085H200.496L200.965 200.183Z" fill="#B55B52"/>
<path d="M195.272 199.577H201.142C201.239 199.575 201.333 199.611 201.404 199.678C201.474 199.745 201.517 199.836 201.521 199.933L201.719 204.577C201.716 204.823 201.617 205.057 201.444 205.231C201.271 205.405 201.036 205.503 200.791 205.506C198.748 205.472 197.774 205.353 195.193 205.353C193.608 205.353 189.958 205.518 187.767 205.518C185.577 205.518 185.673 203.348 186.607 203.15C190.79 202.272 192.872 201.06 194.367 199.899C194.625 199.695 194.943 199.582 195.272 199.577Z" fill="#263238"/>
<g opacity="0.2">
<path d="M195.271 188.091L195.515 194.327H200.739L200.496 188.091H195.271Z" fill="black"/>
</g>
<path d="M188.14 57.598C188.027 60.8999 188.598 68.6136 192.068 86.5783L213.265 85.9439C212.699 77.9244 212.506 72.7593 215.382 57.7C215.471 57.2358 215.464 56.7581 215.361 56.2967C215.258 55.8354 215.061 55.4003 214.782 55.0187C214.503 54.637 214.148 54.317 213.74 54.0787C213.332 53.8404 212.879 53.6889 212.41 53.6336C210.854 53.4523 208.957 53.2824 207.044 53.2485C203.834 53.1145 200.619 53.211 197.422 53.5373C194.972 53.8318 192.328 54.3415 190.591 54.7097C189.918 54.8464 189.31 55.2055 188.866 55.7293C188.421 56.2532 188.166 56.9113 188.14 57.598Z" fill="#6776FF"/>
<path opacity="0.7" d="M188.14 57.598C188.027 60.8999 188.598 68.6136 192.068 86.5783L213.265 85.9439C212.699 77.9244 212.506 72.7593 215.382 57.7C215.471 57.2358 215.464 56.7581 215.361 56.2967C215.258 55.8354 215.061 55.4003 214.782 55.0187C214.503 54.637 214.148 54.317 213.74 54.0787C213.332 53.8404 212.879 53.6889 212.41 53.6336C210.854 53.4523 208.957 53.2824 207.044 53.2485C203.834 53.1145 200.619 53.211 197.422 53.5373C194.972 53.8318 192.328 54.3415 190.591 54.7097C189.918 54.8464 189.31 55.2055 188.866 55.7293C188.421 56.2532 188.166 56.9113 188.14 57.598Z" fill="white"/>
<path d="M205.766 42.4312C205.251 45.5518 204.815 51.2436 207.045 53.2485C205.37 55.8911 202.73 57.7749 199.687 58.4986C194.802 56.0179 197.423 53.5373 197.423 53.5373C200.853 52.6085 200.689 50.0486 200.015 47.6586L205.766 42.4312Z" fill="#B55B52"/>
<path d="M199.691 58.4977L200.325 57.2582L203.716 58.0279L199.691 58.4977Z" fill="#6776FF"/>
<path d="M200.326 57.2582C201.413 56.7598 206.456 53.4749 206.654 52.4498C207.636 52.5864 208.597 52.8412 209.518 53.2087C209.518 53.2087 208.612 57.2582 203.717 60.005C203.375 59.3349 202.897 58.744 202.313 58.2708C201.729 57.7976 201.052 57.4526 200.326 57.2582Z" fill="white"/>
<path d="M199.692 58.4977L199.409 57.2582L197.326 57.4053L199.692 58.4977Z" fill="#6776FF"/>
<path d="M199.409 57.2583C197.711 56.1256 198.345 53.8035 198.509 52.7784C197.66 52.8647 196.827 53.0706 196.035 53.3901C196.035 53.3901 193.483 55.7348 195.956 60.0277C196.821 58.7953 198.018 57.8346 199.409 57.2583Z" fill="white"/>
<path opacity="0.2" d="M203.423 44.5663L200.027 47.6529C200.195 48.2075 200.313 48.7762 200.378 49.352C201.691 49.1254 203.463 47.6189 203.559 46.237C203.615 45.6765 203.569 45.1105 203.423 44.5663Z" fill="black"/>
<path d="M207.412 35.8161C207.186 40.9926 207.197 43.1787 204.633 45.8915C200.773 49.9522 194.445 48.542 193.138 43.3996C191.949 38.7668 192.526 31.0757 197.552 28.9293C198.658 28.4517 199.868 28.2647 201.066 28.3863C202.265 28.5078 203.412 28.9337 204.4 29.6236C205.388 30.3135 206.183 31.2445 206.71 32.3283C207.237 33.4121 207.479 34.6126 207.412 35.8161Z" fill="#B55B52"/>
<path d="M203.716 30.3395C201.978 33.2562 199.505 29.5466 197.535 31.7667C195.956 33.5451 193.369 31.6761 191.875 36.7506C192.396 32.3897 193.126 28.5329 197.58 27.2529C200.325 26.46 205.578 26.1598 203.716 30.3395Z" fill="#263238"/>
<path d="M204.605 28.3176C203.082 29.3767 201.52 30.9002 201.707 32.7635C201.893 34.6268 204.565 33.8113 204.922 35.1195C205.278 36.4278 203.325 39.1803 206.161 39.4521C209.399 37.6455 210.304 37.249 209.716 34.4739C209.127 31.6988 207.078 27.9495 204.605 28.3176Z" fill="#263238"/>
<path d="M192.022 86.5783C192.022 86.5783 189.973 125.164 189.865 141.022C189.758 157.525 194.393 193.126 194.393 193.126H201.451C201.451 193.126 200.11 157.151 201.196 140.874C202.379 123.131 206.506 86.1195 206.506 86.1195L192.022 86.5783Z" fill="#6776FF"/>
<path d="M202.046 193.37H193.76L193.42 190.725L202.731 190.402L202.046 193.37Z" fill="#263238"/>
<path opacity="0.2" d="M205.018 99.9725C204.259 99.021 203.257 99.5194 201.95 102.238C197.49 111.498 199.754 126.262 201.661 134.769C202.522 124.167 203.937 110.218 205.018 99.9725Z" fill="black"/>
<path d="M198.668 37.7978C198.668 38.2167 198.459 38.5619 198.181 38.5676C197.904 38.5732 197.678 38.2336 197.672 37.8148C197.666 37.396 197.881 37.045 198.153 37.0394C198.425 37.0337 198.668 37.379 198.668 37.7978Z" fill="#263238"/>
<path d="M193.924 37.7583C193.924 38.1771 193.709 38.5224 193.437 38.528C193.166 38.5337 192.934 38.1941 192.922 37.7753C192.911 37.3564 193.137 37.0055 193.409 37.0055C193.681 37.0055 193.913 37.3338 193.924 37.7583Z" fill="#263238"/>
<path d="M193.534 37.0223L192.516 36.7506C192.516 36.7506 193.048 37.5317 193.534 37.0223Z" fill="#263238"/>
<path d="M195.576 38.1438C195.219 39.1132 194.73 40.0282 194.121 40.8623C194.338 41.0122 194.586 41.1128 194.846 41.1568C195.106 41.2008 195.372 41.1873 195.627 41.1171L195.576 38.1438Z" fill="#A02724"/>
<path d="M198.159 42.5047C197.954 42.5414 197.745 42.5603 197.537 42.5613C197.521 42.5621 197.504 42.5596 197.489 42.5539C197.474 42.5483 197.461 42.5397 197.449 42.5285C197.437 42.5174 197.428 42.504 197.422 42.4892C197.415 42.4744 197.412 42.4585 197.412 42.4424C197.412 42.4103 197.424 42.3794 197.447 42.3562C197.469 42.333 197.499 42.3192 197.531 42.3178C198.056 42.3202 198.573 42.199 199.043 41.9638C199.512 41.7286 199.919 41.3862 200.231 40.9642C200.25 40.9412 200.277 40.9259 200.307 40.9211C200.336 40.9164 200.367 40.9225 200.392 40.9383C200.418 40.9542 200.436 40.9787 200.445 41.0074C200.454 41.0361 200.452 41.067 200.44 41.0945C200.172 41.469 199.833 41.7865 199.441 42.0285C199.05 42.2706 198.614 42.4325 198.159 42.5047Z" fill="#263238"/>
<path d="M208.883 40.6923C208.679 41.1444 208.387 41.5516 208.024 41.8908C207.662 42.2299 207.237 42.4943 206.772 42.6688C205.527 43.1276 204.797 42.0402 205.074 40.8055C205.306 39.6728 206.206 38.121 207.525 38.1947C207.806 38.2175 208.077 38.31 208.313 38.4639C208.55 38.6178 208.744 38.8281 208.879 39.076C209.014 39.3238 209.085 39.6014 209.086 39.8836C209.086 40.1658 209.017 40.4437 208.883 40.6923Z" fill="#B55B52"/>
<path d="M206.7 49.5785C205.968 49.5785 205.252 49.3613 204.643 48.9543C204.034 48.5473 203.56 47.9688 203.28 47.292C203 46.6152 202.926 45.8705 203.069 45.152C203.212 44.4335 203.565 43.7735 204.082 43.2555C204.6 42.7375 205.259 42.3847 205.978 42.2418C206.696 42.0989 207.44 42.1723 208.116 42.4526C208.793 42.7329 209.371 43.2077 209.777 43.8168C210.184 44.4259 210.401 45.142 210.401 45.8746C210.4 46.8565 210.009 47.7977 209.315 48.492C208.622 49.1863 207.681 49.577 206.7 49.5785ZM206.7 42.4425C206.021 42.4414 205.357 42.6417 204.793 43.0182C204.228 43.3946 203.787 43.9302 203.527 44.5573C203.266 45.1843 203.198 45.8746 203.329 46.5407C203.461 47.2068 203.787 47.8189 204.267 48.2994C204.746 48.78 205.357 49.1074 206.023 49.2403C206.688 49.3732 207.378 49.3056 208.005 49.046C208.632 48.7864 209.168 48.3465 209.546 47.782C209.923 47.2174 210.124 46.5536 210.124 45.8746C210.122 44.9658 209.761 44.0945 209.12 43.4514C208.478 42.8082 207.608 42.4455 206.7 42.4425Z" fill="#6776FF"/>
<path d="M200.547 35.5216C200.496 35.5299 200.443 35.5218 200.396 35.4985C200.349 35.4751 200.311 35.4376 200.287 35.3913C199.755 34.3775 198.295 34.1793 198.278 34.1793C198.216 34.1667 198.161 34.1309 198.124 34.0792C198.087 34.0275 198.072 33.9638 198.08 33.9011C198.089 33.8383 198.121 33.7812 198.171 33.7413C198.22 33.7015 198.282 33.6819 198.346 33.6866C198.413 33.6866 200.072 33.9245 200.723 35.1591C200.739 35.1881 200.748 35.2199 200.752 35.2527C200.755 35.2855 200.752 35.3187 200.743 35.3503C200.733 35.3819 200.718 35.4114 200.697 35.4369C200.676 35.4624 200.65 35.4835 200.621 35.4989L200.547 35.5216Z" fill="#263238"/>
<path d="M192.442 35.1132C192.4 35.1217 192.356 35.1189 192.315 35.1049C192.275 35.091 192.238 35.0665 192.21 35.034C192.188 35.0094 192.172 34.9806 192.161 34.9494C192.151 34.9182 192.147 34.8852 192.149 34.8524C192.152 34.8196 192.161 34.7877 192.176 34.7586C192.192 34.7295 192.213 34.7038 192.238 34.683C192.531 34.4213 192.882 34.2334 193.262 34.135C193.642 34.0365 194.04 34.0304 194.423 34.117C194.486 34.1367 194.539 34.1802 194.571 34.2383C194.603 34.2964 194.611 34.3646 194.593 34.4283C194.584 34.4593 194.569 34.4882 194.548 34.5133C194.528 34.5384 194.503 34.5591 194.475 34.5744C194.446 34.5897 194.415 34.5992 194.383 34.6023C194.351 34.6054 194.318 34.602 194.287 34.5925C193.983 34.5271 193.667 34.5356 193.367 34.6173C193.067 34.6991 192.79 34.8517 192.561 35.0623C192.526 35.0886 192.485 35.106 192.442 35.1132Z" fill="#263238"/>
<path d="M218.625 59.9031C219.576 62.6272 220.414 65.3457 221.172 68.1265C221.557 69.5141 221.925 70.913 222.236 72.3458C222.389 73.0651 222.542 73.79 222.672 74.5433C222.815 75.3467 222.91 76.1581 222.955 76.9729V77.3297V77.7488C222.955 77.998 222.921 78.1509 222.899 78.3605C222.865 78.7513 222.814 79.1081 222.763 79.4932C222.661 80.2238 222.542 80.9374 222.423 81.6453C222.185 83.0669 221.902 84.4771 221.619 85.8646C221.053 88.6567 220.38 91.4262 219.621 94.1843L217.012 93.7539C217.165 90.9222 217.38 88.0904 217.606 85.2586L217.946 81.062C217.997 80.3654 218.042 79.6744 218.082 79.0005C218.082 78.6606 218.122 78.3208 218.127 78.0037C218.127 77.8564 218.127 77.6582 218.127 77.5563V77.443V77.2731C218.045 76.6786 217.931 76.0888 217.788 75.5061C217.64 74.8661 217.471 74.2148 217.29 73.5578C216.922 72.2439 216.531 70.913 216.129 69.5934L213.588 61.6191L218.625 59.9031Z" fill="#B55B52"/>
<path d="M212.411 53.6335C219.361 54.4944 220.737 62.9896 221.727 65.1248L214.907 70.8506C214.907 70.8506 210.588 63.5843 209.96 60.7639C209.309 57.8245 209.898 53.322 212.411 53.6335Z" fill="#6776FF"/>
<path opacity="0.7" d="M212.411 53.6335C219.361 54.4944 220.737 62.9896 221.727 65.1248L214.907 70.8506C214.907 70.8506 210.588 63.5843 209.96 60.7639C209.309 57.8245 209.898 53.322 212.411 53.6335Z" fill="white"/>
<path d="M193.211 200.488C192.775 200.531 192.337 200.416 191.977 200.165C191.9 200.087 191.844 199.99 191.815 199.884C191.786 199.778 191.786 199.666 191.813 199.559C191.825 199.489 191.853 199.423 191.896 199.366C191.938 199.309 191.993 199.263 192.057 199.231C192.73 198.88 194.705 199.944 194.926 200.069C194.948 200.081 194.965 200.099 194.975 200.122C194.986 200.144 194.988 200.169 194.983 200.193C194.975 200.22 194.961 200.244 194.941 200.263C194.921 200.282 194.896 200.295 194.87 200.301C194.323 200.412 193.768 200.475 193.211 200.488ZM192.39 199.407C192.309 199.402 192.227 199.418 192.153 199.452C192.127 199.464 192.105 199.483 192.089 199.505C192.072 199.528 192.061 199.554 192.057 199.582C192.039 199.651 192.039 199.724 192.057 199.793C192.074 199.863 192.109 199.926 192.158 199.978C192.447 200.267 193.29 200.312 194.479 200.12C193.83 199.762 193.123 199.522 192.39 199.412V199.407Z" fill="#6776FF"/>
<path d="M194.846 200.307H194.795C194.2 200.024 193.097 198.897 193.244 198.308C193.278 198.167 193.397 197.991 193.742 197.957C193.861 197.942 193.982 197.954 194.097 197.991C194.211 198.029 194.316 198.09 194.404 198.172C195.004 198.739 194.97 200.126 194.97 200.183C194.971 200.205 194.965 200.228 194.954 200.248C194.943 200.267 194.927 200.284 194.908 200.296C194.889 200.306 194.867 200.31 194.846 200.307ZM193.815 198.189H193.742C193.516 198.189 193.487 198.302 193.482 198.331C193.385 198.688 194.132 199.571 194.727 199.956C194.743 199.38 194.568 198.814 194.229 198.348C194.174 198.295 194.109 198.254 194.038 198.226C193.967 198.199 193.891 198.186 193.815 198.189Z" fill="#6776FF"/>
<path d="M232.627 198.212L227.522 199.311L223.271 187.853L228.377 186.755L232.627 198.212Z" fill="#B55B52"/>
<path d="M227.206 198.79L232.94 197.549C233.039 197.526 233.142 197.54 233.232 197.588C233.322 197.636 233.391 197.715 233.426 197.81L235.124 202.199C235.163 202.31 235.178 202.428 235.167 202.545C235.157 202.662 235.121 202.776 235.064 202.878C235.006 202.981 234.927 203.07 234.832 203.139C234.737 203.208 234.628 203.257 234.513 203.281C232.504 203.677 231.519 203.768 228.995 204.311C227.444 204.646 224.699 205.699 222.514 205.546C220.329 205.393 220.335 203.218 221.257 203.088C225.389 202.493 225.344 200.709 226.431 199.288C226.624 199.037 226.898 198.861 227.206 198.79Z" fill="#263238"/>
<path d="M226.583 199.831C226.153 199.963 225.691 199.947 225.27 199.786C225.173 199.731 225.09 199.653 225.029 199.56C224.968 199.466 224.93 199.359 224.919 199.248C224.906 199.181 224.911 199.111 224.934 199.046C224.957 198.982 224.997 198.924 225.049 198.88C225.615 198.405 227.879 198.999 228.123 199.073C228.148 199.077 228.172 199.091 228.189 199.11C228.206 199.129 228.217 199.154 228.219 199.18C228.22 199.206 228.214 199.231 228.201 199.253C228.188 199.276 228.169 199.293 228.145 199.305C227.642 199.527 227.119 199.704 226.583 199.831ZM225.451 198.976C225.373 198.989 225.3 199.02 225.236 199.067C225.216 199.085 225.2 199.108 225.191 199.134C225.182 199.16 225.18 199.187 225.185 199.214C225.191 199.287 225.215 199.358 225.254 199.42C225.294 199.482 225.348 199.534 225.412 199.571C225.785 199.78 226.64 199.65 227.727 199.22C226.981 199.005 226.203 198.922 225.429 198.976H225.451Z" fill="#6776FF"/>
<path d="M228.099 199.311C227.426 199.169 225.971 198.331 225.932 197.73C225.932 197.589 225.983 197.402 226.311 197.294C226.428 197.255 226.551 197.241 226.674 197.251C226.797 197.262 226.916 197.298 227.024 197.357C227.788 197.753 228.224 199.095 228.241 199.152C228.247 199.173 228.247 199.194 228.242 199.215C228.237 199.236 228.227 199.255 228.213 199.271C228.2 199.288 228.182 199.301 228.162 199.308C228.142 199.315 228.12 199.316 228.099 199.311ZM226.401 197.51H226.328C226.113 197.583 226.118 197.674 226.118 197.702C226.118 198.059 227.154 198.75 227.862 198.988C227.68 198.42 227.328 197.922 226.854 197.56C226.724 197.497 226.577 197.479 226.435 197.51H226.401Z" fill="#6776FF"/>
<g opacity="0.2">
<path d="M223.271 187.859L225.462 193.766L230.567 192.662L228.377 186.755L223.271 187.859Z" fill="black"/>
</g>
<path d="M213.264 85.9438C218.358 94.0314 216.926 123.776 217.73 139.657C222.507 153.742 230.935 191.348 230.935 191.348L224.035 192.837C224.035 192.837 208.816 155.514 205.657 139.572C202.171 121.975 197.926 85.9438 197.926 85.9438H213.264Z" fill="#6776FF"/>
<path d="M231.451 191.495L223.357 193.245L222.508 190.719L231.541 188.437L231.451 191.495Z" fill="#263238"/>
<path d="M198.288 37.062L197.27 36.7903C197.27 36.7903 197.802 37.5714 198.288 37.062Z" fill="#263238"/>
<path d="M213.542 84.6922L214.141 86.5725C214.221 86.7198 214.051 86.8727 213.802 86.884L191.988 87.5297C191.801 87.5297 191.637 87.4504 191.626 87.3258L191.377 85.4342C191.377 85.3039 191.518 85.1906 191.728 85.1793L213.191 84.545C213.257 84.5364 213.324 84.5455 213.386 84.5714C213.447 84.5973 213.501 84.6389 213.542 84.6922Z" fill="#263238"/>
<path d="M210.729 87.1786H211.295C211.408 87.1786 211.493 87.1163 211.488 87.0427L211.142 84.5847C211.142 84.5111 211.029 84.4544 210.916 84.4601H210.35C210.237 84.4601 210.152 84.5224 210.163 84.596L210.503 87.054C210.514 87.1276 210.616 87.1843 210.729 87.1786Z" fill="#6776FF"/>
<path d="M193.615 87.6882H194.181C194.294 87.6882 194.379 87.6259 194.368 87.5523L194.028 85.0943C194.028 85.0207 193.915 84.9641 193.802 84.9698H193.236C193.122 84.9698 193.038 85.0321 193.043 85.1057L193.389 87.5636C193.4 87.6373 193.502 87.6939 193.615 87.6882Z" fill="#6776FF"/>
<path d="M202.171 87.4335H202.737C202.85 87.4335 202.935 87.3712 202.923 87.2976L202.584 84.8396C202.584 84.766 202.471 84.7093 202.357 84.715H201.791C201.678 84.715 201.593 84.7773 201.605 84.8509L201.944 87.3089C201.955 87.3825 202.063 87.4391 202.171 87.4335Z" fill="#6776FF"/>
<path d="M217.346 92.8818L213.525 97.0331L218.829 97.2653C218.829 97.3276 220.555 94.4336 219.474 92.5306L217.346 92.8818Z" fill="#B55B52"/>
<path d="M214.918 101.377H216.458C216.797 101.374 217.126 101.263 217.397 101.059C217.668 100.855 217.866 100.569 217.963 100.244L218.841 97.271L213.537 97.0388L213.322 99.678C213.307 99.8964 213.338 100.115 213.411 100.321C213.485 100.528 213.6 100.716 213.75 100.876C213.9 101.035 214.081 101.162 214.282 101.248C214.483 101.334 214.699 101.378 214.918 101.377Z" fill="#B55B52"/>
<path d="M79.426 199.605L74.5527 199.531L74.8584 188.193L79.7316 188.267L79.426 199.605Z" fill="#FFC3BD"/>
<path d="M74.4959 198.965L79.822 199.05C79.9164 199.048 80.008 199.082 80.0784 199.145C80.1487 199.208 80.1926 199.296 80.2012 199.39L80.6653 203.751C80.6731 203.861 80.6581 203.971 80.6211 204.075C80.5842 204.179 80.5261 204.274 80.4506 204.354C80.3751 204.435 80.2838 204.498 80.1824 204.542C80.081 204.585 79.9718 204.607 79.8616 204.606C77.9428 204.543 75.1808 204.391 72.7639 204.351C69.9339 204.306 70.2169 204.425 66.9058 204.351C64.9022 204.323 64.5796 202.284 65.4399 202.085C69.351 201.31 69.7472 201.27 73.279 199.282C73.6499 199.071 74.0695 198.962 74.4959 198.965Z" fill="#263238"/>
<path d="M73.3703 53.5767C72.2383 57.1221 70.9988 60.6221 69.7026 64.1052C69.0574 65.8496 68.4008 67.5883 67.716 69.3213C67.0311 71.0543 66.3462 72.7874 65.6218 74.5204C65.4576 74.9338 65.2256 75.4322 65.0218 75.8966C64.818 76.361 64.5916 76.8085 64.3709 77.2502C64.1502 77.692 63.9181 78.1281 63.6804 78.5528C63.4427 78.9776 63.2163 79.408 62.9729 79.8215C62.0333 81.5205 60.9975 83.0836 59.9731 84.6694C57.8902 87.824 55.6828 90.8313 53.3056 93.765L50.2266 91.7488L55.1111 81.8717C56.7248 78.7238 58.1351 75.4758 59.3335 72.1474L62.7748 61.6642C63.9068 58.1642 65.1237 54.6585 66.3519 51.1924L73.3703 53.5767Z" fill="#FFC3BD"/>
<path d="M76.6474 51.3059C75.4531 55.2364 71.327 65.0512 71.327 65.0512L61.8691 58.4476C61.8691 58.4476 63.5332 52.0591 67.2744 49.0518C72.5835 44.7872 78.1869 46.237 76.6474 51.3059Z" fill="#263238"/>
<path opacity="0.2" d="M71.0221 54.5C67.5412 55.3439 64.9036 58.8553 65.3281 60.8658L71.3277 65.0512C71.3277 65.0512 72.6125 60.1183 74.8822 56.8334C73.5804 55.5025 72.0296 54.2565 71.0221 54.5Z" fill="black"/>
<path d="M69.4942 63.4313C69.8338 63.1768 70.1484 62.8904 70.4337 62.5761C70.4337 62.5761 63.4097 57.6772 61.6381 57.6262C61.3299 57.9997 61.1493 58.4622 61.123 58.9458C61.123 58.9458 67.2585 63.505 69.4942 63.4313Z" fill="#6776FF"/>
<path d="M51.9515 90.0782L47.248 93.1139L51.0119 97.2086C51.0119 97.2086 54.9739 95.3566 54.2664 91.7943L51.9515 90.0782Z" fill="#FFC3BD"/>
<path d="M45.2791 97.8655L47.5997 99.0435C47.79 99.1396 48.0037 99.18 48.216 99.16C48.4282 99.1399 48.6306 99.0603 48.7996 98.9303L51.0353 97.2312L47.2714 93.1365L44.8999 96.1948C44.8036 96.3257 44.7366 96.4758 44.7035 96.6349C44.6704 96.794 44.6718 96.9584 44.7078 97.1169C44.7438 97.2754 44.8134 97.4243 44.912 97.5534C45.0106 97.6826 45.1358 97.789 45.2791 97.8655Z" fill="#FFC3BD"/>
<path opacity="0.2" d="M74.8597 188.193L74.7012 194.038L79.5801 194.117L79.7386 188.272L74.8597 188.193Z" fill="black"/>
<path d="M96.91 48.8819C92.3537 67.4526 94.1593 87.1616 93.8367 91.1487L67.6988 90.7239C66.0008 70.1314 67.6988 56.6126 68.7629 50.6319C68.9559 49.5724 69.4863 48.6039 70.2749 47.8709C71.0635 47.138 72.0679 46.6801 73.138 46.5655L73.4607 46.5315C74.1738 46.4579 74.9436 46.3956 75.7247 46.3503C76.1661 46.322 76.6189 46.3106 77.0717 46.2993C80.7898 46.3635 84.5013 46.6396 88.188 47.1262C88.8842 47.2111 89.5973 47.3187 90.2822 47.432C90.967 47.5453 91.55 47.6529 92.1387 47.7718C94.8385 48.2985 96.91 48.8819 96.91 48.8819Z" fill="#263238"/>
<path opacity="0.2" d="M91.6521 56.8447C91.2503 58.6457 92.0993 66.8408 94.052 68.8627C94.2048 66.2405 94.4425 63.4994 94.7878 60.6959L91.6521 56.8447Z" fill="black"/>
<path d="M87.5527 34.5475C86.7263 38.0589 85.7867 44.5436 88.1979 47.1092C86.1886 48.8932 83.5454 51.1982 79.3174 50.7621C75.8704 50.411 75.9214 47.7378 77.093 46.2823C81.1116 45.631 81.1172 42.669 80.5229 39.8485L87.5527 34.5475Z" fill="#FFC3BD"/>
<path opacity="0.2" d="M86.8574 38.5119L83.9595 37.2999L82.8784 38.1155C82.9916 38.5119 82.703 39.9505 82.8784 40.3809C83.3765 41.5815 85.3745 42.2102 86.665 42.0063C86.6441 40.8384 86.7084 39.6705 86.8574 38.5119Z" fill="black"/>
<path d="M84.8981 19.3749C82.8662 20.8814 82.8605 21.074 80.7323 20.6605C78.6042 20.2471 72.5876 18.0496 74.1894 23.2487C69.1293 23.5432 69.8425 28.8726 72.1065 31.8743C74.3705 34.8759 76.6345 35.1648 76.8949 37.6284C77.2231 40.5225 82.119 41.0832 82.8039 39.4577L89.794 33.4884C92.1146 33.63 89.8732 29.8467 91.0222 27.672C91.2005 27.3342 91.2965 26.9592 91.3024 26.5773C91.3083 26.1954 91.2239 25.8176 91.0562 25.4745C91.7082 25.1614 92.2622 24.6757 92.658 24.07C94.9955 20.6322 88.1979 16.9509 84.8981 19.3749Z" fill="#263238"/>
<path d="M76.974 29.9147C77.5853 34.7231 77.6985 37.5661 80.3021 39.8655C84.2132 43.3203 90.0317 40.6641 90.8693 35.7595C91.6221 31.3419 90.4958 24.2229 85.6395 22.6541C84.565 22.3062 83.4198 22.2369 82.3112 22.4527C81.2027 22.6684 80.1669 23.1621 79.3011 23.8876C78.4352 24.6131 77.7675 25.5467 77.3605 26.6008C76.9535 27.6549 76.8205 28.7952 76.974 29.9147Z" fill="#FFC3BD"/>
<path d="M77.4552 24.2059C79.9853 23.6395 82.3059 26.5733 80.9361 28.6121C79.5664 30.651 82.487 33.1882 79.4249 34.5022C77.2854 35.4197 76.2497 33.1939 75.2139 31.6704C73.6234 29.3427 74.7611 24.8006 77.4552 24.2059Z" fill="#263238"/>
<path d="M74.9824 23.5885C78.0728 25.2536 78.8256 26.8733 83.4158 25.2875C86.127 24.3587 86.8118 26.4939 90.2984 25.7406C90.9719 21.6232 86.1722 20.7114 83.7498 21.1645C81.3273 21.6176 74.9824 23.5885 74.9824 23.5885Z" fill="#263238"/>
<path d="M74.9818 24.4155C74.8884 24.41 74.7966 24.389 74.7101 24.3532C71.399 23.2205 71.4443 20.7228 71.4499 20.6152C71.4616 20.3984 71.5563 20.1944 71.7145 20.0457C71.8726 19.8969 72.0819 19.8149 72.2989 19.8167C72.5151 19.8241 72.7198 19.916 72.869 20.0727C73.0182 20.2294 73.1001 20.4384 73.097 20.6549C73.097 20.7398 73.1479 22.0821 75.2365 22.79C75.4209 22.8538 75.5769 22.9808 75.6767 23.1485C75.7766 23.3163 75.8139 23.514 75.782 23.7066C75.7501 23.8992 75.6512 24.0744 75.5027 24.201C75.3541 24.3276 75.1656 24.3976 74.9705 24.3985L74.9818 24.4155Z" fill="#263238"/>
<path d="M76.1948 34.5871C76.7768 35.5234 77.671 36.2235 78.7192 36.5637C79.9757 36.9035 80.2757 35.5273 79.6474 34.134C79.0814 32.8824 77.7513 31.1947 76.6193 31.4722C75.4873 31.7497 75.3911 33.3581 76.1948 34.5871Z" fill="#FFC3BD"/>
<path d="M82.8516 139.255C82.6535 114.669 88.0928 91.058 88.0928 91.058L67.7168 90.7295C67.7168 90.7295 70.06 126.24 70.8751 141.135C71.7241 156.596 72.907 192.905 72.907 192.905L81.1763 193.03C81.1763 193.03 83.995 158.658 82.8516 139.255Z" fill="#6776FF"/>
<path opacity="0.2" d="M83.6588 104.582C77.8517 112.54 80.4609 127.503 82.8438 138.076C82.9366 126.415 83.9281 114.778 85.8097 103.268L83.6588 104.582Z" fill="black"/>
<path d="M72.392 193.058L82.2291 193.211L82.7837 190.022L71.8203 189.682L72.392 193.058Z" fill="#263238"/>
<path d="M84.9335 31.0865C84.9335 31.477 85.1882 31.7826 85.4429 31.76C85.6976 31.7374 85.89 31.4091 85.8617 31.0129C85.8334 30.6167 85.607 30.3167 85.3523 30.3393C85.0976 30.362 84.8995 30.6903 84.9335 31.0865Z" fill="#263238"/>
<path d="M89.5527 30.7524C89.581 31.1486 89.8074 31.4486 90.0678 31.4316C90.3281 31.4147 90.5092 31.0751 90.4866 30.6845C90.4639 30.294 90.2319 29.9883 89.9715 30.0053C89.7112 30.0223 89.53 30.3619 89.5527 30.7524Z" fill="#263238"/>
<path d="M88.1992 30.8152C88.7466 31.9832 89.4533 33.0697 90.2991 34.0434C89.6482 34.74 88.4426 34.5305 88.4426 34.5305L88.1992 30.8152Z" fill="#ED847E"/>
<path d="M85.8326 35.6793C85.3916 35.6586 84.9595 35.5475 84.5632 35.3527C84.1669 35.158 83.8149 34.8838 83.529 34.5473C83.5161 34.5224 83.5124 34.4938 83.5185 34.4664C83.5247 34.439 83.5403 34.4147 83.5627 34.3978C83.5851 34.3808 83.6127 34.3723 83.6407 34.3738C83.6687 34.3753 83.6953 34.3866 83.7158 34.4058C84.0392 34.772 84.4448 35.0563 84.8994 35.2353C85.3539 35.4144 85.8444 35.4831 86.3307 35.4359C86.346 35.4344 86.3615 35.436 86.3762 35.4406C86.3909 35.4452 86.4045 35.4528 86.4161 35.4629C86.4278 35.473 86.4373 35.4853 86.444 35.4991C86.4507 35.513 86.4545 35.5281 86.4552 35.5435C86.4568 35.5741 86.4465 35.6041 86.4265 35.6273C86.4064 35.6506 86.3782 35.6651 86.3477 35.668C86.1764 35.6831 86.0044 35.6869 85.8326 35.6793Z" fill="#263238"/>
<path d="M83.8135 29.5682C83.7732 29.5683 83.7338 29.5565 83.7003 29.5343C83.6744 29.5177 83.6521 29.4961 83.6348 29.4706C83.6175 29.4452 83.6056 29.4165 83.5998 29.3863C83.594 29.3561 83.5944 29.3251 83.6009 29.2951C83.6075 29.265 83.6201 29.2366 83.638 29.2116C83.832 28.898 84.098 28.6353 84.414 28.4453C84.7301 28.2552 85.0869 28.1435 85.4549 28.1193C85.5164 28.1193 85.5754 28.1437 85.619 28.1872C85.6625 28.2308 85.6869 28.2898 85.6869 28.3513C85.6869 28.4129 85.6625 28.4719 85.619 28.5154C85.5754 28.5589 85.5164 28.5834 85.4549 28.5834C85.1633 28.6065 84.8814 28.6986 84.6324 28.8522C84.3834 29.0057 84.1745 29.2162 84.0229 29.4663C84.0001 29.5003 83.9687 29.5276 83.9319 29.5455C83.8951 29.5633 83.8543 29.5712 83.8135 29.5682Z" fill="#263238"/>
<path d="M90.6089 28.396C90.5706 28.3967 90.5328 28.3883 90.4983 28.3716C90.4639 28.3549 90.4339 28.3303 90.4108 28.2998C90.2482 28.0604 90.0297 27.8642 89.7743 27.7281C89.5189 27.592 89.2342 27.5202 88.9449 27.5187C88.9144 27.5202 88.8839 27.5157 88.8551 27.5055C88.8264 27.4952 88.8 27.4793 88.7774 27.4588C88.7548 27.4383 88.7364 27.4136 88.7234 27.386C88.7104 27.3584 88.7029 27.3285 88.7015 27.298C88.6984 27.2373 88.7191 27.1779 88.7593 27.1324C88.7996 27.0869 88.856 27.059 88.9166 27.0546C89.283 27.0527 89.6444 27.1398 89.9697 27.3084C90.295 27.477 90.5746 27.722 90.7844 28.0225C90.8032 28.0469 90.817 28.0748 90.825 28.1046C90.8329 28.1344 90.8349 28.1655 90.8307 28.1961C90.8264 28.2267 90.8162 28.2561 90.8004 28.2826C90.7847 28.3092 90.7639 28.3323 90.7391 28.3507C90.7002 28.3765 90.6554 28.3921 90.6089 28.396Z" fill="#263238"/>
<path d="M73.6137 199.4C73.633 199.393 73.6501 199.381 73.663 199.365C73.676 199.349 73.6844 199.33 73.6873 199.31C73.691 199.286 73.6876 199.261 73.6776 199.239C73.6675 199.217 73.6512 199.198 73.6307 199.185C73.4099 199.072 71.4629 198.053 70.8629 198.365C70.8075 198.396 70.7606 198.44 70.7261 198.493C70.6915 198.546 70.6705 198.607 70.6648 198.67C70.6524 198.775 70.6649 198.88 70.7013 198.979C70.7377 199.077 70.797 199.165 70.8742 199.236C71.4006 199.717 72.8043 199.548 73.5967 199.406L73.6137 199.4ZM71.0157 198.551C71.3836 198.427 72.4421 198.851 73.2118 199.231C72.1308 199.395 71.327 199.338 71.0327 199.067C70.9813 199.02 70.9421 198.962 70.9184 198.897C70.8947 198.831 70.8873 198.762 70.8969 198.693C70.8962 198.667 70.9027 198.642 70.9157 198.62C70.9287 198.598 70.9477 198.58 70.9705 198.568L71.0157 198.551Z" fill="#6776FF"/>
<path d="M73.6128 199.401H73.6411C73.6575 199.39 73.6707 199.374 73.6796 199.357C73.6885 199.339 73.6928 199.319 73.6921 199.299C73.6921 199.242 73.5732 197.923 72.9619 197.402C72.8749 197.326 72.7734 197.268 72.6635 197.232C72.5536 197.196 72.4376 197.182 72.3224 197.192C72.0054 197.221 71.9092 197.385 71.8865 197.509C71.7903 198.076 72.9393 199.14 73.5223 199.412C73.5529 199.417 73.5843 199.413 73.6128 199.401ZM72.2261 197.43C72.2656 197.425 72.3055 197.425 72.345 197.43C72.4296 197.423 72.5148 197.432 72.5955 197.458C72.6763 197.485 72.7509 197.527 72.8148 197.583C73.1709 198.014 73.3863 198.544 73.4317 199.101C72.8374 198.733 72.0563 197.889 72.1129 197.56C72.1186 197.515 72.1299 197.464 72.2261 197.43Z" fill="#6776FF"/>
<path d="M114.225 199.605L109.329 199.531L106.193 188.193L111.095 188.267L114.225 199.605Z" fill="#FFC3BD"/>
<path d="M108.983 198.965L114.326 199.05C114.425 199.052 114.521 199.087 114.6 199.148C114.678 199.209 114.735 199.294 114.762 199.39L115.973 203.751C116.005 203.852 116.012 203.959 115.994 204.063C115.975 204.167 115.932 204.266 115.868 204.35C115.803 204.434 115.719 204.501 115.623 204.546C115.527 204.59 115.422 204.611 115.316 204.606C113.386 204.544 112.758 204.391 110.335 204.351C107.505 204.306 108.83 204.425 105.507 204.351C103.498 204.323 102.83 202.295 103.657 202.086C106.272 201.519 106.804 200.438 107.828 199.282C107.989 199.153 108.174 199.059 108.373 199.004C108.571 198.95 108.779 198.936 108.983 198.965Z" fill="#263238"/>
<path opacity="0.2" d="M106.193 188.193L107.812 194.038L112.714 194.117L111.095 188.272L106.193 188.193Z" fill="black"/>
<path d="M101.974 139.6C99.2007 117.626 97.1292 96.0589 93.8351 91.1486L76.5664 90.8711C76.5664 90.8711 86.5563 126.551 89.9297 141.208C93.4275 156.426 105.58 191.427 105.58 191.427L113.458 191.54C113.458 191.54 107.147 156.596 101.974 139.6Z" fill="#6776FF"/>
<path d="M104.495 193.058L114.327 193.211L114.882 190.022L103.924 189.682L104.495 193.058Z" fill="#263238"/>
<path d="M109.287 199.356C109.309 199.358 109.33 199.354 109.35 199.344C109.369 199.334 109.385 199.318 109.395 199.299C109.409 199.279 109.416 199.256 109.416 199.231C109.416 199.207 109.409 199.183 109.395 199.163C109.231 198.976 107.753 197.345 107.08 197.464C107.016 197.472 106.956 197.497 106.906 197.536C106.855 197.575 106.815 197.626 106.791 197.685C106.741 197.777 106.715 197.88 106.715 197.985C106.715 198.09 106.741 198.193 106.791 198.285C107.119 198.92 108.489 199.243 109.287 199.378V199.356ZM107.142 197.657C107.533 197.657 108.382 198.433 108.97 199.05C107.9 198.835 107.165 198.484 106.978 198.144C106.946 198.083 106.929 198.015 106.929 197.946C106.929 197.877 106.946 197.808 106.978 197.747C106.986 197.723 107.001 197.702 107.021 197.686C107.041 197.67 107.066 197.66 107.091 197.657H107.142Z" fill="#6776FF"/>
<path d="M109.287 199.356H109.321C109.341 199.35 109.358 199.339 109.372 199.324C109.386 199.309 109.396 199.291 109.401 199.271C109.401 199.22 109.769 197.946 109.401 197.243C109.345 197.141 109.269 197.052 109.178 196.981C109.086 196.91 108.981 196.858 108.869 196.83C108.563 196.745 108.416 196.864 108.354 196.977C108.071 197.459 108.784 198.863 109.237 199.322C109.25 199.338 109.268 199.349 109.287 199.356ZM108.659 197.034H108.784C108.866 197.055 108.942 197.094 109.008 197.146C109.074 197.199 109.129 197.265 109.169 197.34C109.357 197.866 109.379 198.437 109.231 198.976C108.795 198.41 108.354 197.368 108.523 197.073C108.537 197.048 108.56 197.028 108.586 197.017C108.613 197.006 108.643 197.004 108.671 197.011L108.659 197.034Z" fill="#6776FF"/>
<path d="M98.9812 54.1772L99.1793 54.6247L99.417 55.1344L99.9038 56.1765C100.249 56.8731 100.611 57.564 100.99 58.2436C101.743 59.6199 102.553 60.9621 103.419 62.2534C104.275 63.547 105.199 64.7947 106.186 65.9913C106.667 66.5973 107.205 67.124 107.703 67.73L108.507 68.5456L108.909 68.959L108.96 69.01C108.96 69.01 108.96 69.01 108.92 69.01C108.881 69.01 108.779 69.01 108.796 69.01C108.89 69.0517 108.994 69.0636 109.096 69.044C109.62 68.9745 110.13 68.8216 110.607 68.5909C111.925 67.9444 113.172 67.1645 114.331 66.2632C116.906 64.2851 119.363 62.1577 121.689 59.8917L124.564 62.1571C123.619 63.6451 122.593 65.0801 121.491 66.4557C120.383 67.8478 119.192 69.1717 117.925 70.4202C116.578 71.7808 115.075 72.9784 113.448 73.9882C112.459 74.5948 111.382 75.0456 110.256 75.3248C109.527 75.4938 108.777 75.5473 108.032 75.4834C107.146 75.4029 106.288 75.1366 105.513 74.7018C105.326 74.5829 105.128 74.464 104.947 74.3337L104.681 74.1355L104.551 74.0335L104.488 73.9769L103.956 73.5238L102.904 72.6177C102.236 71.9777 101.545 71.3547 100.934 70.6694C99.6656 69.345 98.4893 67.9352 97.4134 66.4501C96.3344 64.9837 95.3477 63.4516 94.4588 61.8626C94.0174 61.0641 93.5985 60.2599 93.1967 59.433C92.9986 59.0196 92.7948 58.6061 92.6307 58.1813L92.3533 57.53L92.0703 56.8051L98.9812 54.1772Z" fill="#FFC3BD"/>
<path d="M96.9094 48.8818C101.437 50.275 103.515 60.3787 103.515 60.3787L96.6208 66.4387C93.9511 63.7017 91.8639 60.4514 90.4853 56.8843C88.159 50.6431 91.4475 47.1884 96.9094 48.8818Z" fill="#263238"/>
<path d="M103.849 60.5656C103.723 60.1589 103.56 59.7646 103.363 59.3876C103.363 59.3876 96.3896 64.3658 95.75 66.0139C95.9981 66.43 96.3731 66.7555 96.8197 66.9427C96.8197 66.9427 103.148 62.6837 103.849 60.5656Z" fill="#6776FF"/>
<path d="M120.881 60.9678L123.524 56.7881L127.446 61.2339C127.446 61.2339 124.616 64.7283 122.5 63.4993L120.881 60.9678Z" fill="#FFC3BD"/>
<path d="M128.522 55.6157L129.654 57.4054C129.87 57.7496 129.956 58.16 129.896 58.5622C129.836 58.9644 129.633 59.3316 129.326 59.5972L127.463 61.2339L123.541 56.7881L126.15 55.089C126.34 54.9652 126.552 54.8804 126.775 54.8399C126.997 54.7993 127.226 54.8037 127.447 54.8527C127.668 54.9018 127.877 54.9946 128.061 55.1256C128.246 55.2566 128.403 55.4233 128.522 55.6157Z" fill="#FFC3BD"/>
<path d="M185.914 67.6452C183.32 65.0466 180.239 62.9865 176.847 61.583C173.455 60.1796 169.82 59.4605 166.149 59.4671H154.195V62.1516C151.296 63.5252 148.654 65.3873 146.385 67.6565C143.766 65.0303 140.65 62.9533 137.219 61.5471C133.789 60.1409 130.112 59.4338 126.405 59.4671H114.457V62.2535C110.439 64.1953 106.945 67.0711 104.265 70.6406C101.586 74.2101 99.7997 78.3696 99.0556 82.7713C98.3114 87.173 98.6312 91.6889 99.9881 95.9417C101.345 100.194 103.7 104.06 106.855 107.216L134.306 134.684H134.176V146.77H142.847C145.112 146.77 147.285 145.87 148.886 144.267L185.914 107.216C188.512 104.618 190.572 101.534 191.978 98.1392C193.384 94.7443 194.108 91.1055 194.108 87.4307C194.108 83.7559 193.384 80.117 191.978 76.7222C190.572 73.3273 188.512 70.2429 185.914 67.6452Z" fill="#6776FF"/>
<path opacity="0.2" d="M185.914 67.6452C183.32 65.0466 180.239 62.9865 176.847 61.583C173.455 60.1796 169.82 59.4605 166.149 59.4671H154.195V62.1516C151.296 63.5252 148.654 65.3873 146.385 67.6565C143.766 65.0303 140.65 62.9533 137.219 61.5471C133.789 60.1409 130.112 59.4338 126.405 59.4671H114.457V62.2535C110.439 64.1953 106.945 67.0711 104.265 70.6406C101.586 74.2101 99.7997 78.3696 99.0556 82.7713C98.3114 87.173 98.6312 91.6889 99.9881 95.9417C101.345 100.194 103.7 104.06 106.855 107.216L134.306 134.684H134.176V146.77H142.847C145.112 146.77 147.285 145.87 148.886 144.267L185.914 107.216C188.512 104.618 190.572 101.534 191.978 98.1392C193.384 94.7443 194.108 91.1055 194.108 87.4307C194.108 83.7559 193.384 80.117 191.978 76.7222C190.572 73.3273 188.512 70.2429 185.914 67.6452Z" fill="black"/>
<path d="M173.706 67.6452C168.464 62.4008 161.354 59.4546 153.941 59.4546C146.528 59.4546 139.419 62.4008 134.177 67.6452C128.917 62.4802 121.833 59.602 114.464 59.6367C107.095 59.6715 100.037 62.6163 94.827 67.8307C89.6166 73.045 86.6746 80.1071 86.6409 87.4807C86.6073 94.8544 89.4846 101.943 94.6472 107.205L134.177 146.759L173.706 107.205C176.302 104.607 178.361 101.524 179.766 98.1298C181.171 94.736 181.894 91.0985 181.894 87.425C181.894 83.7515 181.171 80.114 179.766 76.7202C178.361 73.3263 176.302 70.2426 173.706 67.6452Z" fill="#6776FF"/>
<path d="M116.488 131.063L116.088 131.464L122.199 137.579L122.6 137.178L116.488 131.063Z" fill="#6776FF"/>
<path d="M125.004 139.595L124.604 139.995L127.389 142.782L127.789 142.382L125.004 139.595Z" fill="#6776FF"/>
<path opacity="0.2" d="M173.706 67.6452C168.464 62.4008 161.354 59.4546 153.941 59.4546C146.528 59.4546 139.419 62.4008 134.177 67.6452C128.917 62.4802 121.833 59.602 114.464 59.6367C107.095 59.6715 100.037 62.6163 94.827 67.8307C89.6166 73.045 86.6746 80.1071 86.6409 87.4807C86.6073 94.8544 89.4846 101.943 94.6472 107.205L134.177 146.759L173.706 107.205C176.302 104.607 178.361 101.524 179.766 98.1298C181.171 94.736 181.894 91.0985 181.894 87.425C181.894 83.7515 181.171 80.114 179.766 76.7202C178.361 73.3263 176.302 70.2426 173.706 67.6452Z" fill="black"/>
<path d="M98.7223 103.121C96.6622 101.06 95.0282 98.613 93.9133 95.9198C92.7984 93.2266 92.2246 90.34 92.2246 87.4249C92.2246 84.5098 92.7984 81.6233 93.9133 78.9301C95.0282 76.2369 96.6622 73.7898 98.7223 71.7285C100.782 69.6672 103.228 68.0321 105.919 66.9165C108.611 65.801 111.496 65.2268 114.409 65.2268C117.322 65.2268 120.207 65.801 122.899 66.9165C125.59 68.0321 128.036 69.6672 130.096 71.7285L134.176 75.8119L138.257 71.7285C140.317 69.6672 142.763 68.0321 145.454 66.9165C148.146 65.801 151.031 65.2268 153.944 65.2268C156.857 65.2268 159.742 65.801 162.434 66.9165C165.125 68.0321 167.571 69.6672 169.631 71.7285C171.691 73.7898 173.325 76.2369 174.44 78.9301C175.555 81.6233 176.128 84.5098 176.128 87.4249C176.128 90.34 175.555 93.2266 174.44 95.9198C173.325 98.613 171.691 101.06 169.631 103.121L134.176 138.598L98.7223 103.121Z" fill="#6776FF"/>
<path d="M105.367 83.6049H115.114V86.1704H111.842V94.0144H108.633V86.1988H105.367V83.6049Z" fill="white"/>
<path d="M116.596 83.6049H119.805V87.2182H123.308V83.5879H126.529V94.0144H123.308V89.8178H119.805V94.0144H116.596V83.6049Z" fill="white"/>
<path d="M135.014 92.2701H131.375L130.871 93.9691H127.594L131.493 83.5879H134.991L138.891 94.0144H135.535L135.014 92.2701ZM134.352 90.0047L133.22 86.2724L132.088 90.0047H134.352Z" fill="white"/>
<path d="M139.934 83.6049H142.928L146.833 89.3477V83.6049H149.856V94.0144H146.833L142.95 88.3112V94.0144H139.934V83.6049Z" fill="white"/>
<path d="M152 83.6049H155.209V87.5297L158.565 83.6049H162.827L159.046 87.524L163.008 94.0144H159.046L156.856 89.7441L155.203 91.4828V94.0144H151.994L152 83.6049Z" fill="white"/>
<path d="M116.756 101.009H120.316L122.405 104.515L124.499 101.009H128.042L124.006 107.041V111.39H120.797V107.041L116.756 101.009Z" fill="white"/>
<path d="M127.805 106.208C127.734 105.486 127.824 104.757 128.067 104.074C128.311 103.391 128.703 102.77 129.215 102.257C129.727 101.743 130.346 101.349 131.028 101.103C131.71 100.857 132.437 100.765 133.159 100.833C134.885 100.833 136.221 101.298 137.155 102.226C137.641 102.747 138.015 103.361 138.256 104.03C138.496 104.7 138.597 105.412 138.553 106.123C138.592 107.153 138.383 108.176 137.942 109.108C137.545 109.875 136.928 110.506 136.17 110.92C135.282 111.38 134.29 111.604 133.289 111.571C132.289 111.604 131.295 111.41 130.38 111.005C129.596 110.614 128.947 109.997 128.518 109.232C128.013 108.306 127.767 107.262 127.805 106.208ZM131.008 106.208C130.932 107.006 131.132 107.805 131.574 108.473C131.78 108.689 132.028 108.861 132.303 108.978C132.577 109.096 132.872 109.156 133.17 109.156C133.469 109.156 133.764 109.096 134.038 108.978C134.313 108.861 134.561 108.689 134.767 108.473C135.14 108.026 135.333 107.222 135.333 106.055C135.405 105.297 135.204 104.538 134.767 103.914C134.566 103.69 134.319 103.513 134.042 103.397C133.765 103.28 133.465 103.227 133.165 103.24C132.87 103.229 132.577 103.285 132.308 103.403C132.038 103.522 131.799 103.701 131.608 103.926C131.148 104.597 130.936 105.408 131.008 106.219V106.208Z" fill="white"/>
<path d="M147.029 101.009H150.233V107.193C150.237 107.785 150.139 108.373 149.944 108.932C149.756 109.47 149.448 109.958 149.044 110.359C148.684 110.736 148.245 111.03 147.759 111.22C147.032 111.472 146.265 111.591 145.495 111.571C144.943 111.567 144.391 111.531 143.843 111.464C143.321 111.415 142.813 111.271 142.343 111.039C141.922 110.815 141.549 110.511 141.245 110.144C140.934 109.799 140.701 109.392 140.56 108.949C140.378 108.381 140.278 107.79 140.266 107.193V101.009H143.464V107.341C143.45 107.583 143.485 107.825 143.565 108.053C143.646 108.282 143.771 108.492 143.933 108.672C144.299 108.977 144.759 109.144 145.235 109.144C145.711 109.144 146.172 108.977 146.537 108.672C146.701 108.492 146.828 108.281 146.909 108.052C146.989 107.822 147.023 107.578 147.007 107.335L147.029 101.009Z" fill="white"/>
</svg>
