<svg width="283" height="211" viewBox="0 0 283 211" fill="none" xmlns="http://www.w3.org/2000/svg">
<path d="M0 185.424H283V185.565H0V185.424Z" fill="#E0E0E0"/>
<path d="M69.2444 191.421H88.7148V191.563H69.2444V191.421Z" fill="#E0E0E0"/>
<path d="M220.152 191.49H231.109V191.631H220.152V191.49Z" fill="#E0E0E0"/>
<path d="M140.935 191.161H163.145V191.302H140.935V191.161Z" fill="#E0E0E0"/>
<path d="M163.711 189.145H173.639V189.286H163.711V189.145Z" fill="#E0E0E0"/>
<path d="M42.6991 189.219H72.6914V189.36H42.6991V189.219Z" fill="#E0E0E0"/>
<path d="M148.858 160.164H258.147C259.003 160.163 259.824 159.822 260.428 159.215C261.033 158.609 261.373 157.787 261.373 156.931V3.20555C261.366 2.35377 261.023 1.53933 260.419 0.939136C259.814 0.338938 258.998 0.00145914 258.147 0H148.858C148.001 0 147.179 0.340711 146.573 0.947179C145.967 1.55365 145.626 2.3762 145.626 3.23387V156.931C145.626 157.788 145.967 158.611 146.573 159.217C147.179 159.824 148.001 160.164 148.858 160.164ZM258.147 0.113271C258.965 0.114771 259.75 0.441225 260.328 1.02098C260.907 1.60073 261.232 2.38641 261.232 3.20555V156.931C261.232 157.75 260.907 158.535 260.328 159.115C259.75 159.695 258.965 160.021 258.147 160.023H148.858C148.039 160.021 147.254 159.695 146.674 159.116C146.095 158.536 145.769 157.75 145.768 156.931V3.20555C145.769 2.38589 146.095 1.60022 146.674 1.02063C147.254 0.441041 148.039 0.114768 148.858 0.113271H258.147Z" fill="#E0E0E0"/>
<path d="M26.4267 160.164H135.721C136.578 160.163 137.399 159.822 138.005 159.216C138.611 158.609 138.952 157.788 138.953 156.931V3.20555C138.944 2.35326 138.6 1.53882 137.995 0.938782C137.39 0.33874 136.573 0.00144323 135.721 0H26.4267C25.5764 0.00294758 24.7615 0.341085 24.1586 0.941124C23.5558 1.54116 23.2136 2.35475 23.2061 3.20555V156.931C23.2061 157.786 23.5451 158.607 24.1487 159.213C24.7524 159.819 25.5715 160.161 26.4267 160.164ZM135.721 0.113271C136.54 0.114768 137.326 0.441041 137.905 1.02063C138.484 1.60022 138.81 2.38589 138.812 3.20555V156.931C138.81 157.75 138.484 158.536 137.905 159.116C137.326 159.695 136.54 160.021 135.721 160.023H26.4267C25.6075 160.021 24.8223 159.695 24.2431 159.116C23.6639 158.536 23.3378 157.75 23.3363 156.931V3.20555C23.3378 2.38589 23.6639 1.60022 24.2431 1.02063C24.8223 0.441041 25.6075 0.114768 26.4267 0.113271H135.721Z" fill="#E0E0E0"/>
<path d="M34.3526 114.533C41.3144 103.926 34.9582 92.525 36.0166 80.7222C37.075 68.9194 48.2818 66.3482 46.1593 56.3691C43.7029 44.7702 50.2515 33.6414 57.6718 33.6414C65.092 33.6414 71.635 44.7419 69.1785 56.3521C67.056 66.3482 78.2346 68.9251 79.3213 80.7052C80.408 92.4854 74.0235 103.926 80.991 114.516C87.9584 125.107 86.1246 139.17 82.2022 146.142C81.1588 147.991 79.9012 149.712 78.4553 151.267C75.797 154.123 72.5796 156.4 69.0034 157.957C65.4272 159.514 61.569 160.318 57.6689 160.318C53.7689 160.318 49.9106 159.514 46.3345 157.957C42.7583 156.4 39.5409 154.123 36.8826 151.267C35.4403 149.71 34.1847 147.99 33.1413 146.142C29.2133 139.187 27.3851 125.164 34.3526 114.533Z" fill="#E0E0E0"/>
<path d="M57.6689 122.581C57.2066 122.581 56.7488 122.672 56.3217 122.849C55.8946 123.026 55.5065 123.286 55.1796 123.613C54.8526 123.94 54.5933 124.329 54.4164 124.756C54.2395 125.183 54.1484 125.641 54.1484 126.104V185.424H61.1895V126.104C61.1895 125.641 61.0984 125.183 60.9215 124.756C60.7446 124.329 60.4852 123.94 60.1583 123.613C59.8314 123.286 59.4433 123.026 59.0162 122.849C58.5891 122.672 58.1313 122.581 57.6689 122.581Z" fill="#F0F0F0"/>
<path d="M101.931 185.424H111.502V126.11C111.499 124.838 110.993 123.62 110.095 122.721C109.196 121.822 107.978 121.316 106.708 121.313C105.437 121.316 104.22 121.822 103.321 122.721C102.423 123.62 101.917 124.838 101.914 126.11L101.931 185.424Z" fill="#E0E0E0"/>
<path d="M106.724 169.424C90.4157 169.424 77.1955 156.196 77.1955 139.878C77.1955 123.56 90.4157 110.331 106.724 110.331C123.032 110.331 136.252 123.56 136.252 139.878C136.252 156.196 123.032 169.424 106.724 169.424Z" fill="#F0F0F0"/>
<path d="M72.0271 131.011C70.4777 124.77 74.2781 118.454 80.5154 116.904C86.7528 115.353 93.0652 119.156 94.6145 125.397C96.1639 131.638 92.3635 137.955 86.1262 139.505C79.8888 141.055 73.5764 137.253 72.0271 131.011Z" fill="#F0F0F0"/>
<path d="M123.811 122.417C123.2 118.66 125.748 115.118 129.503 114.506C133.257 113.894 136.797 116.444 137.408 120.201C138.02 123.958 135.472 127.5 131.717 128.112C127.962 128.724 124.423 126.174 123.811 122.417Z" fill="#F0F0F0"/>
<path d="M123.116 122.582C120.446 122.582 118.282 120.416 118.282 117.745C118.282 115.074 120.446 112.908 123.116 112.908C125.785 112.908 127.949 115.074 127.949 117.745C127.949 120.416 125.785 122.582 123.116 122.582Z" fill="#F0F0F0"/>
<path d="M167.536 150.021C172.127 150.705 176.515 152.381 180.395 154.931C180.429 150.446 181.25 146.192 183.355 142.755C186.559 145.875 189.157 149.919 191.279 154.269C192.055 146.119 194.2 138.19 198.949 133.166C206.063 137.646 209.731 145.111 211.474 153.017C214.354 147.686 218.534 143.17 223.626 139.889C227.979 144.476 229.371 150.819 229.252 157.321C234.199 151.556 239.689 147.059 245.044 146.532C246.362 155.645 243.555 164.242 239.984 171.038C237.665 175.399 234.201 179.043 229.965 181.579C225.729 184.115 220.882 185.446 215.946 185.429H192.689C182.778 185.429 173.484 180.14 168.837 171.378C165.9 165.828 164.496 158.686 167.536 150.021Z" fill="#E0E0E0"/>
<path d="M174.181 32.3612C171.312 23.9396 173.615 17.9419 180.617 17.9419C185.02 17.9419 190.482 20.3036 195.803 24.1435C196.403 21.9517 198.095 20.6434 200.817 20.6434C205.611 20.6434 212.217 24.6985 217.396 30.4186C218.854 29.0325 220.784 28.253 222.795 28.2382C227.385 27.9777 232.938 30.311 237.766 34.0999C238.008 33.7611 238.327 33.4851 238.697 33.295C239.068 33.1048 239.478 33.0061 239.894 33.0069C242.537 32.8596 246.12 35.2156 247.892 38.2626C247.999 38.4495 248.095 38.6364 248.197 38.829H172.789C172.563 36.1671 173.032 33.947 174.181 32.3612Z" fill="#F0F0F0"/>
<path d="M173.951 83.4973C172.547 79.3856 173.662 76.4575 177.092 76.4575C179.248 76.4575 181.914 77.5902 184.512 79.4875C184.652 78.959 184.976 78.4977 185.425 78.1863C185.874 77.8749 186.419 77.7339 186.963 77.7885C189.3 77.7885 192.527 79.7707 195.062 82.5685C195.773 81.8891 196.717 81.5081 197.7 81.5037C199.964 81.3735 202.652 82.5118 205.013 84.3638C205.127 84.2 205.278 84.0655 205.454 83.971C205.63 83.8766 205.826 83.8249 206.026 83.8201C207.316 83.7465 209.065 84.8962 209.931 86.3857L210.084 86.6575H173.249C173.095 85.5539 173.344 84.4318 173.951 83.4973Z" fill="#F0F0F0"/>
<path d="M88.9936 52.3821C89.2843 52.3412 89.5774 52.3204 89.8709 52.3198C89.5992 48.2137 91.1671 45.5859 94.5234 45.5859C96.9403 45.5859 99.9118 46.9564 102.934 49.2728C102.068 41.2986 104.842 36.1165 111.124 36.1165C116.184 36.1165 122.597 39.5146 128.931 44.9855C129.497 41.8593 131.353 39.979 134.489 39.979C139.996 39.979 147.824 45.7784 154.101 53.9566C154.816 53.0135 155.733 52.2427 156.785 51.7008C157.837 51.1588 158.997 50.8595 160.179 50.8246C165.421 50.4565 171.935 53.7867 177.725 59.2123C177.936 58.7548 178.271 58.366 178.693 58.0905C179.114 57.815 179.605 57.664 180.108 57.6548C182.978 57.451 186.9 60.447 189.227 64.4511H84.3807C81.9186 58.3798 83.877 53.0674 88.9936 52.3821Z" fill="#F0F0F0"/>
<path d="M141.498 211C80.8898 211 31.7567 208.13 31.7567 204.589C31.7567 201.048 80.8898 198.178 141.498 198.178C202.107 198.178 251.24 201.048 251.24 204.589C251.24 208.13 202.107 211 141.498 211Z" fill="#F5F5F5"/>
<path d="M255.346 54.1206L126.315 72.7083L109.001 90.1916L255.346 54.1206Z" fill="#6776FF"/>
<path opacity="0.6" d="M255.346 54.1206L126.315 72.7083L109.001 90.1916L255.346 54.1206Z" fill="white"/>
<path d="M255.346 54.1206L126.315 72.7083L132.303 97.9903L255.346 54.1206Z" fill="#6776FF"/>
<path opacity="0.2" d="M255.346 54.1206L126.315 72.7083L132.303 97.9903L255.346 54.1206Z" fill="black"/>
<path d="M134.953 24.8519L127.465 59.9658C127.27 60.8827 127.447 61.8395 127.956 62.6263C128.466 63.413 129.266 63.9655 130.182 64.1625L197.015 78.4346C197.932 78.6279 198.887 78.4505 199.673 77.9411C200.459 77.4317 201.011 76.6318 201.209 75.7161L208.703 40.6022C208.896 39.6846 208.718 38.7279 208.208 37.9414C207.698 37.1549 206.897 36.6026 205.981 36.4055L139.148 22.1335C138.231 21.9403 137.274 22.1184 136.488 22.629C135.702 23.1395 135.15 23.9409 134.953 24.8576V24.8519Z" fill="#6776FF"/>
<path opacity="0.4" d="M134.953 24.8519L127.465 59.9658C127.27 60.8827 127.447 61.8395 127.956 62.6263C128.466 63.413 129.266 63.9655 130.182 64.1625L197.015 78.4346C197.932 78.6279 198.887 78.4505 199.673 77.9411C200.459 77.4317 201.011 76.6318 201.209 75.7161L208.703 40.6022C208.896 39.6846 208.718 38.7279 208.208 37.9414C207.698 37.1549 206.897 36.6026 205.981 36.4055L139.148 22.1335C138.231 21.9403 137.274 22.1184 136.488 22.629C135.702 23.1395 135.15 23.9409 134.953 24.8576V24.8519Z" fill="black"/>
<path d="M136.598 22.5524L158.927 49.9808C160.998 52.5238 163.874 54.2833 167.08 54.9681C170.286 55.653 173.63 55.2222 176.558 53.7471L208.135 37.8326C207.624 37.0982 206.853 36.5859 205.978 36.3997L139.145 22.1276C138.273 21.9419 137.363 22.0936 136.598 22.5524Z" fill="#6776FF"/>
<path d="M255.346 54.1206L148.921 79.4309L132.303 97.9903L255.346 54.1206Z" fill="#6776FF"/>
<path opacity="0.6" d="M255.346 54.1206L148.921 79.4309L132.303 97.9903L255.346 54.1206Z" fill="white"/>
<path d="M216.524 78.5164L216.811 79.0051L204.967 85.9467L204.681 85.4581L216.524 78.5164Z" fill="#6776FF"/>
<path d="M199.452 88.5181L199.738 89.0068L195.48 91.503L195.194 91.0143L199.452 88.5181Z" fill="#6776FF"/>
<path d="M255.346 54.1206L148.921 79.4309L169.608 104.379L255.346 54.1206Z" fill="#6776FF"/>
<path d="M112.996 113.418C113.14 113.418 113.282 113.391 113.415 113.338L130.746 106.474C131.023 106.362 131.245 106.145 131.363 105.871C131.481 105.596 131.486 105.285 131.376 105.007C131.266 104.729 131.051 104.506 130.777 104.386C130.503 104.266 130.193 104.259 129.914 104.367L112.577 111.231C112.332 111.328 112.128 111.508 112.001 111.739C111.874 111.971 111.832 112.239 111.882 112.498C111.931 112.757 112.07 112.991 112.273 113.159C112.477 113.327 112.733 113.418 112.996 113.418Z" fill="#6776FF"/>
<path opacity="0.3" d="M112.996 113.418C113.14 113.418 113.282 113.391 113.415 113.338L130.746 106.474C131.023 106.362 131.245 106.145 131.363 105.871C131.481 105.596 131.486 105.285 131.376 105.007C131.266 104.729 131.051 104.506 130.777 104.386C130.503 104.266 130.193 104.259 129.914 104.367L112.577 111.231C112.332 111.328 112.128 111.508 112.001 111.739C111.874 111.971 111.832 112.239 111.882 112.498C111.931 112.757 112.07 112.991 112.273 113.159C112.477 113.327 112.733 113.418 112.996 113.418Z" fill="black"/>
<path d="M114.02 103.473C114.162 103.472 114.302 103.443 114.433 103.388L123.744 99.6781C123.883 99.6242 124.01 99.5432 124.118 99.4398C124.226 99.3365 124.312 99.2128 124.372 99.0759C124.432 98.9391 124.464 98.7917 124.467 98.6424C124.469 98.493 124.442 98.3446 124.388 98.2057C124.333 98.0668 124.251 97.9401 124.147 97.8329C124.043 97.7257 123.919 97.6402 123.782 97.5812C123.644 97.5223 123.497 97.491 123.348 97.4893C123.198 97.4876 123.05 97.5155 122.912 97.5713L113.601 101.264C113.322 101.374 113.098 101.59 112.978 101.865C112.858 102.14 112.852 102.451 112.962 102.731C113.041 102.948 113.185 103.135 113.375 103.268C113.564 103.4 113.789 103.472 114.02 103.473Z" fill="#6776FF"/>
<path opacity="0.5" d="M114.02 103.473C114.162 103.472 114.302 103.443 114.433 103.388L123.744 99.6781C123.883 99.6242 124.01 99.5432 124.118 99.4398C124.226 99.3365 124.312 99.2128 124.372 99.0759C124.432 98.9391 124.464 98.7917 124.467 98.6424C124.469 98.493 124.442 98.3446 124.388 98.2057C124.333 98.0668 124.251 97.9401 124.147 97.8329C124.043 97.7257 123.919 97.6402 123.782 97.5812C123.644 97.5223 123.497 97.491 123.348 97.4893C123.198 97.4876 123.05 97.5155 122.912 97.5713L113.601 101.264C113.322 101.374 113.098 101.59 112.978 101.865C112.858 102.14 112.852 102.451 112.962 102.731C113.041 102.948 113.185 103.135 113.375 103.268C113.564 103.4 113.789 103.472 114.02 103.473Z" fill="white"/>
<path d="M133.487 113.271C133.628 113.269 133.768 113.242 133.9 113.191L150.806 106.475C150.946 106.421 151.073 106.34 151.18 106.236C151.288 106.133 151.375 106.009 151.434 105.872C151.494 105.735 151.526 105.588 151.529 105.439C151.532 105.289 151.505 105.141 151.45 105.002C151.395 104.863 151.313 104.736 151.209 104.629C151.105 104.522 150.981 104.437 150.844 104.378C150.707 104.319 150.559 104.287 150.41 104.286C150.261 104.284 150.113 104.312 149.974 104.368L133.068 111.062C132.823 111.159 132.619 111.339 132.492 111.57C132.365 111.801 132.323 112.069 132.372 112.329C132.422 112.588 132.56 112.822 132.764 112.989C132.967 113.157 133.223 113.249 133.487 113.248V113.271Z" fill="#6776FF"/>
<path opacity="0.3" d="M133.487 113.271C133.628 113.269 133.768 113.242 133.9 113.191L150.806 106.475C150.946 106.421 151.073 106.34 151.18 106.236C151.288 106.133 151.375 106.009 151.434 105.872C151.494 105.735 151.526 105.588 151.529 105.439C151.532 105.289 151.505 105.141 151.45 105.002C151.395 104.863 151.313 104.736 151.209 104.629C151.105 104.522 150.981 104.437 150.844 104.378C150.707 104.319 150.559 104.287 150.41 104.286C150.261 104.284 150.113 104.312 149.974 104.368L133.068 111.062C132.823 111.159 132.619 111.339 132.492 111.57C132.365 111.801 132.323 112.069 132.372 112.329C132.422 112.588 132.56 112.822 132.764 112.989C132.967 113.157 133.223 113.249 133.487 113.248V113.271Z" fill="black"/>
<path d="M72.2767 62.1968C70.7768 65.1248 69.4014 68.0585 68.094 71.0602C66.7865 74.0619 65.5696 77.1032 64.5055 80.2917L64.1206 81.4981C64.0527 81.7133 63.9565 82.0644 63.8999 82.3136C63.8433 82.5628 63.7924 82.846 63.7641 83.0838C63.6345 83.9976 63.5683 84.9191 63.566 85.842C63.5575 87.544 63.6368 89.2453 63.8037 90.9392C64.1198 94.2181 64.6339 97.4749 65.3432 100.692L68.4505 100.346C68.4902 97.1577 68.5185 93.9352 68.6317 90.7919C68.6826 89.2288 68.7732 87.66 68.9316 86.1875C69.0034 85.496 69.1168 84.8094 69.2712 84.1316C69.2995 83.973 69.3448 83.8541 69.3788 83.7238C69.4127 83.5936 69.4467 83.5483 69.5033 83.3784L69.9335 82.3079C71.1164 79.4422 72.4465 76.5538 73.8049 73.6767L77.9141 65.0455L72.2767 62.1968Z" fill="#E4897B"/>
<path d="M68.4045 99.3496L69.8535 102.062L65.2236 103.354C65.2236 103.354 64.3407 101.173 65.3934 99.4516L68.4045 99.3496Z" fill="#E4897B"/>
<path d="M71.627 105.97L67.3706 106.31L65.2255 103.354L69.8554 102.062L71.627 105.97Z" fill="#E4897B"/>
<path d="M91.7621 42.6241C91.8244 42.9582 92.0564 43.1904 92.2715 43.1451C92.4866 43.0998 92.6055 42.7996 92.5375 42.4712C92.4696 42.1427 92.2432 41.9048 92.0281 41.9501C91.8131 41.9954 91.6885 42.2956 91.7621 42.6241Z" fill="#263238"/>
<path d="M92.0248 43.1902C92.6226 44.1168 93.3443 44.9571 94.1699 45.6878C93.9772 45.893 93.7423 46.0539 93.4814 46.1595C93.2205 46.2651 92.9398 46.3129 92.6587 46.2995L92.0248 43.1902Z" fill="#DE5753"/>
<path d="M90.1912 41.0447C90.2448 41.0433 90.2956 41.0209 90.3327 40.9823C90.4954 40.796 90.6995 40.6507 90.9286 40.5581C91.1577 40.4655 91.4054 40.4283 91.6515 40.4494C91.6984 40.4498 91.744 40.4336 91.78 40.4036C91.8161 40.3736 91.8404 40.3317 91.8485 40.2855C91.8567 40.2392 91.8482 40.1915 91.8246 40.151C91.8009 40.1104 91.7637 40.0795 91.7194 40.0639C91.4047 40.0239 91.085 40.0625 90.7887 40.1763C90.4925 40.29 90.2289 40.4754 90.0214 40.7158C89.9851 40.7529 89.9648 40.8028 89.9648 40.8547C89.9648 40.9067 89.9851 40.9565 90.0214 40.9936C90.0441 41.0144 90.0711 41.0298 90.1005 41.0386C90.1299 41.0475 90.1609 41.0495 90.1912 41.0447Z" fill="#263238"/>
<path d="M82.4018 47.2507C82.9961 50.2977 83.5904 55.8706 81.4623 57.9038C81.4623 57.9038 82.2943 60.9904 87.9486 60.9904C94.1746 60.9904 90.9145 57.9038 90.9145 57.9038C87.5185 57.0939 87.6147 54.5737 88.2033 52.212L82.4018 47.2507Z" fill="#E4897B"/>
<path d="M80.6084 59.8238C80.1613 58.3343 79.6689 56.6296 80.6877 56.0915C81.8197 55.5252 87.9721 54.9022 90.0946 56.0066C92.2171 57.111 91.6115 60.141 91.6115 60.141L80.6084 59.8238Z" fill="#263238"/>
<path d="M67.555 201.056C67.7308 201.079 67.9095 201.067 68.0805 201.021C68.2516 200.974 68.4116 200.893 68.5512 200.784C68.6004 200.715 68.627 200.633 68.627 200.549C68.627 200.464 68.6004 200.382 68.5512 200.313C68.5188 200.255 68.4743 200.203 68.4206 200.163C68.3669 200.123 68.3053 200.095 68.2399 200.081C67.6286 199.945 66.4853 200.727 66.4343 200.761C66.4197 200.773 66.4083 200.789 66.4014 200.807C66.3945 200.825 66.3922 200.844 66.3947 200.863C66.3979 200.882 66.4067 200.898 66.4199 200.912C66.433 200.925 66.4499 200.934 66.4683 200.937C66.8254 201.014 67.1896 201.054 67.555 201.056ZM68.0757 200.262H68.1946C68.2329 200.27 68.269 200.286 68.3003 200.31C68.3316 200.334 68.3574 200.364 68.3757 200.398C68.4663 200.557 68.4097 200.625 68.3757 200.648C68.2002 200.886 67.3512 200.886 66.7286 200.784C67.1343 200.516 67.5944 200.341 68.0757 200.274V200.262Z" fill="#6776FF"/>
<path d="M66.4902 200.953H66.5354C66.9656 200.715 67.7976 199.821 67.7127 199.345C67.6983 199.271 67.6587 199.205 67.6009 199.158C67.5431 199.11 67.4706 199.084 67.3957 199.084C67.3212 199.076 67.2457 199.083 67.1738 199.105C67.1019 199.126 67.035 199.161 66.9769 199.209C66.4958 199.605 66.4109 200.806 66.4109 200.857C66.4086 200.875 66.4116 200.893 66.4197 200.909C66.4278 200.925 66.4405 200.939 66.4562 200.948C66.467 200.952 66.4786 200.954 66.4902 200.953ZM67.3278 199.254H67.3505C67.4806 199.254 67.492 199.334 67.4976 199.356C67.5486 199.634 67.0165 200.319 66.592 200.642C66.6206 200.169 66.7902 199.715 67.0788 199.339C67.1169 199.309 67.1605 199.288 67.2072 199.275C67.2538 199.262 67.3026 199.259 67.3505 199.266L67.3278 199.254Z" fill="#6776FF"/>
<path d="M92.5218 201.056C93.0539 201.056 93.5689 200.982 93.7444 200.744C93.7887 200.681 93.8125 200.606 93.8125 200.529C93.8125 200.452 93.7887 200.376 93.7444 200.313C93.71 200.255 93.6642 200.205 93.6097 200.165C93.5552 200.125 93.4932 200.096 93.4274 200.081C92.7426 199.894 91.2823 200.722 91.22 200.756C91.2034 200.766 91.1902 200.782 91.1822 200.8C91.1742 200.818 91.1716 200.838 91.1747 200.858C91.178 200.878 91.1874 200.896 91.2016 200.91C91.2158 200.924 91.2341 200.934 91.254 200.937C91.672 201.016 92.0964 201.056 92.5218 201.056ZM93.184 200.251C93.246 200.242 93.3089 200.242 93.3708 200.251C93.4106 200.259 93.4484 200.275 93.4815 200.299C93.5147 200.322 93.5425 200.352 93.5633 200.387C93.6368 200.512 93.6085 200.569 93.5633 200.603C93.3765 200.863 92.3237 200.88 91.5426 200.773C92.0515 200.497 92.609 200.324 93.184 200.262V200.251Z" fill="#6776FF"/>
<path d="M91.2644 200.953H91.304C91.8077 200.732 92.7982 199.82 92.7246 199.362C92.7246 199.248 92.6284 199.112 92.3567 199.084C92.2557 199.069 92.1525 199.076 92.0547 199.105C91.9568 199.135 91.8666 199.185 91.7907 199.254C91.2587 199.684 91.1512 200.806 91.1455 200.857C91.1433 200.874 91.1458 200.892 91.1528 200.907C91.1598 200.923 91.1709 200.937 91.1851 200.947C91.1972 200.954 91.2105 200.958 91.2241 200.959C91.2378 200.96 91.2515 200.958 91.2644 200.953ZM92.2775 199.254H92.3398C92.5152 199.254 92.5265 199.345 92.5322 199.367C92.5775 199.65 91.8983 200.358 91.4002 200.664C91.4491 200.188 91.6472 199.74 91.9662 199.384C92.047 199.314 92.1483 199.273 92.2549 199.265L92.2775 199.254Z" fill="#6776FF"/>
<path d="M86.6924 200.851H90.8524L91.2656 191.218H87.1055L86.6924 200.851Z" fill="#E4897B"/>
<path d="M61.7279 200.851H65.888L67.9766 191.218H63.8221L61.7279 200.851Z" fill="#E4897B"/>
<path d="M66.1808 200.37H61.5113C61.4279 200.37 61.3473 200.399 61.2825 200.452C61.2177 200.504 61.1726 200.577 61.1547 200.659L60.334 204.357C60.3153 204.447 60.317 204.54 60.3392 204.629C60.3615 204.719 60.4035 204.802 60.4622 204.873C60.521 204.943 60.5949 205 60.6786 205.038C60.7622 205.076 60.8534 205.095 60.9453 205.093C62.5754 205.065 63.3678 204.969 65.4223 204.969C66.6845 204.969 69.2881 205.105 71.0371 205.105C72.786 205.105 73.0067 203.406 72.2936 203.219C69.09 202.516 67.8844 201.548 66.86 200.63C66.6739 200.462 66.4317 200.369 66.1808 200.37Z" fill="#263238"/>
<path d="M90.8229 200.37H86.2949C86.2116 200.37 86.1309 200.399 86.0662 200.452C86.0014 200.504 85.9563 200.577 85.9384 200.659L85.1177 204.357C85.098 204.446 85.0988 204.539 85.12 204.628C85.1411 204.716 85.182 204.799 85.2397 204.87C85.2974 204.941 85.3704 204.998 85.4532 205.037C85.5359 205.075 85.6263 205.095 85.7176 205.093C87.3534 205.065 89.7192 204.969 91.7795 204.969C94.185 204.969 96.2679 205.105 99.0922 205.105C100.79 205.105 101.271 203.406 100.558 203.219C97.3037 202.505 94.6491 202.431 91.8361 200.698C91.5365 200.495 91.185 200.381 90.8229 200.37Z" fill="#263238"/>
<path d="M92.8214 65.2094C96.2983 64.9399 99.758 64.4804 103.185 63.8332C104.883 63.5047 106.615 63.1366 108.335 62.6722C110.099 62.2205 111.831 61.6529 113.52 60.9731C113.956 60.7919 114.397 60.5937 114.833 60.4068C115.324 60.1649 115.797 59.8886 116.248 59.5799C117.063 59.0419 117.765 58.4812 118.461 57.9262C119.848 56.7934 121.133 55.6607 122.423 54.4997C124.953 52.155 127.353 49.731 129.668 47.1824L127.585 44.8547L119.372 50.7618C118.02 51.7359 116.65 52.6931 115.303 53.5936C114.635 54.041 113.95 54.4601 113.322 54.8169C113.059 54.9668 112.787 55.0992 112.507 55.2133C112.173 55.3436 111.833 55.4738 111.477 55.5984C108.418 56.541 105.289 57.2416 102.121 57.6939C98.8889 58.2037 95.5495 58.6228 92.3233 58.9626L92.8214 65.2094Z" fill="#E4897B"/>
<path d="M74.019 58.844C70.1193 59.7388 66.1799 71.1395 66.1799 71.1395L74.2001 76.8993C74.2001 76.8993 76.4641 71.5869 78.6489 66.9428C80.9355 62.0778 78.0036 57.9321 74.019 58.844Z" fill="#6776FF"/>
<path opacity="0.4" d="M74.019 58.844C70.1193 59.7388 66.1799 71.1395 66.1799 71.1395L74.2001 76.8993C74.2001 76.8993 76.4641 71.5869 78.6489 66.9428C80.9355 62.0778 78.0036 57.9321 74.019 58.844Z" fill="black"/>
<path d="M76.2689 65.074L77.8594 68.6363C76.2123 72.193 74.7068 75.7157 74.3049 76.6559C74.3615 72.4479 75.1596 67.2261 76.2689 65.074Z" fill="#6776FF"/>
<path opacity="0.6" d="M76.2689 65.074L77.8594 68.6363C76.2123 72.193 74.7068 75.7157 74.3049 76.6559C74.3615 72.4479 75.1596 67.2261 76.2689 65.074Z" fill="black"/>
<path d="M97.3085 59.0594C97.3085 59.0594 101.735 64.0603 97.5575 95.0228H75.3194C75.1609 91.6247 77.306 74.94 74.0176 58.8442C76.4757 58.3706 78.9618 58.0566 81.4605 57.9041C84.6086 57.7227 87.7646 57.7227 90.9127 57.9041C93.0715 58.1217 95.2099 58.508 97.3085 59.0594Z" fill="#6776FF"/>
<path opacity="0.4" d="M97.3085 59.0594C97.3085 59.0594 101.735 64.0603 97.5575 95.0228H75.3194C75.1609 91.6247 77.306 74.94 74.0176 58.8442C76.4757 58.3706 78.9618 58.0566 81.4605 57.9041C84.6086 57.7227 87.7646 57.7227 90.9127 57.9041C93.0715 58.1217 95.2099 58.508 97.3085 59.0594Z" fill="black"/>
<path d="M98.9571 65.074C99.1042 66.2463 99.2174 67.6339 99.291 69.2706C97.0948 68.6111 95.0082 67.6301 93.099 66.3596L98.9571 65.074Z" fill="#6776FF"/>
<path opacity="0.6" d="M98.9571 65.074C99.1042 66.2463 99.2174 67.6339 99.291 69.2706C97.0948 68.6111 95.0082 67.6301 93.099 66.3596L98.9571 65.074Z" fill="black"/>
<path d="M89.4246 65.6969C92.4018 68.3361 103.767 68.07 103.767 68.07L104.141 57.0601C100.303 57.6071 96.4313 57.8871 92.5546 57.8983C86.2211 57.768 86.1758 62.7859 89.4246 65.6969Z" fill="#6776FF"/>
<path opacity="0.4" d="M89.4246 65.6969C92.4018 68.3361 103.767 68.07 103.767 68.07L104.141 57.0601C100.303 57.6071 96.4313 57.8871 92.5546 57.8983C86.2211 57.768 86.1758 62.7859 89.4246 65.6969Z" fill="black"/>
<path d="M127.479 44.8776L130.309 41.5417L133.359 44.9399C133.359 44.9399 131.48 48.1001 128.497 47.6017L127.479 44.8776Z" fill="#E4897B"/>
<path d="M134.361 37.6514L135.459 42.0066L133.382 44.9177L130.331 41.5422L134.361 37.6514Z" fill="#E4897B"/>
<path d="M91.2656 191.223L91.0505 196.185H86.8904L87.1055 191.223H91.2656Z" fill="#CE6F64"/>
<path d="M63.8165 191.223H67.9766L66.9012 196.185H62.7411L63.8165 191.223Z" fill="#CE6F64"/>
<path d="M88.7657 38.5119C92.4956 36.8129 93.6729 29.2634 82.9416 31.1493C82.9416 31.1493 84.5603 32.939 81.2775 34.0717C77.9947 35.2044 80.7398 42.1989 88.7657 38.5119Z" fill="#263238"/>
<path d="M80.6591 44.1753C81.7288 48.1398 82.1477 50.5524 84.6211 52.2119C88.3227 54.7038 92.9243 51.8437 93.0715 47.6131C93.2016 43.8129 91.4301 37.9285 87.1568 37.1242C86.2135 36.9392 85.2387 36.999 84.3251 37.298C83.4115 37.5971 82.5898 38.1253 81.9382 38.8324C81.2866 39.5395 80.827 40.4018 80.603 41.3371C80.3791 42.2724 80.3984 43.2496 80.6591 44.1753Z" fill="#E4897B"/>
<path d="M83.0869 33.1316C80.5456 34.5475 77.1043 35.3971 77.4269 37.4133C77.8514 39.8769 75.3497 38.3364 75.9327 42.0007C76.3119 44.3964 80.7267 51.657 83.8567 51.3059C88.5318 50.7395 87.9375 43.6262 87.9545 39.8769C87.9658 37.6625 88.0677 30.3395 83.0869 33.1316Z" fill="#263238"/>
<path d="M88.5157 36.3091C89.6477 36.5753 91.1476 43.1053 86.7611 43.7056C81.7181 44.3909 88.5157 36.3091 88.5157 36.3091Z" fill="#263238"/>
<path d="M88.4006 38.6253C89.7873 38.7499 92.9286 37.0791 92.5437 34.5645C92.5437 34.5475 90.5571 37.5039 88.4006 38.6253Z" fill="#263238"/>
<path d="M86.3421 44.2265C86.7677 45.1602 87.4901 45.9269 88.3967 46.4069C89.591 47.0299 90.2645 46.1237 89.9928 44.9231C89.7495 43.847 88.8325 42.2216 87.6043 42.0913C86.3761 41.9611 85.8497 43.0937 86.3421 44.2265Z" fill="#E4897B"/>
<path d="M80.1152 39.6445C79.2694 39.2772 78.5278 38.7057 77.9568 37.9812C77.3859 37.2568 77.0034 36.4019 76.8438 35.4932C76.8438 35.4932 74.976 40.6866 80.1152 39.6445Z" fill="#263238"/>
<path d="M75.3961 39.5601C75.7899 39.2954 76.2432 39.1325 76.7153 39.0861C77.1875 39.0396 77.6638 39.111 78.1016 39.2939C78.1016 39.2939 76.3583 37.0341 75.3961 39.5601Z" fill="#263238"/>
<path d="M89.6699 95.0227C89.6699 95.0227 84.9495 126.818 82.3629 138.728C79.5329 151.754 68.8355 195.227 68.8355 195.227H61.2228C61.2228 195.227 68.2695 152.825 69.8882 139.889C71.6428 125.872 75.3218 95 75.3218 95L89.6699 95.0227Z" fill="#6776FF"/>
<path opacity="0.5" d="M89.6699 95.0227C89.6699 95.0227 84.9495 126.818 82.3629 138.728C79.5329 151.754 68.8355 195.227 68.8355 195.227H61.2228C61.2228 195.227 68.2695 152.825 69.8882 139.889C71.6428 125.872 75.3218 95 75.3218 95L89.6699 95.0227Z" fill="white"/>
<path d="M70.0517 192.418C70.0857 192.418 69.265 195.346 69.265 195.346H60.6957L60.8542 192.735L70.0517 192.418Z" fill="#6776FF"/>
<path opacity="0.1" d="M70.0517 192.418C70.0857 192.418 69.265 195.346 69.265 195.346H60.6957L60.8542 192.735L70.0517 192.418Z" fill="black"/>
<path d="M86.6859 106.35C81.2296 107.42 81.8069 127.78 82.4635 138.252C84.037 130.85 86.3406 116.606 87.9141 106.497C87.5334 106.309 87.1001 106.257 86.6859 106.35Z" fill="#6776FF"/>
<path opacity="0.4" d="M86.6859 106.35C81.2296 107.42 81.8069 127.78 82.4635 138.252C84.037 130.85 86.3406 116.606 87.9141 106.497C87.5334 106.309 87.1001 106.257 86.6859 106.35Z" fill="white"/>
<path d="M97.5588 95.0227C97.5588 95.0227 98.1248 126.127 97.6776 138.819C97.2078 152.015 92.5836 195.227 92.5836 195.227H85.5426C85.5426 195.227 85.2822 152.785 84.9766 139.827C84.6313 125.696 82.9277 95.0227 82.9277 95.0227H97.5588Z" fill="#6776FF"/>
<path opacity="0.5" d="M97.5588 95.0227C97.5588 95.0227 98.1248 126.127 97.6776 138.819C97.2078 152.015 92.5836 195.227 92.5836 195.227H85.5426C85.5426 195.227 85.2822 152.785 84.9766 139.827C84.6313 125.696 82.9277 95.0227 82.9277 95.0227H97.5588Z" fill="white"/>
<path d="M91.1235 190.164C91.1406 190.165 91.157 190.158 91.1696 190.147C91.1822 190.135 91.19 190.119 91.1914 190.102C92.4366 178.141 95.3628 149.2 95.7194 138.819C96.0986 128.222 95.7534 104.447 95.6402 97.4129C95.6402 97.3949 95.633 97.3776 95.6203 97.3649C95.6075 97.3521 95.5903 97.345 95.5722 97.345C95.5537 97.3449 95.5358 97.3519 95.5221 97.3645C95.5085 97.3771 95.5001 97.3944 95.4987 97.4129C95.6119 104.447 95.9571 128.223 95.5779 138.813C95.21 149.195 92.2838 178.124 91.0499 190.085C91.0497 190.104 91.0565 190.123 91.069 190.138C91.0815 190.152 91.0988 190.162 91.1178 190.164H91.1235Z" fill="#6776FF"/>
<path opacity="0.4" d="M91.1235 190.164C91.1406 190.165 91.157 190.158 91.1696 190.147C91.1822 190.135 91.19 190.119 91.1914 190.102C92.4366 178.141 95.3628 149.2 95.7194 138.819C96.0986 128.222 95.7534 104.447 95.6402 97.4129C95.6402 97.3949 95.633 97.3776 95.6203 97.3649C95.6075 97.3521 95.5903 97.345 95.5722 97.345C95.5537 97.3449 95.5358 97.3519 95.5221 97.3645C95.5085 97.3771 95.5001 97.3944 95.4987 97.4129C95.6119 104.447 95.9571 128.223 95.5779 138.813C95.21 149.195 92.2838 178.124 91.0499 190.085C91.0497 190.104 91.0565 190.123 91.069 190.138C91.0815 190.152 91.0988 190.162 91.1178 190.164H91.1235Z" fill="white"/>
<path d="M93.9557 192.418C93.984 192.418 93.5538 195.346 93.5538 195.346H84.9903L84.7582 192.735L93.9557 192.418Z" fill="#6776FF"/>
<path opacity="0.1" d="M93.9557 192.418C93.984 192.418 93.5538 195.346 93.5538 195.346H84.9903L84.7582 192.735L93.9557 192.418Z" fill="black"/>
</svg>
