<svg width="335" height="250" viewBox="0 0 335 250" fill="none" xmlns="http://www.w3.org/2000/svg">
<path d="M335 219.696H0V219.864H335V219.696Z" fill="#EBEBEB"/>
<path d="M290.64 226.836H268.449V227.004H290.64V226.836Z" fill="#EBEBEB"/>
<path d="M209.758 226.756H203.936V226.923H209.758V226.756Z" fill="#EBEBEB"/>
<path d="M301.432 230.493H288.574V230.661H301.432V230.493Z" fill="#EBEBEB"/>
<path d="M76.781 232.721H47.8438V232.889H76.781V232.721Z" fill="#EBEBEB"/>
<path d="M74.2977 225.393H70.0566V225.561H74.2977V225.393Z" fill="#EBEBEB"/>
<path d="M166.463 226.111H125.66V226.279H166.463V226.111Z" fill="#EBEBEB"/>
<path d="M158.791 189.768H29.4206C28.4071 189.766 27.4357 189.362 26.7197 188.644C26.0037 187.925 25.6016 186.952 25.6016 185.937V3.79805C25.6104 2.78883 26.0164 1.82385 26.7315 1.11272C27.4465 0.401585 28.4129 0.00172884 29.4206 0H158.791C159.806 0 160.779 0.403685 161.496 1.12225C162.214 1.84081 162.617 2.8154 162.617 3.8316V185.937C162.617 186.953 162.214 187.927 161.496 188.646C160.779 189.365 159.806 189.768 158.791 189.768ZM29.4206 0.134207C28.4515 0.135985 27.5228 0.522779 26.8382 1.20969C26.1536 1.8966 25.7691 2.8275 25.7691 3.79805V185.937C25.7691 186.907 26.1536 187.838 26.8382 188.525C27.5228 189.212 28.4515 189.599 29.4206 189.6H158.791C159.761 189.599 160.69 189.212 161.376 188.525C162.061 187.839 162.447 186.908 162.449 185.937V3.79805C162.447 2.82688 162.061 1.896 161.376 1.20928C160.69 0.522561 159.761 0.135981 158.791 0.134207H29.4206Z" fill="#EBEBEB"/>
<path d="M303.718 189.768H174.341C173.327 189.766 172.355 189.362 171.638 188.644C170.921 187.926 170.517 186.952 170.516 185.937V3.79805C170.526 2.78822 170.934 1.82325 171.65 1.1123C172.366 0.401351 173.333 0.00170999 174.341 0H303.718C304.725 0.00349239 305.689 0.404129 306.403 1.11507C307.117 1.82602 307.522 2.78999 307.531 3.79805V185.937C307.531 186.95 307.129 187.923 306.415 188.641C305.7 189.359 304.731 189.765 303.718 189.768ZM174.341 0.134207C173.372 0.135981 172.442 0.522561 171.757 1.20928C171.071 1.896 170.685 2.82688 170.683 3.79805V185.937C170.685 186.908 171.071 187.839 171.757 188.525C172.442 189.212 173.372 189.599 174.341 189.6H303.718C304.688 189.599 305.617 189.212 306.303 188.525C306.989 187.839 307.375 186.908 307.377 185.937V3.79805C307.375 2.82688 306.989 1.896 306.303 1.20928C305.617 0.522561 304.688 0.135981 303.718 0.134207H174.341Z" fill="#EBEBEB"/>
<path d="M287.355 27.7338H47.6426V127.644H287.355V27.7338Z" fill="#F0F0F0"/>
<path d="M282.668 122.953V32.4377L52.3354 32.4377V122.953L282.668 122.953Z" fill="#FAFAFA"/>
<path d="M82.6582 122.947L106.282 32.431H123.702L100.078 122.947H82.6582Z" fill="white"/>
<path d="M104.098 122.947L127.722 32.431H135.514L111.89 122.947H104.098Z" fill="white"/>
<path d="M142.221 122.947L165.852 32.431H183.272L159.641 122.947H142.221Z" fill="white"/>
<path d="M186.146 122.947L209.771 32.431H217.569L193.939 122.947H186.146Z" fill="white"/>
<path d="M114.041 122.953V32.4377H112.848V122.953H114.041Z" fill="#E0E0E0"/>
<path d="M53.5254 122.953L53.5254 32.4377H52.3328L52.3328 122.953H53.5254Z" fill="#E0E0E0"/>
<path d="M112.85 122.953V32.4377H108.16V122.953H112.85Z" fill="#F0F0F0"/>
<path d="M172.191 122.953V32.4377H170.999V122.953H172.191Z" fill="#E0E0E0"/>
<path d="M170.998 122.953V32.4377H166.308V122.953H170.998Z" fill="#F0F0F0"/>
<path d="M230.365 122.947V32.431H229.173V122.947H230.365Z" fill="#E0E0E0"/>
<path d="M229.172 122.947V32.431H224.482V122.947H229.172Z" fill="#F0F0F0"/>
<path d="M288.549 127.644V27.7338H287.356V127.644H288.549Z" fill="#E0E0E0"/>
<path d="M291.229 20.8759H43.7709C43.496 20.8741 43.2329 20.764 43.0385 20.5693C42.8442 20.3746 42.7342 20.1111 42.7324 19.8358C42.7324 19.5593 42.8416 19.294 43.0362 19.0979C43.2308 18.9018 43.4949 18.7907 43.7709 18.7889H291.229C291.505 18.7907 291.769 18.9018 291.963 19.0979C292.158 19.294 292.267 19.5593 292.267 19.8358C292.265 20.1111 292.156 20.3746 291.961 20.5693C291.767 20.764 291.504 20.8741 291.229 20.8759Z" fill="#E0E0E0"/>
<g opacity="0.6">
<path d="M95.3693 16.7758H44.7441V199.075H95.3693V16.7758Z" fill="#F5F5F5"/>
<path d="M72.1747 200.565H67.9336L69.1262 18.2655H71.0223L72.1747 200.565Z" fill="#E6E6E6"/>
<path d="M58.1225 200.565H56.0723L56.6485 18.2655H57.5664L58.1225 200.565Z" fill="#E6E6E6"/>
<path d="M86.265 200.565H84.2148L84.791 18.2655H85.7089L86.265 200.565Z" fill="#E6E6E6"/>
</g>
<g opacity="0.6">
<path d="M289.653 16.7759H239.027V199.075H289.653V16.7759Z" fill="#F5F5F5"/>
<path d="M258.868 200.565H254.627L255.82 18.2655H257.716L258.868 200.565Z" fill="#E6E6E6"/>
<path d="M249.504 200.565H247.461L248.03 18.2655H248.948L249.504 200.565Z" fill="#E6E6E6"/>
<path d="M271.167 200.565H269.123L269.699 18.2655H270.61L271.167 200.565Z" fill="#E6E6E6"/>
<path d="M281.594 200.565H279.551L280.12 18.2655H281.038L281.594 200.565Z" fill="#E6E6E6"/>
</g>
<path d="M217.892 218.556H227.406V163.947H217.892V218.556Z" fill="#E6E6E6"/>
<path d="M107.596 218.556H221.557V163.947H107.596V218.556Z" fill="#F0F0F0"/>
<path d="M218.995 218.556H215.564H112.512V219.696H215.564H218.995H222.486V218.556H218.995Z" fill="#E0E0E0"/>
<path opacity="0.5" d="M110.845 189.399H218.307V167.362H110.845V189.399Z" fill="#FAFAFA"/>
<path opacity="0.5" d="M110.845 214.992H218.307V192.956H110.845V214.992Z" fill="#FAFAFA"/>
<path d="M127.132 178.381C127.132 178.86 126.99 179.328 126.725 179.727C126.459 180.125 126.081 180.435 125.639 180.619C125.197 180.802 124.711 180.85 124.242 180.757C123.773 180.663 123.342 180.432 123.003 180.094C122.665 179.755 122.435 179.323 122.341 178.853C122.248 178.383 122.296 177.896 122.479 177.454C122.662 177.011 122.972 176.633 123.37 176.367C123.768 176.1 124.235 175.958 124.714 175.958C125.031 175.958 125.346 176.021 125.639 176.143C125.933 176.264 126.199 176.443 126.424 176.668C126.649 176.893 126.827 177.16 126.948 177.454C127.07 177.748 127.132 178.063 127.132 178.381Z" fill="#E0E0E0"/>
<path d="M206.849 178.381C206.849 178.86 206.707 179.328 206.441 179.727C206.176 180.125 205.798 180.435 205.356 180.619C204.914 180.802 204.428 180.85 203.959 180.757C203.489 180.663 203.058 180.432 202.72 180.094C202.382 179.755 202.152 179.323 202.058 178.853C201.965 178.383 202.013 177.896 202.196 177.454C202.379 177.011 202.689 176.633 203.087 176.367C203.484 176.1 203.952 175.958 204.43 175.958C204.748 175.958 205.063 176.021 205.356 176.143C205.649 176.264 205.916 176.443 206.141 176.668C206.365 176.893 206.543 177.16 206.665 177.454C206.787 177.748 206.849 178.063 206.849 178.381Z" fill="#E0E0E0"/>
<path d="M124.714 206.396C126.049 206.396 127.132 205.312 127.132 203.974C127.132 202.636 126.049 201.551 124.714 201.551C123.378 201.551 122.295 202.636 122.295 203.974C122.295 205.312 123.378 206.396 124.714 206.396Z" fill="#E0E0E0"/>
<path d="M206.849 203.994C206.849 204.473 206.707 204.942 206.441 205.34C206.176 205.738 205.798 206.049 205.356 206.232C204.914 206.415 204.428 206.463 203.959 206.37C203.489 206.276 203.058 206.046 202.72 205.707C202.382 205.368 202.152 204.937 202.058 204.467C201.965 203.997 202.013 203.51 202.196 203.067C202.379 202.624 202.689 202.246 203.087 201.98C203.484 201.714 203.952 201.572 204.43 201.572C205.072 201.572 205.687 201.827 206.141 202.281C206.594 202.735 206.849 203.352 206.849 203.994Z" fill="#E0E0E0"/>
<path d="M166.992 178.381C166.992 178.86 166.85 179.328 166.584 179.727C166.318 180.125 165.941 180.435 165.499 180.619C165.057 180.802 164.57 180.85 164.101 180.757C163.632 180.663 163.201 180.432 162.863 180.094C162.524 179.755 162.294 179.323 162.201 178.853C162.107 178.383 162.155 177.896 162.338 177.454C162.521 177.011 162.831 176.633 163.229 176.367C163.627 176.1 164.095 175.958 164.573 175.958C164.891 175.958 165.205 176.021 165.499 176.143C165.792 176.264 166.059 176.443 166.283 176.668C166.508 176.893 166.686 177.16 166.808 177.454C166.929 177.748 166.992 178.063 166.992 178.381Z" fill="#E0E0E0"/>
<path d="M164.573 206.396C165.909 206.396 166.992 205.312 166.992 203.974C166.992 202.636 165.909 201.551 164.573 201.551C163.237 201.551 162.154 202.636 162.154 203.974C162.154 205.312 163.237 206.396 164.573 206.396Z" fill="#E0E0E0"/>
<path d="M214.507 154.673C214.507 157.133 213.532 159.491 211.795 161.231C210.059 162.97 207.703 163.947 205.248 163.947C202.792 163.947 200.437 162.97 198.7 161.231C196.964 159.491 195.988 157.133 195.988 154.673H214.507Z" fill="#F0F0F0"/>
<path d="M141.297 152.996C141.297 155.895 140.147 158.675 138.101 160.725C136.054 162.775 133.278 163.927 130.383 163.927C127.488 163.927 124.712 162.775 122.665 160.725C120.619 158.675 119.469 155.895 119.469 152.996H141.297Z" fill="#F0F0F0"/>
<path d="M188.216 157.512C188.216 159.218 187.539 160.855 186.334 162.062C185.129 163.269 183.495 163.947 181.791 163.947C180.086 163.947 178.452 163.269 177.247 162.062C176.042 160.855 175.365 159.218 175.365 157.512H188.216Z" fill="#F0F0F0"/>
<path d="M167.498 250C239.243 250 297.404 246.599 297.404 242.404C297.404 238.209 239.243 234.808 167.498 234.808C95.7528 234.808 37.5918 238.209 37.5918 242.404C37.5918 246.599 95.7528 250 167.498 250Z" fill="#F5F5F5"/>
<path d="M233.262 40.5038C231.835 39.0745 229.088 33.6592 231.721 31.1093C234.354 28.5594 236.699 30.8745 236.88 32.1159C237.061 33.3573 236.579 43.8187 233.262 40.5038Z" fill="#263238"/>
<path d="M232.66 235.298L226.677 235.352L225.049 221.501L231.025 221.448L232.66 235.298Z" fill="#FF8B7B"/>
<path d="M226.67 234.661L233.195 234.6C233.316 234.602 233.433 234.642 233.529 234.714C233.625 234.786 233.696 234.887 233.731 235.003L235.313 240.311C235.355 240.434 235.366 240.566 235.347 240.695C235.327 240.824 235.277 240.946 235.2 241.052C235.123 241.157 235.022 241.242 234.905 241.3C234.788 241.358 234.659 241.387 234.529 241.384C232.177 241.384 228.76 241.257 225.819 241.284C222.362 241.284 220.821 241.525 216.76 241.565C214.308 241.565 213.41 239.109 214.449 238.881C219.052 237.814 221.43 237.673 225.283 235.144C225.688 234.851 226.17 234.683 226.67 234.661Z" fill="#263238"/>
<path opacity="0.2" d="M225.049 221.508L225.893 228.648L231.869 228.594L231.032 221.455L225.049 221.508Z" fill="black"/>
<path d="M224.198 235.726C224.844 235.715 225.486 235.636 226.115 235.492C226.144 235.487 226.172 235.473 226.192 235.451C226.213 235.429 226.226 235.401 226.229 235.371C226.231 235.342 226.225 235.313 226.211 235.288C226.196 235.263 226.174 235.242 226.148 235.23C225.867 235.089 223.354 233.889 222.664 234.311C222.6 234.352 222.548 234.409 222.513 234.476C222.478 234.543 222.461 234.618 222.463 234.694C222.462 234.823 222.49 234.95 222.546 235.067C222.601 235.183 222.683 235.285 222.785 235.364C223.204 235.636 223.7 235.764 224.198 235.726ZM225.632 235.297C224.339 235.525 223.354 235.478 222.952 235.156C222.883 235.102 222.827 235.031 222.791 234.951C222.755 234.87 222.739 234.782 222.745 234.694C222.741 234.666 222.745 234.638 222.757 234.613C222.769 234.588 222.788 234.567 222.812 234.553C223.187 234.325 224.607 234.861 225.632 235.297Z" fill="#6776FF"/>
<path d="M226.087 235.533C226.119 235.53 226.149 235.519 226.174 235.499C226.194 235.484 226.209 235.463 226.218 235.439C226.226 235.415 226.227 235.389 226.221 235.365C226.221 235.258 225.752 232.681 224.331 232.842C223.956 232.882 223.849 233.077 223.829 233.224C223.728 233.895 225.263 235.197 226.027 235.519L226.087 235.533ZM224.452 233.117C225.31 233.117 225.738 234.519 225.886 235.13C225.095 234.687 224.05 233.667 224.11 233.265C224.11 233.265 224.11 233.151 224.365 233.124L224.452 233.117Z" fill="#6776FF"/>
<path d="M228.432 70.7472L227.815 71.4182L227.239 71.9886C226.857 72.3644 226.462 72.72 226.067 73.069C225.281 73.7758 224.477 74.4468 223.655 75.0821C221.996 76.4023 220.25 77.6084 218.429 78.6922C217.511 79.2358 216.566 79.7525 215.608 80.2423C214.65 80.7322 213.638 81.1549 212.62 81.5844C210.531 82.4188 208.356 83.0153 206.134 83.3626L205.638 83.4364C205.316 83.478 204.992 83.4981 204.667 83.4968C203.921 83.4898 203.183 83.3442 202.489 83.0674C201.802 82.791 201.173 82.3881 200.634 81.8796C200.204 81.4695 199.83 81.0048 199.521 80.4973C199.094 79.7609 198.771 78.9681 198.563 78.142C198.401 77.5022 198.282 76.852 198.208 76.196C198.086 75.0618 198.053 73.9198 198.108 72.7804C198.155 71.6933 198.242 70.6465 198.362 69.6199C198.617 67.5598 198.979 65.5937 199.421 63.5806C199.863 61.5675 200.366 59.7087 201.015 57.7627L205.417 58.635C205.257 62.4062 205.076 66.2714 205.196 69.9218C205.218 71.6169 205.398 73.3062 205.732 74.968C205.798 75.2749 205.89 75.5757 206.007 75.8672C206.101 76.0953 206.215 76.2362 206.208 76.1758C206.169 76.0736 206.107 75.9818 206.027 75.9074C205.845 75.7308 205.631 75.5897 205.397 75.4914C205.156 75.39 204.901 75.3288 204.64 75.3102C204.52 75.3102 204.466 75.3102 204.392 75.3102H204.466L204.607 75.2699C206.194 74.8616 207.738 74.2998 209.216 73.5924C210.763 72.8446 212.261 71.9973 213.699 71.0559C215.152 70.0896 216.586 69.0428 217.966 67.9356C218.636 67.3853 219.34 66.8082 219.976 66.2244L220.955 65.3387L221.424 64.9025L221.832 64.5133L228.432 70.7472Z" fill="#FF8B7B"/>
<path d="M231.978 68.3784C231.751 62.0506 226.565 59.8496 220.066 64.1643C217.201 65.9837 214.442 67.9665 211.805 70.103L216.006 83.6176C216.006 83.6176 224.046 81.0609 228.695 76.0416C231.824 72.6328 232.059 70.5324 231.978 68.3784Z" fill="#263238"/>
<path opacity="0.2" d="M224.063 71.0759C224.063 71.0759 220.184 76.6321 218.811 82.5372C220.718 81.7226 222.555 80.7531 224.305 79.6383L224.063 71.0759Z" fill="black"/>
<path d="M205.196 60.6413L207.447 55.5482L201.075 53.6827C201.075 53.6827 199.983 56.1186 200.606 60.2991L205.196 60.6413Z" fill="#FF8B7B"/>
<path d="M208.125 49.576L202.584 50.2404L201.076 53.6828L207.448 55.5482L208.125 49.576Z" fill="#FF8B7B"/>
<path d="M224.104 114.25C224.104 114.25 219.99 148.782 219.535 167.262C219.066 186.46 222.824 225.185 222.824 225.185L233.618 224.957C233.618 224.957 234.918 183.501 236.486 164.504C238.187 143.796 242.475 113.875 242.475 113.875L224.104 114.25Z" fill="#6776FF"/>
<path opacity="0.6" d="M224.104 114.25C224.104 114.25 219.99 148.782 219.535 167.262C219.066 186.46 222.824 225.185 222.824 225.185L233.618 224.957C233.618 224.957 234.918 183.501 236.486 164.504C238.187 143.796 242.475 113.875 242.475 113.875L224.104 114.25Z" fill="white"/>
<path opacity="0.2" d="M236.962 124.027C232.138 134.677 233.431 158.465 236.171 168.664C236.271 167.181 236.379 165.779 236.486 164.484C237.605 150.835 239.836 133.194 241.25 122.746C239.936 120.84 238.469 120.692 236.962 124.027Z" fill="black"/>
<path d="M234.946 225.42L222.256 225.675L221.318 221.455L234.792 221.421L234.946 225.42Z" fill="#6776FF"/>
<path d="M259.321 235.298L253.345 235.352L251.717 221.501L257.693 221.448L259.321 235.298Z" fill="#FF8B7B"/>
<path d="M253.329 234.661L259.861 234.6C259.982 234.603 260.098 234.643 260.194 234.715C260.29 234.788 260.361 234.888 260.397 235.003L261.979 240.311C262.019 240.434 262.03 240.565 262.009 240.694C261.989 240.822 261.938 240.944 261.862 241.049C261.785 241.154 261.685 241.239 261.569 241.297C261.453 241.356 261.325 241.385 261.195 241.384C258.836 241.384 255.426 241.257 252.485 241.284C249.028 241.284 247.48 241.525 243.426 241.565C240.974 241.565 240.076 239.109 241.115 238.881C245.711 237.814 248.09 237.673 251.949 235.144C252.352 234.851 252.832 234.683 253.329 234.661Z" fill="#263238"/>
<path opacity="0.2" d="M251.717 221.508L252.554 228.648L258.537 228.594L257.7 221.455L251.717 221.508Z" fill="black"/>
<path d="M250.865 235.726C251.51 235.714 252.152 235.635 252.781 235.492C252.81 235.487 252.837 235.473 252.856 235.451C252.876 235.429 252.887 235.4 252.888 235.371C252.893 235.343 252.888 235.314 252.874 235.288C252.861 235.263 252.84 235.243 252.814 235.23C252.526 235.089 250.014 233.889 249.33 234.311C249.266 234.351 249.213 234.408 249.177 234.475C249.142 234.542 249.126 234.618 249.129 234.694C249.128 234.822 249.156 234.949 249.21 235.065C249.265 235.181 249.345 235.283 249.444 235.364C249.866 235.636 250.365 235.763 250.865 235.726ZM252.299 235.297C251.005 235.525 250.021 235.478 249.619 235.156C249.549 235.101 249.494 235.031 249.457 234.95C249.42 234.87 249.402 234.782 249.404 234.694C249.4 234.666 249.405 234.638 249.416 234.613C249.428 234.588 249.447 234.567 249.471 234.553C249.846 234.325 251.253 234.861 252.299 235.297Z" fill="#6776FF"/>
<path d="M252.746 235.533C252.767 235.532 252.787 235.527 252.806 235.518C252.824 235.509 252.841 235.496 252.854 235.48C252.867 235.464 252.877 235.446 252.883 235.426C252.888 235.406 252.89 235.385 252.887 235.365C252.887 235.258 252.418 232.681 250.998 232.842C250.622 232.882 250.515 233.077 250.488 233.224C250.395 233.895 251.929 235.197 252.693 235.519L252.746 235.533ZM251.118 233.117C251.969 233.117 252.405 234.519 252.552 235.13C251.761 234.687 250.71 233.667 250.77 233.265C250.77 233.265 250.77 233.151 251.024 233.124L251.118 233.117Z" fill="#6776FF"/>
<path d="M234.635 114.022C234.635 114.022 237.616 151.177 239.794 169.51C242.052 188.581 249.489 225.165 249.489 225.165L260.282 224.937C260.282 224.937 257.321 183.4 256.175 164.37C254.922 143.601 254.601 113.566 254.601 113.566L234.635 114.022Z" fill="#6776FF"/>
<path opacity="0.6" d="M234.635 114.022C234.635 114.022 237.616 151.177 239.794 169.51C242.052 188.581 249.489 225.165 249.489 225.165L260.282 224.937C260.282 224.937 257.321 183.4 256.175 164.37C254.922 143.601 254.601 113.566 254.601 113.566L234.635 114.022Z" fill="white"/>
<path d="M261.61 225.42L248.914 225.675L247.982 221.455L261.456 221.421L261.61 225.42Z" fill="#6776FF"/>
<path d="M223.361 62.5069C223.361 62.5069 218.946 78.9203 224.105 114.25C233.739 114.042 249.92 113.666 254.603 113.579C254.724 108.661 251.099 84.5436 255.34 61.2923C252.289 60.7646 249.203 60.4641 246.107 60.3931C241.576 60.2274 237.039 60.326 232.52 60.6884C229.424 61.0552 226.362 61.6632 223.361 62.5069Z" fill="#263238"/>
<path opacity="0.2" d="M253.49 77.84L248.498 73.6997C248.826 76.9341 251.748 84.859 253.289 88.8718C253.262 85.3556 253.295 81.6447 253.49 77.84Z" fill="black"/>
<path d="M235.634 72.0223L230.187 82.8192C230.072 83.0459 230.032 83.3033 230.072 83.5544C230.112 83.8055 230.231 84.0373 230.411 84.2163C230.592 84.3954 230.824 84.5126 231.075 84.5509C231.326 84.5892 231.583 84.5468 231.808 84.4297L235.366 82.4703C235.559 82.3661 235.778 82.3184 235.997 82.3326C236.216 82.3469 236.427 82.4225 236.605 82.5508L240.11 85.0806C240.311 85.2272 240.554 85.3051 240.803 85.3027C241.052 85.3003 241.293 85.2177 241.491 85.0672C241.69 84.9167 241.834 84.7062 241.904 84.4669C241.974 84.2276 241.965 83.9722 241.878 83.7385L237.785 72.2102C237.713 71.9909 237.579 71.7974 237.399 71.6539C237.219 71.5104 237.001 71.4232 236.771 71.4031C236.542 71.3831 236.312 71.4311 236.11 71.5412C235.907 71.6513 235.742 71.8186 235.634 72.0223Z" fill="white"/>
<path d="M244.431 45.0668C243.667 49.4688 242.984 57.5077 246.106 60.3596C246.106 60.3596 245.195 64.3456 236.88 65.7279C231.292 63.9295 232.518 60.6817 232.518 60.6817C237.369 59.4067 237.161 55.7899 236.244 52.4079L244.431 45.0668Z" fill="#FF8B7B"/>
<path opacity="0.2" d="M241.095 48.0529L236.244 52.3743C236.47 53.1622 236.627 53.9682 236.713 54.7833C238.576 54.4746 241.088 52.3676 241.242 50.4149C241.337 49.6251 241.287 48.8246 241.095 48.0529Z" fill="black"/>
<path d="M247.092 39.6516C245.477 45.3688 244.828 48.7977 241.263 51.1397C235.903 54.6559 229.33 50.4686 229.203 44.3689C229.083 38.8933 231.736 30.4584 237.913 29.3847C239.27 29.1437 240.666 29.2536 241.968 29.704C243.271 30.1545 244.437 30.9306 245.356 31.9588C246.276 32.987 246.918 34.2333 247.221 35.5795C247.525 36.9258 247.481 38.3274 247.092 39.6516Z" fill="#FF8B7B"/>
<path d="M243.656 43.1543C242.905 41.3291 242.363 35.3167 245.491 33.8404C248.62 32.3641 251.87 35.9676 251.046 37.672C249.779 40.3159 245.398 47.3818 243.656 43.1543Z" fill="#263238"/>
<path d="M245.524 35.9607C244.754 33.9476 235.568 32.8069 234.282 30.6394C232.754 28.0627 239.019 27.754 243.327 29.0625C247.112 30.2167 249.638 31.3306 249.196 34.1489C248.948 35.746 245.524 35.9607 245.524 35.9607Z" fill="#263238"/>
<path d="M247.52 33.8868C247.52 33.8868 249.53 34.4367 250.628 32.9613C250.28 34.4232 248.571 35.8986 247.52 33.8868Z" fill="#263238"/>
<path d="M238.32 27.6802C235.56 25.5329 231.801 28.056 232.156 30.8542C232.511 33.6524 241.818 35.7795 241.818 35.7795C241.818 35.7795 241.985 30.5321 238.32 27.6802Z" fill="#263238"/>
<path d="M232.164 30.8675C232.586 32.827 234.013 34.3636 236.901 35.5044C235.23 34.2666 233.963 32.5592 233.263 30.5991L232.164 30.8675Z" fill="#263238"/>
<path d="M237.958 39.3624C237.857 39.8386 237.529 40.1672 237.221 40.1001C236.913 40.033 236.745 39.5904 236.846 39.121C236.946 38.6516 237.281 38.323 237.589 38.39C237.897 38.4571 238.065 38.9198 237.958 39.3624Z" fill="#263238"/>
<path d="M232.64 38.2082C232.533 38.6776 232.205 39.0062 231.897 38.9391C231.588 38.8721 231.421 38.4362 231.521 37.9667C231.622 37.4973 231.957 37.1687 232.265 37.2291C232.573 37.2894 232.741 37.7387 232.64 38.2082Z" fill="#263238"/>
<path d="M234.281 38.8127C233.407 40.1328 232.354 41.3251 231.152 42.3558C231.822 43.3154 233.316 43.2684 233.316 43.2684L234.281 38.8127Z" fill="#FF5652"/>
<path d="M234.402 44.8714C235.031 45.0278 235.689 45.0296 236.319 44.8766C236.949 44.7236 237.532 44.4204 238.02 43.9929C238.033 43.9798 238.044 43.9641 238.051 43.9468C238.058 43.9296 238.062 43.911 238.062 43.8923C238.062 43.8735 238.058 43.855 238.051 43.8377C238.044 43.8204 238.033 43.8048 238.02 43.7917C237.993 43.7662 237.957 43.7521 237.919 43.7521C237.882 43.7521 237.846 43.7662 237.819 43.7917C237.361 44.1771 236.82 44.4499 236.239 44.5885C235.657 44.7271 235.051 44.7275 234.469 44.5897C234.432 44.5817 234.393 44.5889 234.361 44.6096C234.329 44.6304 234.306 44.663 234.298 44.7004C234.29 44.7377 234.297 44.7767 234.318 44.8088C234.339 44.8409 234.371 44.8634 234.409 44.8714H234.402Z" fill="#263238"/>
<path d="M239.935 37.9941C239.987 38.0044 240.04 38.0005 240.089 37.9827C240.139 37.9649 240.182 37.934 240.215 37.8933C240.248 37.8525 240.27 37.8035 240.277 37.7515C240.284 37.6995 240.277 37.6465 240.257 37.5982C240.076 37.1849 239.799 36.8208 239.45 36.536C239.1 36.2513 238.688 36.0541 238.247 35.9609C238.172 35.9512 238.097 35.9711 238.037 36.0162C237.977 36.0613 237.937 36.1282 237.925 36.2025C237.92 36.239 237.921 36.2764 237.93 36.3124C237.938 36.3483 237.954 36.3822 237.976 36.4122C237.998 36.4421 238.025 36.4674 238.057 36.4867C238.088 36.506 238.123 36.5188 238.16 36.5246C238.507 36.6011 238.832 36.7598 239.106 36.9874C239.38 37.215 239.595 37.505 239.734 37.8331C239.753 37.8737 239.781 37.9094 239.816 37.9373C239.851 37.9653 239.892 37.9847 239.935 37.9941Z" fill="#263238"/>
<path d="M230.696 35.8658C230.748 35.8803 230.804 35.8785 230.856 35.8605C230.907 35.8425 230.952 35.8093 230.984 35.7652C231.196 35.4803 231.472 35.2493 231.79 35.0909C232.108 34.9325 232.458 34.851 232.813 34.8531C232.888 34.8602 232.962 34.8374 233.02 34.7896C233.078 34.7418 233.114 34.673 233.121 34.5983C233.128 34.5236 233.106 34.4491 233.058 34.3913C233.01 34.3334 232.941 34.2969 232.867 34.2898C232.417 34.2765 231.971 34.3719 231.566 34.5681C231.162 34.7642 230.81 35.0552 230.542 35.4164C230.518 35.4451 230.5 35.4783 230.49 35.5141C230.479 35.5498 230.476 35.5873 230.48 35.6243C230.485 35.6613 230.497 35.6971 230.515 35.7293C230.534 35.7616 230.559 35.7898 230.589 35.8121C230.619 35.839 230.656 35.8575 230.696 35.8658Z" fill="#263238"/>
<path d="M256.801 65.8689C258.02 68.0028 259.039 70.0696 260.097 72.1967C261.156 74.3239 262.107 76.4645 263.012 78.6521C263.916 80.8397 264.794 83.0608 265.558 85.3624C266.352 87.6578 267.023 89.9941 267.568 92.3613L267.976 94.1932C268.155 95.0535 268.232 95.932 268.204 96.8102C268.147 98.4421 267.786 100.049 267.139 101.548C266.001 104.073 264.383 106.352 262.375 108.258C260.584 109.99 258.632 111.547 256.546 112.908C255.534 113.579 254.489 114.197 253.437 114.787C252.385 115.378 251.34 115.921 250.168 116.438L247.943 112.539C248.754 111.868 249.645 111.197 250.476 110.472C251.307 109.748 252.117 109.01 252.921 108.271C254.474 106.829 255.914 105.27 257.23 103.608C258.399 102.182 259.307 100.56 259.91 98.8166C260.117 98.167 260.199 97.4838 260.151 96.8035C260.131 96.53 260.079 96.2597 259.997 95.9983L259.541 94.4952C258.187 90.3259 256.576 86.2449 254.717 82.2757C253.799 80.2626 252.821 78.2495 251.843 76.2364C250.865 74.2233 249.833 72.2102 248.834 70.2977L256.801 65.8689Z" fill="#FF8B7B"/>
<path d="M255.568 61.326C261.156 62.5339 265.042 77.1356 265.042 77.1356L255.052 86.2146C251.876 82.6757 249.377 78.5812 247.682 74.136C245.035 66.8285 249.591 60.0242 255.568 61.326Z" fill="#263238"/>
<path d="M249.154 111.848L242.729 111.915L246.749 118.404C246.749 118.404 251.325 117.27 251.733 114.968L249.154 111.848Z" fill="#FF8B7B"/>
<path d="M238.729 115.747L242.273 120.954L246.715 118.404L242.728 111.915L238.729 115.747Z" fill="#FF8B7B"/>
<path d="M248.847 44.8856C248.134 46.201 246.929 47.1804 245.497 47.61C243.595 48.1669 242.623 46.4692 243.132 44.6641C243.595 43.0402 245.142 40.7923 247.045 41.0271C248.948 41.262 249.698 43.2684 248.847 44.8856Z" fill="#FF8B7B"/>
<path d="M191.897 155.912L184.754 156.431L184.802 157.1L191.946 156.581L191.897 155.912Z" fill="#6776FF"/>
<path d="M198.317 155.449L194.809 155.704L194.857 156.372L198.365 156.117L198.317 155.449Z" fill="#6776FF"/>
<path d="M229.141 76.6789L110.846 85.2212C108.384 85.4135 106.097 86.5706 104.481 88.4412C102.866 90.3118 102.052 92.745 102.216 95.2129L106.236 151.056C106.427 153.526 107.583 155.82 109.454 157.44C111.325 159.06 113.759 159.874 116.226 159.706L122.926 159.223C123.413 159.188 123.893 159.347 124.263 159.667C124.632 159.986 124.86 160.44 124.896 160.927L125.646 171.274C125.658 171.475 125.73 171.667 125.852 171.826C125.974 171.985 126.141 172.104 126.331 172.168C126.522 172.231 126.726 172.236 126.919 172.182C127.112 172.129 127.285 172.018 127.415 171.865L138.631 158.88C139.102 158.337 139.769 158.001 140.487 157.948L234.501 151.164C236.964 150.973 239.253 149.817 240.87 147.946C242.487 146.075 243.302 143.641 243.137 141.172L239.117 85.3285C238.927 82.8615 237.772 80.5693 235.904 78.9498C234.037 77.3303 231.606 76.5143 229.141 76.6789Z" fill="#6776FF"/>
<path d="M128.125 110.855L134.517 110.392L135.039 117.639L142.021 117.136L141.498 109.888L147.917 109.419L149.411 130.127L142.992 130.59L142.389 122.215L135.408 122.725L136.011 131.1L129.626 131.563L128.125 110.855Z" fill="white"/>
<path opacity="0.2" d="M110.846 85.2213C108.384 85.4136 106.097 86.5707 104.481 88.4413C102.866 90.3119 102.052 92.7451 102.216 95.213L106.236 151.056C106.427 153.526 107.583 155.82 109.454 157.44C111.325 159.06 113.759 159.874 116.226 159.706L117.211 159.632C118.847 159.514 120.399 158.858 121.625 157.766C122.851 156.674 123.683 155.207 123.991 153.593L137.465 83.2954L110.846 85.2213Z" fill="black"/>
<path d="M169.464 122.571L157.954 123.403C158.042 124.15 158.355 124.852 158.851 125.416C159.136 125.716 159.486 125.946 159.874 126.088C160.263 126.23 160.678 126.28 161.089 126.235C161.653 126.194 162.198 126.01 162.67 125.698C163.04 125.418 163.356 125.072 163.602 124.678L169.297 124.792C168.677 126.198 167.671 127.399 166.396 128.255C165.225 128.997 163.497 129.445 161.21 129.597C159.611 129.783 157.991 129.611 156.466 129.093C155.244 128.58 154.195 127.725 153.444 126.631C152.584 125.385 152.089 123.923 152.017 122.41C151.898 121.359 151.999 120.295 152.316 119.286C152.632 118.277 153.156 117.346 153.853 116.552C155.247 114.995 157.257 114.12 159.883 113.928C161.622 113.721 163.385 113.928 165.029 114.532C166.287 115.071 167.348 115.987 168.064 117.156C168.883 118.607 169.343 120.234 169.404 121.9L169.464 122.571ZM163.434 120.236C163.353 119.363 162.977 118.544 162.369 117.914C162.063 117.678 161.711 117.507 161.336 117.413C160.962 117.319 160.571 117.302 160.19 117.365C159.809 117.428 159.444 117.569 159.119 117.779C158.795 117.989 158.516 118.263 158.302 118.585C157.944 119.216 157.764 119.933 157.779 120.659L163.434 120.236Z" fill="white"/>
<path d="M171.238 107.735L176.994 107.318L178.488 128.02L172.732 128.436L171.238 107.735Z" fill="white"/>
<path d="M180.854 107.037L186.609 106.62L188.103 127.322L182.354 127.738L180.854 107.037Z" fill="white"/>
<path d="M190.528 119.652C190.42 118.602 190.533 117.541 190.861 116.537C191.188 115.533 191.724 114.61 192.431 113.828C193.865 112.231 195.895 111.336 198.521 111.143C201.514 110.929 203.841 111.636 205.503 113.264C206.883 114.722 207.68 116.636 207.743 118.644C207.806 120.652 207.131 122.613 205.845 124.155C204.424 125.738 202.365 126.633 199.667 126.839C197.571 127.091 195.454 126.592 193.691 125.43C192.753 124.778 191.979 123.917 191.43 122.914C190.881 121.911 190.573 120.795 190.528 119.652ZM196.284 119.223C196.273 120.282 196.636 121.311 197.309 122.128C197.58 122.407 197.909 122.622 198.272 122.761C198.635 122.899 199.023 122.957 199.411 122.93C199.798 122.904 200.175 122.793 200.516 122.606C200.856 122.418 201.152 122.159 201.382 121.846C201.924 120.912 202.127 119.82 201.959 118.753C201.965 117.715 201.607 116.708 200.947 115.908C200.689 115.624 200.369 115.404 200.012 115.265C199.656 115.125 199.272 115.069 198.89 115.103C198.492 115.121 198.104 115.231 197.755 115.424C197.406 115.618 197.107 115.889 196.88 116.216C196.34 117.119 196.138 118.185 196.31 119.223H196.284Z" fill="white"/>
<path d="M209.559 104.956L215.689 104.514L216.031 109.211L215.528 118.773L211.736 119.048L209.894 109.654L209.559 104.956ZM210.899 120.578L216.62 120.162L216.989 125.235L211.26 125.644L210.899 120.578Z" fill="white"/>
<path d="M109.213 66.835C109.183 67.8173 109.235 68.8003 109.368 69.7741C103.296 71.8047 96.8217 72.3184 90.5071 71.2705C90.8102 70.1227 90.9943 68.9466 91.0565 67.761C90.8453 68.9548 90.4305 70.1034 89.8304 71.1564C88.6378 70.9283 87.9678 70.7337 87.9678 70.7337C87.9678 70.7337 89.1872 64.1307 86.9896 59.3261C84.792 54.5215 85.8908 51.8374 87.5524 51.0791C90.6344 41.5907 102.219 43.0871 106.138 46.9388C111.11 51.8239 111.136 65.5868 112.021 68.734C111.29 69.0494 110.574 69.3379 109.857 69.5929C109.498 68.7136 109.28 67.7826 109.213 66.835Z" fill="#263238"/>
<path d="M114.003 81.6042L114.606 83.5167C114.827 84.1877 115.048 84.8588 115.276 85.4962C115.725 86.8383 116.194 88.1804 116.696 89.4688C117.199 90.7571 117.681 92.1126 118.204 93.4278L118.981 95.4409L119.175 95.9375L119.222 96.0516C119.139 95.979 119.044 95.9221 118.941 95.8838C118.793 95.8301 118.733 95.8838 118.827 95.8838C118.988 95.8832 119.149 95.8583 119.303 95.81C119.826 95.6437 120.33 95.4186 120.803 95.139C121.946 94.4722 123.039 93.7231 124.073 92.8977C125.158 92.0522 126.224 91.1463 127.269 90.2136C128.314 89.2809 129.366 88.3079 130.378 87.355L132.435 89.0997C131.577 90.3344 130.672 91.4617 129.755 92.6092C128.837 93.7567 127.805 94.8303 126.746 95.8973C125.657 97.0111 124.47 98.0261 123.202 98.9303C122.476 99.4396 121.696 99.8671 120.877 100.205C120.357 100.414 119.812 100.554 119.256 100.621C118.501 100.716 117.734 100.611 117.031 100.319C116.265 99.9924 115.612 99.4462 115.155 98.7491C115.055 98.5948 114.961 98.4405 114.887 98.2996L114.706 97.9372L114.465 97.4473C114.15 96.7763 113.795 96.1053 113.52 95.4745C112.911 94.1324 112.301 92.7904 111.745 91.4483C111.189 90.1062 110.646 88.7239 110.13 87.3416C109.889 86.6706 109.648 85.9391 109.42 85.2345C109.192 84.53 108.971 83.8388 108.75 83.0134L114.003 81.6042Z" fill="#FFC3BD"/>
<path d="M112.415 75.6456C114.726 76.2361 116.341 85.7513 116.341 85.7513L109.976 90.0862C109.976 90.0862 103.879 80.4837 105.654 77.9405C107.503 75.2966 109.044 74.7866 112.415 75.6456Z" fill="#6776FF"/>
<path d="M112.415 75.6456C114.726 76.2361 116.341 85.7513 116.341 85.7513L109.976 90.0862C109.976 90.0862 103.879 80.4837 105.654 77.9405C107.503 75.2966 109.044 74.7866 112.415 75.6456Z" fill="#6776FF"/>
<path opacity="0.4" d="M112.415 75.6456C114.726 76.2361 116.341 85.7513 116.341 85.7513L109.976 90.0862C109.976 90.0862 103.879 80.4837 105.654 77.9405C107.503 75.2966 109.044 74.7866 112.415 75.6456Z" fill="white"/>
<path opacity="0.3" d="M112.207 77.7727L113.982 87.3618L110.404 89.7909L112.207 77.7727Z" fill="black"/>
<path d="M130.27 87.5832L132.393 82.4565L135.013 87.5832C135.013 87.5832 133.311 90.1332 131.067 89.5091L130.27 87.5832Z" fill="#FFC3BD"/>
<path d="M134.732 81.9266L138.095 83.2821L135.013 87.5835L132.387 82.4568L134.732 81.9266Z" fill="#FFC3BD"/>
<path d="M99.918 235.835H105.526L105.901 222.837H100.293L99.918 235.835Z" fill="#FFC3BD"/>
<path d="M62.3203 219.092L67.4726 221.293L74.2195 210.047L69.0605 207.846L62.3203 219.092Z" fill="#FFC3BD"/>
<path d="M68.4628 220.528L63.1028 217.227C63.0111 217.168 62.901 217.145 62.7934 217.162C62.6858 217.179 62.5884 217.236 62.5199 217.321L59.2972 221.193C59.217 221.294 59.1594 221.411 59.1283 221.537C59.0971 221.662 59.0932 221.793 59.1167 221.92C59.1401 222.047 59.1905 222.168 59.2644 222.274C59.3383 222.38 59.434 222.469 59.5451 222.535C61.4345 223.655 62.3993 224.098 64.7577 225.548C66.2116 226.447 68.235 227.896 70.2383 229.131C72.2416 230.366 73.5883 228.46 72.8446 227.755C69.5951 224.648 69.6889 223.172 69.0792 221.334C68.9778 220.999 68.7588 220.713 68.4628 220.528Z" fill="#263238"/>
<path d="M105.713 235.184H99.4221C99.3138 235.183 99.2087 235.221 99.1262 235.291C99.0437 235.361 98.9893 235.459 98.9732 235.566L98.2563 240.559C98.2388 240.687 98.2493 240.817 98.287 240.941C98.3247 241.064 98.3888 241.178 98.4748 241.275C98.5609 241.371 98.6667 241.448 98.7852 241.499C98.9036 241.55 99.0318 241.575 99.1608 241.572C101.358 241.538 102.417 241.404 105.191 241.404C106.893 241.404 110.417 241.585 112.768 241.585C115.12 241.585 115.241 239.257 114.263 239.042C109.874 238.096 108.145 236.794 106.665 235.553C106.403 235.319 106.065 235.188 105.713 235.184Z" fill="#263238"/>
<path opacity="0.2" d="M105.895 222.843L105.708 229.54H100.1L100.294 222.843H105.895Z" fill="black"/>
<path opacity="0.2" d="M69.0593 207.853L74.2116 210.047L70.7343 215.845L65.582 213.644L69.0593 207.853Z" fill="black"/>
<path d="M112.416 75.6456C112.416 75.6456 115.096 76.5851 109.736 109.513H86.9555C87.3374 100.239 87.3508 94.5218 82.9355 75.4846C86.1208 74.8253 89.3498 74.3992 92.5969 74.2096C96.0385 73.9611 99.4935 73.9611 102.935 74.2096C107.384 74.6122 112.416 75.6456 112.416 75.6456Z" fill="#6776FF"/>
<path opacity="0.4" d="M112.416 75.6456C112.416 75.6456 115.096 76.5851 109.736 109.513H86.9555C87.3374 100.239 87.3508 94.5218 82.9355 75.4846C86.1208 74.8253 89.3498 74.3992 92.5969 74.2096C96.0385 73.9611 99.4935 73.9611 102.935 74.2096C107.384 74.6122 112.416 75.6456 112.416 75.6456Z" fill="white"/>
<path d="M92.6112 74.203C96.053 73.961 99.5075 73.961 102.949 74.203C103.505 74.2567 104.075 74.3171 104.638 74.3842C104.872 74.7368 105.022 75.1386 105.077 75.5586C105.131 75.9787 105.089 76.4056 104.953 76.8066C104.222 78.6117 101.603 78.8197 99.6998 78.8197C92.6581 78.8197 91.4655 74.6995 91.4186 74.5251L91.3516 74.2768L92.6112 74.203Z" fill="white"/>
<path d="M93.6345 62.5538C94.3045 65.909 94.941 71.9886 92.6094 74.2097C92.6094 74.2097 93.5206 77.5648 99.698 77.5648C106.492 77.5648 102.947 74.2097 102.947 74.2097C99.2357 73.3239 99.3362 70.566 99.9794 67.9825L93.6345 62.5538Z" fill="#FFC3BD"/>
<path d="M94.3121 60.1848C93.5148 62.822 94.6203 69.0626 96.2618 71.4783C93.0257 69.6195 91.9336 63.956 91.9336 63.956L94.3121 60.1848Z" fill="#263238"/>
<path opacity="0.2" d="M96.2234 64.7682L99.9821 67.9757C99.8171 68.5771 99.7095 69.1927 99.6605 69.8144C98.2468 69.6063 96.3105 68.0495 96.1497 66.5666C96.0664 65.9675 96.0914 65.3584 96.2234 64.7682Z" fill="black"/>
<path d="M90.5642 56.6085C91.864 62.0237 92.2928 64.3455 95.549 66.674C100.447 70.17 106.805 67.392 107.147 61.6949C107.455 56.5682 105.284 48.5762 99.5556 47.3415C98.2934 47.0624 96.981 47.111 95.7428 47.4826C94.5047 47.8543 93.3819 48.5367 92.4811 49.4652C91.5803 50.3936 90.9314 51.5371 90.5959 52.7873C90.2604 54.0375 90.2495 55.3529 90.5642 56.6085Z" fill="#FFC3BD"/>
<path d="M109.74 109.512C109.74 109.512 114.156 152.74 113.76 169.852C113.379 187.648 106.866 228.232 106.866 228.232H99.2952C99.2952 228.232 100.494 188.674 99.8245 171.194C99.0942 152.136 93.0508 109.499 93.0508 109.499L109.74 109.512Z" fill="#6776FF"/>
<path opacity="0.4" d="M109.74 109.512C109.74 109.512 114.156 152.74 113.76 169.852C113.379 187.648 106.866 228.232 106.866 228.232H99.2952C99.2952 228.232 100.494 188.674 99.8245 171.194C99.0942 152.136 93.0508 109.499 93.0508 109.499L109.74 109.512Z" fill="black"/>
<path d="M98.6654 228.514H107.55L108.206 225.675L98.25 225.326L98.6654 228.514Z" fill="#6776FF"/>
<path opacity="0.2" d="M99.9248 120.269C105.513 131.529 101.044 152.07 99.0672 159.713C98.0555 148.238 96.347 134.213 95.0137 123.9C95.8579 118.102 97.3453 115.075 99.9248 120.269Z" fill="black"/>
<path d="M103.733 109.513C103.733 109.513 98.5743 154.472 94.6816 168.879C90.0653 186.01 72.4912 215.18 72.4912 215.18L65.4629 212.187C65.4629 212.187 76.337 179.065 79.8746 170.04C87.4121 150.781 80.96 122.081 86.9833 109.513H103.733Z" fill="#6776FF"/>
<path opacity="0.4" d="M103.733 109.513C103.733 109.513 98.5743 154.472 94.6816 168.879C90.0653 186.01 72.4912 215.18 72.4912 215.18L65.4629 212.187C65.4629 212.187 76.337 179.065 79.8746 170.04C87.4121 150.781 80.96 122.081 86.9833 109.513H103.733Z" fill="black"/>
<path d="M64.4883 212.208L73.2117 215.925L75.3088 213.576L65.2454 208.738L64.4883 212.208Z" fill="#6776FF"/>
<path d="M99.1613 56.6816C99.2417 57.1242 99.5365 57.4461 99.8313 57.3925C100.126 57.3388 100.294 56.9364 100.213 56.4938C100.133 56.0512 99.838 55.7293 99.5432 55.7763C99.2484 55.8232 99.0474 56.2323 99.1613 56.6816Z" fill="#263238"/>
<path d="M104.162 55.796C104.236 56.2386 104.537 56.5605 104.832 56.5068C105.127 56.4532 105.301 56.0508 105.221 55.6082C105.14 55.1656 104.846 54.8437 104.551 54.8907C104.256 54.9376 104.082 55.3467 104.162 55.796Z" fill="#263238"/>
<path d="M104.422 54.9434L105.434 54.4409C105.434 54.4409 105.032 55.3722 104.422 54.9434Z" fill="#263238"/>
<path d="M102.961 56.7963C103.536 57.7433 104.24 58.606 105.051 59.3596C104.852 59.5612 104.612 59.7172 104.347 59.8168C104.083 59.9165 103.799 59.9574 103.517 59.9367L102.961 56.7963Z" fill="#ED847E"/>
<path d="M101.499 62.0363C101.753 62.0359 102.007 62.0134 102.256 61.9693C102.276 61.9685 102.294 61.9636 102.311 61.955C102.329 61.9464 102.344 61.9342 102.356 61.9192C102.368 61.9043 102.376 61.8869 102.381 61.8684C102.386 61.8498 102.386 61.8304 102.383 61.8116C102.38 61.7927 102.372 61.7748 102.361 61.759C102.35 61.7433 102.336 61.73 102.32 61.7202C102.303 61.7103 102.285 61.7041 102.266 61.702C102.247 61.6998 102.228 61.7018 102.21 61.7077C101.658 61.8178 101.088 61.7955 100.546 61.6429C100.005 61.4902 99.5073 61.2114 99.0941 60.8292C99.069 60.8047 99.0353 60.7909 99.0003 60.7909C98.9652 60.7909 98.9315 60.8047 98.9065 60.8292C98.8935 60.8412 98.8831 60.8557 98.876 60.8718C98.8689 60.888 98.8652 60.9055 98.8652 60.9231C98.8652 60.9408 98.8689 60.9582 98.876 60.9744C98.8831 60.9906 98.8935 61.0051 98.9065 61.017C99.6058 61.6808 100.536 62.0464 101.499 62.0363Z" fill="#263238"/>
<path d="M92.4616 53.4343C92.6081 54.8613 92.8318 56.2792 93.1316 57.6819C93.1316 57.6819 96.4816 53.4343 97.0377 51.1595C96.9048 52.0551 96.6453 52.9272 96.2672 53.7497C96.2672 53.7497 100.776 52.7633 101.219 49.7839C101.211 51.1177 101.063 52.447 100.776 53.7497C100.776 53.7497 105.078 52.0587 104.682 49.2001C104.287 46.3415 97.6809 45.2343 94.6324 46.2006C91.5839 47.1669 88.6024 50.3006 89.5002 54.6086C90.398 58.9166 92.1199 60.5338 92.1199 60.5338C92.1199 60.5338 90.8804 56.1923 92.4616 53.4343Z" fill="#263238"/>
<path d="M90.3316 60.6881C90.7451 61.6821 91.5355 62.4713 92.5292 62.8824C93.8692 63.4192 94.6665 62.2718 94.432 60.9431C94.2243 59.742 93.2796 58.0241 91.8927 58.051C91.5892 58.0644 91.2939 58.1534 91.0333 58.3098C90.7727 58.4662 90.5552 58.6852 90.4003 58.9469C90.2453 59.2086 90.1579 59.5048 90.146 59.8088C90.134 60.1128 90.1978 60.415 90.3316 60.6881Z" fill="#FFC3BD"/>
<path d="M93.2735 51.3677C92.6035 54.0518 93.9971 60.2253 95.7525 62.5538C92.4025 60.8561 91.0625 55.2462 91.0625 55.2462L93.2735 51.3677Z" fill="#263238"/>
<path d="M97.3284 55.1512C97.3629 55.1408 97.3948 55.1235 97.4225 55.1005C97.4501 55.0774 97.4728 55.0491 97.4892 55.0171C97.6305 54.7146 97.8413 54.4499 98.1045 54.2447C98.3677 54.0395 98.6758 53.8997 99.0034 53.8368C99.0727 53.8268 99.1356 53.7907 99.1792 53.7358C99.2228 53.681 99.2438 53.6115 99.2379 53.5417C99.2346 53.5067 99.2243 53.4726 99.2075 53.4417C99.1908 53.4107 99.168 53.3835 99.1405 53.3615C99.1129 53.3396 99.0813 53.3235 99.0473 53.3141C99.0134 53.3048 98.978 53.3023 98.9431 53.307C98.5275 53.3792 98.1352 53.5503 97.7994 53.8058C97.4636 54.0614 97.1941 54.394 97.0135 54.7756C96.9908 54.8223 96.982 54.8745 96.9883 54.926C96.9946 54.9775 97.0157 55.0261 97.049 55.0659C97.0824 55.1056 97.1265 55.1348 97.1761 55.15C97.2257 55.1651 97.2786 55.1655 97.3284 55.1512Z" fill="#263238"/>
<path d="M105.989 53.0712C106.023 53.0727 106.057 53.0668 106.088 53.0541C106.119 53.0414 106.147 53.022 106.17 52.9975C106.219 52.9473 106.247 52.8799 106.247 52.8097C106.247 52.7395 106.219 52.6721 106.17 52.6219C105.885 52.3124 105.53 52.0746 105.136 51.9278C104.741 51.781 104.317 51.7293 103.899 51.7769C103.864 51.7834 103.831 51.7967 103.801 51.816C103.772 51.8354 103.746 51.8605 103.726 51.8898C103.706 51.9191 103.692 51.9521 103.685 51.9868C103.678 52.0215 103.678 52.0573 103.685 52.0921C103.699 52.1599 103.739 52.2195 103.797 52.2582C103.854 52.297 103.925 52.312 103.993 52.3C104.323 52.2631 104.657 52.3046 104.967 52.4211C105.278 52.5377 105.557 52.7259 105.782 52.9706C105.807 53.0018 105.838 53.027 105.874 53.0444C105.91 53.0619 105.95 53.071 105.989 53.0712Z" fill="#263238"/>
<path d="M85.7156 83.4499C84.7843 86.3957 83.8932 89.4892 83.1361 92.5356C82.374 95.5431 81.8166 98.5988 81.4678 101.682L81.4142 102.245C81.4142 102.427 81.4142 102.467 81.4142 102.628C81.4216 102.944 81.4462 103.26 81.4879 103.574C81.5732 104.309 81.6962 105.039 81.8564 105.762C82.1713 107.258 82.5264 108.801 82.982 110.331C83.4376 111.861 83.8262 113.418 84.2818 114.962L85.6218 119.592L83.1361 120.618C81.6085 117.693 80.2819 114.713 79.0424 111.64C78.4461 110.097 77.8632 108.54 77.3808 106.896C77.1396 106.077 76.9118 105.238 76.7108 104.326C76.6153 103.842 76.5482 103.354 76.5098 102.863C76.5098 102.615 76.5098 102.245 76.5098 102.024V101.353C76.5666 99.6431 76.7232 97.938 76.9788 96.2465C77.1999 94.5689 77.5282 92.9316 77.8833 91.3009C78.5804 88.0352 79.4754 84.815 80.5633 81.6582L85.7156 83.4499Z" fill="#FFC3BD"/>
<path d="M82.9499 75.4845C80.6719 76.1556 77.9316 84.0402 77.9316 84.0402L86.7756 90.3747C86.7756 90.3747 90.005 83.812 89.0469 80.8595C88.0486 77.7862 85.5562 74.6927 82.9499 75.4845Z" fill="#6776FF"/>
<path opacity="0.4" d="M82.9499 75.4845C80.6719 76.1556 77.9316 84.0402 77.9316 84.0402L86.7756 90.3747C86.7756 90.3747 90.005 83.812 89.0469 80.8595C88.0486 77.7862 85.5562 74.6927 82.9499 75.4845Z" fill="white"/>
<path d="M70.7277 222.661C70.8366 222.623 70.9357 222.561 71.018 222.48C71.1002 222.399 71.1635 222.3 71.2034 222.192C71.2421 222.122 71.2624 222.044 71.2624 221.964C71.2624 221.884 71.2421 221.806 71.2034 221.736C70.8014 221.146 68.7713 221.193 68.5234 221.199C68.4977 221.2 68.4726 221.208 68.4513 221.222C68.4299 221.236 68.413 221.256 68.4028 221.28C68.3897 221.301 68.3828 221.325 68.3828 221.35C68.3828 221.375 68.3897 221.4 68.4028 221.421C68.9321 221.951 69.9237 222.816 70.6205 222.682L70.7277 222.661ZM68.845 221.441C69.6557 221.441 70.7411 221.555 70.9555 221.87C70.9738 221.9 70.9835 221.935 70.9835 221.971C70.9835 222.006 70.9738 222.041 70.9555 222.071C70.9258 222.152 70.8767 222.225 70.8124 222.282C70.7481 222.339 70.6707 222.38 70.587 222.4C70.2185 222.494 69.5753 222.111 68.845 221.441Z" fill="#6776FF"/>
<path d="M69.4404 221.299C70.0568 221.105 70.7134 220.763 70.8541 220.38C70.889 220.281 70.8895 220.173 70.8555 220.073C70.8215 219.973 70.7549 219.888 70.6665 219.83C70.5884 219.765 70.4966 219.719 70.3979 219.694C70.2993 219.67 70.1964 219.668 70.097 219.69C69.2997 219.83 68.4421 221.198 68.4086 221.259C68.3968 221.279 68.3906 221.302 68.3906 221.326C68.3906 221.349 68.3968 221.373 68.4086 221.393C68.4206 221.413 68.4373 221.429 68.4572 221.441C68.477 221.452 68.4995 221.459 68.5225 221.46C68.8346 221.451 69.1438 221.397 69.4404 221.299ZM70.0568 219.958H70.1439C70.2069 219.945 70.272 219.946 70.3346 219.961C70.3971 219.976 70.4556 220.005 70.5057 220.045C70.6397 220.152 70.6263 220.233 70.6062 220.293C70.4722 220.662 69.4538 221.105 68.7771 221.192C69.0849 220.676 69.5274 220.254 70.0568 219.971V219.958Z" fill="#6776FF"/>
<path d="M107.819 236.163C108.291 236.201 108.763 236.081 109.159 235.821C109.251 235.737 109.321 235.632 109.363 235.515C109.405 235.398 109.418 235.273 109.4 235.15C109.395 235.077 109.371 235.007 109.331 234.946C109.291 234.885 109.237 234.835 109.172 234.801C108.502 234.426 106.258 235.566 106.003 235.693C105.978 235.703 105.957 235.72 105.943 235.742C105.928 235.765 105.92 235.791 105.92 235.817C105.92 235.844 105.928 235.87 105.943 235.892C105.957 235.914 105.978 235.931 106.003 235.941C106.599 236.076 107.208 236.15 107.819 236.163ZM108.817 235.002C108.902 234.997 108.988 235.013 109.065 235.049C109.091 235.064 109.113 235.085 109.129 235.111C109.144 235.137 109.152 235.167 109.152 235.197C109.165 235.274 109.158 235.353 109.132 235.427C109.106 235.501 109.062 235.567 109.005 235.619C108.663 235.928 107.738 235.981 106.499 235.774C107.222 235.387 108.006 235.126 108.817 235.002Z" fill="#6776FF"/>
<path d="M106.083 235.969H106.137C106.807 235.667 108.147 234.459 108.026 233.822C108.026 233.667 107.892 233.486 107.524 233.446C107.392 233.431 107.258 233.444 107.132 233.483C107.005 233.522 106.887 233.587 106.787 233.674C106.117 234.264 105.956 235.774 105.949 235.835C105.948 235.858 105.954 235.882 105.964 235.903C105.975 235.924 105.99 235.942 106.01 235.955C106.032 235.969 106.058 235.974 106.083 235.969ZM107.423 233.694H107.504C107.745 233.694 107.765 233.822 107.765 233.848C107.832 234.231 106.934 235.191 106.251 235.6C106.304 234.962 106.555 234.357 106.968 233.869C107.091 233.757 107.251 233.695 107.417 233.694H107.423Z" fill="#6776FF"/>
<path d="M86.6399 108.177L86.0637 110.19C85.9833 110.345 86.1709 110.506 86.4322 110.506H109.882C110.09 110.506 110.257 110.405 110.271 110.278L110.479 108.264C110.479 108.124 110.311 108.003 110.09 108.003H87.0151C86.9429 107.997 86.8704 108.01 86.8047 108.041C86.739 108.071 86.6823 108.118 86.6399 108.177Z" fill="#263238"/>
<path d="M89.7354 110.754H89.1123C88.9917 110.754 88.8979 110.694 88.9046 110.613L89.1927 107.929C89.1927 107.855 89.3133 107.788 89.4339 107.788H90.0503C90.1776 107.788 90.2647 107.855 90.258 107.929L89.9699 110.613C89.9699 110.72 89.8627 110.754 89.7354 110.754Z" fill="#6776FF"/>
<path opacity="0.4" d="M89.7354 110.754H89.1123C88.9917 110.754 88.8979 110.694 88.9046 110.613L89.1927 107.929C89.1927 107.855 89.3133 107.788 89.4339 107.788H90.0503C90.1776 107.788 90.2647 107.855 90.258 107.929L89.9699 110.613C89.9699 110.72 89.8627 110.754 89.7354 110.754Z" fill="black"/>
<path d="M108.113 110.754H107.497C107.376 110.754 107.283 110.694 107.289 110.613L107.584 107.929C107.584 107.855 107.698 107.788 107.819 107.788H108.435C108.562 107.788 108.656 107.855 108.643 107.929L108.355 110.613C108.348 110.72 108.241 110.754 108.113 110.754Z" fill="#6776FF"/>
<path opacity="0.4" d="M108.113 110.754H107.497C107.376 110.754 107.283 110.694 107.289 110.613L107.584 107.929C107.584 107.855 107.698 107.788 107.819 107.788H108.435C108.562 107.788 108.656 107.855 108.643 107.929L108.355 110.613C108.348 110.72 108.241 110.754 108.113 110.754Z" fill="black"/>
<path d="M98.9269 110.754H98.3105C98.1832 110.754 98.0894 110.694 98.1028 110.613L98.3909 107.929C98.3909 107.855 98.5048 107.788 98.6321 107.788H99.2485C99.3691 107.788 99.4629 107.855 99.4562 107.929L99.1681 110.613C99.1614 110.72 99.0475 110.754 98.9269 110.754Z" fill="#6776FF"/>
<path opacity="0.4" d="M98.9269 110.754H98.3105C98.1832 110.754 98.0894 110.694 98.1028 110.613L98.3909 107.929C98.3909 107.855 98.5048 107.788 98.6321 107.788H99.2485C99.3691 107.788 99.4629 107.855 99.4562 107.929L99.1681 110.613C99.1614 110.72 99.0475 110.754 98.9269 110.754Z" fill="black"/>
<path d="M99.3906 55.8227L100.402 55.3269C100.402 55.3269 100 56.2582 99.3906 55.8227Z" fill="#263238"/>
<path d="M85.4364 118.833L90.2403 122.524L84.6726 123.752C84.6726 123.752 82.3075 121.068 83.1249 118.853L85.4364 118.833Z" fill="#FFC3BD"/>
<path d="M91.4166 127.094L86.6998 127.865L84.127 123.02L90.2373 122.524L91.4166 127.094Z" fill="#FFC3BD"/>
</svg>
