<svg width="18" height="26" viewBox="0 0 18 26" fill="none" xmlns="http://www.w3.org/2000/svg">
<g clip-path="url(#clip0_808_3702)">
<path d="M4.91216 23.0723C4.91267 23.3917 5.00778 23.7045 5.18625 23.9706L6.06017 25.2752C6.20946 25.4982 6.41195 25.6811 6.64962 25.8076C6.8873 25.9341 7.15278 26.0003 7.42244 26.0003H10.5781C10.8477 26.0003 11.1132 25.9341 11.3509 25.8076C11.5886 25.6811 11.7911 25.4982 11.9403 25.2752L12.8143 23.9706C12.9927 23.7045 13.088 23.392 13.0884 23.0723L13.0904 21.1248H4.9096L4.91216 23.0723ZM0 8.9373C0 11.1905 0.841193 13.2461 2.2275 14.8168C3.07227 15.774 4.39364 17.7737 4.89733 19.4607C4.89937 19.4739 4.90091 19.4871 4.90295 19.5003H13.097C13.0991 19.4871 13.1006 19.4744 13.1027 19.4607C13.6064 17.7737 14.9277 15.774 15.7725 14.8168C17.1588 13.2461 18 11.1905 18 8.9373C18 3.99171 13.9556 -0.0154352 8.97188 -0.000200846C3.75545 0.0155413 0 4.21312 0 8.9373ZM9 4.8748C6.74437 4.8748 4.90909 6.69734 4.90909 8.9373C4.90909 9.38621 4.54295 9.7498 4.09091 9.7498C3.63886 9.7498 3.27273 9.38621 3.27273 8.9373C3.27273 5.80105 5.84182 3.2498 9 3.2498C9.45205 3.2498 9.81818 3.61339 9.81818 4.0623C9.81818 4.51121 9.45205 4.8748 9 4.8748Z" fill="#FFA319"/>
</g>
<defs>
<clipPath id="clip0_808_3702">
<rect width="18" height="26" fill="white"/>
</clipPath>
</defs>
</svg>
