<svg width="256" height="198" viewBox="0 0 256 198" fill="none" xmlns="http://www.w3.org/2000/svg">
<path d="M256 184.083H0V184.211H256V184.083Z" fill="#EBEBEB"/>
<path d="M230.349 192.321H213.392V192.449H230.349V192.321Z" fill="#EBEBEB"/>
<path d="M169.585 193.714H165.135V193.842H169.585V193.714Z" fill="#EBEBEB"/>
<path d="M212.879 187.57H203.054V187.698H212.879V187.57Z" fill="#EBEBEB"/>
<path d="M48.9727 188.43H26.8594V188.558H48.9727V188.43Z" fill="#EBEBEB"/>
<path d="M56.7756 188.43H53.5347V188.558H56.7756V188.43Z" fill="#EBEBEB"/>
<path d="M115.277 190.591H67.3125V190.719H115.277V190.591Z" fill="#EBEBEB"/>
<path d="M121.344 161.248H22.4819C21.7074 161.247 20.9651 160.938 20.4179 160.39C19.8708 159.842 19.5635 159.099 19.5635 158.324V19.3523C19.5702 18.5822 19.8805 17.846 20.4269 17.3034C20.9734 16.7608 21.7118 16.4557 22.4819 16.4543H121.344C122.119 16.4543 122.863 16.7624 123.411 17.3106C123.959 17.8589 124.267 18.6025 124.267 19.3779V158.324C124.267 159.1 123.959 159.843 123.411 160.392C122.863 160.94 122.119 161.248 121.344 161.248V161.248ZM22.4819 16.5567C21.7413 16.5581 21.0316 16.8532 20.5085 17.3773C19.9853 17.9015 19.6915 18.6117 19.6915 19.3523V158.324C19.6915 159.065 19.9853 159.775 20.5085 160.299C21.0316 160.823 21.7413 161.119 22.4819 161.12H121.344C122.085 161.119 122.795 160.824 123.319 160.3C123.843 159.776 124.138 159.065 124.139 158.324V19.3523C124.138 18.6113 123.843 17.901 123.319 17.377C122.795 16.8531 122.085 16.5581 121.344 16.5567H22.4819Z" fill="#EBEBEB"/>
<path d="M232.095 161.248H133.228C132.453 161.247 131.71 160.938 131.162 160.39C130.614 159.842 130.306 159.099 130.304 158.324V19.3523C130.312 18.5818 130.624 17.8455 131.171 17.303C131.718 16.7606 132.457 16.4557 133.228 16.4543H232.095C232.864 16.457 233.601 16.7627 234.147 17.3052C234.692 17.8476 235.001 18.5831 235.008 19.3523V158.324C235.008 159.098 234.702 159.84 234.156 160.388C233.609 160.936 232.869 161.245 232.095 161.248V161.248ZM133.228 16.5567C132.487 16.5581 131.776 16.8531 131.252 17.377C130.729 17.901 130.434 18.6113 130.432 19.3523V158.324C130.434 159.065 130.729 159.776 131.252 160.3C131.776 160.824 132.487 161.119 133.228 161.12H232.095C232.836 161.119 233.546 160.824 234.07 160.3C234.594 159.776 234.889 159.065 234.89 158.324V19.3523C234.889 18.6113 234.594 17.901 234.07 17.377C233.546 16.8531 232.836 16.5581 232.095 16.5567H133.228Z" fill="#EBEBEB"/>
<path d="M47.1038 28.2305H53.5345C53.5345 28.2305 51.7476 34.5383 48.2967 36.4225C46.4228 37.4465 42.4395 34.3745 42.4395 34.3745C42.4395 34.3745 47.1601 32.562 47.1038 28.2305Z" fill="#EBEBEB"/>
<path d="M79.3141 32.27C79.3141 32.27 77.4504 35.342 75.4024 35.7875C75.4935 37.6218 75.018 39.4397 74.0405 40.9945C77.5375 40.7385 81.7768 36.5964 79.3141 32.27Z" fill="#F5F5F5"/>
<path d="M32.3433 60.8295C32.3433 60.8295 30.2953 60.7732 28.4162 58.6074C26.9929 59.5495 27.2233 61.5975 27.2233 61.5975C27.2233 61.5975 30.0393 63.3025 32.3433 63.8145C32.4803 62.8242 32.4803 61.8198 32.3433 60.8295Z" fill="#E0E0E0"/>
<path d="M229.781 92.4711C229.781 92.4711 227.763 92.4148 225.854 90.2542C224.435 91.1911 224.661 93.2391 224.661 93.2391C224.661 93.2391 227.477 94.9441 229.781 95.4561C229.918 94.4658 229.918 93.4614 229.781 92.4711V92.4711Z" fill="#E0E0E0"/>
<path d="M55.7211 58.6075C54.6971 57.5016 53.1611 54.3425 53.1611 54.3425C53.1611 54.3425 51.7121 55.9656 51.7992 56.9896C51.8862 58.0136 54.7841 59.3755 54.7841 59.3755L55.7211 58.6075Z" fill="#F5F5F5"/>
<path d="M53.9445 13.7817C52.6287 12.5939 47.9849 10.4179 47.9849 10.4179C47.9849 10.4179 51.3333 9.02526 53.1049 9.3939C54.8764 9.76254 55.9311 13.1929 55.9311 13.1929L53.9445 13.7817Z" fill="#F5F5F5"/>
<path d="M103.281 27.0784C104.412 27.0784 107.551 26.1978 107.551 26.1978C107.551 26.1978 106.527 28.2458 105.528 28.8448C104.53 29.4438 102.584 28.2304 102.584 28.2304L103.281 27.0784Z" fill="#F5F5F5"/>
<path d="M210.626 35.9105L206.336 33.6423C206.336 33.6423 209.746 30.0583 212.71 30.0583C214.318 30.0583 215.89 33.4887 215.89 33.4887C215.89 33.4887 212.116 33.0075 210.626 35.9105Z" fill="#F5F5F5"/>
<path d="M172.646 12.1794C172.646 12.1794 175.744 10.3157 177.766 10.8942C178.544 9.23208 179.815 7.85007 181.407 6.93647C178.176 5.52335 172.498 7.20271 172.646 12.1794Z" fill="#F0F0F0"/>
<path d="M30.0595 99.7005C30.0595 99.7005 30.638 97.3709 31.8515 96.7002C31.4311 95.5501 31.3774 94.298 31.6979 93.1162C29.5321 93.9815 27.6479 97.4324 30.0595 99.7005Z" fill="#F0F0F0"/>
<path d="M216.98 7.83747C216.98 7.83747 218.737 8.83587 219.412 11.6365C221.107 11.4727 221.865 9.55779 221.865 9.55779C221.865 9.55779 220.16 6.72643 218.373 5.19043C217.79 6.00483 217.321 6.89551 216.98 7.83747V7.83747Z" fill="#E6E6E6"/>
<path d="M134.902 11.6468C134.055 11.9562 133.121 11.9213 132.301 11.5496C131.819 12.4046 132.48 13.3979 132.48 13.3979C133.552 13.4655 134.627 13.3915 135.68 13.1777C135.49 12.6351 135.228 12.1203 134.902 11.6468V11.6468Z" fill="#E6E6E6"/>
<path d="M227.979 32.5876C228.363 34.0468 228.245 37.554 228.245 37.554C228.245 37.554 230.293 36.8013 230.687 35.8541C231.081 34.9069 229.151 32.3469 229.151 32.3469L227.979 32.5876Z" fill="#EBEBEB"/>
<path d="M193.577 38.1274C192.225 39.2333 189.419 43.4266 189.419 43.4266C189.419 43.4266 188.559 39.9655 189.163 38.3066C189.768 36.6477 193.259 36.1255 193.259 36.1255L193.577 38.1274Z" fill="#F5F5F5"/>
<path d="M49.3517 107.974L49.751 111.272C49.8394 111.817 49.8873 112.368 49.8944 112.92L49.8278 114.569C49.7408 116.766 49.6077 118.962 49.4029 121.158C49.3997 121.195 49.3893 121.23 49.3723 121.263C49.3554 121.295 49.3322 121.324 49.3041 121.347C49.276 121.37 49.2436 121.388 49.2087 121.398C49.1738 121.409 49.1371 121.413 49.1008 121.409C49.0369 121.402 48.9774 121.373 48.9319 121.327C48.8864 121.282 48.8575 121.222 48.8499 121.158C48.6451 118.962 48.512 116.766 48.425 114.569L48.3584 112.92C48.3655 112.368 48.4134 111.817 48.5018 111.272L48.9011 107.974C48.9043 107.945 48.9133 107.916 48.9277 107.89C48.9421 107.864 48.9615 107.841 48.9848 107.822C49.0082 107.804 49.035 107.79 49.0637 107.782C49.0924 107.774 49.1224 107.771 49.152 107.775C49.2027 107.781 49.2499 107.804 49.286 107.84C49.3222 107.877 49.3453 107.924 49.3517 107.974Z" fill="#FAFAFA"/>
<path d="M49.3517 127.763L49.751 131.061C49.8394 131.604 49.8873 132.154 49.8944 132.704L49.8278 134.353C49.7408 136.549 49.6077 138.751 49.4029 140.947C49.4029 141.021 49.3738 141.091 49.3219 141.143C49.2701 141.195 49.1997 141.224 49.1264 141.224C49.0531 141.224 48.9827 141.195 48.9309 141.143C48.879 141.091 48.8499 141.021 48.8499 140.947C48.6451 138.751 48.512 136.549 48.425 134.353L48.3584 132.704C48.3655 132.154 48.4134 131.604 48.5018 131.061L48.9011 127.763C48.9011 127.704 48.9249 127.646 48.9671 127.604C49.0093 127.562 49.0667 127.538 49.1264 127.538C49.1861 127.538 49.2434 127.562 49.2857 127.604C49.3279 127.646 49.3517 127.704 49.3517 127.763V127.763Z" fill="#F0F0F0"/>
<path d="M45.824 124.691L41.856 125.086C41.1991 125.174 40.5374 125.222 39.8746 125.229L37.888 125.162C35.2393 125.08 32.5956 124.939 29.9571 124.737C29.8838 124.737 29.8135 124.708 29.7616 124.656C29.7098 124.605 29.6807 124.534 29.6807 124.461C29.6807 124.388 29.7098 124.317 29.7616 124.265C29.8135 124.214 29.8838 124.184 29.9571 124.184C32.5991 123.98 35.241 123.846 37.888 123.759L39.8695 123.693C40.5323 123.7 41.194 123.748 41.8509 123.836L45.8189 124.236C45.849 124.238 45.8783 124.247 45.905 124.261C45.9318 124.275 45.9554 124.294 45.9745 124.318C45.9936 124.341 46.0078 124.368 46.0163 124.397C46.0247 124.426 46.0272 124.456 46.0237 124.486C46.0184 124.538 45.9957 124.586 45.9595 124.624C45.9232 124.661 45.8755 124.685 45.824 124.691V124.691Z" fill="#EBEBEB"/>
<path d="M56.8881 117.021L55.8641 118.619C55.7065 118.891 55.5156 119.142 55.2958 119.366L54.5943 119.981C53.6523 120.79 52.6846 121.578 51.6555 122.305C51.6014 122.34 51.5371 122.355 51.4731 122.348C51.4092 122.341 51.3496 122.313 51.3042 122.267C51.2587 122.222 51.2302 122.162 51.2233 122.098C51.2164 122.034 51.2316 121.97 51.2663 121.916C51.9934 120.892 52.8023 119.919 53.5908 118.977L54.2103 118.276C54.4376 118.059 54.6924 117.873 54.9681 117.723L56.5655 116.699C56.6183 116.667 56.6811 116.657 56.7411 116.671C56.801 116.684 56.8537 116.72 56.8881 116.77C56.9117 116.808 56.9243 116.852 56.9243 116.896C56.9243 116.94 56.9117 116.984 56.8881 117.021V117.021Z" fill="#F0F0F0"/>
<path d="M46.9503 126.959L45.5219 128.946C45.304 129.29 45.0518 129.611 44.7692 129.903L43.8732 130.718C42.6649 131.788 41.4361 132.837 40.1459 133.831C40.117 133.853 40.084 133.869 40.0488 133.879C40.0136 133.888 39.9768 133.891 39.9406 133.886C39.9045 133.881 39.8696 133.869 39.838 133.851C39.8065 133.833 39.7788 133.808 39.7567 133.779C39.7209 133.73 39.7017 133.671 39.7017 133.61C39.7017 133.55 39.7209 133.49 39.7567 133.441C40.75 132.151 41.8047 130.922 42.8697 129.714L43.6838 128.818C43.978 128.538 44.2986 128.288 44.6412 128.071L46.6329 126.642C46.657 126.624 46.6844 126.612 46.7135 126.604C46.7426 126.597 46.7728 126.596 46.8024 126.601C46.8319 126.606 46.8602 126.616 46.8856 126.632C46.911 126.648 46.933 126.669 46.9503 126.693C46.9779 126.732 46.9927 126.779 46.9927 126.826C46.9927 126.874 46.9779 126.921 46.9503 126.959Z" fill="#FAFAFA"/>
<path d="M46.6329 122.29L42.9311 119.146C42.2997 118.642 41.6948 118.105 41.1186 117.539L39.4546 115.782C37.236 113.444 35.0566 111.063 32.9164 108.64C32.8667 108.588 32.8389 108.52 32.8389 108.448C32.8389 108.376 32.8667 108.308 32.9164 108.256C32.9657 108.21 33.0307 108.184 33.0982 108.184C33.1656 108.184 33.2306 108.21 33.2799 108.256C35.7068 110.386 38.0961 112.565 40.4479 114.794L42.2041 116.453C42.7929 117.006 43.2793 117.656 43.8118 118.266L46.9503 121.967C46.9925 122.01 47.0162 122.068 47.0162 122.129C47.0162 122.189 46.9925 122.247 46.9503 122.29C46.9075 122.331 46.8507 122.353 46.7916 122.353C46.7325 122.353 46.6757 122.331 46.6329 122.29V122.29Z" fill="#F0F0F0"/>
<path d="M179.958 44.2047L176.64 44.6143C176.095 44.7027 175.544 44.7506 174.991 44.7577L173.343 44.6911C171.146 44.6041 168.95 44.471 166.753 44.2662C166.68 44.2584 166.613 44.2225 166.566 44.1661C166.52 44.1096 166.497 44.0372 166.502 43.9641C166.51 43.9002 166.539 43.8407 166.584 43.7952C166.63 43.7497 166.689 43.7208 166.753 43.7132C168.95 43.5084 171.146 43.3753 173.343 43.2882L174.991 43.2217C175.544 43.2288 176.095 43.2767 176.64 43.365L179.937 43.7644C179.997 43.7644 180.054 43.7881 180.097 43.8304C180.139 43.8726 180.162 43.9299 180.162 43.9897C180.162 44.0494 180.139 44.1067 180.097 44.149C180.054 44.1912 179.997 44.215 179.937 44.215L179.958 44.2047Z" fill="#FAFAFA"/>
<path d="M160.169 44.2049L156.872 44.6043C156.328 44.6927 155.779 44.7406 155.228 44.7477L153.58 44.6811C151.383 44.5941 149.187 44.461 146.985 44.2562C146.912 44.2562 146.841 44.227 146.789 44.1752C146.738 44.1233 146.708 44.053 146.708 43.9797C146.708 43.9063 146.738 43.836 146.789 43.7842C146.841 43.7323 146.912 43.7032 146.985 43.7032C149.187 43.4984 151.383 43.3653 153.58 43.2782L155.228 43.2117C155.779 43.2187 156.328 43.2667 156.872 43.355L160.169 43.7544C160.229 43.7544 160.286 43.7781 160.328 43.8204C160.371 43.8626 160.394 43.9199 160.394 43.9797C160.394 44.0394 160.371 44.0967 160.328 44.139C160.286 44.1812 160.229 44.2049 160.169 44.2049V44.2049Z" fill="#F0F0F0"/>
<path d="M163.246 40.6771L162.847 36.7091C162.758 36.0522 162.711 35.3904 162.704 34.7276L162.77 32.7462C162.857 30.1043 162.99 27.4572 163.195 24.8153C163.202 24.7424 163.236 24.6749 163.292 24.6271C163.347 24.5794 163.419 24.555 163.492 24.5593C163.558 24.5651 163.62 24.5939 163.667 24.6407C163.714 24.6875 163.742 24.7494 163.748 24.8153C163.953 27.4572 164.086 30.1043 164.173 32.7462L164.24 34.7276C164.233 35.3904 164.185 36.0522 164.096 36.7091L163.697 40.6771C163.695 40.707 163.687 40.7362 163.674 40.7629C163.66 40.7896 163.641 40.8132 163.618 40.8324C163.595 40.8516 163.568 40.8658 163.54 40.8744C163.511 40.8829 163.481 40.8854 163.451 40.8819C163.398 40.8773 163.349 40.8542 163.311 40.8168C163.274 40.7793 163.251 40.7298 163.246 40.6771V40.6771Z" fill="#EBEBEB"/>
<path d="M170.911 51.7415L169.313 50.7175C169.037 50.5672 168.783 50.3813 168.555 50.1646L167.936 49.4478C167.127 48.5057 166.338 47.538 165.611 46.5089C165.569 46.4483 165.553 46.3735 165.565 46.3007C165.578 46.2279 165.618 46.163 165.678 46.1198C165.725 46.086 165.781 46.0679 165.839 46.0679C165.897 46.0679 165.954 46.086 166.001 46.1198C167.025 46.8468 167.997 47.6558 168.939 48.4443L169.641 49.0638C169.858 49.2911 170.043 49.5458 170.194 49.8215L171.218 51.419C171.249 51.4717 171.259 51.5345 171.246 51.5945C171.233 51.6545 171.197 51.7071 171.146 51.7415C171.11 51.7622 171.07 51.7731 171.028 51.7731C170.987 51.7731 170.946 51.7622 170.911 51.7415V51.7415Z" fill="#F0F0F0"/>
<path d="M160.978 41.8036L158.986 40.3751C158.643 40.1559 158.323 39.9039 158.029 39.6225L157.215 38.7265C156.145 37.5182 155.095 36.2894 154.102 34.9991C154.079 34.9703 154.063 34.9373 154.054 34.9021C154.044 34.8668 154.042 34.8301 154.046 34.7939C154.051 34.7577 154.063 34.7229 154.081 34.6913C154.1 34.6597 154.124 34.6321 154.153 34.61C154.202 34.5742 154.261 34.5549 154.322 34.5549C154.383 34.5549 154.442 34.5742 154.491 34.61C155.781 35.6033 157.01 36.658 158.218 37.723L159.114 38.537C159.396 38.831 159.648 39.1517 159.867 39.4945L161.295 41.4862C161.332 41.5293 161.351 41.5845 161.348 41.6409C161.346 41.6973 161.322 41.7507 161.282 41.7906C161.242 41.8305 161.189 41.854 161.133 41.8564C161.076 41.8588 161.021 41.84 160.978 41.8036V41.8036Z" fill="#FAFAFA"/>
<path d="M165.647 41.486L168.786 37.7843C169.29 37.1529 169.827 36.5479 170.393 35.9718L172.15 34.3129C174.491 32.0908 176.872 29.9097 179.292 27.7695C179.345 27.726 179.412 27.7038 179.481 27.7071C179.55 27.7105 179.614 27.7392 179.663 27.7878C179.711 27.8363 179.74 27.9012 179.744 27.9697C179.747 28.0383 179.725 28.1056 179.681 28.1587C177.544 30.5856 175.363 32.9749 173.138 35.3267L171.479 37.0828C170.903 37.6495 170.298 38.1861 169.666 38.6905L165.965 41.8291C165.942 41.8489 165.916 41.864 165.888 41.8734C165.86 41.8829 165.83 41.8866 165.8 41.8842C165.771 41.8818 165.742 41.8734 165.716 41.8595C165.689 41.8457 165.666 41.8266 165.647 41.8035C165.626 41.7829 165.609 41.7583 165.597 41.731C165.586 41.7037 165.58 41.6744 165.58 41.6447C165.58 41.6151 165.586 41.5858 165.597 41.5585C165.609 41.5312 165.626 41.5066 165.647 41.486V41.486Z" fill="#F0F0F0"/>
<path d="M128 197.205C182.826 197.205 227.272 194.61 227.272 191.409C227.272 188.208 182.826 185.614 128 185.614C73.174 185.614 28.7285 188.208 28.7285 191.409C28.7285 194.61 73.174 197.205 128 197.205Z" fill="#F5F5F5"/>
<path d="M193.162 76.1839C192.835 76.4246 192.584 76.6038 192.297 76.7932C192.01 76.9827 191.739 77.1567 191.457 77.3411C190.899 77.6892 190.331 78.0323 189.763 78.3651C188.611 79.0102 187.438 79.6143 186.225 80.1519C185.013 80.6997 183.772 81.1817 182.508 81.5958C181.878 81.8211 181.222 81.9951 180.572 82.1743L179.584 82.415L179.338 82.4764L179.164 82.5123L178.954 82.5532C178.657 82.6088 178.356 82.6379 178.053 82.6403C177.429 82.6533 176.807 82.5509 176.22 82.3382C175.686 82.1436 175.185 81.8672 174.735 81.519C174.017 80.9486 173.405 80.2552 172.928 79.471C172.181 78.2191 171.616 76.8676 171.249 75.4569C170.565 72.9062 170.207 70.2792 170.184 67.6387C170.173 67.2788 170.295 66.9276 170.527 66.6518C170.758 66.3759 171.082 66.1945 171.439 66.1421C171.795 66.0897 172.158 66.1699 172.459 66.3674C172.76 66.5649 172.978 66.8661 173.071 67.2137V67.2854C173.677 69.5719 174.447 71.8118 175.375 73.9875C175.772 74.9446 176.288 75.8478 176.911 76.6755C177.113 76.9448 177.365 77.1726 177.654 77.3462C177.853 77.4332 177.828 77.3462 177.823 77.3462C178.182 77.1919 178.549 77.0585 178.924 76.9468C179.436 76.7369 179.994 76.5475 180.521 76.3171C181.586 75.887 182.636 75.375 183.675 74.8579C184.714 74.3407 185.723 73.7724 186.747 73.1785C187.259 72.8918 187.771 72.5897 188.247 72.2825L189.66 71.3763L189.778 71.2995C190.425 70.8709 191.214 70.7139 191.975 70.8623C192.737 71.0107 193.409 71.4526 193.847 72.0926C194.286 72.7327 194.455 73.5194 194.318 74.283C194.181 75.0466 193.749 75.7257 193.116 76.1737L193.162 76.1839Z" fill="#FFB573"/>
<path d="M173.261 69.5943L173.414 65.3345L168.663 66.8398C168.603 67.6355 168.798 68.4296 169.22 69.1071C169.641 69.7846 170.268 70.3103 171.008 70.6081L173.261 69.5943Z" fill="#FFB573"/>
<path d="M170.731 62.8206L168.99 64.1672C168.831 64.2901 168.706 64.4512 168.625 64.6356C168.545 64.8199 168.512 65.0215 168.53 65.2219L168.663 66.8398L173.414 65.3345L172.58 63.3121C172.509 63.1411 172.4 62.9888 172.26 62.8669C172.121 62.745 171.956 62.6568 171.777 62.6093C171.598 62.5617 171.411 62.556 171.229 62.5927C171.048 62.6293 170.878 62.7073 170.731 62.8206V62.8206Z" fill="#FFB573"/>
<path d="M192.537 68.7906C189.214 69.3589 185.723 72.9532 185.723 72.9532C185.723 72.9532 186.573 76.8648 187.259 80.7612C196.045 79.6296 198.82 67.7205 192.537 68.7906Z" fill="#6776FF"/>
<path d="M188.636 73.588C189.184 83.7421 189.184 93.9184 188.636 104.073L209.469 105.609C211.297 94.6722 210.944 84.3042 211.144 73.9464C211.2 70.9717 210.319 68.2376 207.355 67.956C206.259 67.8536 203.771 67.8229 202.803 67.8434C199.879 67.877 196.959 68.0822 194.058 68.4578C193.433 68.5653 192.814 68.6882 192.23 68.8264C191.164 69.065 190.217 69.6749 189.559 70.5471C188.9 71.4193 188.573 72.4971 188.636 73.588V73.588Z" fill="#6776FF"/>
<path opacity="0.2" d="M206.582 73.9158C206.582 73.9158 208.046 78.7081 211.051 79.8089C211.051 77.8991 211.082 75.9894 211.118 74.0847L206.582 73.9158Z" fill="black"/>
<path d="M188.667 102.624C188.667 102.624 173.629 117.123 168.473 127.855C163.113 139.016 153.426 160.234 153.426 160.234L156.61 161.826C156.61 161.826 175.083 137.793 176.317 131.26C183.055 119.847 200.064 114.584 202.977 104.784C196.792 102.946 188.667 102.624 188.667 102.624Z" fill="#FFB573"/>
<path d="M195.496 104.073C195.496 104.073 193.223 124.588 193.909 135.996C194.667 148.494 201.077 171.098 201.077 171.098L204.149 170.94C204.149 170.94 205.076 151.673 201.548 137.89C203.596 128.751 209.607 115.362 209.433 105.603C204.833 104.743 200.174 104.231 195.496 104.073Z" fill="#FFB573"/>
<path d="M206.249 170.776C205.481 170.054 204.426 169.24 204.262 167.228C204.262 167.228 200.596 168.912 200.852 170.3C201.108 171.687 201.042 176.131 198.615 178.916C198.277 179.306 199.291 179.756 200.412 179.336C202.317 178.625 202.486 177.913 202.972 176.3C203.392 174.918 205.476 173.474 206.315 172.685C207.017 172.01 207.017 171.498 206.249 170.776Z" fill="#FFB573"/>
<path d="M155.725 164.663C156.165 163.71 156.032 162.353 157.153 160.925C157.153 160.925 155.105 158.396 154.056 159.317C153.006 160.239 149.959 160.981 146.457 159.829C145.945 159.665 145.669 161.15 146.754 161.647C148.557 162.471 149.888 163.055 151.424 163.756C152.735 164.355 152.96 164.78 153.948 165.349C154.793 165.804 155.279 165.641 155.725 164.663Z" fill="#FFB573"/>
<path d="M195.788 68.509C198.297 67.485 198.077 65.2936 197.457 63.2559L202.864 58.397C202.449 61.2795 201.953 66.0309 204.047 67.8331C204.047 67.8331 202.864 71.7499 197.15 72.7483C194.913 71.8933 194.319 69.0056 195.788 68.509Z" fill="#FFB573"/>
<path opacity="0.2" d="M200.54 60.3425L197.468 63.2507C197.632 63.7509 197.75 64.265 197.821 64.7867C198.645 64.8584 200.852 63.6603 200.893 62.3803C200.876 61.6874 200.757 61.0007 200.54 60.3425V60.3425Z" fill="black"/>
<path d="M216.14 49.5546L213.657 45.6788L218.491 44.4653C218.491 44.4653 220.027 48.3463 218.491 49.3396L216.14 49.5546Z" fill="#FFB573"/>
<path d="M207.063 68.8724L207.344 68.7547L207.693 68.5959L208.409 68.2529C208.886 68.0123 209.362 67.7409 209.828 67.4747C210.758 66.9299 211.652 66.3263 212.505 65.6673C213.342 65.0132 214.128 64.296 214.856 63.522C215.209 63.1329 215.542 62.7335 215.88 62.3239L216.299 61.7556C216.395 61.6194 216.479 61.4755 216.55 61.3255C216.617 61.1813 216.674 61.0324 216.719 60.8801C216.776 60.6902 216.81 60.4943 216.822 60.2964C216.883 59.7435 216.95 59.1905 216.97 58.6375C216.991 58.0846 217.011 57.5214 217.021 56.9633C217.031 56.4052 217.021 55.842 216.955 55.2839C216.876 54.1585 216.72 53.0397 216.489 51.9355C216.371 51.3825 216.253 50.8244 216.089 50.2868C216.018 50.0155 215.926 49.7492 215.839 49.483L215.588 48.7508L215.511 48.5409C215.392 48.2095 215.398 47.8465 215.526 47.5187C215.654 47.1909 215.896 46.9204 216.208 46.757C216.519 46.5937 216.88 46.5485 217.222 46.6298C217.564 46.7111 217.866 46.9134 218.071 47.1995C218.322 47.5425 218.496 47.7934 218.685 48.0955C218.875 48.3975 219.033 48.674 219.197 48.971C219.525 49.5598 219.812 50.1639 220.083 50.7783C220.603 52.0144 221.013 53.2944 221.307 54.603C221.61 55.9173 221.802 57.255 221.88 58.6017C221.926 59.2775 221.926 59.9483 221.921 60.6497C221.93 61.0679 221.901 61.4861 221.834 61.899C221.76 62.3495 221.649 62.793 221.501 63.2251C221.35 63.6487 221.168 64.0611 220.959 64.459L220.79 64.7559L220.651 64.9915L220.375 65.442C219.999 66.0418 219.588 66.6196 219.146 67.1726C218.276 68.2687 217.304 69.2802 216.243 70.1934C215.197 71.0968 214.077 71.9103 212.895 72.6254C212.301 72.9735 211.696 73.3063 211.072 73.6135C210.759 73.7671 210.447 73.9156 210.12 74.059L209.608 74.2638L209.029 74.4788C208.305 74.7399 207.508 74.7083 206.807 74.3907C206.106 74.073 205.557 73.4944 205.276 72.778C204.995 72.0616 205.005 71.2639 205.303 70.5545C205.602 69.8452 206.165 69.2803 206.873 68.9799L207.063 68.8724Z" fill="#FFB573"/>
<path d="M204.631 67.8331C207.078 67.8331 211.63 65.8977 211.63 65.8977C211.63 65.8977 214.318 70.8539 214.702 73.4548C213.144 75.7638 210.824 77.4526 208.149 78.2267C205.164 76.6599 203.807 72.7483 204.631 67.8331Z" fill="#6776FF"/>
<path d="M181.299 127.409C181.299 127.409 175.329 124.962 171.96 120.753C175.749 113.503 184.565 103.222 187.161 102.46C187.488 101.618 187.869 100.799 188.303 100.007L205.199 102.521C204.288 110.723 186.588 123.339 181.299 127.409Z" fill="#263238"/>
<path opacity="0.2" d="M193.817 110.559C191.503 111.614 189.209 117.338 188.518 121.87C191.945 119.198 195.21 116.326 198.297 113.268C196.428 111.783 194.278 110.355 193.817 110.559Z" fill="black"/>
<path d="M193.054 128.869C193.054 128.869 197.437 130.087 205.163 128.735C206.576 120.984 212.167 108.895 210.35 105.322C210.708 104.517 210.788 103.616 210.575 102.762L189.737 100.202C188.027 102.792 192.87 121.142 193.054 128.869Z" fill="#263238"/>
<path d="M214.016 42.1103L216.652 41.5983C216.839 41.5644 217.033 41.597 217.198 41.6905C217.364 41.784 217.491 41.9325 217.559 42.1103L218.47 44.4808L213.637 45.6943L213.371 42.9909C213.346 42.7897 213.399 42.5867 213.519 42.4232C213.639 42.2596 213.816 42.1478 214.016 42.1103V42.1103Z" fill="#FFB573"/>
<path d="M197.632 49.519C194.314 49.1657 192.783 51.1522 194.903 55.0281C197.56 51.3007 197.632 49.519 197.632 49.519Z" fill="#263238"/>
<path d="M205.265 55.4017C204.303 59.1546 203.929 61.3972 201.635 62.9792C198.19 65.3549 193.838 62.713 193.664 58.7501C193.505 55.1661 195.102 49.6519 199.111 48.8532C199.993 48.6741 200.907 48.7234 201.765 48.9963C202.622 49.2693 203.396 49.7569 204.013 50.4129C204.629 51.0688 205.068 51.8714 205.287 52.7445C205.506 53.6176 205.499 54.5323 205.265 55.4017Z" fill="#FFB573"/>
<path d="M204.436 59.0166L201.636 57.4806C201.636 57.4806 202.03 55.151 203.499 54.3267C202.224 53.6201 201.375 51.7923 201.451 50.9423C199.449 51.4543 196.516 51.1011 195.307 50.3791C193.111 49.0531 193.198 46.4931 194.872 45.5203C195.42 47.2201 196.295 48.111 198.364 47.1382C200.432 46.1654 203.32 45.8121 204.411 47.4351C205.501 49.0582 208.179 47.7526 209.659 49.1452C210.007 49.4367 210.27 49.8169 210.419 50.2455C210.569 50.6741 210.6 51.1352 210.51 51.58C210.419 52.0249 210.21 52.437 209.904 52.7726C209.598 53.1083 209.207 53.3551 208.773 53.487C211.328 55.5247 209.034 58.5763 204.436 59.0166Z" fill="#263238"/>
<path d="M207.672 53.2922C208.401 53.1632 209.153 53.3069 209.784 53.6958C210.414 54.0847 210.88 54.6918 211.092 55.4017C210.257 54.5518 208.629 53.3383 207.672 53.2922Z" fill="#263238"/>
<path d="M207.872 53.2463C208.373 53.5486 208.968 53.6557 209.543 53.5471C210.118 53.4385 210.633 53.1218 210.99 52.6575C210.13 53.0466 208.583 53.4869 207.872 53.2463Z" fill="#263238"/>
<path d="M206.244 58.7861C205.69 59.5914 204.839 60.1439 203.878 60.3221C202.609 60.5423 202.102 59.3749 202.562 58.2434C202.977 57.2194 204.139 55.878 205.363 56.1954C206.587 56.5128 206.914 57.798 206.244 58.7861Z" fill="#FFB573"/>
<path d="M199.306 55.3556C199.245 55.6628 199.035 55.8676 198.83 55.8676C198.625 55.8676 198.512 55.545 198.574 55.2378C198.635 54.9306 198.845 54.7258 199.045 54.7258C199.245 54.7258 199.362 55.0484 199.306 55.3556Z" fill="#263238"/>
<path d="M195.809 54.685C195.752 54.9922 195.537 55.197 195.338 55.197C195.138 55.197 195.02 54.8744 195.077 54.5621C195.133 54.2498 195.353 54.0501 195.553 54.0757C195.752 54.1013 195.87 54.3778 195.809 54.685Z" fill="#263238"/>
<path d="M196.771 55.0281C196.222 55.9019 195.556 56.6961 194.79 57.3884C194.972 57.5799 195.194 57.7294 195.44 57.8267C195.686 57.9239 195.95 57.9665 196.213 57.9516L196.771 55.0281Z" fill="#ED893E"/>
<path d="M197.427 59.2316C197.194 59.2439 196.96 59.2267 196.731 59.1804C196.707 59.1754 196.686 59.1616 196.671 59.1417C196.657 59.1217 196.651 59.0972 196.654 59.0729C196.657 59.0606 196.661 59.049 196.668 59.0387C196.675 59.0284 196.685 59.0196 196.695 59.0129C196.706 59.0062 196.717 59.0017 196.73 58.9997C196.742 58.9977 196.755 58.9982 196.767 59.0012C197.149 59.0845 197.545 59.076 197.924 58.9763C198.302 58.8766 198.651 58.6886 198.943 58.4278C198.96 58.4101 198.983 58.3999 199.007 58.3994C199.032 58.399 199.056 58.4082 199.073 58.4252C199.091 58.4422 199.101 58.4655 199.102 58.4899C199.102 58.5144 199.093 58.5381 199.076 58.5558C198.625 58.9712 198.04 59.211 197.427 59.2316V59.2316Z" fill="#263238"/>
<path d="M201.216 53.9221C201.18 53.9175 201.146 53.9031 201.118 53.8805C201.09 53.8579 201.069 53.828 201.057 53.7941C200.993 53.5708 200.878 53.3655 200.721 53.1948C200.564 53.024 200.368 52.8926 200.151 52.811C200.104 52.7979 200.065 52.7668 200.041 52.7247C200.017 52.6825 200.01 52.6326 200.023 52.5858C200.029 52.5623 200.039 52.5402 200.054 52.5209C200.069 52.5017 200.087 52.4856 200.108 52.4736C200.129 52.4616 200.153 52.4541 200.177 52.4513C200.201 52.4486 200.225 52.4508 200.248 52.4578C200.526 52.5529 200.777 52.7139 200.979 52.927C201.182 53.14 201.33 53.3989 201.41 53.6814C201.418 53.7043 201.422 53.7285 201.42 53.7526C201.418 53.7767 201.412 53.8002 201.401 53.8218C201.39 53.8433 201.374 53.8624 201.356 53.8778C201.337 53.8933 201.316 53.9049 201.293 53.9118C201.268 53.9202 201.242 53.9237 201.216 53.9221V53.9221Z" fill="#263238"/>
<path d="M194.673 52.381C194.63 52.3722 194.592 52.3487 194.565 52.3145C194.55 52.2954 194.538 52.2735 194.532 52.25C194.525 52.2264 194.523 52.2018 194.526 52.1775C194.529 52.1532 194.536 52.1297 194.548 52.1084C194.56 52.0871 194.576 52.0684 194.596 52.0534C194.819 51.8631 195.086 51.7301 195.372 51.6659C195.658 51.6017 195.956 51.6081 196.239 51.6847C196.262 51.6917 196.284 51.7032 196.303 51.7187C196.321 51.7342 196.336 51.7533 196.347 51.7748C196.358 51.7963 196.365 51.8199 196.367 51.844C196.368 51.8681 196.365 51.8923 196.357 51.9151C196.342 51.9611 196.309 51.9992 196.266 52.0212C196.223 52.0433 196.173 52.0475 196.127 52.0329C195.901 51.9777 195.666 51.9767 195.439 52.0301C195.213 52.0835 195.003 52.1897 194.826 52.3401C194.805 52.3573 194.78 52.3699 194.754 52.377C194.727 52.384 194.7 52.3854 194.673 52.381V52.381Z" fill="#263238"/>
<path d="M126.592 153.409H117.637L116.229 123.134H128L126.592 153.409Z" fill="#6776FF"/>
<path opacity="0.2" d="M127.544 132.918C125.996 134.135 124.084 134.796 122.115 134.796C120.146 134.796 118.234 134.135 116.685 132.918V132.918L116.224 123.139H128L127.544 132.918Z" fill="black"/>
<path d="M95.744 107.795C83.3178 107.795 71.5008 98.4968 68.2496 86.1678L62.464 64.1876C61.9273 62.3271 61.8283 60.3675 62.1747 58.4623C62.5211 56.5571 63.3035 54.7578 64.4608 53.2052C65.6111 51.7413 67.0847 50.5635 68.7662 49.764C70.4477 48.9646 72.2914 48.5652 74.153 48.5972H91.8528C92.9564 48.6355 94.0019 49.1008 94.7691 49.895C95.5362 50.6892 95.965 51.7503 95.965 52.8545C95.965 53.9587 95.5362 55.0198 94.7691 55.814C94.0019 56.6082 92.9564 57.0735 91.8528 57.1118H74.1581C73.6004 57.0775 73.0425 57.1756 72.53 57.3981C72.0175 57.6205 71.5648 57.961 71.209 58.3918C70.8499 58.9137 70.6168 59.5118 70.528 60.139C70.4391 60.7662 70.497 61.4054 70.697 62.0065L76.4928 83.9918C78.7507 92.5576 87.2141 99.2699 95.7542 99.2699C96.3257 99.2501 96.8954 99.3455 97.4292 99.5505C97.963 99.7556 98.4501 100.066 98.8614 100.463C99.2727 100.861 99.5998 101.337 99.8232 101.863C100.047 102.389 100.162 102.955 100.162 103.527C100.162 104.099 100.047 104.665 99.8232 105.191C99.5998 105.718 99.2727 106.194 98.8614 106.591C98.4501 106.988 97.963 107.299 97.4292 107.504C96.8954 107.709 96.3257 107.804 95.7542 107.784L95.744 107.795Z" fill="#6776FF"/>
<path d="M148.48 107.794C147.908 107.814 147.339 107.719 146.805 107.514C146.271 107.309 145.784 106.998 145.373 106.601C144.961 106.204 144.634 105.728 144.411 105.201C144.187 104.675 144.072 104.109 144.072 103.537C144.072 102.965 144.187 102.399 144.411 101.873C144.634 101.347 144.961 100.871 145.373 100.473C145.784 100.076 146.271 99.7656 146.805 99.5606C147.339 99.3556 147.908 99.2601 148.48 99.2799C157.02 99.2799 165.483 92.5676 167.741 84.0019L173.532 62.0166C173.732 61.4155 173.79 60.7762 173.701 60.149C173.612 59.5218 173.379 58.9238 173.02 58.4019C172.664 57.9711 172.211 57.6306 171.699 57.4081C171.186 57.1856 170.628 57.0876 170.071 57.1219H152.376C151.805 57.1417 151.235 57.0462 150.701 56.8412C150.167 56.6362 149.68 56.3258 149.269 55.9285C148.858 55.5312 148.531 55.0552 148.307 54.5288C148.084 54.0024 147.969 53.4364 147.969 52.8646C147.969 52.2927 148.084 51.7267 148.307 51.2004C148.531 50.674 148.858 50.1979 149.269 49.8007C149.68 49.4034 150.167 49.093 150.701 48.8879C151.235 48.6829 151.805 48.5875 152.376 48.6073H170.071C171.932 48.5757 173.776 48.9752 175.457 49.7746C177.139 50.574 178.612 51.7516 179.763 53.2153C180.92 54.7679 181.703 56.5671 182.049 58.4724C182.395 60.3776 182.296 62.3371 181.76 64.1977L175.969 86.1779C172.718 98.4966 160.896 107.794 148.48 107.794Z" fill="#6776FF"/>
<g opacity="0.2">
<path d="M96.1074 52.8673C96.1074 51.7384 95.6593 50.6556 94.8615 49.8569C94.0638 49.0582 92.9816 48.6088 91.8527 48.6074H77.0405L78.0645 57.122H91.8527C92.9811 57.122 94.0633 56.6737 94.8612 55.8758C95.6591 55.0779 96.1074 53.9957 96.1074 52.8673V52.8673Z" fill="black"/>
<path d="M95.7439 99.2801C90.926 99.2801 86.1388 97.1502 82.4678 93.7505L83.0668 98.7118C83.3313 100.918 83.7887 103.098 84.4339 105.224C87.9729 106.89 91.8326 107.764 95.7439 107.784C96.3154 107.804 96.8851 107.709 97.4189 107.504C97.9527 107.299 98.4398 106.988 98.8511 106.591C99.2624 106.194 99.5895 105.718 99.8129 105.191C100.036 104.665 100.151 104.099 100.151 103.527C100.151 102.955 100.036 102.389 99.8129 101.863C99.5895 101.337 99.2624 100.86 98.8511 100.463C98.4398 100.066 97.9527 99.7555 97.4189 99.5505C96.8851 99.3455 96.3154 99.25 95.7439 99.2698V99.2801Z" fill="black"/>
<path d="M144.215 103.54C144.216 104.668 144.665 105.749 145.463 106.547C146.26 107.345 147.342 107.793 148.47 107.795C152.383 107.774 156.244 106.901 159.785 105.235C160.43 103.108 160.887 100.929 161.152 98.722L161.746 93.7607C158.08 97.1604 153.293 99.2903 148.47 99.2903C147.342 99.2917 146.262 99.7397 145.464 100.536C144.667 101.333 144.218 102.413 144.215 103.54V103.54Z" fill="black"/>
<path d="M152.376 48.6074C151.273 48.6457 150.227 49.111 149.46 49.9052C148.693 50.6994 148.264 51.7605 148.264 52.8647C148.264 53.9689 148.693 55.03 149.46 55.8242C150.227 56.6184 151.273 57.0837 152.376 57.122H166.159L167.183 48.6074H152.376Z" fill="black"/>
</g>
<path d="M118.354 37.6199H114.729V38.1319H118.354V37.6199Z" fill="#6776FF"/>
<path d="M111.575 37.6199H98.5601V38.1319H111.575V37.6199Z" fill="#6776FF"/>
<path d="M122.112 128.92C113.201 128.92 104.616 125.567 98.0632 119.529C91.5103 113.49 87.4692 105.207 86.7428 96.3258L82.2935 41.8797C82.2673 41.5654 82.3066 41.2491 82.409 40.9507C82.5114 40.6524 82.6746 40.3786 82.8883 40.1466C83.102 39.9146 83.3615 39.7295 83.6504 39.6031C83.9394 39.4766 84.2514 39.4115 84.5668 39.4119H159.662C159.977 39.4123 160.289 39.4779 160.577 39.6046C160.866 39.7313 161.125 39.9164 161.339 40.1483C161.552 40.3801 161.715 40.6536 161.818 40.9516C161.921 41.2495 161.961 41.5656 161.935 41.8797L157.486 96.3258C156.758 105.208 152.716 113.491 146.162 119.529C139.609 125.568 131.023 128.92 122.112 128.92V128.92Z" fill="#6776FF"/>
<path opacity="0.1" d="M110.648 119.094C110.799 119.239 110.894 119.432 110.917 119.64C110.939 119.848 110.888 120.057 110.772 120.231C110.656 120.405 110.483 120.532 110.282 120.591C110.082 120.65 109.867 120.637 109.676 120.554C104.866 118.343 100.731 114.893 97.6952 110.557C94.6594 106.221 92.832 101.156 92.4006 95.8803L88.3661 46.5747C88.3513 46.3885 88.3751 46.2013 88.436 46.0248C88.4968 45.8483 88.5935 45.6862 88.7199 45.5487C88.8463 45.4113 88.9997 45.3014 89.1705 45.226C89.3414 45.1505 89.5259 45.1112 89.7126 45.1104H95.831C96.1719 45.1095 96.5005 45.2379 96.7504 45.4698C97.0003 45.7016 97.153 46.0196 97.1776 46.3596L101.105 98.0716C101.648 105.984 105.023 113.437 110.612 119.064L110.648 119.094Z" fill="white"/>
<path d="M140.349 164.202H103.879C103.65 164.201 103.423 164.15 103.215 164.052C103.007 163.954 102.824 163.812 102.677 163.635C102.531 163.458 102.425 163.251 102.367 163.029C102.309 162.806 102.301 162.574 102.343 162.348L103.485 156.281C103.757 154.835 104.526 153.53 105.658 152.59C106.79 151.651 108.214 151.136 109.685 151.135H134.543C136.014 151.136 137.439 151.651 138.571 152.59C139.703 153.53 140.471 154.835 140.743 156.281L141.885 162.348C141.927 162.574 141.919 162.806 141.861 163.029C141.804 163.251 141.698 163.458 141.551 163.635C141.405 163.812 141.221 163.954 141.013 164.052C140.806 164.15 140.579 164.201 140.349 164.202Z" fill="#6776FF"/>
<path opacity="0.2" d="M141.885 162.348H102.343C102.301 162.574 102.309 162.806 102.367 163.029C102.425 163.251 102.531 163.458 102.677 163.635C102.824 163.811 103.007 163.954 103.215 164.052C103.423 164.15 103.65 164.201 103.879 164.202H140.349C140.579 164.201 140.806 164.15 141.013 164.052C141.221 163.954 141.405 163.811 141.551 163.635C141.698 163.458 141.804 163.251 141.861 163.029C141.919 162.806 141.927 162.574 141.885 162.348Z" fill="black"/>
<path d="M151.603 164.202H92.6209C91.7613 164.202 91.0645 164.899 91.0645 165.758V188.573C91.0645 189.432 91.7613 190.129 92.6209 190.129H151.603C152.463 190.129 153.16 189.432 153.16 188.573V165.758C153.16 164.899 152.463 164.202 151.603 164.202Z" fill="#6776FF"/>
<path opacity="0.7" d="M151.603 164.202H92.6209C91.7613 164.202 91.0645 164.899 91.0645 165.758V188.573C91.0645 189.432 91.7613 190.129 92.6209 190.129H151.603C152.463 190.129 153.16 189.432 153.16 188.573V165.758C153.16 164.899 152.463 164.202 151.603 164.202Z" fill="white"/>
<path d="M71.6138 92.2195C70.2314 85.0515 81.8077 82.8909 87.0199 87.4631C92.1091 91.9277 89.457 95.8496 96.6966 94.672C103.936 93.4944 104.674 100.432 100.885 102.961C97.096 105.491 103.148 110.703 96.7427 112.945C88.817 115.725 81.3827 113.206 76.0374 110.57C70.6922 107.933 65.2598 95.4605 71.6138 92.2195Z" fill="#263238"/>
<path d="M94.751 135.796C94.751 135.796 119.537 149.405 118.242 158.006C115.077 177.391 114.99 187.656 114.99 187.656H111.519C111.519 187.656 108.227 168.262 109.983 158.36C107.822 153.921 81.2086 154.842 83.0108 135.775L94.751 135.796Z" fill="#263238"/>
<path opacity="0.2" d="M83.103 139.902C84.127 147.152 90.1021 150.751 96.1642 153.009C91.6842 147.935 86.5795 142.503 83.103 139.902Z" fill="black"/>
<path d="M115.287 187.011H111.232C111.147 187.008 111.063 187.038 110.999 187.094C110.934 187.15 110.893 187.228 110.884 187.313L110.474 190.641C110.472 190.744 110.49 190.847 110.527 190.943C110.565 191.039 110.622 191.126 110.694 191.199C110.766 191.273 110.852 191.331 110.947 191.371C111.042 191.41 111.144 191.43 111.248 191.43C113.029 191.399 113.889 191.302 116.142 191.302C117.525 191.302 118.369 191.445 120.284 191.445C122.199 191.445 122.204 189.612 121.395 189.443C117.811 188.691 117.299 188.276 116.06 187.293C115.842 187.115 115.569 187.015 115.287 187.011V187.011Z" fill="#263238"/>
<path d="M92.2933 109.259C93.3992 109.602 94.5665 109.971 95.7083 110.283C96.8501 110.595 98.0072 110.959 99.1541 111.246C100.301 111.532 101.453 111.809 102.584 112.024C103.143 112.121 103.711 112.229 104.254 112.29L104.663 112.346L105.057 112.377L105.447 112.408H105.513C105.513 112.408 105.462 112.444 105.482 112.449C105.503 112.454 105.559 112.418 105.641 112.305C105.856 111.967 106.011 111.595 106.102 111.205C106.358 110.141 106.502 109.053 106.532 107.959C106.593 106.801 106.583 105.614 106.532 104.426C106.481 103.238 106.409 102.014 106.317 100.842V100.801C106.3 100.525 106.384 100.253 106.554 100.036C106.724 99.8182 106.968 99.6709 107.24 99.6216C107.512 99.5723 107.792 99.6245 108.028 99.7683C108.263 99.912 108.438 100.137 108.519 100.401C109.234 102.848 109.701 105.361 109.911 107.902C110.033 109.268 109.992 110.643 109.788 111.998C109.659 112.818 109.395 113.61 109.005 114.343C108.744 114.818 108.397 115.24 107.981 115.587C107.494 115.992 106.916 116.271 106.296 116.401C106.148 116.432 105.989 116.458 105.846 116.473H105.626H104.397L103.885 116.447C103.204 116.417 102.559 116.335 101.904 116.253C100.613 116.084 99.3435 115.848 98.1198 115.567C95.6529 115.029 93.2201 114.345 90.8341 113.519C90.2918 113.311 89.8502 112.902 89.6007 112.378C89.3512 111.853 89.313 111.253 89.4939 110.701C89.6748 110.149 90.061 109.688 90.5726 109.413C91.0841 109.138 91.6819 109.07 92.2421 109.223L92.2933 109.259Z" fill="#803E3C"/>
<path d="M107.694 97.6416L104.714 99.6896C104.714 99.6896 104.929 100.053 105.482 100.939C106.035 101.825 106.957 102.367 107.791 101.809C109.865 100.77 107.694 97.6416 107.694 97.6416Z" fill="#7F3E3B"/>
<path d="M104.771 97.9285L105.421 97.1451C105.533 97.0089 105.675 96.8992 105.834 96.8238C105.994 96.7485 106.169 96.7095 106.345 96.7095C106.522 96.7095 106.696 96.7485 106.856 96.8238C107.016 96.8992 107.157 97.0089 107.269 97.1451L107.694 97.6571L104.714 99.7051L104.54 99.0395C104.484 98.8497 104.475 98.6489 104.516 98.455C104.556 98.2611 104.644 98.0802 104.771 97.9285Z" fill="#7F3E3B"/>
<path d="M95.7798 114.143C95.9846 117.876 95.6569 124.276 94.7558 135.796H76.631C76.9177 128.889 76.4928 126.319 72.4173 113.514C72.3196 113.205 72.2861 112.88 72.3188 112.559C72.3516 112.237 72.4499 111.926 72.6078 111.644C72.7657 111.362 72.9797 111.115 73.2366 110.919C73.4936 110.722 73.788 110.581 74.1017 110.503C75.7724 110.074 77.4643 109.732 79.1705 109.479C81.8584 109.046 84.5739 108.807 87.296 108.762C88.3609 108.762 89.472 108.808 90.5011 108.87C91.8756 108.946 93.1738 109.525 94.1476 110.498C95.1215 111.471 95.7026 112.769 95.7798 114.143V114.143Z" fill="#7F3E3B"/>
<path opacity="0.2" d="M74.4705 114.128C74.7459 115.942 74.6659 117.792 74.235 119.576C73.892 118.352 73.508 117.041 73.0728 115.608L74.4705 114.128Z" fill="black"/>
<path opacity="0.2" d="M86.728 117.835C86.728 116.115 84.4957 113.964 82.9341 113.611C84.0605 114.246 86.1597 116.499 86.728 117.835Z" fill="black"/>
<path d="M79.1606 100.279C79.903 102.839 80.84 107.59 79.1606 109.495C79.1606 109.495 80.113 112.085 84.9718 111.655C90.312 111.179 87.2861 108.778 87.2861 108.778C84.3114 108.337 84.2141 106.172 84.5213 104.093L79.1606 100.279Z" fill="#7F3E3B"/>
<path opacity="0.2" d="M81.3465 101.835L84.5209 104.093C84.4389 104.577 84.3995 105.067 84.4031 105.557C83.2716 105.491 81.6332 104.405 81.4131 103.248C81.3038 102.785 81.2812 102.306 81.3465 101.835V101.835Z" fill="black"/>
<path d="M75.0082 97.4367C77.1228 101.282 77.9369 102.956 80.8962 104.047C85.3506 105.68 89.6002 102.244 88.694 97.8412C87.8594 93.8783 84.5417 88.2515 79.9183 88.5075C78.8988 88.5595 77.9094 88.8713 77.0442 89.4132C76.179 89.9551 75.4666 90.7091 74.9747 91.6036C74.4827 92.4982 74.2276 93.5037 74.2335 94.5246C74.2394 95.5454 74.5061 96.5479 75.0082 97.4367Z" fill="#7F3E3B"/>
<path d="M73.5078 91.9278C75.2998 89.4805 78.1158 94.6926 78.4486 96.3362C78.7814 97.9797 78.0186 100.294 75.4586 100.11C72.8986 99.9253 71.5878 94.5544 73.5078 91.9278Z" fill="#263238"/>
<path d="M73.1445 91.2878C76.9436 93.1515 79.1503 92.066 80.6863 91.1035C82.2223 90.1409 87.6853 90.6785 86.4463 89.4395C85.2072 88.2004 83.2975 87.0945 80.1743 87.5809C77.0511 88.0673 73.1445 91.2878 73.1445 91.2878Z" fill="#263238"/>
<path d="M59.8631 186.591L55.7108 185.45C55.638 185.429 55.5603 185.436 55.4918 185.468C55.4233 185.5 55.3684 185.555 55.337 185.624L53.8522 188.824C53.8167 188.903 53.7988 188.99 53.7998 189.077C53.8009 189.164 53.8208 189.25 53.8583 189.329C53.8958 189.408 53.9499 189.478 54.0169 189.534C54.0839 189.59 54.1622 189.63 54.2465 189.653C55.7005 190.027 56.2945 189.576 57.9073 190.575C59.1207 191.322 60.7438 191.404 62.6177 191.404C64.1946 191.404 64.3738 189.761 63.6878 189.633C60.6158 189.059 60.9434 188.04 60.411 186.991C60.3517 186.89 60.2725 186.803 60.1783 186.734C60.0841 186.666 59.9768 186.617 59.8631 186.591V186.591Z" fill="#263238"/>
<path d="M89.7794 135.796C89.7794 135.796 87.1631 151.852 84.6594 164.918C84.2805 166.895 83.3845 168.897 81.6642 169.946C72.7349 175.399 59.5202 187.006 59.5202 187.006L55.6802 185.788C55.6802 185.788 68.1423 166.567 74.6242 165.697C74.6242 160.31 69.5042 146.594 76.6312 135.796H89.7794Z" fill="#263238"/>
<path d="M76.3906 135.11C76.2066 135.204 76.0661 135.366 75.9984 135.562C75.9307 135.757 75.9409 135.971 76.0271 136.159C76.2165 136.441 87.0965 136.743 89.9279 136.723C92.7592 136.702 95.8466 136.564 95.6674 136.057C95.4882 135.55 95.6008 134.685 95.2219 134.664C94.8431 134.644 77.5221 134.782 76.3906 135.11Z" fill="#6776FF"/>
<path d="M81.3158 95.8854C81.4694 96.208 81.7663 96.3974 81.9763 96.2899C82.1862 96.1824 82.2323 95.8496 82.0838 95.527C81.9353 95.2045 81.6332 95.015 81.4233 95.1225C81.2134 95.2301 81.1673 95.5424 81.3158 95.8854Z" fill="#263238"/>
<path d="M84.992 94.1652C85.1405 94.4878 85.4374 94.6772 85.6473 94.5697C85.8573 94.4622 85.9085 94.1242 85.7549 93.8017C85.6013 93.4791 85.3094 93.2897 85.0944 93.4023C84.8793 93.515 84.8128 93.8426 84.992 94.1652Z" fill="#263238"/>
<path d="M84.9922 93.4638L85.6629 92.875C85.6629 92.875 85.5451 93.6635 84.9922 93.4638Z" fill="#263238"/>
<path d="M84.2856 95.0562C84.9194 95.6617 85.6325 96.1785 86.4053 96.5922C86.2988 96.7844 86.1522 96.9515 85.9756 97.0822C85.7989 97.2129 85.5963 97.3042 85.3813 97.3499L84.2856 95.0562Z" fill="#630F0F"/>
<path d="M84.5314 99.2596C84.7064 99.211 84.8776 99.1494 85.0434 99.0753C85.0562 99.0693 85.0677 99.0608 85.0772 99.0503C85.0867 99.0398 85.094 99.0276 85.0987 99.0142C85.1035 99.0009 85.1056 98.9868 85.1049 98.9727C85.1042 98.9586 85.1007 98.9447 85.0946 98.9319C85.0886 98.9198 85.0803 98.9089 85.0701 98.9C85.0599 98.8911 85.048 98.8843 85.0351 98.88C85.0223 98.8757 85.0087 98.874 84.9951 98.875C84.9816 98.876 84.9684 98.8797 84.9564 98.8859C84.5596 99.0869 84.1211 99.1917 83.6764 99.1917C83.2316 99.1917 82.7931 99.0869 82.3964 98.8859C82.373 98.8719 82.3452 98.8673 82.3186 98.873C82.292 98.8787 82.2686 98.8943 82.253 98.9166C82.2387 98.9407 82.234 98.9693 82.2396 98.9968C82.2453 99.0242 82.261 99.0486 82.2837 99.0651C82.9777 99.4247 83.7859 99.4947 84.5314 99.2596V99.2596Z" fill="#263238"/>
<path d="M75.4076 101.174C76.0169 101.767 76.8364 102.093 77.686 102.081C78.8073 102.055 79.0479 100.97 78.4591 100.079C77.9471 99.28 76.7183 98.3226 75.7199 98.7783C75.504 98.8825 75.3174 99.0389 75.177 99.2334C75.0366 99.4278 74.9469 99.6541 74.9159 99.8919C74.8849 100.13 74.9136 100.371 74.9995 100.595C75.0853 100.819 75.2256 101.018 75.4076 101.174V101.174Z" fill="#7F3E3B"/>
<path d="M80.0102 95.4502C80.0522 95.4374 80.0891 95.4117 80.1157 95.3768C80.1424 95.3419 80.1574 95.2996 80.1587 95.2557C80.1843 94.288 81.2185 93.5866 81.2287 93.5814C81.2516 93.566 81.2713 93.5462 81.2865 93.5232C81.3017 93.5001 81.3122 93.4743 81.3175 93.4472C81.3227 93.4201 81.3225 93.3922 81.317 93.3652C81.3114 93.3381 81.3006 93.3124 81.2851 93.2896C81.2706 93.2663 81.2515 93.2463 81.2289 93.2307C81.2064 93.2151 81.1809 93.2043 81.154 93.1991C81.1271 93.1938 81.0994 93.1941 81.0726 93.2C81.0458 93.2059 81.0205 93.2172 80.9983 93.2333C80.9471 93.264 79.7696 94.0627 79.7388 95.2454C79.7382 95.273 79.7429 95.3004 79.7528 95.3262C79.7628 95.3519 79.7777 95.3754 79.7967 95.3954C79.8157 95.4154 79.8385 95.4314 79.8637 95.4425C79.8889 95.4537 79.9161 95.4598 79.9436 95.4605L80.0102 95.4502Z" fill="#263238"/>
<path d="M85.7702 91.5797C85.8044 91.5685 85.8353 91.5492 85.8603 91.5233C85.8853 91.4974 85.9036 91.4658 85.9135 91.4312C85.9204 91.4043 85.9219 91.3763 85.9179 91.3488C85.9139 91.3213 85.9044 91.2949 85.8902 91.2711C85.8759 91.2473 85.857 91.2266 85.8347 91.2101C85.8123 91.1936 85.7869 91.1818 85.7599 91.1752C85.4402 91.0834 85.103 91.0709 84.7774 91.1387C84.4518 91.2065 84.1476 91.3526 83.8911 91.5643C83.8716 91.5838 83.8561 91.6069 83.8456 91.6324C83.835 91.6579 83.8296 91.6852 83.8296 91.7128C83.8296 91.7404 83.835 91.7677 83.8456 91.7932C83.8561 91.8186 83.8716 91.8418 83.8911 91.8613C83.9103 91.8814 83.9333 91.8974 83.9588 91.9084C83.9843 91.9194 84.0118 91.925 84.0396 91.925C84.0674 91.925 84.0949 91.9194 84.1204 91.9084C84.1459 91.8974 84.1689 91.8814 84.1881 91.8613V91.8613C84.3953 91.6995 84.6377 91.5887 84.8956 91.538C85.1536 91.4873 85.4199 91.4981 85.6729 91.5694C85.704 91.5805 85.7374 91.584 85.7702 91.5797V91.5797Z" fill="#263238"/>
<path d="M75.9297 114.681C74.3374 116.432 72.7297 118.311 71.2603 120.19C70.523 121.132 69.8267 122.1 69.2123 123.067C68.5955 123.97 68.0707 124.932 67.6456 125.94C67.4883 126.302 67.3848 126.685 67.3384 127.076V127.215C67.3393 127.23 67.3393 127.245 67.3384 127.261L67.3793 127.425L67.4613 127.752L67.5841 128.131C67.9775 129.228 68.4287 130.303 68.9358 131.352C69.9598 133.543 71.1221 135.75 72.2331 137.951C72.3588 138.198 72.3895 138.481 72.3195 138.749C72.2495 139.016 72.0836 139.248 71.8535 139.401C71.6233 139.554 71.3449 139.618 71.0712 139.579C70.7976 139.54 70.5478 139.401 70.3694 139.19C68.7132 137.247 67.1891 135.194 65.8075 133.046C65.0761 131.93 64.4275 130.761 63.867 129.549L63.652 129.037C63.5854 128.858 63.524 128.664 63.4574 128.474L63.3653 128.193C63.3345 128.075 63.2987 127.911 63.2731 127.778C63.2342 127.515 63.212 127.25 63.2065 126.984C63.2204 126.13 63.3708 125.283 63.652 124.475C64.1259 123.152 64.7368 121.883 65.4747 120.687C66.1659 119.54 66.9134 118.47 67.6814 117.425C68.4494 116.381 69.243 115.377 70.0776 114.389C70.9121 113.401 71.7416 112.464 72.6683 111.507C72.8717 111.29 73.1157 111.116 73.3863 110.994C73.6569 110.873 73.9489 110.805 74.2456 110.796C74.5423 110.787 74.8378 110.837 75.1154 110.942C75.3929 111.047 75.647 111.206 75.8632 111.409C76.0794 111.613 76.2533 111.857 76.3752 112.127C76.4971 112.398 76.5645 112.69 76.5735 112.987C76.5825 113.283 76.533 113.579 76.4279 113.856C76.3227 114.134 76.1639 114.388 75.9605 114.604L75.9297 114.681Z" fill="#803E3C"/>
<path d="M81.3418 95.184L82.0074 94.5952C82.0074 94.5952 81.9204 95.3888 81.3418 95.184Z" fill="#263238"/>
<path d="M71.8185 137.393L76.2524 139.185L72.2741 141.29C72.2741 141.29 69.8985 139.728 70.0623 137.895L71.8185 137.393Z" fill="#7F3E3B"/>
<path d="M77.2096 142.821L75.2896 143.706C75.1134 143.787 74.9158 143.81 74.726 143.77C74.5361 143.73 74.364 143.631 74.2349 143.486L72.2739 141.29L76.2522 139.185L77.6141 141.551C77.6768 141.659 77.7162 141.78 77.7297 141.905C77.7432 142.029 77.7305 142.155 77.6924 142.275C77.6543 142.395 77.5917 142.505 77.5086 142.599C77.4255 142.693 77.3236 142.768 77.2096 142.821V142.821Z" fill="#7F3E3B"/>
<path d="M93.7267 111.706C93.0048 109.658 92.4109 109.034 92.4109 109.034C91.8283 108.823 91.2128 108.717 90.5933 108.721C91.3817 111.005 93.5014 116.473 85.8265 117.077C78.1517 117.681 75.392 109.95 75.392 109.95C74.0198 109.95 73.5078 110.437 73.5078 110.437C75.8579 116.069 78.2438 121.701 75.0438 123.508C75.5865 126.206 75.6736 129.652 75.5097 133.159C78.6176 132.534 91.0387 130.829 96.1894 131.49C96.1382 128.024 95.9795 125.069 95.7491 122.561C97.6742 120.154 94.8736 113.974 93.7267 111.706Z" fill="#6776FF"/>
<path opacity="0.8" d="M93.7267 111.706C93.0048 109.658 92.4109 109.034 92.4109 109.034C91.8283 108.823 91.2128 108.717 90.5933 108.721C91.3817 111.005 93.5014 116.473 85.8265 117.077C78.1517 117.681 75.392 109.95 75.392 109.95C74.0198 109.95 73.5078 110.437 73.5078 110.437C75.8579 116.069 78.2438 121.701 75.0438 123.508C75.5865 126.206 75.6736 129.652 75.5097 133.159C78.6176 132.534 91.0387 130.829 96.1894 131.49C96.1382 128.024 95.9795 125.069 95.7491 122.561C97.6742 120.154 94.8736 113.974 93.7267 111.706Z" fill="#FAFAFA"/>
</svg>
