<svg width="38" height="38" viewBox="0 0 38 38" fill="none" xmlns="http://www.w3.org/2000/svg">
<path d="M17.6984 7.0164C17.8436 6.80543 18.038 6.63294 18.2647 6.51378C18.4914 6.39461 18.7437 6.33235 18.9999 6.33235C19.256 6.33235 19.5083 6.39461 19.735 6.51378C19.9618 6.63294 20.1561 6.80543 20.3014 7.0164L34.5514 27.5997C34.7163 27.8371 34.813 28.1152 34.831 28.4037C34.849 28.6923 34.7876 28.9802 34.6535 29.2363C34.5193 29.4923 34.3175 29.7068 34.0701 29.8562C33.8226 30.0057 33.539 30.0844 33.2499 30.084H4.74987C4.46145 30.0828 4.17882 30.003 3.93236 29.8532C3.68591 29.7034 3.48495 29.4892 3.3511 29.2337C3.21726 28.9783 3.15559 28.6911 3.17273 28.4032C3.18986 28.1153 3.28516 27.8375 3.44837 27.5997L17.6984 7.0164Z" fill="#FFA319"/>
</svg>
