<svg width="44" height="44" viewBox="0 0 44 44" fill="none" xmlns="http://www.w3.org/2000/svg">
<path d="M20.4928 8.12351C20.661 7.87923 20.8861 7.6795 21.1486 7.54152C21.4111 7.40354 21.7032 7.33145 21.9998 7.33145C22.2964 7.33145 22.5885 7.40354 22.8511 7.54152C23.1136 7.6795 23.3386 7.87923 23.5068 8.12351L40.0068 31.9568C40.1978 32.2317 40.3098 32.5537 40.3307 32.8878C40.3515 33.2219 40.2804 33.5553 40.125 33.8518C39.9697 34.1483 39.7361 34.3966 39.4496 34.5696C39.163 34.7427 38.8346 34.8339 38.4998 34.8333H5.49982C5.16587 34.832 4.83861 34.7396 4.55324 34.5661C4.26787 34.3926 4.03518 34.1447 3.8802 33.8489C3.72522 33.553 3.65381 33.2206 3.67366 32.8872C3.6935 32.5538 3.80384 32.2322 3.99282 31.9568L20.4928 8.12351Z" fill="#6776FF"/>
</svg>
