<svg width="20" height="20" viewBox="0 0 20 20" fill="none" xmlns="http://www.w3.org/2000/svg">
<path d="M11.5412 9.94812L19.1912 2.29812C19.3632 2.09737 19.453 1.83914 19.4428 1.57504C19.4326 1.31093 19.3231 1.0604 19.1362 0.873515C18.9493 0.686626 18.6988 0.577141 18.4347 0.56694C18.1706 0.556739 17.9124 0.646573 17.7116 0.818489L10.0616 8.46849L2.41162 0.807995C2.21087 0.636078 1.95264 0.546245 1.68854 0.556447C1.42443 0.566648 1.1739 0.676132 0.987013 0.863021C0.800124 1.04991 0.690639 1.30044 0.680438 1.56454C0.670236 1.82865 0.76007 2.08688 0.931987 2.28762L8.58199 9.94812L0.921493 17.5981C0.811642 17.6922 0.722423 17.808 0.659435 17.9382C0.596448 18.0683 0.561052 18.2101 0.555469 18.3547C0.549887 18.4992 0.574239 18.6433 0.626996 18.778C0.679754 18.9126 0.759778 19.0349 0.862045 19.1372C0.964312 19.2395 1.08662 19.3195 1.22128 19.3722C1.35594 19.425 1.50005 19.4494 1.64457 19.4438C1.78909 19.4382 1.9309 19.4028 2.06109 19.3398C2.19128 19.2768 2.30705 19.1876 2.40112 19.0777L10.0616 11.4277L17.7116 19.0777C17.9124 19.2497 18.1706 19.3395 18.4347 19.3293C18.6988 19.3191 18.9493 19.2096 19.1362 19.0227C19.3231 18.8358 19.4326 18.5853 19.4428 18.3212C19.453 18.0571 19.3632 17.7989 19.1912 17.5981L11.5412 9.94812Z" fill="#F40000" stroke="#F40000"/>
</svg>
